<?xml version="1.0" encoding="utf-8"?>
<!-- Generator: Adobe Illustrator 18.0.0, SVG Export Plug-In . SVG Version: 6.00 Build 0)  -->
<!DOCTYPE svg PUBLIC "-//W3C//DTD SVG 1.1//EN" "http://www.w3.org/Graphics/SVG/1.1/DTD/svg11.dtd">
<svg version="1.1" id="Vrstva_1" xmlns="http://www.w3.org/2000/svg" xmlns:xlink="http://www.w3.org/1999/xlink" x="0px" y="0px"
	 viewBox="0 0 154 406" enable-background="new 0 0 154 406" xml:space="preserve">
<linearGradient id="SVGID_1_" gradientUnits="userSpaceOnUse" x1="-58.1516" y1="281.0298" x2="212.1516" y2="124.9702">
	<stop  offset="0.4235" style="stop-color:#3F3F3F"/>
	<stop  offset="0.4235" style="stop-color:#303031"/>
</linearGradient>
<path fill="url(#SVGID_1_)" d="M14,0v406h126V0H14z M42.5,30.1c-5.5,0-9.9-4.4-9.9-9.8c0-5.4,4.4-9.8,9.9-9.8s9.9,4.4,9.9,9.8
	C52.4,25.8,48,30.1,42.5,30.1z"/>
<rect y="386" fill="#DDDDDD" width="14" height="14"/>
<rect y="366" fill="#DDDDDD" width="14" height="14"/>
<rect y="346" fill="#DDDDDD" width="14" height="14"/>
<rect y="326" fill="#DDDDDD" width="14" height="14"/>
<rect y="306" fill="#DDDDDD" width="14" height="14"/>
<rect y="286" fill="#DDDDDD" width="14" height="14"/>
<rect y="266" fill="#DDDDDD" width="14" height="14"/>
<rect y="246" fill="#DDDDDD" width="14" height="14"/>
<rect y="206" fill="#DDDDDD" width="14" height="14"/>
<rect y="186" fill="#DDDDDD" width="14" height="14"/>
<rect y="146" fill="#DDDDDD" width="14" height="14"/>
<rect y="86" fill="#DDDDDD" width="14" height="14"/>
<rect y="126" fill="#DDDDDD" width="14" height="14"/>
<rect y="106" fill="#DDDDDD" width="14" height="14"/>
<rect y="46" fill="#DDDDDD" width="14" height="14"/>
<rect y="166" fill="#DDDDDD" width="14" height="14"/>
<rect y="26" fill="#DDDDDD" width="14" height="14"/>
<rect y="226" fill="#DDDDDD" width="14" height="14"/>
<rect y="66" fill="#DDDDDD" width="14" height="14"/>
<rect y="6" fill="#DDDDDD" width="14" height="14"/>
<rect x="140" y="386" fill="#DDDDDD" width="14" height="14"/>
<rect x="140" y="366" fill="#DDDDDD" width="14" height="14"/>
<rect x="140" y="346" fill="#DDDDDD" width="14" height="14"/>
<rect x="140" y="326" fill="#DDDDDD" width="14" height="14"/>
<rect x="140" y="306" fill="#DDDDDD" width="14" height="14"/>
<rect x="140" y="286" fill="#DDDDDD" width="14" height="14"/>
<rect x="140" y="266" fill="#DDDDDD" width="14" height="14"/>
<rect x="140" y="246" fill="#DDDDDD" width="14" height="14"/>
<rect x="140" y="206" fill="#DDDDDD" width="14" height="14"/>
<rect x="140" y="186" fill="#DDDDDD" width="14" height="14"/>
<rect x="140" y="146" fill="#DDDDDD" width="14" height="14"/>
<rect x="140" y="86" fill="#DDDDDD" width="14" height="14"/>
<rect x="140" y="126" fill="#DDDDDD" width="14" height="14"/>
<rect x="140" y="106" fill="#DDDDDD" width="14" height="14"/>
<rect x="140" y="46" fill="#DDDDDD" width="14" height="14"/>
<rect x="140" y="166" fill="#DDDDDD" width="14" height="14"/>
<rect x="140" y="26" fill="#DDDDDD" width="14" height="14"/>
<rect x="140" y="226" fill="#DDDDDD" width="14" height="14"/>
<rect x="140" y="66" fill="#DDDDDD" width="14" height="14"/>
<rect x="140" y="6" fill="#DDDDDD" width="14" height="14"/>
</svg>
