<?xml version="1.0" encoding="utf-8"?>
<!-- Generator: Adobe Illustrator 18.0.0, SVG Export Plug-In . SVG Version: 6.00 Build 0)  -->
<!DOCTYPE svg PUBLIC "-//W3C//DTD SVG 1.1//EN" "http://www.w3.org/Graphics/SVG/1.1/DTD/svg11.dtd">
<svg version="1.1" id="border" xmlns="http://www.w3.org/2000/svg" xmlns:xlink="http://www.w3.org/1999/xlink" x="0px" y="0px"
	 viewBox="0 0 200 150" enable-background="new 0 0 200 150" xml:space="preserve">
<polygon display="none" fill="#ED1673" points="150,72.3 50,20 50.2,28.9 138.5,74.9 50.2,121.1 50.2,130 150,77.9 "/>
<rect x="188" y="0" fill="#FFFFFF" width="12" height="150"/>
<rect x="7" y="138" fill="#FFFFFF" width="186" height="12"/>
<rect x="6" y="0" fill="#FFFFFF" width="186" height="12"/>
<rect x="0" y="0.1" fill="#FFFFFF" width="12" height="150"/>
<rect x="59" y="31.5" display="none" fill="#3B4DA1" width="12.2" height="14.2"/>
<rect x="59" y="104.4" display="none" fill="#3B4DA1" width="12.2" height="14.2"/>
<rect x="128.8" y="68" display="none" fill="#3B4DA1" width="12.2" height="14.2"/>
<rect x="116.8" y="69" display="none" fill="#3B4DA1" width="12" height="12"/>
<polygon display="none" fill="#854C9E" points="71.2,45.7 71.2,36.8 128.8,70.5 128.8,79.4 71.2,113.2 71.2,104.3 123.6,75 "/>
<polygon fill="#FFFFFF" points="71.2,31.5 128.8,68 128.8,82.1 71.2,118.6 71.2,104.3 119.8,75 71.2,45.7 "/>
</svg>
