<?xml version="1.0" encoding="utf-8"?>
<!-- Generator: Adobe Illustrator 18.0.0, SVG Export Plug-In . SVG Version: 6.00 Build 0)  -->
<!DOCTYPE svg PUBLIC "-//W3C//DTD SVG 1.1//EN" "http://www.w3.org/Graphics/SVG/1.1/DTD/svg11.dtd">
<svg version="1.1" id="Vrstva_1" xmlns="http://www.w3.org/2000/svg" xmlns:xlink="http://www.w3.org/1999/xlink" x="0px" y="0px"
	 viewBox="0 0 154 406" enable-background="new 0 0 154 406" xml:space="preserve">
<rect y="386" fill="#DFDFDF" width="14" height="14"/>
<rect y="366" fill="#DFDFDF" width="14" height="14"/>
<rect y="346" fill="#DFDFDF" width="14" height="14"/>
<rect y="326" fill="#DFDFDF" width="14" height="14"/>
<rect y="306" fill="#DFDFDF" width="14" height="14"/>
<rect y="286" fill="#DFDFDF" width="14" height="14"/>
<rect y="266" fill="#DFDFDF" width="14" height="14"/>
<rect y="246" fill="#DFDFDF" width="14" height="14"/>
<rect y="206" fill="#DFDFDF" width="14" height="14"/>
<rect y="186" fill="#DFDFDF" width="14" height="14"/>
<rect y="146" fill="#DFDFDF" width="14" height="14"/>
<rect y="86" fill="#DFDFDF" width="14" height="14"/>
<rect y="126" fill="#DFDFDF" width="14" height="14"/>
<rect y="106" fill="#DFDFDF" width="14" height="14"/>
<rect y="46" fill="#DFDFDF" width="14" height="14"/>
<rect y="166" fill="#DFDFDF" width="14" height="14"/>
<rect y="26" fill="#DFDFDF" width="14" height="14"/>
<rect y="226" fill="#DFDFDF" width="14" height="14"/>
<rect y="66" fill="#DFDFDF" width="14" height="14"/>
<rect y="6" fill="#DFDFDF" width="14" height="14"/>
<rect x="140" y="386" fill="#DFDFDF" width="14" height="14"/>
<rect x="140" y="366" fill="#DFDFDF" width="14" height="14"/>
<rect x="140" y="346" fill="#DFDFDF" width="14" height="14"/>
<rect x="140" y="326" fill="#DFDFDF" width="14" height="14"/>
<rect x="140" y="306" fill="#DFDFDF" width="14" height="14"/>
<rect x="140" y="286" fill="#DFDFDF" width="14" height="14"/>
<rect x="140" y="266" fill="#DFDFDF" width="14" height="14"/>
<rect x="140" y="246" fill="#DFDFDF" width="14" height="14"/>
<rect x="140" y="206" fill="#DFDFDF" width="14" height="14"/>
<rect x="140" y="186" fill="#DFDFDF" width="14" height="14"/>
<rect x="140" y="146" fill="#DFDFDF" width="14" height="14"/>
<rect x="140" y="86" fill="#DFDFDF" width="14" height="14"/>
<rect x="140" y="126" fill="#DFDFDF" width="14" height="14"/>
<rect x="140" y="106" fill="#DFDFDF" width="14" height="14"/>
<rect x="140" y="46" fill="#DFDFDF" width="14" height="14"/>
<rect x="140" y="166" fill="#DFDFDF" width="14" height="14"/>
<rect x="140" y="26" fill="#DFDFDF" width="14" height="14"/>
<rect x="140" y="226" fill="#DFDFDF" width="14" height="14"/>
<rect x="140" y="66" fill="#DFDFDF" width="14" height="14"/>
<rect x="140" y="6" fill="#DFDFDF" width="14" height="14"/>
<path fill="#313132" d="M99.8,0c0,12.6-10.2,22.8-22.8,22.8C64.4,22.8,54.3,12.6,54.3,0H14v406h126V0H99.8z"/>
<path fill="#313132" d="M125.1,206.5l-44.5,44.5c-1.9,1.9-5.1,1.9-7.1,0l-44.5-44.5c-1.9-1.9-1.9-5.1,0-7.1l44.5-44.5
	c1.9-1.9,5.1-1.9,7.1,0l44.5,44.5C127,201.4,127,204.6,125.1,206.5z"/>
<rect x="26.1" y="185.1" transform="matrix(0.7071 -0.7071 0.7071 0.7071 -127.4285 75.6152)" fill="#DFDFDF" width="3" height="13"/>
<rect x="30.3" y="180.9" transform="matrix(0.7071 -0.7071 0.7071 0.7071 -123.1774 77.3761)" fill="#DFDFDF" width="3" height="13"/>
<rect x="34.6" y="176.6" transform="matrix(0.7071 -0.7071 0.7071 0.7071 -118.9263 79.1369)" fill="#DFDFDF" width="3" height="13"/>
<rect x="38.8" y="172.4" transform="matrix(0.7071 -0.7071 0.7071 0.7071 -114.6753 80.8978)" fill="#DFDFDF" width="3" height="13"/>
<rect x="43" y="168.2" transform="matrix(0.7071 -0.7071 0.7071 0.7071 -110.4663 82.6412)" fill="#DFDFDF" width="3" height="13"/>
<rect x="47.3" y="163.9" transform="matrix(0.7071 -0.7071 0.7071 0.7071 -106.2152 84.4021)" fill="#DFDFDF" width="3" height="13"/>
<rect x="51.5" y="159.7" transform="matrix(0.7071 -0.7071 0.7071 0.7071 -101.9642 86.1629)" fill="#DFDFDF" width="3" height="13"/>
<rect x="55.8" y="155.4" transform="matrix(0.7071 -0.7071 0.7071 0.7071 -97.7131 87.9237)" fill="#DFDFDF" width="3" height="13"/>
<rect x="60" y="151.2" transform="matrix(0.7071 -0.7071 0.7071 0.7071 -93.4621 89.6846)" fill="#DFDFDF" width="3" height="13"/>
<rect x="64.3" y="146.9" transform="matrix(0.7071 -0.7071 0.7071 0.7071 -89.211 91.4454)" fill="#DFDFDF" width="3" height="13"/>
<rect x="86.8" y="246" transform="matrix(0.7071 -0.7071 0.7071 0.7071 -152.6888 136.3968)" fill="#DFDFDF" width="3" height="13"/>
<rect x="91.1" y="241.8" transform="matrix(0.7071 -0.7071 0.7071 0.7071 -148.4378 138.1577)" fill="#DFDFDF" width="3" height="13"/>
<rect x="95.3" y="237.5" transform="matrix(0.7071 -0.7071 0.7071 0.7071 -144.1867 139.9185)" fill="#DFDFDF" width="3" height="13"/>
<rect x="99.6" y="233.3" transform="matrix(0.7071 -0.7071 0.7071 0.7071 -139.9356 141.6793)" fill="#DFDFDF" width="3" height="13"/>
<rect x="103.8" y="229" transform="matrix(0.7071 -0.7071 0.7071 0.7071 -135.7267 143.4228)" fill="#DFDFDF" width="3" height="13"/>
<rect x="108" y="224.8" transform="matrix(0.7071 -0.7071 0.7071 0.7071 -131.4756 145.1836)" fill="#DFDFDF" width="3" height="13"/>
<rect x="112.3" y="220.5" transform="matrix(0.7071 -0.7071 0.7071 0.7071 -127.2246 146.9444)" fill="#DFDFDF" width="3" height="13"/>
<rect x="116.5" y="216.3" transform="matrix(0.7071 -0.7071 0.7071 0.7071 -122.9735 148.7053)" fill="#DFDFDF" width="3" height="13"/>
<rect x="120.8" y="212" transform="matrix(0.7071 -0.7071 0.7071 0.7071 -118.7224 150.4661)" fill="#DFDFDF" width="3" height="13"/>
<rect x="125" y="207.8" transform="matrix(0.7071 -0.7071 0.7071 0.7071 -114.4714 152.227)" fill="#DFDFDF" width="3" height="13"/>
<rect x="63.5" y="245.3" transform="matrix(-0.7071 -0.7071 0.7071 -0.7071 -67.0994 475.8209)" fill="#DFDFDF" width="3" height="13"/>
<rect x="59.2" y="241.1" transform="matrix(-0.7071 -0.7071 0.7071 -0.7071 -71.3505 465.558)" fill="#DFDFDF" width="3" height="13"/>
<rect x="55" y="236.8" transform="matrix(-0.7071 -0.7071 0.7071 -0.7071 -75.6015 455.295)" fill="#DFDFDF" width="3" height="13"/>
<rect x="50.7" y="232.6" transform="matrix(-0.7071 -0.7071 0.7071 -0.7071 -79.8526 445.032)" fill="#DFDFDF" width="3" height="13"/>
<rect x="46.5" y="228.3" transform="matrix(-0.7071 -0.7071 0.7071 -0.7071 -84.0616 434.8707)" fill="#DFDFDF" width="3" height="13"/>
<rect x="42.3" y="224.1" transform="matrix(-0.7071 -0.7071 0.7071 -0.7071 -88.3126 424.6077)" fill="#DFDFDF" width="3" height="13"/>
<rect x="38" y="219.8" transform="matrix(-0.7071 -0.7071 0.7071 -0.7071 -92.5637 414.3448)" fill="#DFDFDF" width="3" height="13"/>
<rect x="33.8" y="215.6" transform="matrix(-0.7071 -0.7071 0.7071 -0.7071 -96.8148 404.0818)" fill="#DFDFDF" width="3" height="13"/>
<rect x="29.5" y="211.3" transform="matrix(-0.7071 -0.7071 0.7071 -0.7071 -101.0658 393.8188)" fill="#DFDFDF" width="3" height="13"/>
<rect x="25.3" y="207.1" transform="matrix(-0.7071 -0.7071 0.7071 -0.7071 -105.3169 383.5559)" fill="#DFDFDF" width="3" height="13"/>
<rect x="124.4" y="184.6" transform="matrix(-0.7071 -0.7071 0.7071 -0.7071 79.7833 415.1825)" fill="#DFDFDF" width="3" height="13"/>
<rect x="120.1" y="180.3" transform="matrix(-0.7071 -0.7071 0.7071 -0.7071 75.5322 404.9195)" fill="#DFDFDF" width="3" height="13"/>
<rect x="115.9" y="176.1" transform="matrix(-0.7071 -0.7071 0.7071 -0.7071 71.2812 394.6566)" fill="#DFDFDF" width="3" height="13"/>
<rect x="111.6" y="171.8" transform="matrix(-0.7071 -0.7071 0.7071 -0.7071 67.0301 384.3936)" fill="#DFDFDF" width="3" height="13"/>
<rect x="107.4" y="167.6" transform="matrix(-0.7071 -0.7071 0.7071 -0.7071 62.8212 374.2322)" fill="#DFDFDF" width="3" height="13"/>
<rect x="103.2" y="163.4" transform="matrix(-0.7071 -0.7071 0.7071 -0.7071 58.5701 363.9693)" fill="#DFDFDF" width="3" height="13"/>
<rect x="98.9" y="159.1" transform="matrix(-0.7071 -0.7071 0.7071 -0.7071 54.3191 353.7063)" fill="#DFDFDF" width="3" height="13"/>
<rect x="94.7" y="154.9" transform="matrix(-0.7071 -0.7071 0.7071 -0.7071 50.068 343.4433)" fill="#DFDFDF" width="3" height="13"/>
<rect x="90.4" y="150.6" transform="matrix(-0.7071 -0.7071 0.7071 -0.7071 45.8169 333.1804)" fill="#DFDFDF" width="3" height="13"/>
<rect x="86.2" y="146.4" transform="matrix(-0.7071 -0.7071 0.7071 -0.7071 41.5659 322.9174)" fill="#DFDFDF" width="3" height="13"/>
<polyline fill="none" stroke="#3C9CD6" stroke-miterlimit="10" points="14.4,33 57.6,77 57.6,153.4 "/>
<polyline fill="none" stroke="#3C9CD6" stroke-miterlimit="10" points="14.4,193 21.7,185.6 23.2,187.1 "/>
<polyline fill="none" stroke="#3C9CD6" stroke-miterlimit="10" points="14.4,13 61.6,60.6 61.6,148.7 "/>
<polyline fill="none" stroke="#3C9CD6" stroke-miterlimit="10" points="14.4,53 53.4,92 53.4,156.3 "/>
<polyline fill="none" stroke="#3C9CD6" stroke-miterlimit="10" points="14.4,73 49.2,107.8 49.2,160.5 "/>
<polyline fill="none" stroke="#3C9CD6" stroke-miterlimit="10" points="14.4,93 45.3,123.9 45.3,164.8 "/>
<polyline fill="none" stroke="#3C9CD6" stroke-miterlimit="10" points="14.4,113 41,139.7 41,169 "/>
<polyline fill="none" stroke="#3C9CD6" stroke-miterlimit="10" points="14.4,133 37.3,156 37.3,173.2 "/>
<polyline fill="none" stroke="#3C9CD6" stroke-miterlimit="10" points="14.4,153.5 32.2,171.3 32.2,178.2 "/>
<polyline fill="none" stroke="#3C9CD6" stroke-miterlimit="10" points="14.4,172.7 23.3,181.6 28.6,181.6 "/>
<polyline fill="none" stroke="#3C9CD6" stroke-miterlimit="10" points="14.4,373 57.6,329 57.6,252.6 "/>
<polyline fill="none" stroke="#3C9CD6" stroke-miterlimit="10" points="14.4,213 21.7,220.4 23.2,218.9 "/>
<polyline fill="none" stroke="#3C9CD6" stroke-miterlimit="10" points="14.4,393 61.6,345.4 61.6,257.3 "/>
<polyline fill="none" stroke="#3C9CD6" stroke-miterlimit="10" points="14.4,353 53.4,314 53.4,249.7 "/>
<polyline fill="none" stroke="#3C9CD6" stroke-miterlimit="10" points="14.4,333 49.2,298.2 49.2,245.5 "/>
<polyline fill="none" stroke="#3C9CD6" stroke-miterlimit="10" points="14.4,313 45.3,282.1 45.3,241.2 "/>
<polyline fill="none" stroke="#3C9CD6" stroke-miterlimit="10" points="14.4,293 41,266.3 41,237 "/>
<polyline fill="none" stroke="#3C9CD6" stroke-miterlimit="10" points="14.4,273 37.3,250 37.3,232.8 "/>
<polyline fill="none" stroke="#3C9CD6" stroke-miterlimit="10" points="14.4,252.5 32.2,234.7 32.2,227.8 "/>
<polyline fill="none" stroke="#3C9CD6" stroke-miterlimit="10" points="14.4,233.3 23.3,224.4 28.6,224.4 "/>
<polyline fill="none" stroke="#3C9CD6" stroke-miterlimit="10" points="139.6,33 96.4,77 96.4,153.4 "/>
<polyline fill="none" stroke="#3C9CD6" stroke-miterlimit="10" points="139.6,193 132.3,185.6 130.8,187.1 "/>
<polyline fill="none" stroke="#3C9CD6" stroke-miterlimit="10" points="139.6,13 92.4,60.6 92.4,148.7 "/>
<polyline fill="none" stroke="#3C9CD6" stroke-miterlimit="10" points="139.6,53 100.6,92 100.6,156.3 "/>
<polyline fill="none" stroke="#3C9CD6" stroke-miterlimit="10" points="139.6,73 104.8,107.8 104.8,160.5 "/>
<polyline fill="none" stroke="#3C9CD6" stroke-miterlimit="10" points="139.6,93 108.7,123.9 108.7,164.8 "/>
<polyline fill="none" stroke="#3C9CD6" stroke-miterlimit="10" points="139.6,113 113,139.7 113,169 "/>
<polyline fill="none" stroke="#3C9CD6" stroke-miterlimit="10" points="139.6,133 116.7,156 116.7,173.2 "/>
<polyline fill="none" stroke="#3C9CD6" stroke-miterlimit="10" points="139.6,153.5 121.8,171.3 121.8,178.2 "/>
<polyline fill="none" stroke="#3C9CD6" stroke-miterlimit="10" points="139.6,172.7 130.7,181.6 125.4,181.6 "/>
<polyline fill="none" stroke="#3C9CD6" stroke-miterlimit="10" points="139.6,373 96.4,329 96.4,252.6 "/>
<polyline fill="none" stroke="#3C9CD6" stroke-miterlimit="10" points="139.6,213 132.3,220.4 130.8,218.9 "/>
<polyline fill="none" stroke="#3C9CD6" stroke-miterlimit="10" points="139.6,393 92.4,345.4 92.4,257.3 "/>
<polyline fill="none" stroke="#3C9CD6" stroke-miterlimit="10" points="139.6,353 100.6,314 100.6,249.7 "/>
<polyline fill="none" stroke="#3C9CD6" stroke-miterlimit="10" points="139.6,333 104.8,298.2 104.8,245.5 "/>
<polyline fill="none" stroke="#3C9CD6" stroke-miterlimit="10" points="139.6,313 108.7,282.1 108.7,241.2 "/>
<polyline fill="none" stroke="#3C9CD6" stroke-miterlimit="10" points="139.6,293 113,266.3 113,237 "/>
<polyline fill="none" stroke="#3C9CD6" stroke-miterlimit="10" points="139.6,273 116.7,250 116.7,232.8 "/>
<polyline fill="none" stroke="#3C9CD6" stroke-miterlimit="10" points="139.6,252.5 121.8,234.7 121.8,227.8 "/>
<polyline fill="none" stroke="#3C9CD6" stroke-miterlimit="10" points="139.6,233.3 130.7,224.4 125.4,224.4 "/>
</svg>
