<?xml version="1.0" encoding="utf-8"?>
<!-- Generator: Adobe Illustrator 18.0.0, SVG Export Plug-In . SVG Version: 6.00 Build 0)  -->
<!DOCTYPE svg PUBLIC "-//W3C//DTD SVG 1.1//EN" "http://www.w3.org/Graphics/SVG/1.1/DTD/svg11.dtd">
<svg version="1.1" xmlns="http://www.w3.org/2000/svg" xmlns:xlink="http://www.w3.org/1999/xlink" x="0px" y="0px"
	 viewBox="0 0 131.3 434" enable-background="new 0 0 131.3 434" xml:space="preserve">
<g id="nove">
	<g id="stare">
		<g id="pady">
			<rect x="-0.1" y="399.9" fill="#D7D9D8" width="10" height="14"/>
			<rect x="-0.1" y="379.9" fill="#D7D9D8" width="10" height="14"/>
			<rect x="-0.1" y="359.9" fill="#D7D9D8" width="10" height="14"/>
			<rect x="-0.1" y="339.9" fill="#D7D9D8" width="10" height="14"/>
			<rect x="-0.1" y="319.9" fill="#D7D9D8" width="10" height="14"/>
			<rect x="-0.1" y="299.9" fill="#D7D9D8" width="10" height="14"/>
			<rect x="-0.1" y="279.9" fill="#D7D9D8" width="10" height="14"/>
			<rect x="-0.1" y="259.9" fill="#D7D9D8" width="10" height="14"/>
			<rect x="-0.1" y="219.9" fill="#D7D9D8" width="10" height="14"/>
			<rect x="-0.1" y="199.9" fill="#D7D9D8" width="10" height="14"/>
			<rect x="-0.1" y="159.9" fill="#D7D9D8" width="10" height="14"/>
			<rect x="-0.1" y="99.9" fill="#D7D9D8" width="10" height="14"/>
			<rect x="-0.1" y="139.9" fill="#D7D9D8" width="10" height="14"/>
			<rect x="-0.1" y="119.9" fill="#D7D9D8" width="10" height="14"/>
			<rect x="-0.1" y="59.9" fill="#D7D9D8" width="10" height="14"/>
			<rect x="-0.1" y="179.9" fill="#D7D9D8" width="10" height="14"/>
			<rect x="-0.1" y="39.9" fill="#D7D9D8" width="10" height="14"/>
			<rect x="-0.1" y="239.9" fill="#D7D9D8" width="10" height="14"/>
			<rect x="-0.1" y="79.9" fill="#D7D9D8" width="10" height="14"/>
			<rect x="-0.1" y="19.9" fill="#D7D9D8" width="10" height="14"/>
			<rect x="121.3" y="400" fill="#D7D9D8" width="10" height="14"/>
			<rect x="121.3" y="380" fill="#D7D9D8" width="10" height="14"/>
			<rect x="121.3" y="360" fill="#D7D9D8" width="10" height="14"/>
			<rect x="121.3" y="340" fill="#D7D9D8" width="10" height="14"/>
			<rect x="121.3" y="320" fill="#D7D9D8" width="10" height="14"/>
			<rect x="121.3" y="300" fill="#D7D9D8" width="10" height="14"/>
			<rect x="121.3" y="280" fill="#D7D9D8" width="10" height="14"/>
			<rect x="121.3" y="260" fill="#D7D9D8" width="10" height="14"/>
			<rect x="121.3" y="220" fill="#D7D9D8" width="10" height="14"/>
			<rect x="121.3" y="200" fill="#D7D9D8" width="10" height="14"/>
			<rect x="121.3" y="160" fill="#D7D9D8" width="10" height="14"/>
			<rect x="121.3" y="100" fill="#D7D9D8" width="10" height="14"/>
			<rect x="121.3" y="140" fill="#D7D9D8" width="10" height="14"/>
			<rect x="121.3" y="120" fill="#D7D9D8" width="10" height="14"/>
			<rect x="121.3" y="60" fill="#D7D9D8" width="10" height="14"/>
			<rect x="121.3" y="180" fill="#D7D9D8" width="10" height="14"/>
			<rect x="121.3" y="40" fill="#D7D9D8" width="10" height="14"/>
			<rect x="121.3" y="240" fill="#D7D9D8" width="10" height="14"/>
			<rect x="121.3" y="80" fill="#D7D9D8" width="10" height="14"/>
			<rect x="121.3" y="20" fill="#D7D9D8" width="10" height="14"/>
		</g>
		<g id="pomocné" display="none">
			<rect x="2.9" y="413.9" display="inline" fill="#8953A1" width="14" height="6"/>
			<rect x="2.9" y="393.9" display="inline" fill="#8953A1" width="14" height="6"/>
			<rect x="2.9" y="373.9" display="inline" fill="#8953A1" width="14" height="6"/>
			<rect x="2.9" y="353.9" display="inline" fill="#8953A1" width="14" height="6"/>
			<rect x="2.9" y="333.9" display="inline" fill="#8953A1" width="14" height="6"/>
			<rect x="2.9" y="313.9" display="inline" fill="#8953A1" width="14" height="6"/>
			<rect x="2.9" y="293.9" display="inline" fill="#8953A1" width="14" height="6"/>
			<rect x="2.9" y="273.9" display="inline" fill="#8953A1" width="14" height="6"/>
			<rect x="2.9" y="253.9" display="inline" fill="#8953A1" width="14" height="6"/>
			<rect x="2.9" y="233.9" display="inline" fill="#8953A1" width="14" height="6"/>
			<rect x="2.9" y="213.9" display="inline" fill="#8953A1" width="14" height="6"/>
			<rect x="2.9" y="193.9" display="inline" fill="#8953A1" width="14" height="6"/>
			<rect x="2.9" y="173.9" display="inline" fill="#8953A1" width="14" height="6"/>
			<rect x="2.9" y="153.9" display="inline" fill="#8953A1" width="14" height="6"/>
			<rect x="2.9" y="133.9" display="inline" fill="#8953A1" width="14" height="6"/>
			<rect x="2.9" y="113.9" display="inline" fill="#8953A1" width="14" height="6"/>
			<rect x="2.9" y="93.9" display="inline" fill="#8953A1" width="14" height="6"/>
			<rect x="2.9" y="73.9" display="inline" fill="#8953A1" width="14" height="6"/>
			<rect x="2.9" y="53.9" display="inline" fill="#8953A1" width="14" height="6"/>
			<rect x="2.9" y="33.9" display="inline" fill="#8953A1" width="14" height="6"/>
			<rect x="2.9" y="13.9" display="inline" fill="#8953A1" width="14" height="6"/>
		</g>
		<g id="body" display="none">
			<linearGradient id="SVGID_1_" gradientUnits="userSpaceOnUse" x1="-41.4561" y1="251.8423" x2="187.2894" y2="181.9077">
				<stop  offset="0.5" style="stop-color:#373A3C"/>
				<stop  offset="0.5" style="stop-color:#282C2E"/>
			</linearGradient>
			<path display="inline" fill="url(#SVGID_1_)" d="M9.9,13.9v406h126v-406H9.9z M38.4,44c-5.5,0-9.9-4.4-9.9-9.8
				c0-5.4,4.4-9.8,9.9-9.8s9.9,4.4,9.9,9.8C48.3,39.6,43.9,44,38.4,44z"/>
		</g>
	</g>
	<path display="none" fill="#292D2F" d="M95.7,13.9c0,12.6-10.2,22.8-22.8,22.8c-12.6,0-22.7-10.2-22.7-22.8H9.9v406h126v-406H95.7z
		"/>
	<path display="none" fill="#292D2F" d="M121,220.4L76.5,265c-1.9,1.9-5.1,1.9-7.1,0l-44.5-44.5c-1.9-1.9-1.9-5.1,0-7.1l44.5-44.5
		c1.9-1.9,5.1-1.9,7.1,0l44.5,44.5C122.9,215.3,122.9,218.5,121,220.4z"/>
	<g id="pady_1_" display="none">
		
			<rect x="22" y="199" transform="matrix(0.7071 -0.7071 0.7071 0.7071 -138.4355 76.7918)" display="inline" fill="#D7D9D8" width="3" height="13"/>
		
			<rect x="26.2" y="194.8" transform="matrix(0.7071 -0.7071 0.7071 0.7071 -134.1845 78.5526)" display="inline" fill="#D7D9D8" width="3" height="13"/>
		
			<rect x="30.5" y="190.5" transform="matrix(0.7071 -0.7071 0.7071 0.7071 -129.9334 80.3135)" display="inline" fill="#D7D9D8" width="3" height="13"/>
		
			<rect x="34.7" y="186.2" transform="matrix(0.7071 -0.7071 0.7071 0.7071 -125.6824 82.0743)" display="inline" fill="#D7D9D8" width="3" height="13"/>
		
			<rect x="38.9" y="182" transform="matrix(0.7071 -0.7071 0.7071 0.7071 -121.4734 83.8177)" display="inline" fill="#D7D9D8" width="3" height="13"/>
		
			<rect x="43.2" y="177.8" transform="matrix(0.7071 -0.7071 0.7071 0.7071 -117.2223 85.5786)" display="inline" fill="#D7D9D8" width="3" height="13"/>
		
			<rect x="47.4" y="173.5" transform="matrix(0.7071 -0.7071 0.7071 0.7071 -112.9713 87.3394)" display="inline" fill="#D7D9D8" width="3" height="13"/>
		
			<rect x="51.7" y="169.3" transform="matrix(0.7071 -0.7071 0.7071 0.7071 -108.7202 89.1003)" display="inline" fill="#D7D9D8" width="3" height="13"/>
		
			<rect x="55.9" y="165" transform="matrix(0.7071 -0.7071 0.7071 0.7071 -104.4692 90.8611)" display="inline" fill="#D7D9D8" width="3" height="13"/>
		
			<rect x="60.2" y="160.8" transform="matrix(0.7071 -0.7071 0.7071 0.7071 -100.2181 92.622)" display="inline" fill="#D7D9D8" width="3" height="13"/>
		
			<rect x="82.7" y="259.9" transform="matrix(0.7071 -0.7071 0.7071 0.7071 -163.6959 137.5733)" display="inline" fill="#D7D9D8" width="3" height="13"/>
		
			<rect x="87" y="255.6" transform="matrix(0.7071 -0.7071 0.7071 0.7071 -159.4449 139.3342)" display="inline" fill="#D7D9D8" width="3" height="13"/>
		
			<rect x="91.2" y="251.4" transform="matrix(0.7071 -0.7071 0.7071 0.7071 -155.1938 141.095)" display="inline" fill="#D7D9D8" width="3" height="13"/>
		
			<rect x="95.5" y="247.1" transform="matrix(0.7071 -0.7071 0.7071 0.7071 -150.9427 142.8559)" display="inline" fill="#D7D9D8" width="3" height="13"/>
		
			<rect x="99.7" y="242.9" transform="matrix(0.7071 -0.7071 0.7071 0.7071 -146.7338 144.5993)" display="inline" fill="#D7D9D8" width="3" height="13"/>
		
			<rect x="103.9" y="238.7" transform="matrix(0.7071 -0.7071 0.7071 0.7071 -142.4827 146.3601)" display="inline" fill="#D7D9D8" width="3" height="13"/>
		
			<rect x="108.2" y="234.4" transform="matrix(0.7071 -0.7071 0.7071 0.7071 -138.2316 148.121)" display="inline" fill="#D7D9D8" width="3" height="13"/>
		
			<rect x="112.4" y="230.2" transform="matrix(0.7071 -0.7071 0.7071 0.7071 -133.9806 149.8818)" display="inline" fill="#D7D9D8" width="3" height="13"/>
		
			<rect x="116.7" y="225.9" transform="matrix(0.7071 -0.7071 0.7071 0.7071 -129.7295 151.6427)" display="inline" fill="#D7D9D8" width="3" height="13"/>
		
			<rect x="120.9" y="221.7" transform="matrix(0.7071 -0.7071 0.7071 0.7071 -125.4785 153.4035)" display="inline" fill="#D7D9D8" width="3" height="13"/>
		
			<rect x="59.4" y="259.2" transform="matrix(-0.7071 -0.7071 0.7071 -0.7071 -83.8812 496.6197)" display="inline" fill="#D7D9D8" width="3" height="13"/>
		
			<rect x="55.2" y="254.9" transform="matrix(-0.7071 -0.7071 0.7071 -0.7071 -88.1323 486.3567)" display="inline" fill="#D7D9D8" width="3" height="13"/>
		
			<rect x="50.9" y="250.7" transform="matrix(-0.7071 -0.7071 0.7071 -0.7071 -92.3833 476.0938)" display="inline" fill="#D7D9D8" width="3" height="13"/>
		
			<rect x="46.7" y="246.4" transform="matrix(-0.7071 -0.7071 0.7071 -0.7071 -96.6344 465.8308)" display="inline" fill="#D7D9D8" width="3" height="13"/>
		
			<rect x="42.5" y="242.2" transform="matrix(-0.7071 -0.7071 0.7071 -0.7071 -100.8434 455.6694)" display="inline" fill="#D7D9D8" width="3" height="13"/>
		
			<rect x="38.2" y="238" transform="matrix(-0.7071 -0.7071 0.7071 -0.7071 -105.0944 445.4065)" display="inline" fill="#D7D9D8" width="3" height="13"/>
		
			<rect x="33.9" y="233.7" transform="matrix(-0.7071 -0.7071 0.7071 -0.7071 -109.3455 435.1435)" display="inline" fill="#D7D9D8" width="3" height="13"/>
		
			<rect x="29.7" y="229.5" transform="matrix(-0.7071 -0.7071 0.7071 -0.7071 -113.5965 424.8806)" display="inline" fill="#D7D9D8" width="3" height="13"/>
		
			<rect x="25.4" y="225.2" transform="matrix(-0.7071 -0.7071 0.7071 -0.7071 -117.8476 414.6176)" display="inline" fill="#D7D9D8" width="3" height="13"/>
		
			<rect x="21.2" y="221" transform="matrix(-0.7071 -0.7071 0.7071 -0.7071 -122.0986 404.3546)" display="inline" fill="#D7D9D8" width="3" height="13"/>
		
			<rect x="120.3" y="198.4" transform="matrix(-0.7071 -0.7071 0.7071 -0.7071 63.0015 435.9812)" display="inline" fill="#D7D9D8" width="3" height="13"/>
		
			<rect x="116" y="194.2" transform="matrix(-0.7071 -0.7071 0.7071 -0.7071 58.7505 425.7183)" display="inline" fill="#D7D9D8" width="3" height="13"/>
		
			<rect x="111.8" y="189.9" transform="matrix(-0.7071 -0.7071 0.7071 -0.7071 54.4994 415.4553)" display="inline" fill="#D7D9D8" width="3" height="13"/>
		
			<rect x="107.5" y="185.7" transform="matrix(-0.7071 -0.7071 0.7071 -0.7071 50.2483 405.1923)" display="inline" fill="#D7D9D8" width="3" height="13"/>
		
			<rect x="103.3" y="181.5" transform="matrix(-0.7071 -0.7071 0.7071 -0.7071 46.0394 395.031)" display="inline" fill="#D7D9D8" width="3" height="13"/>
		
			<rect x="99.1" y="177.2" transform="matrix(-0.7071 -0.7071 0.7071 -0.7071 41.7883 384.768)" display="inline" fill="#D7D9D8" width="3" height="13"/>
		
			<rect x="94.8" y="173" transform="matrix(-0.7071 -0.7071 0.7071 -0.7071 37.5373 374.5051)" display="inline" fill="#D7D9D8" width="3" height="13"/>
		
			<rect x="90.6" y="168.7" transform="matrix(-0.7071 -0.7071 0.7071 -0.7071 33.2862 364.2421)" display="inline" fill="#D7D9D8" width="3" height="13"/>
		
			<rect x="86.3" y="164.5" transform="matrix(-0.7071 -0.7071 0.7071 -0.7071 29.0351 353.9792)" display="inline" fill="#D7D9D8" width="3" height="13"/>
		
			<rect x="82.1" y="160.2" transform="matrix(-0.7071 -0.7071 0.7071 -0.7071 24.7841 343.7162)" display="inline" fill="#D7D9D8" width="3" height="13"/>
	</g>
	<g id="paths" display="none">
		<polyline display="inline" fill="none" stroke="#359DD7" stroke-miterlimit="10" points="10.3,46.9 53.6,90.9 53.6,167.3 		"/>
		<polyline display="inline" fill="none" stroke="#359DD7" stroke-miterlimit="10" points="10.3,206.9 17.6,199.5 19.1,201 		"/>
		<polyline display="inline" fill="none" stroke="#359DD7" stroke-miterlimit="10" points="10.3,26.9 57.5,74.5 57.5,162.6 		"/>
		<polyline display="inline" fill="none" stroke="#359DD7" stroke-miterlimit="10" points="10.3,66.9 49.3,105.9 49.3,170.1 		"/>
		<polyline display="inline" fill="none" stroke="#359DD7" stroke-miterlimit="10" points="10.3,86.9 45.1,121.7 45.1,174.4 		"/>
		<polyline display="inline" fill="none" stroke="#359DD7" stroke-miterlimit="10" points="10.3,106.9 41.2,137.8 41.2,178.6 		"/>
		<polyline display="inline" fill="none" stroke="#359DD7" stroke-miterlimit="10" points="10.3,126.9 36.9,153.5 36.9,182.9 		"/>
		<polyline display="inline" fill="none" stroke="#359DD7" stroke-miterlimit="10" points="10.3,146.9 33.3,169.8 33.3,187.1 		"/>
		<polyline display="inline" fill="none" stroke="#359DD7" stroke-miterlimit="10" points="10.3,167.3 28.1,185.1 28.1,192.1 		"/>
		<polyline display="inline" fill="none" stroke="#359DD7" stroke-miterlimit="10" points="10.3,186.5 19.2,195.4 24.6,195.4 		"/>
		<polyline display="inline" fill="none" stroke="#359DD7" stroke-miterlimit="10" points="10.3,386.9 53.6,342.8 53.6,266.5 		"/>
		<polyline display="inline" fill="none" stroke="#359DD7" stroke-miterlimit="10" points="10.3,226.9 17.6,234.2 19.1,232.7 		"/>
		<polyline display="inline" fill="none" stroke="#359DD7" stroke-miterlimit="10" points="10.3,406.9 57.5,359.3 57.5,271.1 		"/>
		<polyline display="inline" fill="none" stroke="#359DD7" stroke-miterlimit="10" points="10.3,366.9 49.3,327.9 49.3,263.6 		"/>
		<polyline display="inline" fill="none" stroke="#359DD7" stroke-miterlimit="10" points="10.3,346.9 45.1,312.1 45.1,259.4 		"/>
		<polyline display="inline" fill="none" stroke="#359DD7" stroke-miterlimit="10" points="10.3,326.9 41.2,295.9 41.2,255.1 		"/>
		<polyline display="inline" fill="none" stroke="#359DD7" stroke-miterlimit="10" points="10.3,306.9 36.9,280.2 36.9,250.9 		"/>
		<polyline display="inline" fill="none" stroke="#359DD7" stroke-miterlimit="10" points="10.3,286.9 33.3,263.9 33.3,246.7 		"/>
		<polyline display="inline" fill="none" stroke="#359DD7" stroke-miterlimit="10" points="10.3,266.4 28.1,248.6 28.1,241.7 		"/>
		<polyline display="inline" fill="none" stroke="#359DD7" stroke-miterlimit="10" points="10.3,247.2 19.2,238.3 24.6,238.3 		"/>
		<polyline display="inline" fill="none" stroke="#359DD7" stroke-miterlimit="10" points="135.5,46.9 92.3,90.9 92.3,167.3 		"/>
		<polyline display="inline" fill="none" stroke="#359DD7" stroke-miterlimit="10" points="135.5,206.9 128.2,199.5 126.7,201 		"/>
		<polyline display="inline" fill="none" stroke="#359DD7" stroke-miterlimit="10" points="135.5,26.9 88.3,74.5 88.3,162.6 		"/>
		<polyline display="inline" fill="none" stroke="#359DD7" stroke-miterlimit="10" points="135.5,66.9 96.5,105.9 96.5,170.1 		"/>
		<polyline display="inline" fill="none" stroke="#359DD7" stroke-miterlimit="10" points="135.5,86.9 100.7,121.7 100.7,174.4 		
			"/>
		<polyline display="inline" fill="none" stroke="#359DD7" stroke-miterlimit="10" points="135.5,106.9 104.6,137.8 104.6,178.6 		
			"/>
		<polyline display="inline" fill="none" stroke="#359DD7" stroke-miterlimit="10" points="135.5,126.9 108.9,153.5 108.9,182.9 		
			"/>
		<polyline display="inline" fill="none" stroke="#359DD7" stroke-miterlimit="10" points="135.5,146.9 112.6,169.8 112.6,187.1 		
			"/>
		<polyline display="inline" fill="none" stroke="#359DD7" stroke-miterlimit="10" points="135.5,167.3 117.7,185.1 117.7,192.1 		
			"/>
		<polyline display="inline" fill="none" stroke="#359DD7" stroke-miterlimit="10" points="135.5,186.5 126.6,195.4 121.3,195.4 		
			"/>
		<polyline display="inline" fill="none" stroke="#359DD7" stroke-miterlimit="10" points="135.5,386.9 92.3,342.8 92.3,266.5 		"/>
		<polyline display="inline" fill="none" stroke="#359DD7" stroke-miterlimit="10" points="135.5,226.9 128.2,234.2 126.7,232.7 		
			"/>
		<polyline display="inline" fill="none" stroke="#359DD7" stroke-miterlimit="10" points="135.5,406.9 88.3,359.3 88.3,271.1 		"/>
		<polyline display="inline" fill="none" stroke="#359DD7" stroke-miterlimit="10" points="135.5,366.9 96.5,327.9 96.5,263.6 		"/>
		<polyline display="inline" fill="none" stroke="#359DD7" stroke-miterlimit="10" points="135.5,346.9 100.7,312.1 100.7,259.4 		
			"/>
		<polyline display="inline" fill="none" stroke="#359DD7" stroke-miterlimit="10" points="135.5,326.9 104.6,295.9 104.6,255.1 		
			"/>
		<polyline display="inline" fill="none" stroke="#359DD7" stroke-miterlimit="10" points="135.5,306.9 108.9,280.2 108.9,250.9 		
			"/>
		<polyline display="inline" fill="none" stroke="#359DD7" stroke-miterlimit="10" points="135.5,286.9 112.6,263.9 112.6,246.7 		
			"/>
		<polyline display="inline" fill="none" stroke="#359DD7" stroke-miterlimit="10" points="135.5,266.4 117.7,248.6 117.7,241.7 		
			"/>
		<polyline display="inline" fill="none" stroke="#359DD7" stroke-miterlimit="10" points="135.5,247.2 126.6,238.3 121.3,238.3 		
			"/>
	</g>
	<g display="none">
		<path display="inline" fill="none" stroke="#292D2F" stroke-miterlimit="10" stroke-dasharray="1.9988,1.9988" d="M130.9,419.9
			h-116c-2.8,0-5-2.3-5-5v-396c0-2.8,2.3-5,5-5h116c2.8,0,5,2.3,5,5v396C135.9,417.6,133.7,419.9,130.9,419.9z"/>
	</g>
</g>
<g id="whole_x5F_new">
	<g id="body_1_">
		<path fill="#333333" d="M115.1,433.9h-99c-3.3,0-6-2.7-6-6V6.1c0-3.3,2.7-6,6-6h99c3.3,0,6,2.7,6,6v421.8
			C121.1,431.2,118.4,433.9,115.1,433.9z"/>
		<circle fill="#1B1B1C" cx="65.6" cy="373.9" r="12"/>
		<circle fill="#1B1B1C" cx="65.6" cy="59.9" r="12"/>
		<path fill="#1B1B1C" d="M53.6-0.2c0.1,6.5,5.4,11.8,12,11.8c6.6,0,11.9-5.3,12-11.8H53.6z"/>
	</g>
	<g id="helping" display="none">
		<line display="inline" fill="none" stroke="#ED1A41" stroke-miterlimit="10" x1="2.9" y1="26.9" x2="142.9" y2="26.9"/>
		<line display="inline" fill="none" stroke="#ED1A41" stroke-miterlimit="10" x1="2.9" y1="46.9" x2="142.9" y2="46.9"/>
		<line display="inline" fill="none" stroke="#ED1A41" stroke-miterlimit="10" x1="2.9" y1="66.9" x2="142.9" y2="66.9"/>
		<line display="inline" fill="none" stroke="#ED1A41" stroke-miterlimit="10" x1="2.9" y1="86.9" x2="142.9" y2="86.9"/>
		<line display="inline" fill="none" stroke="#ED1A41" stroke-miterlimit="10" x1="2.9" y1="107.1" x2="142.9" y2="107.1"/>
		<line display="inline" fill="none" stroke="#ED1A41" stroke-miterlimit="10" x1="2.9" y1="126.9" x2="142.9" y2="126.9"/>
		<line display="inline" fill="none" stroke="#ED1A41" stroke-miterlimit="10" x1="2.9" y1="146.9" x2="142.9" y2="146.9"/>
		<line display="inline" fill="none" stroke="#ED1A41" stroke-miterlimit="10" x1="2.9" y1="166.9" x2="142.9" y2="166.9"/>
		<line display="inline" fill="none" stroke="#ED1A41" stroke-miterlimit="10" x1="2.4" y1="186.9" x2="142.4" y2="186.9"/>
		<line display="inline" fill="none" stroke="#ED1A41" stroke-miterlimit="10" x1="2.9" y1="206.9" x2="142.9" y2="206.9"/>
		<line display="inline" fill="none" stroke="#ED1A41" stroke-miterlimit="10" x1="2.9" y1="226.9" x2="142.9" y2="226.9"/>
		<line display="inline" fill="none" stroke="#ED1A41" stroke-miterlimit="10" x1="2.9" y1="246.9" x2="142.9" y2="246.9"/>
		<line display="inline" fill="none" stroke="#ED1A41" stroke-miterlimit="10" x1="2.9" y1="266.9" x2="142.9" y2="266.9"/>
		<line display="inline" fill="none" stroke="#ED1A41" stroke-miterlimit="10" x1="2.9" y1="286.9" x2="142.9" y2="286.9"/>
		<line display="inline" fill="none" stroke="#ED1A41" stroke-miterlimit="10" x1="2.9" y1="306.9" x2="142.9" y2="306.9"/>
		<line display="inline" fill="none" stroke="#ED1A41" stroke-miterlimit="10" x1="2.9" y1="326.9" x2="142.9" y2="326.9"/>
		<line display="inline" fill="none" stroke="#ED1A41" stroke-miterlimit="10" x1="2.9" y1="346.9" x2="142.9" y2="346.9"/>
		<line display="inline" fill="none" stroke="#ED1A41" stroke-miterlimit="10" x1="2.9" y1="366.9" x2="142.9" y2="366.9"/>
		<line display="inline" fill="none" stroke="#ED1A41" stroke-miterlimit="10" x1="2.9" y1="386.9" x2="142.9" y2="386.9"/>
		<line display="inline" fill="none" stroke="#ED1A41" stroke-miterlimit="10" x1="2.9" y1="406.9" x2="142.9" y2="406.9"/>
		<rect x="119.4" y="-0.1" display="inline" fill="#E11C49" width="23.5" height="21"/>
		<rect x="-13.6" y="412.8" display="inline" fill="#E11C49" width="23.5" height="21"/>
	</g>
</g>
</svg>
