<?xml version="1.0" encoding="utf-8"?>
<!-- Generator: Adobe Illustrator 18.0.0, SVG Export Plug-In . SVG Version: 6.00 Build 0)  -->
<!DOCTYPE svg PUBLIC "-//W3C//DTD SVG 1.1//EN" "http://www.w3.org/Graphics/SVG/1.1/DTD/svg11.dtd">
<svg version="1.1" id="Vrstva_1" xmlns="http://www.w3.org/2000/svg" xmlns:xlink="http://www.w3.org/1999/xlink" x="0px" y="0px"
	 viewBox="0 0 45 45" enable-background="new 0 0 45 45" xml:space="preserve">
<path fill="none" stroke="#FFFFFF" stroke-miterlimit="10" d="M26.3,0.7c0,2.1-1.7,3.8-3.8,3.8s-3.8-1.7-3.8-3.8h-8.3v43.8h24.1V0.7
	H26.3z"/>
<polyline fill="none" stroke="#FFFFFF" stroke-miterlimit="10" points="9.9,1.8 5.5,1.8 5.5,9.1 9.9,9.1 "/>
<polyline fill="none" stroke="#FFFFFF" stroke-miterlimit="10" points="9.9,13.2 5.5,13.2 5.5,20.5 9.9,20.5 "/>
<polyline fill="none" stroke="#FFFFFF" stroke-miterlimit="10" points="9.9,24.7 5.5,24.7 5.5,32 9.9,32 "/>
<polyline fill="none" stroke="#FFFFFF" stroke-miterlimit="10" points="9.9,35.9 5.5,35.9 5.5,43.2 9.9,43.2 "/>
<polyline fill="none" stroke="#FFFFFF" stroke-miterlimit="10" points="34.9,1.9 39.3,1.9 39.3,9.2 34.9,9.2 "/>
<polyline fill="none" stroke="#FFFFFF" stroke-miterlimit="10" points="34.9,13.1 39.3,13.1 39.3,20.5 34.9,20.5 "/>
<polyline fill="none" stroke="#FFFFFF" stroke-miterlimit="10" points="34.9,24.7 39.3,24.7 39.3,32 34.9,32 "/>
<polyline fill="none" stroke="#FFFFFF" stroke-miterlimit="10" points="34.9,35.9 39.3,35.9 39.3,43.2 34.9,43.2 "/>
</svg>
