<?xml version="1.0" encoding="utf-8"?>
<!-- Generator: Adobe Illustrator 18.0.0, SVG Export Plug-In . SVG Version: 6.00 Build 0)  -->
<!DOCTYPE svg PUBLIC "-//W3C//DTD SVG 1.1//EN" "http://www.w3.org/Graphics/SVG/1.1/DTD/svg11.dtd">
<svg version="1.1" xmlns="http://www.w3.org/2000/svg" xmlns:xlink="http://www.w3.org/1999/xlink" x="0px" y="0px"
	 viewBox="0 0 160 250" enable-background="new 0 0 160 250" xml:space="preserve">
<g id="background">
</g>
<g id="lock">
	<path fill="#FFFFFF" d="M80.1,205.9c-0.2,0-0.4,0-0.6,0c-9.6,0-15.7-0.7-14.8-6.3c0.9-5.7,7.8-36.8,7.8-36.8
		c-1.5,0-7.9-4.2-7.9-14.8c0-9.2,7.9-16.2,15.4-16.2v-22.8h-40c0,0,0-33.3,0-50.7s20-30.7,40-30.7V3.1c-45.8,0-64.5,38.7-64.5,54.2
		s0,51.9,0,51.9s-3.5,0-8.9,0c-2.5,0-5.2,2.8-5.2,5.2c0,7.5,0,121.5,0,125.8s0.9,6.8,4.8,6.8c1.9,0,38,0,73.9,0V205.9z"/>
	<path fill="#EFEFEF" d="M153.7,109.1c-5.7,0-9.3,0-9.3,0s0-41.7,0-54.3c0-12.7-18-51.7-64-51.7c-0.1,0-0.2,0-0.2,0v24.7
		c0.1,0,0.2,0,0.2,0c27.7,0,40.3,20.3,40.3,31.7s0,49.7,0,49.7H80.1v22.8c0.1,0,0.2,0,0.2,0c8.5,0,15.8,7.9,15.8,16.3
		c0,11.3-6.5,14.8-7.9,14.8c0,0,6.4,32.6,7.1,36.6c0.7,4.2-5.8,6.4-15.2,6.5v41c35.2,0,70.4,0,72.8,0c4.9,0,5.6-1.1,5.6-5.6
		s0-123.6,0-127C158.5,110.9,156.8,109.1,153.7,109.1z"/>
</g>
</svg>
