<?xml version="1.0" encoding="utf-8"?>
<!-- Generator: Adobe Illustrator 18.0.0, SVG Export Plug-In . SVG Version: 6.00 Build 0)  -->
<!DOCTYPE svg PUBLIC "-//W3C//DTD SVG 1.1//EN" "http://www.w3.org/Graphics/SVG/1.1/DTD/svg11.dtd">
<svg version="1.1" id="Vrstva_1" xmlns="http://www.w3.org/2000/svg" xmlns:xlink="http://www.w3.org/1999/xlink" x="0px" y="0px"
	 viewBox="0 0 200 200" enable-background="new 0 0 200 200" xml:space="preserve">
<polygon fill="#272B2D" points="102.2,184.4 102.2,120.5 0,15.6 "/>
<g>
	<polygon fill="#00BFF2" points="183.5,40.1 183.5,45.7 189.1,45.7 191.6,41.7 191.6,37.6 185.9,37.6 	"/>
	<rect x="154.2" y="76.7" fill="#00BFF2" width="8.1" height="8.1"/>
	<polygon fill="#00BFF2" points="154.2,94.6 159.6,94.6 162.3,90 162.3,86.4 154.2,86.4 	"/>
	<polygon fill="#00BFF2" points="195.4,27.8 193.2,30.1 193.2,35.9 195.1,35.9 200,27.8 	"/>
	<polygon fill="#00BFF2" points="144.4,80.2 144.4,84.8 152.5,84.8 152.5,76.7 147.8,76.7 	"/>
	<rect x="144.4" y="86.4" fill="#00BFF2" width="8.1" height="8.1"/>
	<rect x="144.4" y="96.2" fill="#00BFF2" width="8.1" height="8.1"/>
	<polygon fill="#00BFF2" points="144.4,114.1 147.7,114.1 152.5,106.2 152.5,106 144.4,106 	"/>
	<polygon fill="#00BFF2" points="163.9,60.2 163.9,65.3 172.1,65.3 172.1,57.1 166.9,57.1 	"/>
	<polygon fill="#00BFF2" points="154.2,70.2 154.2,75 162.3,75 162.3,66.9 157.4,66.9 	"/>
	<rect x="124.8" y="115.7" fill="#00BFF2" width="8.1" height="8.1"/>
	<polygon fill="#00BFF2" points="173.7,65.3 177.3,65.3 181.8,57.8 181.8,57.1 173.7,57.1 	"/>
	<rect x="124.8" y="106" fill="#00BFF2" width="8.1" height="8.1"/>
	<polygon fill="#00BFF2" points="173.7,50.1 173.7,55.5 181.8,55.5 181.8,47.3 176.4,47.3 	"/>
	<polygon fill="#00BFF2" points="163.9,75 171.4,75 172.1,73.9 172.1,66.9 163.9,66.9 	"/>
	<polygon fill="#00BFF2" points="115.1,163 118.1,163 123.1,154.8 115.1,154.8 	"/>
	<polygon fill="#00BFF2" points="105.3,120.3 105.3,123.9 113.4,123.9 113.4,115.7 109.8,115.7 	"/>
	<rect x="115.1" y="125.5" fill="#00BFF2" width="8.1" height="8.1"/>
	<rect x="115.1" y="135.3" fill="#00BFF2" width="8.1" height="8.1"/>
	<rect x="115.1" y="145.1" fill="#00BFF2" width="8.1" height="8.1"/>
	<rect x="105.3" y="154.8" fill="#00BFF2" width="8.1" height="8.1"/>
	<rect x="105.3" y="125.5" fill="#00BFF2" width="8.1" height="8.1"/>
	<rect x="115.1" y="115.7" fill="#00BFF2" width="8.1" height="8.1"/>
	<polygon fill="#00BFF2" points="105.3,172.7 112.2,172.7 113.4,170.7 113.4,164.6 105.3,164.6 	"/>
	<rect x="105.3" y="135.3" fill="#00BFF2" width="8.1" height="8.1"/>
	<rect x="105.3" y="145.1" fill="#00BFF2" width="8.1" height="8.1"/>
	<polygon fill="#00BFF2" points="134.6,135.7 134.9,135.3 134.6,135.3 	"/>
	<polygon fill="#00BFF2" points="134.6,123.9 141.8,123.9 142.8,122.3 142.8,115.7 134.6,115.7 	"/>
	<polygon fill="#00BFF2" points="134.6,90.2 134.6,94.6 142.8,94.6 142.8,86.4 138.3,86.4 	"/>
	<rect x="134.6" y="96.2" fill="#00BFF2" width="8.1" height="8.1"/>
	<rect x="134.6" y="106" fill="#00BFF2" width="8.1" height="8.1"/>
	<polygon fill="#00BFF2" points="115.1,110.3 115.1,114.1 123.2,114.1 123.2,106 119.3,106 	"/>
	<polygon fill="#00BFF2" points="124.8,143.4 130,143.4 133,138.4 133,135.3 124.8,135.3 	"/>
	<polygon fill="#00BFF2" points="124.8,100.3 124.8,104.3 133,104.3 133,96.2 128.8,96.2 	"/>
	<rect x="124.8" y="125.5" fill="#00BFF2" width="8.1" height="8.1"/>
</g>
</svg>
