<?xml version="1.0" encoding="utf-8"?>
<!-- Generator: Adobe Illustrator 18.0.0, SVG Export Plug-In . SVG Version: 6.00 Build 0)  -->
<!DOCTYPE svg PUBLIC "-//W3C//DTD SVG 1.1//EN" "http://www.w3.org/Graphics/SVG/1.1/DTD/svg11.dtd">
<svg version="1.1" id="Vrstva_1" xmlns="http://www.w3.org/2000/svg" xmlns:xlink="http://www.w3.org/1999/xlink" x="0px" y="0px"
	 viewBox="20.5 75.5 273.5 165.5" enable-background="new 20.5 75.5 273.5 165.5" xml:space="preserve">
<g>
	<g>
		<g>
			<g>
				
					<linearGradient id="SVGID_1_" gradientUnits="userSpaceOnUse" x1="263.1247" y1="-471.8902" x2="576.1248" y2="-471.8902" gradientTransform="matrix(0.4244 0 0 -0.4244 32.7803 -96.0479)">
					<stop  offset="0.5" style="stop-color:#4B4B4B"/>
					<stop  offset="0.5" style="stop-color:#525252"/>
				</linearGradient>
				
					<line fill="none" stroke="url(#SVGID_1_)" stroke-width="3" stroke-linecap="round" stroke-miterlimit="10" x1="276.7" y1="104.2" x2="276.7" y2="104.2"/>
				
					<linearGradient id="SVGID_2_" gradientUnits="userSpaceOnUse" x1="327.7469" y1="-608.9376" x2="576.1558" y2="-608.9376" gradientTransform="matrix(0.4244 0 0 -0.4244 32.7803 -96.0479)">
					<stop  offset="0.5" style="stop-color:#4B4B4B"/>
					<stop  offset="0.5" style="stop-color:#525252"/>
				</linearGradient>
				
					<line fill="none" stroke="url(#SVGID_2_)" stroke-width="3" stroke-linecap="round" stroke-miterlimit="10" stroke-dasharray="9.913866e-003,16.8536" x1="272.1" y1="109.1" x2="174.7" y2="215.6"/>
				
					<linearGradient id="SVGID_3_" gradientUnits="userSpaceOnUse" x1="327.7619" y1="-740.0861" x2="640.7618" y2="-740.0861" gradientTransform="matrix(0.4244 0 0 -0.4244 32.7803 -96.0479)">
					<stop  offset="0.5" style="stop-color:#4B4B4B"/>
					<stop  offset="0.5" style="stop-color:#525252"/>
				</linearGradient>
				
					<line fill="none" stroke="url(#SVGID_3_)" stroke-width="3" stroke-linecap="round" stroke-miterlimit="10" x1="172.5" y1="218" x2="172.5" y2="218"/>
			</g>
		</g>
		<g>
			<line fill="none" x1="170.2" y1="220.6" x2="170.2" y2="220.6"/>
		</g>
	</g>
</g>
<g>
	<g>
		<g>
			<g>
				
					<linearGradient id="SVGID_4_" gradientUnits="userSpaceOnUse" x1="405.5445" y1="-479.5856" x2="718.5445" y2="-479.5856" gradientTransform="matrix(-0.4244 0 0 -0.4244 370.1678 -96.0479)">
					<stop  offset="0.5" style="stop-color:#4B4B4B"/>
					<stop  offset="0.5" style="stop-color:#525252"/>
				</linearGradient>
				
					<line fill="none" stroke="url(#SVGID_4_)" stroke-width="3" stroke-linecap="round" stroke-miterlimit="10" x1="65.9" y1="107.5" x2="65.9" y2="107.5"/>
				
					<linearGradient id="SVGID_5_" gradientUnits="userSpaceOnUse" x1="464.6588" y1="-615.7467" x2="718.5708" y2="-615.7467" gradientTransform="matrix(-0.4244 0 0 -0.4244 370.1678 -96.0479)">
					<stop  offset="0.5" style="stop-color:#4B4B4B"/>
					<stop  offset="0.5" style="stop-color:#525252"/>
				</linearGradient>
				
					<line fill="none" stroke="url(#SVGID_5_)" stroke-width="3" stroke-linecap="round" stroke-miterlimit="10" stroke-dasharray="9.913866e-003,16.8536" x1="170" y1="218.1" x2="70.5" y2="112.4"/>
				
					<linearGradient id="SVGID_6_" gradientUnits="userSpaceOnUse" x1="464.6711" y1="-746.0166" x2="777.671" y2="-746.0166" gradientTransform="matrix(-0.4244 0 0 -0.4244 370.1678 -96.0479)">
					<stop  offset="0.5" style="stop-color:#4B4B4B"/>
					<stop  offset="0.5" style="stop-color:#525252"/>
				</linearGradient>
				
					<line fill="none" stroke="url(#SVGID_6_)" stroke-width="3" stroke-linecap="round" stroke-miterlimit="10" x1="172.3" y1="220.5" x2="172.3" y2="220.5"/>
			</g>
		</g>
		<g>
			<line fill="none" x1="174.7" y1="223" x2="174.7" y2="223"/>
		</g>
	</g>
</g>
<g id="PC">
	<path d="M95.8,125.3H41.4c-1.2,0-2.1-1-2.1-2.1V86.3c0-1.2,1-2.1,2.1-2.1h54.3c1.2,0,2.1,1,2.1,2.1v36.7
		C97.8,124.3,96.8,125.3,95.8,125.3z"/>
	
		<linearGradient id="SVGID_7_" gradientUnits="userSpaceOnUse" x1="46.1289" y1="-630.6667" x2="122.1807" y2="-747.7763" gradientTransform="matrix(0.4244 0 0 0.4244 32.7803 396.2042)">
		<stop  offset="0.5" style="stop-color:#4B4B4B"/>
		<stop  offset="0.5" style="stop-color:#525252"/>
	</linearGradient>
	<rect x="41.1" y="86.2" fill="url(#SVGID_7_)" width="54.7" height="35.1"/>
	<rect x="30.7" y="123.6" fill="#CFCECF" width="75.5" height="1.7"/>
	<path fill="#333333" d="M30.7,125.3c1.9,0.9,2.8,1,2.8,1h68.2c0,0,2.6,0,4.6-1"/>
	<path fill="#8C8C8C" d="M60.5,123.6L60.5,123.6c0,0.4,0.3,0.7,0.6,0.7H76c0.3,0,0.6-0.3,0.6-0.6v-0.1H60.5z"/>
</g>
<rect x="284.4" y="84.9" fill="#CBCACA" width="1.5" height="3"/>
<rect x="284.4" y="88.5" fill="#CBCACA" width="1.5" height="3"/>
<rect x="284.4" y="92.1" fill="#CBCACA" width="1.5" height="3"/>
<rect x="284.4" y="95.9" fill="#CBCACA" width="1.5" height="3"/>
<rect x="284.4" y="103.3" fill="#CBCACA" width="1.5" height="3"/>
<rect x="284.4" y="99.8" fill="#CBCACA" width="1.5" height="3"/>
<rect x="284.4" y="121.5" fill="#CBCACA" width="1.5" height="3"/>
<rect x="284.4" y="125.2" fill="#CBCACA" width="1.5" height="3"/>
<rect x="264.6" y="84.9" fill="#CBCACA" width="1.5" height="3"/>
<rect x="264.6" y="88.6" fill="#CBCACA" width="1.5" height="3"/>
<rect x="264.6" y="96" fill="#CBCACA" width="1.5" height="3"/>
<rect x="264.6" y="92.2" fill="#CBCACA" width="1.5" height="3"/>
<rect x="264.6" y="103.2" fill="#CBCACA" width="1.5" height="3"/>
<rect x="264.6" y="99.7" fill="#CBCACA" width="1.5" height="3"/>
<rect x="264.6" y="121.5" fill="#CBCACA" width="1.5" height="3"/>
<rect x="264.6" y="125.3" fill="#CBCACA" width="1.5" height="3"/>
<path fill="#333333" d="M283.4,81.5h-16.3c-0.5,0-1,0.5-1,1v16l0,0v7.3v7.3v0.1v7.1v0.1v10.1c0,0.5,0.5,1,1,1h16.3c0.5,0,1-0.5,1-1
	v-10.1v-0.1v-7.1v-0.1v-7.3v-7.3l0,0v-16C284.4,82,283.9,81.5,283.4,81.5z"/>
<path fill="#1B1C1C" d="M272.7,81.5h5.2c0,1.4-1.2,2.6-2.6,2.6C273.8,84.1,272.7,83,272.7,81.5z"/>
<circle fill="#1B1C1C" cx="275.2" cy="123" r="2.6"/>
<circle fill="#1B1C1C" cx="275.2" cy="90.1" r="2.6"/>
<rect x="284.4" y="110.7" fill="#CBCACA" width="1.5" height="3"/>
<rect x="284.4" y="107.1" fill="#CBCACA" width="1.5" height="3"/>
<rect x="264.6" y="110.6" fill="#CBCACA" width="1.5" height="3"/>
<rect x="264.6" y="107" fill="#CBCACA" width="1.5" height="3"/>
<rect x="284.4" y="117.9" fill="#CBCACA" width="1.5" height="3"/>
<rect x="284.4" y="114.3" fill="#CBCACA" width="1.5" height="3"/>
<rect x="264.6" y="117.8" fill="#CBCACA" width="1.5" height="3"/>
<rect x="264.6" y="114.3" fill="#CBCACA" width="1.5" height="3"/>
<g>
	<path fill="#2D2D2D" d="M191.6,164h-42.7c-1.7,0-3.1,1.4-3.1,3.1v64.2c0,1.7,1.4,3.1,3.1,3.1h42.7c1.7,0,3.1-1.4,3.1-3.1v-64.2
		C194.7,165.4,193.3,164,191.6,164z M149.1,232.4c-0.8,0-1.5-0.7-1.5-1.5c0-0.8,0.7-1.5,1.5-1.5s1.5,0.7,1.5,1.5
		C150.5,231.8,149.9,232.4,149.1,232.4z M149.1,168.8c-0.8,0-1.5-0.7-1.5-1.5c0-0.8,0.7-1.5,1.5-1.5s1.5,0.7,1.5,1.5
		C150.5,168.2,149.9,168.8,149.1,168.8z M191.4,165.9c0.8,0,1.5,0.7,1.5,1.5c0,0.8-0.7,1.5-1.5,1.5c-0.8,0-1.5-0.7-1.5-1.5
		C189.9,166.5,190.6,165.9,191.4,165.9z M191.4,232.6c-0.8,0-1.5-0.7-1.5-1.5c0-0.8,0.7-1.5,1.5-1.5c0.8,0,1.5,0.7,1.5,1.5
		C192.9,232,192.2,232.6,191.4,232.6z"/>
	<path fill="#D1B92A" d="M191.4,228.7c-1.4,0-2.5,1.1-2.5,2.5c0,1.4,1.1,2.5,2.5,2.5c1.4,0,2.5-1.1,2.5-2.5
		C193.9,229.8,192.8,228.7,191.4,228.7z M191.4,232.4c-0.7,0-1.3-0.6-1.3-1.3c0-0.7,0.6-1.3,1.3-1.3c0.7,0,1.3,0.6,1.3,1.3
		C192.7,231.9,192.1,232.4,191.4,232.4z"/>
	<path fill="#D1B92A" d="M191.4,164.9c-1.4,0-2.5,1.1-2.5,2.5c0,1.4,1.1,2.5,2.5,2.5c1.4,0,2.5-1.1,2.5-2.5
		C193.9,166,192.7,164.9,191.4,164.9z M191.4,168.6c-0.7,0-1.3-0.6-1.3-1.3c0-0.7,0.6-1.3,1.3-1.3c0.7,0,1.3,0.6,1.3,1.3
		C192.7,168.1,192.1,168.6,191.4,168.6z"/>
	<path fill="#D1B92A" d="M149.1,228.5c-1.4,0-2.5,1.1-2.5,2.5c0,1.4,1.1,2.5,2.5,2.5c1.4,0,2.5-1.1,2.5-2.5
		C151.6,229.6,150.5,228.5,149.1,228.5z M149.1,232.2c-0.7,0-1.3-0.6-1.3-1.3c0-0.7,0.6-1.3,1.3-1.3c0.7,0,1.3,0.6,1.3,1.3
		C150.4,231.7,149.8,232.2,149.1,232.2z"/>
	<path fill="#D1B92A" d="M149.1,164.9c-1.4,0-2.5,1.1-2.5,2.5c0,1.4,1.1,2.5,2.5,2.5c1.4,0,2.5-1.1,2.5-2.5
		C151.6,166,150.5,164.9,149.1,164.9z M149.1,168.6c-0.7,0-1.3-0.6-1.3-1.3c0-0.7,0.6-1.3,1.3-1.3c0.7,0,1.3,0.6,1.3,1.3
		C150.4,168,149.8,168.6,149.1,168.6z"/>
	<g>
		<path fill="#3A3A3A" d="M190.3,189.7v34.9h3.9v-34.9H190.3z M190.6,190h1.3v1.3h-1.3V190z M190.7,191.8h1.3v1.3h-1.3V191.8z
			 M190.7,193.5h1.3v1.3h-1.3V193.5z M190.7,195.2h1.3v1.3h-1.3V195.2z M190.7,197h1.3v1.3h-1.3V197z M190.7,198.7h1.3v1.3h-1.3
			V198.7z M190.7,200.4h1.3v1.3h-1.3V200.4z M190.7,202.2h1.3v1.3h-1.3V202.2z M190.7,203.9h1.3v1.3h-1.3V203.9z M190.7,205.6h1.3
			v1.3h-1.3V205.6z M190.7,207.3h1.3v1.3h-1.3V207.3z M190.7,209.1h1.3v1.3h-1.3V209.1z M190.7,210.8h1.3v1.3h-1.3V210.8z
			 M190.7,212.5h1.3v1.3h-1.3V212.5z M190.7,214.3h1.3v1.3h-1.3V214.3z M190.7,216h1.3v1.3h-1.3V216z M190.8,217.7h1.3v1.3h-1.3
			V217.7z M190.8,219.4h1.3v1.3h-1.3V219.4z M190.8,221.2h1.3v1.3h-1.3V221.2z M192.1,224.2h-1.3v-1.3h1.3V224.2z M192.4,190h1.3
			v1.3h-1.3V190z M192.4,191.8h1.3v1.3h-1.3V191.8z M192.4,193.5h1.3v1.3h-1.3V193.5z M192.4,195.2h1.3v1.3h-1.3V195.2z M192.4,197
			h1.3v1.3h-1.3V197z M192.4,198.7h1.3v1.3h-1.3V198.7z M192.4,200.4h1.3v1.3h-1.3V200.4z M192.4,202.2h1.3v1.3h-1.3V202.2z
			 M192.4,203.9h1.3v1.3h-1.3V203.9z M192.4,205.6h1.3v1.3h-1.3V205.6z M192.4,207.3h1.3v1.3h-1.3V207.3z M192.5,209.1h1.3v1.3h-1.3
			V209.1z M192.5,210.8h1.3v1.3h-1.3V210.8z M192.5,212.5h1.3v1.3h-1.3V212.5z M192.5,214.3h1.3v1.3h-1.3V214.3z M192.5,216h1.3v1.3
			h-1.3V216z M192.5,217.7h1.3v1.3h-1.3V217.7z M192.5,219.4h1.3v1.3h-1.3V219.4z M192.5,221.2h1.3v1.3h-1.3V221.2z M193.8,224.2
			h-1.3v-1.3h1.3V224.2z"/>
		<path fill="#2D2D2D" d="M192,190h-1.3v1.3h1.3V190z M191.6,191H191v-0.6h0.6V191z"/>
		<rect x="191" y="190.4" width="0.6" height="0.6"/>
		<path fill="#2D2D2D" d="M193.7,190h-1.3v1.3h1.3V190z M193.3,191h-0.6v-0.6h0.6V191z"/>
		<rect x="192.8" y="190.4" width="0.6" height="0.6"/>
		<path fill="#2D2D2D" d="M192,191.8h-1.3v1.3h1.3V191.8z M191.6,192.7H191v-0.6h0.6V192.7z"/>
		<rect x="191" y="192.2" width="0.6" height="0.6"/>
		<path fill="#2D2D2D" d="M193.7,191.8h-1.3v1.3h1.3V191.8z M193.3,192.7h-0.6v-0.6h0.6V192.7z"/>
		<rect x="192.8" y="192.2" width="0.6" height="0.6"/>
		<path fill="#2D2D2D" d="M192,193.5h-1.3v1.3h1.3V193.5z M191.6,194.4h-0.6v-0.6h0.6V194.4z"/>
		<rect x="191.1" y="193.9" width="0.6" height="0.6"/>
		<path fill="#2D2D2D" d="M193.7,193.5h-1.3v1.3h1.3V193.5z M193.3,194.4h-0.6v-0.6h0.6V194.4z"/>
		<rect x="192.8" y="193.9" width="0.6" height="0.6"/>
		<path fill="#2D2D2D" d="M192,195.2h-1.3v1.3h1.3V195.2z M191.6,196.2h-0.6v-0.6h0.6V196.2z"/>
		<rect x="191.1" y="195.6" width="0.6" height="0.6"/>
		<path fill="#2D2D2D" d="M193.7,195.2h-1.3v1.3h1.3V195.2z M193.4,196.2h-0.6v-0.6h0.6V196.2z"/>
		<rect x="192.8" y="195.6" width="0.6" height="0.6"/>
		<path fill="#2D2D2D" d="M192,197h-1.3v1.3h1.3V197z M191.6,197.9h-0.6v-0.6h0.6V197.9z"/>
		<rect x="191.1" y="197.3" width="0.6" height="0.6"/>
		<path fill="#2D2D2D" d="M193.7,197h-1.3v1.3h1.3V197z M193.4,197.9h-0.6v-0.6h0.6V197.9z"/>
		<rect x="192.8" y="197.3" width="0.6" height="0.6"/>
		<path fill="#2D2D2D" d="M192,198.7h-1.3v1.3h1.3V198.7z M191.6,199.6h-0.6v-0.6h0.6V199.6z"/>
		<rect x="191.1" y="199.1" width="0.6" height="0.6"/>
		<path fill="#2D2D2D" d="M193.7,198.7h-1.3v1.3h1.3V198.7z M193.4,199.6h-0.6v-0.6h0.6V199.6z"/>
		<rect x="192.8" y="199.1" width="0.6" height="0.6"/>
		<path fill="#2D2D2D" d="M192,200.4h-1.3v1.3h1.3V200.4z M191.6,201.4h-0.6v-0.6h0.6V201.4z"/>
		<rect x="191.1" y="200.8" width="0.6" height="0.6"/>
		<path fill="#2D2D2D" d="M193.8,200.4h-1.3v1.3h1.3V200.4z M193.4,201.4h-0.6v-0.6h0.6V201.4z"/>
		<rect x="192.8" y="200.8" width="0.6" height="0.6"/>
		<path fill="#2D2D2D" d="M192,202.2h-1.3v1.3h1.3V202.2z M191.6,203.1h-0.6v-0.6h0.6V203.1z"/>
		<rect x="191.1" y="202.5" width="0.6" height="0.6"/>
		<path fill="#2D2D2D" d="M193.8,202.2h-1.3v1.3h1.3V202.2z M193.4,203.1h-0.6v-0.6h0.6V203.1z"/>
		<rect x="192.8" y="202.5" width="0.6" height="0.6"/>
		<path fill="#2D2D2D" d="M192,203.9h-1.3v1.3h1.3V203.9z M191.7,204.8h-0.6v-0.6h0.6V204.8z"/>
		<rect x="191.1" y="204.3" width="0.6" height="0.6"/>
		<path fill="#2D2D2D" d="M193.8,203.9h-1.3v1.3h1.3V203.9z M193.4,204.8h-0.6v-0.6h0.6V204.8z"/>
		<rect x="192.8" y="204.3" width="0.6" height="0.6"/>
		<path fill="#2D2D2D" d="M192,205.6h-1.3v1.3h1.3V205.6z M191.7,206.6h-0.6V206h0.6V206.6z"/>
		<rect x="191.1" y="206" width="0.6" height="0.6"/>
		<path fill="#2D2D2D" d="M193.8,205.6h-1.3v1.3h1.3V205.6z M193.4,206.6h-0.6V206h0.6V206.6z"/>
		<rect x="192.8" y="206" width="0.6" height="0.6"/>
		<path fill="#2D2D2D" d="M192,207.3h-1.3v1.3h1.3V207.3z M191.7,208.3h-0.6v-0.6h0.6V208.3z"/>
		<rect x="191.1" y="207.7" width="0.6" height="0.6"/>
		<path fill="#2D2D2D" d="M193.8,207.3h-1.3v1.3h1.3V207.3z M193.4,208.3h-0.6v-0.6h0.6V208.3z"/>
		<rect x="192.8" y="207.7" width="0.6" height="0.6"/>
		<path fill="#2D2D2D" d="M192.1,209.1h-1.3v1.3h1.3V209.1z M191.7,210h-0.6v-0.6h0.6V210z"/>
		<rect x="191.1" y="209.4" width="0.6" height="0.6"/>
		<path fill="#2D2D2D" d="M193.8,209.1h-1.3v1.3h1.3V209.1z M193.4,210h-0.6v-0.6h0.6V210z"/>
		<rect x="192.8" y="209.4" width="0.6" height="0.6"/>
		<path fill="#2D2D2D" d="M192.1,210.8h-1.3v1.3h1.3V210.8z M191.7,211.7h-0.6v-0.6h0.6V211.7z"/>
		<rect x="191.1" y="211.2" width="0.6" height="0.6"/>
		<path fill="#2D2D2D" d="M193.8,210.8h-1.3v1.3h1.3V210.8z M193.4,211.7h-0.6v-0.6h0.6V211.7z"/>
		<rect x="192.9" y="211.2" width="0.6" height="0.6"/>
		<path fill="#2D2D2D" d="M192.1,212.5h-1.3v1.3h1.3V212.5z M191.7,213.5h-0.6v-0.6h0.6V213.5z"/>
		<rect x="191.1" y="212.9" width="0.6" height="0.6"/>
		<path fill="#2D2D2D" d="M193.8,212.5h-1.3v1.3h1.3V212.5z M193.4,213.5h-0.6v-0.6h0.6V213.5z"/>
		<rect x="192.9" y="212.9" width="0.6" height="0.6"/>
		<path fill="#2D2D2D" d="M192.1,214.3h-1.3v1.3h1.3V214.3z M191.7,215.2h-0.6v-0.6h0.6V215.2z"/>
		<rect x="191.1" y="214.6" width="0.6" height="0.6"/>
		<path fill="#2D2D2D" d="M193.8,214.3h-1.3v1.3h1.3V214.3z M193.4,215.2h-0.6v-0.6h0.6V215.2z"/>
		<rect x="192.9" y="214.6" width="0.6" height="0.6"/>
		<path fill="#2D2D2D" d="M192.1,216h-1.3v1.3h1.3V216z M191.7,216.9h-0.6v-0.6h0.6V216.9z"/>
		<rect x="191.1" y="216.4" width="0.6" height="0.6"/>
		<path fill="#2D2D2D" d="M193.8,216h-1.3v1.3h1.3V216z M193.4,216.9h-0.6v-0.6h0.6V216.9z"/>
		<rect x="192.9" y="216.4" width="0.6" height="0.6"/>
		<path fill="#2D2D2D" d="M192.1,217.7h-1.3v1.3h1.3V217.7z M191.7,218.7h-0.6v-0.6h0.6V218.7z"/>
		<rect x="191.1" y="218.1" width="0.6" height="0.6"/>
		<path fill="#2D2D2D" d="M193.8,217.7h-1.3v1.3h1.3V217.7z M193.4,218.7h-0.6v-0.6h0.6V218.7z"/>
		<rect x="192.9" y="218.1" width="0.6" height="0.6"/>
		<path fill="#2D2D2D" d="M192.1,219.4h-1.3v1.3h1.3V219.4z M191.7,220.4h-0.6v-0.6h0.6V220.4z"/>
		<rect x="191.2" y="219.8" width="0.6" height="0.6"/>
		<path fill="#2D2D2D" d="M193.8,219.4h-1.3v1.3h1.3V219.4z M193.4,220.4h-0.6v-0.6h0.6V220.4z"/>
		<rect x="192.9" y="219.8" width="0.6" height="0.6"/>
		<path fill="#2D2D2D" d="M192.1,221.2h-1.3v1.3h1.3V221.2z M191.7,222.1h-0.6v-0.6h0.6V222.1z"/>
		<rect x="191.2" y="221.6" width="0.6" height="0.6"/>
		<path fill="#2D2D2D" d="M193.8,221.2h-1.3v1.3h1.3V221.2z M193.4,222.1h-0.6v-0.6h0.6V222.1z"/>
		<rect x="192.9" y="221.6" width="0.6" height="0.6"/>
		<path fill="#2D2D2D" d="M190.8,224.2h1.3v-1.3h-1.3V224.2z M191.2,223.3h0.6v0.6h-0.6V223.3z"/>
		<rect x="191.2" y="223.3" width="0.6" height="0.6"/>
		<path fill="#2D2D2D" d="M192.5,224.2h1.3v-1.3h-1.3V224.2z M192.9,223.3h0.6v0.6h-0.6V223.3z"/>
		<rect x="192.9" y="223.3" width="0.6" height="0.6"/>
	</g>
	<g>
		<path fill="#3A3A3A" d="M170.1,189.7v34.9h3.9v-34.9H170.1z M170.5,190h1.3v1.3h-1.3V190z M170.5,191.8h1.3v1.3h-1.3V191.8z
			 M170.5,193.5h1.3v1.3h-1.3V193.5z M170.5,195.2h1.3v1.3h-1.3V195.2z M170.5,197h1.3v1.3h-1.3V197z M170.5,198.7h1.3v1.3h-1.3
			V198.7z M170.5,200.4h1.3v1.3h-1.3V200.4z M170.5,202.2h1.3v1.3h-1.3V202.2z M170.5,203.9h1.3v1.3h-1.3V203.9z M170.5,205.6h1.3
			v1.3h-1.3V205.6z M170.6,207.3h1.3v1.3h-1.3V207.3z M170.6,209.1h1.3v1.3h-1.3V209.1z M170.6,210.8h1.3v1.3h-1.3V210.8z
			 M170.6,212.5h1.3v1.3h-1.3V212.5z M170.6,214.3h1.3v1.3h-1.3V214.3z M170.6,216h1.3v1.3h-1.3V216z M170.6,217.7h1.3v1.3h-1.3
			V217.7z M170.6,219.4h1.3v1.3h-1.3V219.4z M170.6,221.2h1.3v1.3h-1.3V221.2z M171.9,224.2h-1.3v-1.3h1.3V224.2z M172.2,190h1.3
			v1.3h-1.3V190z M172.2,191.8h1.3v1.3h-1.3V191.8z M172.2,193.5h1.3v1.3h-1.3V193.5z M172.2,195.2h1.3v1.3h-1.3V195.2z M172.2,197
			h1.3v1.3h-1.3V197z M172.3,198.7h1.3v1.3h-1.3V198.7z M172.3,200.4h1.3v1.3h-1.3V200.4z M172.3,202.2h1.3v1.3h-1.3V202.2z
			 M172.3,203.9h1.3v1.3h-1.3V203.9z M172.3,205.6h1.3v1.3h-1.3V205.6z M172.3,207.3h1.3v1.3h-1.3V207.3z M172.3,209.1h1.3v1.3h-1.3
			V209.1z M172.3,210.8h1.3v1.3h-1.3V210.8z M172.3,212.5h1.3v1.3h-1.3V212.5z M172.3,214.3h1.3v1.3h-1.3V214.3z M172.3,216h1.3v1.3
			h-1.3V216z M172.3,217.7h1.3v1.3h-1.3V217.7z M172.3,219.4h1.3v1.3h-1.3V219.4z M172.3,221.2h1.3v1.3h-1.3V221.2z M173.7,224.2
			h-1.3v-1.3h1.3V224.2z"/>
		<path fill="#2D2D2D" d="M171.8,190h-1.3v1.3h1.3V190z M171.4,191h-0.6v-0.6h0.6V191z"/>
		<rect x="170.9" y="190.4" width="0.6" height="0.6"/>
		<path fill="#2D2D2D" d="M173.6,190h-1.3v1.3h1.3V190z M173.2,191h-0.6v-0.6h0.6V191z"/>
		<rect x="172.6" y="190.4" width="0.6" height="0.6"/>
		<path fill="#2D2D2D" d="M171.8,191.8h-1.3v1.3h1.3V191.8z M171.5,192.7h-0.6v-0.6h0.6V192.7z"/>
		<rect x="170.9" y="192.2" width="0.6" height="0.6"/>
		<path fill="#2D2D2D" d="M173.6,191.8h-1.3v1.3h1.3V191.8z M173.2,192.7h-0.6v-0.6h0.6V192.7z"/>
		<rect x="172.6" y="192.2" width="0.6" height="0.6"/>
		<path fill="#2D2D2D" d="M171.8,193.5h-1.3v1.3h1.3V193.5z M171.5,194.4h-0.6v-0.6h0.6V194.4z"/>
		<rect x="170.9" y="193.9" width="0.6" height="0.6"/>
		<path fill="#2D2D2D" d="M173.6,193.5h-1.3v1.3h1.3V193.5z M173.2,194.4h-0.6v-0.6h0.6V194.4z"/>
		<rect x="172.6" y="193.9" width="0.6" height="0.6"/>
		<path fill="#2D2D2D" d="M171.8,195.2h-1.3v1.3h1.3V195.2z M171.5,196.2h-0.6v-0.6h0.6V196.2z"/>
		<rect x="170.9" y="195.6" width="0.6" height="0.6"/>
		<path fill="#2D2D2D" d="M173.6,195.2h-1.3v1.3h1.3V195.2z M173.2,196.2h-0.6v-0.6h0.6V196.2z"/>
		<rect x="172.6" y="195.6" width="0.6" height="0.6"/>
		<path fill="#2D2D2D" d="M171.9,197h-1.3v1.3h1.3V197z M171.5,197.9h-0.6v-0.6h0.6V197.9z"/>
		<rect x="170.9" y="197.3" width="0.6" height="0.6"/>
		<path fill="#2D2D2D" d="M173.6,197h-1.3v1.3h1.3V197z M173.2,197.9h-0.6v-0.6h0.6V197.9z"/>
		<rect x="172.6" y="197.3" width="0.6" height="0.6"/>
		<path fill="#2D2D2D" d="M171.9,198.7h-1.3v1.3h1.3V198.7z M171.5,199.6h-0.6v-0.6h0.6V199.6z"/>
		<rect x="170.9" y="199.1" width="0.6" height="0.6"/>
		<path fill="#2D2D2D" d="M173.6,198.7h-1.3v1.3h1.3V198.7z M173.2,199.6h-0.6v-0.6h0.6V199.6z"/>
		<rect x="172.6" y="199.1" width="0.6" height="0.6"/>
		<path fill="#2D2D2D" d="M171.9,200.4h-1.3v1.3h1.3V200.4z M171.5,201.4h-0.6v-0.6h0.6V201.4z"/>
		<rect x="170.9" y="200.8" width="0.6" height="0.6"/>
		<path fill="#2D2D2D" d="M173.6,200.4h-1.3v1.3h1.3V200.4z M173.2,201.4h-0.6v-0.6h0.6V201.4z"/>
		<rect x="172.7" y="200.8" width="0.6" height="0.6"/>
		<path fill="#2D2D2D" d="M171.9,202.2h-1.3v1.3h1.3V202.2z M171.5,203.1h-0.6v-0.6h0.6V203.1z"/>
		<rect x="170.9" y="202.5" width="0.6" height="0.6"/>
		<path fill="#2D2D2D" d="M173.6,202.2h-1.3v1.3h1.3V202.2z M173.2,203.1h-0.6v-0.6h0.6V203.1z"/>
		<rect x="172.7" y="202.5" width="0.6" height="0.6"/>
		<path fill="#2D2D2D" d="M171.9,203.9h-1.3v1.3h1.3V203.9z M171.5,204.8h-0.6v-0.6h0.6V204.8z"/>
		<rect x="170.9" y="204.3" width="0.6" height="0.6"/>
		<path fill="#2D2D2D" d="M173.6,203.9h-1.3v1.3h1.3V203.9z M173.2,204.8h-0.6v-0.6h0.6V204.8z"/>
		<rect x="172.7" y="204.3" width="0.6" height="0.6"/>
		<path fill="#2D2D2D" d="M171.9,205.6h-1.3v1.3h1.3V205.6z M171.5,206.6h-0.6V206h0.6V206.6z"/>
		<rect x="170.9" y="206" width="0.6" height="0.6"/>
		<path fill="#2D2D2D" d="M173.6,205.6h-1.3v1.3h1.3V205.6z M173.2,206.6h-0.6V206h0.6V206.6z"/>
		<rect x="172.7" y="206" width="0.6" height="0.6"/>
		<path fill="#2D2D2D" d="M171.9,207.3h-1.3v1.3h1.3V207.3z M171.5,208.3h-0.6v-0.6h0.6V208.3z"/>
		<rect x="170.9" y="207.7" width="0.6" height="0.6"/>
		<path fill="#2D2D2D" d="M173.6,207.3h-1.3v1.3h1.3V207.3z M173.2,208.3h-0.6v-0.6h0.6V208.3z"/>
		<rect x="172.7" y="207.7" width="0.6" height="0.6"/>
		<path fill="#2D2D2D" d="M171.9,209.1h-1.3v1.3h1.3V209.1z M171.5,210H171v-0.6h0.6V210z"/>
		<rect x="171" y="209.4" width="0.6" height="0.6"/>
		<path fill="#2D2D2D" d="M173.6,209.1h-1.3v1.3h1.3V209.1z M173.2,210h-0.6v-0.6h0.6V210z"/>
		<rect x="172.7" y="209.4" width="0.6" height="0.6"/>
		<path fill="#2D2D2D" d="M171.9,210.8h-1.3v1.3h1.3V210.8z M171.5,211.7H171v-0.6h0.6V211.7z"/>
		<rect x="171" y="211.2" width="0.6" height="0.6"/>
		<path fill="#2D2D2D" d="M173.6,210.8h-1.3v1.3h1.3V210.8z M173.3,211.7h-0.6v-0.6h0.6V211.7z"/>
		<rect x="172.7" y="211.2" width="0.6" height="0.6"/>
		<path fill="#2D2D2D" d="M171.9,212.5h-1.3v1.3h1.3V212.5z M171.5,213.5H171v-0.6h0.6V213.5z"/>
		<rect x="171" y="212.9" width="0.6" height="0.6"/>
		<path fill="#2D2D2D" d="M173.6,212.5h-1.3v1.3h1.3V212.5z M173.3,213.5h-0.6v-0.6h0.6V213.5z"/>
		<rect x="172.7" y="212.9" width="0.6" height="0.6"/>
		<path fill="#2D2D2D" d="M171.9,214.3h-1.3v1.3h1.3V214.3z M171.5,215.2H171v-0.6h0.6V215.2z"/>
		<rect x="171" y="214.6" width="0.6" height="0.6"/>
		<path fill="#2D2D2D" d="M173.6,214.3h-1.3v1.3h1.3V214.3z M173.3,215.2h-0.6v-0.6h0.6V215.2z"/>
		<rect x="172.7" y="214.6" width="0.6" height="0.6"/>
		<path fill="#2D2D2D" d="M171.9,216h-1.3v1.3h1.3V216z M171.5,216.9H171v-0.6h0.6V216.9z"/>
		<rect x="171" y="216.4" width="0.6" height="0.6"/>
		<path fill="#2D2D2D" d="M173.7,216h-1.3v1.3h1.3V216z M173.3,216.9h-0.6v-0.6h0.6V216.9z"/>
		<rect x="172.7" y="216.4" width="0.6" height="0.6"/>
		<path fill="#2D2D2D" d="M171.9,217.7h-1.3v1.3h1.3V217.7z M171.5,218.7H171v-0.6h0.6V218.7z"/>
		<rect x="171" y="218.1" width="0.6" height="0.6"/>
		<path fill="#2D2D2D" d="M173.7,217.7h-1.3v1.3h1.3V217.7z M173.3,218.7h-0.6v-0.6h0.6V218.7z"/>
		<rect x="172.7" y="218.1" width="0.6" height="0.6"/>
		<path fill="#2D2D2D" d="M171.9,219.4h-1.3v1.3h1.3V219.4z M171.6,220.4H171v-0.6h0.6V220.4z"/>
		<rect x="171" y="219.8" width="0.6" height="0.6"/>
		<path fill="#2D2D2D" d="M173.7,219.4h-1.3v1.3h1.3V219.4z M173.3,220.4h-0.6v-0.6h0.6V220.4z"/>
		<rect x="172.7" y="219.8" width="0.6" height="0.6"/>
		<path fill="#2D2D2D" d="M171.9,221.2h-1.3v1.3h1.3V221.2z M171.6,222.1H171v-0.6h0.6V222.1z"/>
		<rect x="171" y="221.6" width="0.6" height="0.6"/>
		<path fill="#2D2D2D" d="M173.7,221.2h-1.3v1.3h1.3V221.2z M173.3,222.1h-0.6v-0.6h0.6V222.1z"/>
		<rect x="172.7" y="221.6" width="0.6" height="0.6"/>
		<path fill="#2D2D2D" d="M170.6,224.2h1.3v-1.3h-1.3V224.2z M171,223.3h0.6v0.6H171V223.3z"/>
		<rect x="171" y="223.3" width="0.6" height="0.6"/>
		<path fill="#2D2D2D" d="M172.3,224.2h1.3v-1.3h-1.3V224.2z M172.7,223.3h0.6v0.6h-0.6V223.3z"/>
		<rect x="172.7" y="223.3" width="0.6" height="0.6"/>
	</g>
	<path fill="#EDD016" d="M149.7,179c-0.3,0-0.6,0.3-0.6,0.6s0.3,0.6,0.6,0.6s0.6-0.3,0.6-0.6S150,179,149.7,179z M149.7,179.9
		c-0.2,0-0.3-0.1-0.3-0.3s0.1-0.3,0.3-0.3c0.2,0,0.3,0.1,0.3,0.3S149.9,179.9,149.7,179.9z"/>
	<path fill="#EDD016" d="M149.2,180.7v1.1h1.1v-1.1H149.2z M149.7,181.5c-0.2,0-0.3-0.1-0.3-0.3c0-0.2,0.1-0.3,0.3-0.3
		s0.3,0.1,0.3,0.3C150,181.4,149.9,181.5,149.7,181.5z"/>
	<path fill="#EDD016" d="M151.4,180.7c-0.3,0-0.6,0.3-0.6,0.6s0.3,0.6,0.6,0.6c0.3,0,0.6-0.3,0.6-0.6S151.7,180.7,151.4,180.7z
		 M151.4,181.5c-0.2,0-0.3-0.1-0.3-0.3s0.1-0.3,0.3-0.3c0.2,0,0.3,0.1,0.3,0.3S151.5,181.5,151.4,181.5z"/>
	<path fill="#EDD016" d="M151.4,179c-0.3,0-0.6,0.3-0.6,0.6s0.3,0.6,0.6,0.6c0.3,0,0.6-0.3,0.6-0.6S151.7,179,151.4,179z
		 M151.4,179.9c-0.2,0-0.3-0.1-0.3-0.3s0.1-0.3,0.3-0.3c0.2,0,0.3,0.1,0.3,0.3S151.5,179.9,151.4,179.9z"/>
	<path fill="#EDD016" d="M153,180.7c-0.3,0-0.6,0.3-0.6,0.6s0.3,0.6,0.6,0.6c0.3,0,0.6-0.3,0.6-0.6S153.3,180.7,153,180.7z
		 M153,181.5c-0.2,0-0.3-0.1-0.3-0.3s0.1-0.3,0.3-0.3c0.2,0,0.3,0.1,0.3,0.3S153.2,181.5,153,181.5z"/>
	<path fill="#EDD016" d="M153,179c-0.3,0-0.6,0.3-0.6,0.6s0.3,0.6,0.6,0.6c0.3,0,0.6-0.3,0.6-0.6S153.3,179,153,179z M153,179.9
		c-0.2,0-0.3-0.1-0.3-0.3s0.1-0.3,0.3-0.3c0.2,0,0.3,0.1,0.3,0.3S153.2,179.9,153,179.9z"/>
	<path fill="#EDD016" d="M154.7,180.7c-0.3,0-0.6,0.3-0.6,0.6s0.3,0.6,0.6,0.6c0.3,0,0.6-0.3,0.6-0.6S155,180.7,154.7,180.7z
		 M154.7,181.5c-0.2,0-0.3-0.1-0.3-0.3s0.1-0.3,0.3-0.3c0.2,0,0.3,0.1,0.3,0.3S154.8,181.5,154.7,181.5z"/>
	<path fill="#EDD016" d="M154.7,179c-0.3,0-0.6,0.3-0.6,0.6s0.3,0.6,0.6,0.6c0.3,0,0.6-0.3,0.6-0.6S155,179,154.7,179z M154.7,179.9
		c-0.2,0-0.3-0.1-0.3-0.3s0.1-0.3,0.3-0.3c0.2,0,0.3,0.1,0.3,0.3S154.8,179.9,154.7,179.9z"/>
	<path fill="#EDD016" d="M156.3,180.7c-0.3,0-0.6,0.3-0.6,0.6s0.3,0.6,0.6,0.6s0.6-0.3,0.6-0.6S156.6,180.7,156.3,180.7z
		 M156.3,181.5c-0.2,0-0.3-0.1-0.3-0.3s0.1-0.3,0.3-0.3c0.2,0,0.3,0.1,0.3,0.3S156.5,181.5,156.3,181.5z"/>
	<path fill="#EDD016" d="M156.3,179c-0.3,0-0.6,0.3-0.6,0.6s0.3,0.6,0.6,0.6s0.6-0.3,0.6-0.6S156.6,179,156.3,179z M156.3,179.9
		c-0.2,0-0.3-0.1-0.3-0.3s0.1-0.3,0.3-0.3c0.2,0,0.3,0.1,0.3,0.3S156.5,179.9,156.3,179.9z"/>
	<path fill="#EDD016" d="M158,180.7c-0.3,0-0.6,0.3-0.6,0.6s0.3,0.6,0.6,0.6c0.3,0,0.6-0.3,0.6-0.6S158.3,180.7,158,180.7z
		 M158,181.5c-0.2,0-0.3-0.1-0.3-0.3s0.1-0.3,0.3-0.3c0.2,0,0.3,0.1,0.3,0.3S158.1,181.5,158,181.5z"/>
	<path fill="#EDD016" d="M158,179c-0.3,0-0.6,0.3-0.6,0.6s0.3,0.6,0.6,0.6c0.3,0,0.6-0.3,0.6-0.6S158.3,179,158,179z M158,179.9
		c-0.2,0-0.3-0.1-0.3-0.3s0.1-0.3,0.3-0.3c0.2,0,0.3,0.1,0.3,0.3S158.1,179.9,158,179.9z"/>
	<path fill="#EDD016" d="M159.6,180.7c-0.3,0-0.6,0.3-0.6,0.6s0.3,0.6,0.6,0.6c0.3,0,0.6-0.3,0.6-0.6S159.9,180.7,159.6,180.7z
		 M159.6,181.5c-0.2,0-0.3-0.1-0.3-0.3s0.1-0.3,0.3-0.3c0.2,0,0.3,0.1,0.3,0.3S159.8,181.5,159.6,181.5z"/>
	<path fill="#EDD016" d="M159.6,179c-0.3,0-0.6,0.3-0.6,0.6s0.3,0.6,0.6,0.6c0.3,0,0.6-0.3,0.6-0.6S159.9,179,159.6,179z
		 M159.6,179.9c-0.2,0-0.3-0.1-0.3-0.3s0.1-0.3,0.3-0.3c0.2,0,0.3,0.1,0.3,0.3S159.8,179.9,159.6,179.9z"/>
	<path fill="#EDD016" d="M161.3,180.7c-0.3,0-0.6,0.3-0.6,0.6s0.3,0.6,0.6,0.6c0.3,0,0.6-0.3,0.6-0.6S161.6,180.7,161.3,180.7z
		 M161.3,181.5c-0.2,0-0.3-0.1-0.3-0.3s0.1-0.3,0.3-0.3c0.2,0,0.3,0.1,0.3,0.3S161.4,181.5,161.3,181.5z"/>
	<path fill="#EDD016" d="M161.3,179c-0.3,0-0.6,0.3-0.6,0.6s0.3,0.6,0.6,0.6c0.3,0,0.6-0.3,0.6-0.6S161.6,179,161.3,179z
		 M161.3,179.9c-0.2,0-0.3-0.1-0.3-0.3s0.1-0.3,0.3-0.3c0.2,0,0.3,0.1,0.3,0.3S161.4,179.9,161.3,179.9z"/>
	<path fill="#EDD016" d="M162.9,180.7c-0.3,0-0.6,0.3-0.6,0.6s0.3,0.6,0.6,0.6c0.3,0,0.6-0.3,0.6-0.6S163.2,180.7,162.9,180.7z
		 M162.9,181.5c-0.2,0-0.3-0.1-0.3-0.3s0.1-0.3,0.3-0.3c0.2,0,0.3,0.1,0.3,0.3S163.1,181.5,162.9,181.5z"/>
	<path fill="#EDD016" d="M162.9,179c-0.3,0-0.6,0.3-0.6,0.6s0.3,0.6,0.6,0.6c0.3,0,0.6-0.3,0.6-0.6S163.2,179,162.9,179z
		 M162.9,179.9c-0.2,0-0.3-0.1-0.3-0.3s0.1-0.3,0.3-0.3c0.2,0,0.3,0.1,0.3,0.3S163.1,179.9,162.9,179.9z"/>
	<path fill="#EDD016" d="M164.6,180.7c-0.3,0-0.6,0.3-0.6,0.6s0.3,0.6,0.6,0.6s0.6-0.3,0.6-0.6S164.9,180.7,164.6,180.7z
		 M164.6,181.5c-0.2,0-0.3-0.1-0.3-0.3s0.1-0.3,0.3-0.3c0.2,0,0.3,0.1,0.3,0.3S164.7,181.5,164.6,181.5z"/>
	<path fill="#EDD016" d="M164.6,179c-0.3,0-0.6,0.3-0.6,0.6s0.3,0.6,0.6,0.6s0.6-0.3,0.6-0.6S164.9,179,164.6,179z M164.6,179.9
		c-0.2,0-0.3-0.1-0.3-0.3s0.1-0.3,0.3-0.3c0.2,0,0.3,0.1,0.3,0.3S164.7,179.9,164.6,179.9z"/>
	<path fill="#EDD016" d="M166.2,180.7c-0.3,0-0.6,0.3-0.6,0.6s0.3,0.6,0.6,0.6s0.6-0.3,0.6-0.6S166.5,180.7,166.2,180.7z
		 M166.2,181.5c-0.2,0-0.3-0.1-0.3-0.3s0.1-0.3,0.3-0.3c0.2,0,0.3,0.1,0.3,0.3S166.4,181.5,166.2,181.5z"/>
	<path fill="#EDD016" d="M166.2,179c-0.3,0-0.6,0.3-0.6,0.6s0.3,0.6,0.6,0.6s0.6-0.3,0.6-0.6S166.5,179,166.2,179z M166.2,179.9
		c-0.2,0-0.3-0.1-0.3-0.3s0.1-0.3,0.3-0.3c0.2,0,0.3,0.1,0.3,0.3S166.4,179.9,166.2,179.9z"/>
	<path fill="#EDD016" d="M167.9,180.7c-0.3,0-0.6,0.3-0.6,0.6s0.3,0.6,0.6,0.6c0.3,0,0.6-0.3,0.6-0.6S168.2,180.7,167.9,180.7z
		 M167.9,181.5c-0.2,0-0.3-0.1-0.3-0.3s0.1-0.3,0.3-0.3c0.2,0,0.3,0.1,0.3,0.3S168,181.5,167.9,181.5z"/>
	<path fill="#EDD016" d="M167.9,179c-0.3,0-0.6,0.3-0.6,0.6s0.3,0.6,0.6,0.6c0.3,0,0.6-0.3,0.6-0.6S168.2,179,167.9,179z
		 M167.9,179.9c-0.2,0-0.3-0.1-0.3-0.3s0.1-0.3,0.3-0.3c0.2,0,0.3,0.1,0.3,0.3S168,179.9,167.9,179.9z"/>
	<path fill="#EDD016" d="M169.5,180.7c-0.3,0-0.6,0.3-0.6,0.6s0.3,0.6,0.6,0.6c0.3,0,0.6-0.3,0.6-0.6S169.8,180.7,169.5,180.7z
		 M169.5,181.5c-0.2,0-0.3-0.1-0.3-0.3s0.1-0.3,0.3-0.3c0.2,0,0.3,0.1,0.3,0.3S169.7,181.5,169.5,181.5z"/>
	<path fill="#EDD016" d="M169.5,179c-0.3,0-0.6,0.3-0.6,0.6s0.3,0.6,0.6,0.6c0.3,0,0.6-0.3,0.6-0.6S169.8,179,169.5,179z
		 M169.5,179.9c-0.2,0-0.3-0.1-0.3-0.3s0.1-0.3,0.3-0.3c0.2,0,0.3,0.1,0.3,0.3S169.7,179.9,169.5,179.9z"/>
	<path fill="#EDD016" d="M171.2,180.7c-0.3,0-0.6,0.3-0.6,0.6s0.3,0.6,0.6,0.6s0.6-0.3,0.6-0.6S171.5,180.7,171.2,180.7z
		 M171.2,181.5c-0.2,0-0.3-0.1-0.3-0.3s0.1-0.3,0.3-0.3c0.2,0,0.3,0.1,0.3,0.3S171.3,181.5,171.2,181.5z"/>
	<path fill="#EDD016" d="M171.2,179c-0.3,0-0.6,0.3-0.6,0.6s0.3,0.6,0.6,0.6s0.6-0.3,0.6-0.6S171.5,179,171.2,179z M171.2,179.9
		c-0.2,0-0.3-0.1-0.3-0.3s0.1-0.3,0.3-0.3c0.2,0,0.3,0.1,0.3,0.3S171.3,179.9,171.2,179.9z"/>
	<path fill="#EDD016" d="M172.8,180.7c-0.3,0-0.6,0.3-0.6,0.6s0.3,0.6,0.6,0.6s0.6-0.3,0.6-0.6S173.1,180.7,172.8,180.7z
		 M172.8,181.5c-0.2,0-0.3-0.1-0.3-0.3s0.1-0.3,0.3-0.3c0.2,0,0.3,0.1,0.3,0.3S173,181.5,172.8,181.5z"/>
	<path fill="#EDD016" d="M172.8,179c-0.3,0-0.6,0.3-0.6,0.6s0.3,0.6,0.6,0.6s0.6-0.3,0.6-0.6S173.1,179,172.8,179z M172.8,179.9
		c-0.2,0-0.3-0.1-0.3-0.3s0.1-0.3,0.3-0.3c0.2,0,0.3,0.1,0.3,0.3S173,179.9,172.8,179.9z"/>
	<path fill="#EDD016" d="M174.4,180.7c-0.3,0-0.6,0.3-0.6,0.6s0.3,0.6,0.6,0.6s0.6-0.3,0.6-0.6S174.8,180.7,174.4,180.7z
		 M174.4,181.5c-0.2,0-0.3-0.1-0.3-0.3s0.1-0.3,0.3-0.3c0.2,0,0.3,0.1,0.3,0.3S174.6,181.5,174.4,181.5z"/>
	<path fill="#EDD016" d="M174.4,179c-0.3,0-0.6,0.3-0.6,0.6s0.3,0.6,0.6,0.6s0.6-0.3,0.6-0.6S174.8,179,174.4,179z M174.4,179.9
		c-0.2,0-0.3-0.1-0.3-0.3s0.1-0.3,0.3-0.3c0.2,0,0.3,0.1,0.3,0.3S174.6,179.9,174.4,179.9z"/>
	<path fill="#EDD016" d="M176.1,180.7c-0.3,0-0.6,0.3-0.6,0.6s0.3,0.6,0.6,0.6s0.6-0.3,0.6-0.6S176.4,180.7,176.1,180.7z
		 M176.1,181.5c-0.2,0-0.3-0.1-0.3-0.3s0.1-0.3,0.3-0.3c0.2,0,0.3,0.1,0.3,0.3S176.3,181.5,176.1,181.5z"/>
	<path fill="#EDD016" d="M176.1,179c-0.3,0-0.6,0.3-0.6,0.6s0.3,0.6,0.6,0.6s0.6-0.3,0.6-0.6S176.4,179,176.1,179z M176.1,179.9
		c-0.2,0-0.3-0.1-0.3-0.3s0.1-0.3,0.3-0.3c0.2,0,0.3,0.1,0.3,0.3S176.3,179.9,176.1,179.9z"/>
	<path fill="#EDD016" d="M177.8,180.7c-0.3,0-0.6,0.3-0.6,0.6s0.3,0.6,0.6,0.6c0.3,0,0.6-0.3,0.6-0.6S178.1,180.7,177.8,180.7z
		 M177.8,181.5c-0.2,0-0.3-0.1-0.3-0.3s0.1-0.3,0.3-0.3c0.2,0,0.3,0.1,0.3,0.3S177.9,181.5,177.8,181.5z"/>
	<path fill="#EDD016" d="M177.8,179c-0.3,0-0.6,0.3-0.6,0.6s0.3,0.6,0.6,0.6c0.3,0,0.6-0.3,0.6-0.6S178.1,179,177.8,179z
		 M177.8,179.9c-0.2,0-0.3-0.1-0.3-0.3s0.1-0.3,0.3-0.3c0.2,0,0.3,0.1,0.3,0.3S177.9,179.9,177.8,179.9z"/>
	<path fill="#EDD016" d="M179.4,180.7c-0.3,0-0.6,0.3-0.6,0.6s0.3,0.6,0.6,0.6c0.3,0,0.6-0.3,0.6-0.6S179.7,180.7,179.4,180.7z
		 M179.4,181.5c-0.2,0-0.3-0.1-0.3-0.3s0.1-0.3,0.3-0.3c0.2,0,0.3,0.1,0.3,0.3S179.6,181.5,179.4,181.5z"/>
	<path fill="#EDD016" d="M179.4,179c-0.3,0-0.6,0.3-0.6,0.6s0.3,0.6,0.6,0.6c0.3,0,0.6-0.3,0.6-0.6S179.7,179,179.4,179z
		 M179.4,179.9c-0.2,0-0.3-0.1-0.3-0.3s0.1-0.3,0.3-0.3c0.2,0,0.3,0.1,0.3,0.3S179.6,179.9,179.4,179.9z"/>
	<path fill="#EDD016" d="M181,180.7c-0.3,0-0.6,0.3-0.6,0.6s0.3,0.6,0.6,0.6c0.3,0,0.6-0.3,0.6-0.6S181.4,180.7,181,180.7z
		 M181,181.5c-0.2,0-0.3-0.1-0.3-0.3s0.1-0.3,0.3-0.3c0.2,0,0.3,0.1,0.3,0.3S181.2,181.5,181,181.5z"/>
	<path fill="#EDD016" d="M181,179c-0.3,0-0.6,0.3-0.6,0.6s0.3,0.6,0.6,0.6c0.3,0,0.6-0.3,0.6-0.6S181.4,179,181,179z M181,179.9
		c-0.2,0-0.3-0.1-0.3-0.3s0.1-0.3,0.3-0.3c0.2,0,0.3,0.1,0.3,0.3S181.2,179.9,181,179.9z"/>
	<text transform="matrix(1 0 0 1 171.582 188.9306)" fill="#FFFFFF" font-family="'MyriadPro-Regular'" font-size="1.1389">P1</text>
	<text transform="matrix(1 0 0 1 191.165 188.7949)" fill="#FFFFFF" font-family="'MyriadPro-Regular'" font-size="1.1389">P3</text>
	<text transform="matrix(1 0 0 1 163.9414 206.6924)" fill="#FFFFFF" font-family="'MyriadPro-Regular'" font-size="1.1389">D5</text>
	<text transform="matrix(1 0 0 1 162.3672 209.4482)" fill="#FFFFFF" font-family="'MyriadPro-Regular'" font-size="1.1389">R5</text>
	<text transform="matrix(1 0 0 1 155.4131 209.0351)" fill="#FFFFFF" font-family="'MyriadPro-Regular'" font-size="1.1389">D1</text>
	<text transform="matrix(1 0 0 1 152.9111 207.7295)" fill="#FFFFFF" font-family="'MyriadPro-Regular'" font-size="1.1389">R1</text>
	<text transform="matrix(1 0 0 1 149.7959 187.0254)" fill="#FFFFFF" font-family="'MyriadPro-Regular'" font-size="1.1389">R2</text>
	<text transform="matrix(1 0 0 1 153.664 186.8437)" fill="#FFFFFF" font-family="'MyriadPro-Regular'" font-size="1.1389">D2</text>
	<text transform="matrix(1 0 0 1 159.3349 187.1445)" fill="#FFFFFF" font-family="'MyriadPro-Regular'" font-size="1.1389">R4</text>
	<text transform="matrix(1 0 0 1 163.584 187.0254)" fill="#FFFFFF" font-family="'MyriadPro-Regular'" font-size="1.1389">D4</text>
	<text transform="matrix(1 0 0 1 148.7011 178.0351)" fill="#FFFFFF" font-family="'MyriadPro-Regular'" font-size="1.1389">P2</text>
	<text transform="matrix(1 0 0 1 147.6123 172.4423)" fill="#FFFFFF" font-family="'MyriadPro-Regular'" font-size="1.1389">P9</text>
	<text transform="matrix(1 0 0 1 154.8603 168.5351)" fill="#FFFFFF" font-family="'MyriadPro-Regular'" font-size="1.1389">U7</text>
	<text transform="matrix(1 0 0 1 160.3271 177.8535)" fill="#FFFFFF" font-family="'MyriadPro-Regular'" font-size="1.1389">C3</text>
	<text transform="matrix(1 0 0 1 159.5097 168.9873)" fill="#FFFFFF" font-family="'MyriadPro-Regular'" font-size="1.1389">R3</text>
	<text transform="matrix(1 0 0 1 162.9629 168.8574)" fill="#FFFFFF" font-family="'MyriadPro-Regular'" font-size="1.1389">D3</text>
	<text transform="matrix(1 0 0 1 165.7871 171.5371)" fill="#FFFFFF" font-family="'MyriadPro-Regular'" font-size="1.1389">C2</text>
	<text transform="matrix(1 0 0 1 167.7314 170.8955)" fill="#FFFFFF" font-family="'MyriadPro-Regular'" font-size="1.1389">D6</text>
	<text transform="matrix(1 0 0 1 167.0918 166.8134)" fill="#FFFFFF" font-family="'MyriadPro-Regular'" font-size="1.1389">P8</text>
	<text transform="matrix(1 0 0 1 173.1611 171.3447)" fill="#FFFFFF" font-family="'MyriadPro-Regular'" font-size="1.1389">P7</text>
	<text transform="matrix(1 0 0 1 173.1611 169.3505)" fill="#FFFFFF" font-family="'MyriadPro-Regular'" font-size="1.1389">P6</text>
	<text transform="matrix(1 0 0 1 173.1093 167.1533)" fill="#FFFFFF" font-family="'MyriadPro-Regular'" font-size="1.1389">P5</text>
	<text transform="matrix(1 0 0 1 182.4277 171.1494)" fill="#FFFFFF" font-family="'MyriadPro-Regular'" font-size="1.1389">C1</text>
	<text transform="matrix(1 0 0 1 190.8398 172.8349)" fill="#FFFFFF" font-family="'MyriadPro-Regular'" font-size="1.1389">P4</text>
	<g>
		<path fill="#333333" d="M148.8,172.8h-1.3c-0.1,0-0.1,0-0.1,0.1v3.4c0,0.1,0,0.1,0.1,0.1h1.3c0.1,0,0.1,0,0.1-0.1v-3.4
			C148.9,172.8,148.8,172.8,148.8,172.8z M148.1,175.7c-0.1,0-0.2-0.1-0.2-0.2s0.1-0.2,0.2-0.2s0.2,0.1,0.2,0.2
			S148.2,175.7,148.1,175.7z M148.1,173.9c-0.1,0-0.2-0.1-0.2-0.2s0.1-0.2,0.2-0.2s0.2,0.1,0.2,0.2S148.2,173.9,148.1,173.9z"/>
		<circle fill="#EDD016" cx="148.1" cy="175.5" r="0.2"/>
		<circle fill="#EDD016" cx="148.1" cy="173.7" r="0.2"/>
	</g>
	<g>
		<path fill="#333333" d="M172.1,165.7h-3.4c-0.1,0-0.1,0-0.1,0.1v1.3c0,0.1,0,0.1,0.1,0.1h3.4c0.1,0,0.1,0,0.1-0.1v-1.3
			C172.2,165.7,172.2,165.7,172.1,165.7z M169.6,166.6c-0.1,0-0.2-0.1-0.2-0.2s0.1-0.2,0.2-0.2c0.1,0,0.2,0.1,0.2,0.2
			S169.7,166.6,169.6,166.6z M171.3,166.6c-0.1,0-0.2-0.1-0.2-0.2s0.1-0.2,0.2-0.2s0.2,0.1,0.2,0.2S171.5,166.6,171.3,166.6z"/>
		<circle fill="#EDD016" cx="171.3" cy="166.4" r="0.2"/>
		<circle fill="#EDD016" cx="169.6" cy="166.4" r="0.2"/>
	</g>
	<g>
		<path fill="#333333" d="M179.9,170.3h-5.1c-0.1,0-0.1,0-0.1,0.1v1.3c0,0.1,0,0.1,0.1,0.1h5.1c0.1,0,0.1,0,0.1-0.1v-1.3
			C180,170.4,180,170.3,179.9,170.3z M175.5,171.3c-0.1,0-0.2-0.1-0.2-0.2s0.1-0.2,0.2-0.2s0.2,0.1,0.2,0.2S175.6,171.3,175.5,171.3
			z M177.3,171.3c-0.1,0-0.2-0.1-0.2-0.2s0.1-0.2,0.2-0.2s0.2,0.1,0.2,0.2S177.4,171.3,177.3,171.3z M179.1,171.3
			c-0.1,0-0.2-0.1-0.2-0.2c0-0.1,0.1-0.2,0.2-0.2s0.2,0.1,0.2,0.2C179.3,171.3,179.2,171.3,179.1,171.3z"/>
		<circle fill="#EDD016" cx="177.3" cy="171.1" r="0.2"/>
		<circle fill="#EDD016" cx="175.5" cy="171.1" r="0.2"/>
		<circle fill="#EDD016" cx="179.1" cy="171.1" r="0.2"/>
	</g>
	<g>
		<path fill="#333333" d="M179.9,168.3h-5.1c-0.1,0-0.1,0-0.1,0.1v1.3c0,0.1,0,0.1,0.1,0.1h5.1c0.1,0,0.1,0,0.1-0.1v-1.3
			C180,168.3,180,168.3,179.9,168.3z M175.5,169.2c-0.1,0-0.2-0.1-0.2-0.2s0.1-0.2,0.2-0.2s0.2,0.1,0.2,0.2S175.6,169.2,175.5,169.2
			z M177.3,169.2c-0.1,0-0.2-0.1-0.2-0.2s0.1-0.2,0.2-0.2s0.2,0.1,0.2,0.2S177.4,169.2,177.3,169.2z M179.1,169.3
			c-0.1,0-0.2-0.1-0.2-0.2c0-0.1,0.1-0.2,0.2-0.2c0.1,0,0.2,0.1,0.2,0.2C179.3,169.2,179.2,169.3,179.1,169.3z"/>
		<circle fill="#EDD016" cx="177.3" cy="169" r="0.2"/>
		<circle fill="#EDD016" cx="175.5" cy="169" r="0.2"/>
		<circle fill="#EDD016" cx="179.1" cy="169.1" r="0.2"/>
	</g>
	<g>
		<path fill="#333333" d="M179.9,166.2h-5.1c-0.1,0-0.1,0-0.1,0.1v1.3c0,0.1,0,0.1,0.1,0.1h5.1c0.1,0,0.1,0,0.1-0.1v-1.3
			C180,166.3,180,166.2,179.9,166.2z M175.5,167.2c-0.1,0-0.2-0.1-0.2-0.2s0.1-0.2,0.2-0.2s0.2,0.1,0.2,0.2S175.6,167.2,175.5,167.2
			z M177.3,167.2c-0.1,0-0.2-0.1-0.2-0.2s0.1-0.2,0.2-0.2c0.1,0,0.2,0.1,0.2,0.2S177.4,167.2,177.3,167.2z M179.1,167.2
			c-0.1,0-0.2-0.1-0.2-0.2s0.1-0.2,0.2-0.2s0.2,0.1,0.2,0.2S179.2,167.2,179.1,167.2z"/>
		<circle fill="#EDD016" cx="177.3" cy="167" r="0.2"/>
		<circle fill="#EDD016" cx="175.5" cy="167" r="0.2"/>
		<circle fill="#EDD016" cx="179.1" cy="167" r="0.2"/>
	</g>
	<g>
		<rect x="165.9" y="171.8" fill="#BFBEBE" width="0.8" height="0.7"/>
		<rect x="165.9" y="172.5" fill="#E6E6E5" width="0.8" height="0.3"/>
		<rect x="165.9" y="172.8" fill="#C87929" width="0.8" height="0.7"/>
		<rect x="165.9" y="173.8" fill="#BFBEBE" width="0.8" height="0.7"/>
		<rect x="165.9" y="173.5" fill="#E6E6E5" width="0.8" height="0.3"/>
	</g>
	<g>
		<polygon fill="#282827" points="159.5,167 159.5,167.8 159.5,167.8 160.4,167.8 160.4,167 159.5,167 		"/>
		<rect x="160.7" y="167" fill="#BFBEBE" width="0.7" height="0.8"/>
		<polygon fill="#E6E6E5" points="160.7,167 160.4,167 160.4,167.8 160.7,167.8 160.7,167 		"/>
		<rect x="158.6" y="167" fill="#BFBEBE" width="0.7" height="0.8"/>
		<polygon fill="#E6E6E5" points="159.3,167 159.3,167 159.3,167.8 159.5,167.8 159.5,167 		"/>
	</g>
	<g>
		<polygon fill="#282827" points="151.3,187.3 152.1,187.3 152.1,187.3 152.1,186.4 151.3,186.4 151.3,187.3 		"/>
		<rect x="151.3" y="185.5" fill="#BFBEBE" width="0.8" height="0.7"/>
		<polygon fill="#E6E6E5" points="151.3,186.1 151.3,186.4 152.1,186.4 152.1,186.1 151.3,186.1 		"/>
		<rect x="151.3" y="187.5" fill="#BFBEBE" width="0.8" height="0.7"/>
		<polygon fill="#E6E6E5" points="151.3,187.5 151.3,187.5 152.1,187.5 152.1,187.3 151.3,187.3 		"/>
	</g>
	<g>
		<polygon fill="#282827" points="160.8,187.3 161.7,187.3 161.7,187.3 161.7,186.4 160.8,186.4 160.8,187.3 		"/>
		<rect x="160.8" y="185.5" fill="#BFBEBE" width="0.8" height="0.7"/>
		<polygon fill="#E6E6E5" points="160.8,186.1 160.8,186.4 161.7,186.4 161.7,186.1 160.8,186.1 		"/>
		<rect x="160.8" y="187.5" fill="#BFBEBE" width="0.8" height="0.7"/>
		<polygon fill="#E6E6E5" points="160.8,187.5 160.8,187.5 161.7,187.5 161.7,187.3 160.8,187.3 		"/>
	</g>
	<g>
		<polygon fill="#282827" points="151.7,209 152.5,209 152.5,209 152.5,208 151.7,208 151.7,209 		"/>
		<rect x="151.7" y="207.1" fill="#BFBEBE" width="0.8" height="0.7"/>
		<polygon fill="#E6E6E5" points="151.7,207.8 151.7,208 152.5,208 152.5,207.8 151.7,207.8 		"/>
		<rect x="151.7" y="209.2" fill="#BFBEBE" width="0.8" height="0.7"/>
		<polygon fill="#E6E6E5" points="151.7,209.2 151.7,209.2 152.5,209.2 152.5,209 151.7,209 		"/>
	</g>
	<g>
		<polygon fill="#282827" points="161.1,208.9 161.9,208.9 161.9,208.9 161.9,207.9 161.1,207.9 161.1,208.9 		"/>
		<rect x="161.1" y="207" fill="#BFBEBE" width="0.8" height="0.7"/>
		<polygon fill="#E6E6E5" points="161.1,207.7 161.1,207.9 161.9,207.9 161.9,207.7 161.1,207.7 		"/>
		<rect x="161.1" y="209.1" fill="#BFBEBE" width="0.8" height="0.7"/>
		<polygon fill="#E6E6E5" points="161.1,209.1 161.1,209.1 161.9,209.1 161.9,208.9 161.1,208.9 		"/>
	</g>
	<g>
		<path opacity="0.8" fill="#FFFFFF" d="M163.7,167h-0.7v0v0.9v0h0.7V167L163.7,167z M163.6,167.7h-0.4v-0.6h0.4V167.7z"/>
		<polygon fill="#BFBEBE" points="163.7,167 163.7,167.8 163.7,167.8 164,167.8 164,167 		"/>
		<rect x="163.2" y="167.1" fill="#E7D421" width="0.4" height="0.6"/>
		<rect x="162.8" y="167" fill="#BFBEBE" width="0.3" height="0.9"/>
	</g>
	<g>
		<path opacity="0.8" fill="#FFFFFF" d="M152.7,186.2v0.7h0h0.9h0v-0.7H152.7L152.7,186.2z M153.4,186.3v0.4h-0.6v-0.4H153.4z"/>
		<polygon fill="#BFBEBE" points="152.7,186.2 153.5,186.2 153.5,186.2 153.5,185.9 152.7,185.9 		"/>
		<rect x="152.8" y="186.3" fill="#E7D421" width="0.6" height="0.4"/>
		<rect x="152.7" y="186.9" fill="#BFBEBE" width="0.9" height="0.3"/>
	</g>
	<g>
		<path opacity="0.8" fill="#FFFFFF" d="M162.5,186.4v0.7h0h0.9h0v-0.7H162.5L162.5,186.4z M163.2,186.5v0.4h-0.6v-0.4H163.2z"/>
		<polygon fill="#BFBEBE" points="162.5,186.4 163.3,186.4 163.3,186.4 163.3,186.1 162.5,186.1 		"/>
		<rect x="162.6" y="186.5" fill="#E7D421" width="0.6" height="0.4"/>
		<rect x="162.5" y="187.1" fill="#BFBEBE" width="0.9" height="0.3"/>
	</g>
	<g>
		<path opacity="0.8" fill="#FFFFFF" d="M154.2,209.1v0.7h0h0.9h0v-0.7H154.2L154.2,209.1z M154.9,209.2v0.4h-0.6v-0.4H154.9z"/>
		<polygon fill="#BFBEBE" points="154.2,209.1 155.1,209.1 155.1,209.1 155.1,208.8 154.2,208.8 		"/>
		<rect x="154.4" y="209.2" fill="#E7D421" width="0.6" height="0.4"/>
		<rect x="154.2" y="209.8" fill="#BFBEBE" width="0.9" height="0.3"/>
	</g>
	<g>
		<path opacity="0.8" fill="#FFFFFF" d="M164.8,208v-0.9h-0.7v0v0.9v0L164.8,208L164.8,208z M164.6,207.8h-0.4v-0.6h0.4V207.8z"/>
		<polygon fill="#BFBEBE" points="164.8,208 164.8,207.1 164.8,207.1 165.1,207.1 165.1,208 		"/>
		<rect x="164.2" y="207.3" fill="#E7D421" width="0.4" height="0.6"/>
		<rect x="163.8" y="207.1" fill="#BFBEBE" width="0.3" height="0.9"/>
	</g>
	<g>
		<polygon fill="#F5EA14" points="159.8,174.6 159.8,174.7 159.8,176 159.8,176.2 161.4,176.2 161.4,174.6 		"/>
		<rect x="161.8" y="174.7" fill="#BFBEBE" width="0.7" height="1.3"/>
		<polygon fill="#E4B322" points="161.8,174.6 161.4,174.6 161.4,176.2 161.8,176.2 161.8,176 161.8,174.7 		"/>
		<rect x="159.1" y="174.7" fill="#BFBEBE" width="0.7" height="1.3"/>
	</g>
	<g>
		<polygon fill="#F5EA14" points="182.1,172.8 182.3,172.8 183.5,172.8 183.7,172.8 183.7,174.5 182.1,174.5 		"/>
		<rect x="182.3" y="174.8" fill="#BFBEBE" width="1.3" height="0.7"/>
		<polygon fill="#E4B322" points="182.1,174.8 182.1,174.5 183.7,174.5 183.7,174.8 183.5,174.8 182.3,174.8 		"/>
		<rect x="182.3" y="172.2" fill="#BFBEBE" width="1.3" height="0.7"/>
	</g>
	<g>
		<rect x="167.8" y="173.1" fill="#233F93" width="0.9" height="2.1"/>
		<polygon fill="#80BEBD" points="168.8,173.1 168.8,172.9 168.8,172.9 167.8,172.9 167.7,172.9 167.7,173.1 167.8,173.1 
			168.8,173.1 		"/>
		<polygon fill="#80BEBD" points="167.7,175.2 167.7,175.4 167.8,175.4 168.8,175.4 168.8,175.4 168.8,175.2 168.8,175.2 
			167.8,175.2 		"/>
		<rect x="167.8" y="172.2" fill="#BFBEBE" width="0.9" height="0.6"/>
		<rect x="167.8" y="175.4" fill="#BFBEBE" width="0.9" height="0.6"/>
	</g>
	<rect x="188.6" y="177.9" fill="#969494" width="0.7" height="0.3"/>
	<rect x="192.1" y="179.4" fill="#969494" width="1.7" height="1"/>
	<rect x="188.5" y="179.4" fill="#969494" width="1.7" height="1"/>
	<rect x="192.1" y="173.3" fill="#969494" width="1.7" height="1"/>
	<rect x="188.5" y="173.3" fill="#969494" width="1.7" height="1"/>
	<rect x="188.6" y="176.8" fill="#969494" width="0.7" height="0.3"/>
	<rect x="188.6" y="176.2" fill="#969494" width="0.7" height="0.3"/>
	<rect x="188.6" y="175.7" fill="#969494" width="0.7" height="0.3"/>
	<rect x="188.6" y="177.3" fill="#969494" width="0.7" height="0.3"/>
	<rect x="189.3" y="174.3" fill="#BFBEBE" width="5.3" height="5.1"/>
	<rect x="192.1" y="174.6" fill="#333333" width="1.9" height="0.2"/>
	<rect x="192.1" y="175.6" fill="#333333" width="1.9" height="0.2"/>
	<rect x="193.9" y="174.7" fill="#333333" width="0.2" height="1"/>
	<rect x="192.1" y="177.9" fill="#333333" width="1.9" height="0.2"/>
	<rect x="192.1" y="178.9" fill="#333333" width="1.9" height="0.2"/>
	<rect x="193.9" y="178" fill="#333333" width="0.2" height="1"/>
	<rect x="191.4" y="176.1" fill="#333333" width="2.6" height="0.2"/>
	<rect x="191.4" y="177.5" fill="#333333" width="2.6" height="0.2"/>
	<rect x="191.3" y="176.2" fill="#333333" width="0.2" height="1.4"/>
	<rect x="192.3" y="176.2" fill="#333333" width="0.2" height="1.4"/>
	<g>
		<polygon fill="#333333" points="156.5,169 154,169 154,170.1 154,172.2 154,173.3 156.5,173.3 156.5,172.9 156.5,172.4 
			156.5,171.4 156.5,170.9 156.5,169.8 156.5,169.3 		"/>
		<polygon fill="#BFBEBE" points="158.2,169.9 158.2,169.3 156.8,169.3 156.8,169.3 157.6,169.3 157.6,169.8 156.8,169.8 
			156.8,169.9 		"/>
		<polygon fill="#BFBEBE" points="157.6,171.4 156.8,171.4 156.8,171.5 158.2,171.5 158.2,170.8 156.8,170.8 156.8,170.9 
			157.6,170.9 		"/>
		<polygon fill="#BFBEBE" points="157.7,172.9 156.8,172.9 156.8,172.9 158.2,172.9 158.2,172.3 156.8,172.3 156.8,172.4 
			157.7,172.4 		"/>
		<polygon fill="#BFBEBE" points="153,170.1 153.8,170.1 153.8,169.9 152.5,169.9 152.5,172.4 153.8,172.4 153.8,172.2 153,172.2 		
			"/>
		<polygon fill="#E6F4F7" points="153.8,170.1 153,170.1 153,172.2 153.8,172.2 154,172.2 154,170.1 		"/>
		<polygon fill="#E6F4F7" points="157.6,169.3 156.8,169.3 156.5,169.3 156.5,169.8 156.8,169.8 157.6,169.8 		"/>
		<polygon fill="#E6F4F7" points="156.8,171.4 157.6,171.4 157.6,170.9 156.8,170.9 156.5,170.9 156.5,171.4 		"/>
		<polygon fill="#E6F4F7" points="156.8,172.9 157.7,172.9 157.7,172.4 156.8,172.4 156.5,172.4 156.5,172.9 		"/>
	</g>
	<rect x="175.5" y="190.3" fill="#282827" width="13.1" height="33.7"/>
	<rect x="176.4" y="190.2" fill="#ADADAD" width="0.7" height="33.8"/>
	<rect x="178.9" y="190.2" fill="#086666" width="0.7" height="33.9"/>
	<rect x="184.5" y="190.3" fill="#086666" width="0.7" height="33.9"/>
	<rect x="187" y="190.4" fill="#ADADAD" width="0.7" height="33.8"/>
	<path fill="#059EA5" d="M188.8,184.8h-13.4c-0.4,0-0.7,0.3-0.7,0.7v40.4c0,0.4,0.3,0.7,0.7,0.7h13.4c0.4,0,0.7-0.3,0.7-0.7v-40.4
		C189.5,185.1,189.2,184.8,188.8,184.8z M180.8,224h-5.3v-0.9h5.3V224z M180.8,222.3h-5.3v-0.9h5.3V222.3z M180.8,220.6h-5.3v-0.9
		h5.3V220.6z M180.8,218.8h-5.3v-0.9h5.3V218.8z M180.8,217.1h-5.3v-0.9h5.3V217.1z M180.8,215.4h-5.3v-0.9h5.3V215.4z M180.8,213.7
		h-5.3v-0.9h5.3V213.7z M180.8,211.9h-5.3V211h5.3V211.9z M180.8,210.2h-5.3v-0.9h5.3V210.2z M180.8,208.5h-5.3v-0.9h5.3V208.5z
		 M180.8,206.7h-5.3v-0.9h5.3V206.7z M180.8,205h-5.3v-0.9h5.3V205z M180.8,203.3h-5.3v-0.9h5.3V203.3z M180.8,201.5h-5.3v-0.9h5.3
		V201.5z M180.8,199.8h-5.3v-0.9h5.3V199.8z M180.8,198.1h-5.3v-0.9h5.3V198.1z M180.8,196.4h-5.3v-0.9h5.3V196.4z M180.8,194.6
		h-5.3v-0.9h5.3V194.6z M180.8,192.9h-5.3V192h5.3V192.9z M180.8,191.2h-5.3v-0.9h5.3V191.2z M188.6,224.1h-5.3v-0.9h5.3V224.1z
		 M188.6,222.4h-5.3v-0.9h5.3V222.4z M188.6,220.7h-5.3v-0.9h5.3V220.7z M188.6,218.9h-5.3V218h5.3V218.9z M188.6,217.2h-5.3v-0.9
		h5.3V217.2z M188.6,215.5h-5.3v-0.9h5.3V215.5z M188.6,213.8h-5.3v-0.9h5.3V213.8z M188.6,212h-5.3v-0.9h5.3V212z M188.6,210.3
		h-5.3v-0.9h5.3V210.3z M188.6,208.6h-5.3v-0.9h5.3V208.6z M188.6,206.8h-5.3v-0.9h5.3V206.8z M188.6,205.1h-5.3v-0.9h5.3V205.1z
		 M188.6,203.4h-5.3v-0.9h5.3V203.4z M188.6,201.6h-5.3v-0.9h5.3V201.6z M188.6,199.9h-5.3V199h5.3V199.9z M188.6,198.2h-5.3v-0.9
		h5.3V198.2z M188.6,196.5h-5.3v-0.9h5.3V196.5z M188.6,194.7h-5.3v-0.9h5.3V194.7z M188.6,193h-5.3v-0.9h5.3V193z M188.6,191.3
		h-5.3v-0.9h5.3V191.3z"/>
	<path fill="#077170" d="M176.8,184.8h-1.4c-0.3,0-0.6,0.3-0.6,0.7v3.8h1.4c0.4,0,0.7-0.4,0.7-0.7L176.8,184.8z"/>
	<rect x="175.4" y="182.1" fill="#ADADAD" width="0.6" height="6.7"/>
	<path fill="#059EA5" d="M175.9,182.3h-0.3c-0.4,0-0.8-0.4-0.8-0.8v-1.6c0-0.4,0.4-0.8,0.8-0.8h0.3c0.4,0,0.8,0.4,0.8,0.8v1.6
		C176.7,182,176.3,182.3,175.9,182.3z"/>
	<circle fill="#ADADAD" cx="182" cy="186.7" r="0.8"/>
	<circle fill="#ADADAD" cx="182" cy="225.3" r="0.8"/>
	<rect x="181.5" y="200.5" fill="#098380" width="1.1" height="14.9"/>
	<g>
		<polygon fill="#FFFFFF" points="150.9,190.2 150.9,188.9 149.9,188.9 148.5,188.9 148,188.9 148,189.3 148.5,189.3 148.5,189.7 
			148,189.7 148,206.8 148.5,206.8 148.5,207.3 148,207.3 148,207.6 148.5,207.6 149.9,207.6 150.9,207.6 150.9,206.3 150.9,206 
			150.9,205.9 150.9,205.7 150.9,205.6 150.9,205.4 150.9,205.3 150.9,205.1 150.9,205 150.9,204.7 150.9,204.6 150.9,204.4 
			150.9,204.3 150.9,204.1 150.9,204 150.9,203.8 150.9,203.7 150.9,203.4 150.9,203.3 150.9,203.1 150.9,203 150.9,202.8 
			150.9,202.7 150.9,202.5 150.9,202.4 150.9,202.1 150.9,202.1 150.9,201.8 150.9,201.7 150.9,201.5 150.9,201.4 150.9,201.2 
			150.9,201.1 150.9,200.9 150.9,200.8 150.9,200.5 150.9,200.4 150.9,200.2 150.9,200.1 150.9,199.9 150.9,199.8 150.9,199.6 
			150.9,199.5 150.9,199.2 150.9,199.1 150.9,198.9 150.9,198.8 150.9,198.6 150.9,198.5 150.9,198.3 150.9,198.2 150.9,197.9 
			150.9,197.8 150.9,197.6 150.9,197.5 150.9,197.3 150.9,197.2 150.9,197 150.9,196.9 150.9,196.6 150.9,196.6 150.9,196.3 
			150.9,196.2 150.9,196 150.9,195.9 150.9,195.7 150.9,195.6 150.9,195.4 150.9,195.3 150.9,195 150.9,194.9 150.9,194.7 
			150.9,194.6 150.9,194.4 150.9,194.3 150.9,194.1 150.9,194 150.9,193.7 150.9,193.6 150.9,193.4 150.9,193.3 150.9,193.1 
			150.9,193 150.9,192.8 150.9,192.7 150.9,192.4 150.9,192.3 150.9,192.1 150.9,192 150.9,191.8 150.9,191.7 150.9,191.5 
			150.9,191.4 150.9,191.1 150.9,191.1 150.9,190.8 150.9,190.7 150.9,190.5 150.9,190.4 		"/>
		<polygon points="148.5,207.3 148.5,206.8 148,206.8 148,189.7 148.5,189.7 148.5,189.3 148,189.3 148,188.9 147.6,188.9 
			147.6,207.6 148,207.6 148,207.3 		"/>
		<rect x="148.5" y="188.7" fill="#BFBEBE" width="1.4" height="0.3"/>
		<rect x="148.5" y="207.6" fill="#BFBEBE" width="1.4" height="0.3"/>
		<rect x="150.9" y="190.2" fill="#BFBEBE" width="0.9" height="0.2"/>
		<rect x="150.9" y="190.5" fill="#BFBEBE" width="0.9" height="0.2"/>
		<rect x="150.9" y="190.8" fill="#BFBEBE" width="0.9" height="0.2"/>
		<rect x="150.9" y="191.1" fill="#BFBEBE" width="0.9" height="0.2"/>
		<rect x="150.9" y="191.5" fill="#BFBEBE" width="0.9" height="0.2"/>
		<rect x="150.9" y="191.8" fill="#BFBEBE" width="0.9" height="0.2"/>
		<rect x="150.9" y="192.1" fill="#BFBEBE" width="0.9" height="0.2"/>
		<polygon fill="#BFBEBE" points="151.6,192.7 151.8,192.7 151.8,192.4 150.9,192.4 150.9,192.7 		"/>
		<polygon fill="#BFBEBE" points="151.8,193 151.8,192.8 151.6,192.8 150.9,192.8 150.9,193 		"/>
		<rect x="150.9" y="193.1" fill="#BFBEBE" width="0.9" height="0.2"/>
		<rect x="150.9" y="193.4" fill="#BFBEBE" width="0.9" height="0.2"/>
		<rect x="150.9" y="193.7" fill="#BFBEBE" width="0.9" height="0.2"/>
		<rect x="150.9" y="194.1" fill="#BFBEBE" width="0.9" height="0.2"/>
		<rect x="150.9" y="194.4" fill="#BFBEBE" width="0.9" height="0.2"/>
		<rect x="150.9" y="194.7" fill="#BFBEBE" width="0.9" height="0.2"/>
		<polygon fill="#BFBEBE" points="151.6,195.3 151.8,195.3 151.8,195 150.9,195 150.9,195.3 		"/>
		<polygon fill="#BFBEBE" points="151.8,195.6 151.8,195.4 151.6,195.4 150.9,195.4 150.9,195.6 		"/>
		<rect x="150.9" y="195.7" fill="#BFBEBE" width="0.9" height="0.2"/>
		<rect x="150.9" y="196" fill="#BFBEBE" width="0.9" height="0.2"/>
		<rect x="150.9" y="196.3" fill="#BFBEBE" width="0.9" height="0.2"/>
		<rect x="150.9" y="196.6" fill="#BFBEBE" width="0.9" height="0.2"/>
		<rect x="150.9" y="197" fill="#BFBEBE" width="0.9" height="0.2"/>
		<rect x="150.9" y="197.3" fill="#BFBEBE" width="0.9" height="0.2"/>
		<polygon fill="#BFBEBE" points="151.6,197.8 151.8,197.8 151.8,197.6 150.9,197.6 150.9,197.8 		"/>
		<polygon fill="#BFBEBE" points="151.8,198.2 151.8,197.9 151.6,197.9 150.9,197.9 150.9,198.2 		"/>
		<rect x="150.9" y="198.3" fill="#BFBEBE" width="0.9" height="0.2"/>
		<rect x="150.9" y="198.6" fill="#BFBEBE" width="0.9" height="0.2"/>
		<rect x="150.9" y="198.9" fill="#BFBEBE" width="0.9" height="0.2"/>
		<rect x="150.9" y="199.2" fill="#BFBEBE" width="0.9" height="0.2"/>
		<rect x="150.9" y="199.6" fill="#BFBEBE" width="0.9" height="0.2"/>
		<rect x="150.9" y="199.9" fill="#BFBEBE" width="0.9" height="0.2"/>
		<polygon fill="#BFBEBE" points="151.6,200.4 151.8,200.4 151.8,200.2 150.9,200.2 150.9,200.4 		"/>
		<polygon fill="#BFBEBE" points="151.8,200.8 151.8,200.5 151.6,200.5 150.9,200.5 150.9,200.8 		"/>
		<rect x="150.9" y="200.9" fill="#BFBEBE" width="0.9" height="0.2"/>
		<rect x="150.9" y="201.2" fill="#BFBEBE" width="0.9" height="0.2"/>
		<rect x="150.9" y="201.5" fill="#BFBEBE" width="0.9" height="0.2"/>
		<rect x="150.9" y="201.8" fill="#BFBEBE" width="0.9" height="0.2"/>
		<rect x="150.9" y="202.1" fill="#BFBEBE" width="0.9" height="0.2"/>
		<rect x="150.9" y="202.5" fill="#BFBEBE" width="0.9" height="0.2"/>
		<polygon fill="#BFBEBE" points="151.6,203 151.8,203 151.8,202.8 150.9,202.8 150.9,203 		"/>
		<polygon fill="#BFBEBE" points="151.8,203.3 151.8,203.1 151.6,203.1 150.9,203.1 150.9,203.3 		"/>
		<rect x="150.9" y="203.4" fill="#BFBEBE" width="0.9" height="0.2"/>
		<rect x="150.9" y="203.8" fill="#BFBEBE" width="0.9" height="0.2"/>
		<rect x="150.9" y="204.1" fill="#BFBEBE" width="0.9" height="0.2"/>
		<rect x="150.9" y="204.4" fill="#BFBEBE" width="0.9" height="0.2"/>
		<rect x="150.9" y="204.7" fill="#BFBEBE" width="0.9" height="0.2"/>
		<rect x="150.9" y="205.1" fill="#BFBEBE" width="0.9" height="0.2"/>
		<polygon fill="#BFBEBE" points="151.6,205.6 151.8,205.6 151.8,205.4 150.9,205.4 150.9,205.6 		"/>
		<polygon fill="#BFBEBE" points="151.8,205.9 151.8,205.7 151.6,205.7 150.9,205.7 150.9,205.9 		"/>
		<polygon fill="#BFBEBE" points="151.6,206.3 151.8,206.3 151.8,206 150.9,206 150.9,206.3 		"/>
	</g>
	<g>
		<polygon fill="#FFFFFF" points="160.3,190.2 160.3,188.9 159.3,188.9 157.9,188.9 157.4,188.9 157.4,189.3 157.9,189.3 
			157.9,189.7 157.4,189.7 157.4,206.8 157.9,206.8 157.9,207.3 157.4,207.3 157.4,207.6 157.9,207.6 159.3,207.6 160.3,207.6 
			160.3,206.3 160.3,206 160.3,205.9 160.3,205.7 160.3,205.6 160.3,205.4 160.3,205.3 160.3,205.1 160.3,205 160.3,204.7 
			160.3,204.6 160.3,204.4 160.3,204.3 160.3,204.1 160.3,204 160.3,203.8 160.3,203.7 160.3,203.4 160.3,203.3 160.3,203.1 
			160.3,203 160.3,202.8 160.3,202.7 160.3,202.5 160.3,202.4 160.3,202.1 160.3,202.1 160.3,201.8 160.3,201.7 160.3,201.5 
			160.3,201.4 160.3,201.2 160.3,201.1 160.3,200.9 160.3,200.8 160.3,200.5 160.3,200.4 160.3,200.2 160.3,200.1 160.3,199.9 
			160.3,199.8 160.3,199.6 160.3,199.5 160.3,199.2 160.3,199.1 160.3,198.9 160.3,198.8 160.3,198.6 160.3,198.5 160.3,198.3 
			160.3,198.2 160.3,197.9 160.3,197.8 160.3,197.6 160.3,197.5 160.3,197.3 160.3,197.2 160.3,197 160.3,196.9 160.3,196.6 
			160.3,196.6 160.3,196.3 160.3,196.2 160.3,196 160.3,195.9 160.3,195.7 160.3,195.6 160.3,195.4 160.3,195.3 160.3,195 
			160.3,194.9 160.3,194.7 160.3,194.6 160.3,194.4 160.3,194.3 160.3,194.1 160.3,194 160.3,193.7 160.3,193.6 160.3,193.4 
			160.3,193.3 160.3,193.1 160.3,193 160.3,192.8 160.3,192.7 160.3,192.4 160.3,192.3 160.3,192.1 160.3,192 160.3,191.8 
			160.3,191.7 160.3,191.5 160.3,191.4 160.3,191.1 160.3,191.1 160.3,190.8 160.3,190.7 160.3,190.5 160.3,190.4 		"/>
		<polygon points="157.9,207.3 157.9,206.8 157.4,206.8 157.4,189.7 157.9,189.7 157.9,189.3 157.4,189.3 157.4,188.9 157,188.9 
			157,207.6 157.4,207.6 157.4,207.3 		"/>
		<rect x="157.9" y="188.7" fill="#BFBEBE" width="1.4" height="0.3"/>
		<rect x="157.9" y="207.6" fill="#BFBEBE" width="1.4" height="0.3"/>
		<rect x="160.3" y="190.2" fill="#BFBEBE" width="0.9" height="0.2"/>
		<rect x="160.3" y="190.5" fill="#BFBEBE" width="0.9" height="0.2"/>
		<rect x="160.3" y="190.8" fill="#BFBEBE" width="0.9" height="0.2"/>
		<rect x="160.3" y="191.1" fill="#BFBEBE" width="0.9" height="0.2"/>
		<rect x="160.3" y="191.5" fill="#BFBEBE" width="0.9" height="0.2"/>
		<rect x="160.3" y="191.8" fill="#BFBEBE" width="0.9" height="0.2"/>
		<rect x="160.3" y="192.1" fill="#BFBEBE" width="0.9" height="0.2"/>
		<polygon fill="#BFBEBE" points="161,192.7 161.2,192.7 161.2,192.4 160.3,192.4 160.3,192.7 		"/>
		<polygon fill="#BFBEBE" points="161.2,193 161.2,192.8 161,192.8 160.3,192.8 160.3,193 		"/>
		<rect x="160.3" y="193.1" fill="#BFBEBE" width="0.9" height="0.2"/>
		<rect x="160.3" y="193.4" fill="#BFBEBE" width="0.9" height="0.2"/>
		<rect x="160.3" y="193.7" fill="#BFBEBE" width="0.9" height="0.2"/>
		<rect x="160.3" y="194.1" fill="#BFBEBE" width="0.9" height="0.2"/>
		<rect x="160.3" y="194.4" fill="#BFBEBE" width="0.9" height="0.2"/>
		<rect x="160.3" y="194.7" fill="#BFBEBE" width="0.9" height="0.2"/>
		<polygon fill="#BFBEBE" points="161,195.3 161.2,195.3 161.2,195 160.3,195 160.3,195.3 		"/>
		<polygon fill="#BFBEBE" points="161.2,195.6 161.2,195.4 161,195.4 160.3,195.4 160.3,195.6 		"/>
		<rect x="160.3" y="195.7" fill="#BFBEBE" width="0.9" height="0.2"/>
		<rect x="160.3" y="196" fill="#BFBEBE" width="0.9" height="0.2"/>
		<rect x="160.3" y="196.3" fill="#BFBEBE" width="0.9" height="0.2"/>
		<rect x="160.3" y="196.6" fill="#BFBEBE" width="0.9" height="0.2"/>
		<rect x="160.3" y="197" fill="#BFBEBE" width="0.9" height="0.2"/>
		<rect x="160.3" y="197.3" fill="#BFBEBE" width="0.9" height="0.2"/>
		<polygon fill="#BFBEBE" points="161,197.8 161.2,197.8 161.2,197.6 160.3,197.6 160.3,197.8 		"/>
		<polygon fill="#BFBEBE" points="161.2,198.2 161.2,197.9 161,197.9 160.3,197.9 160.3,198.2 		"/>
		<rect x="160.3" y="198.3" fill="#BFBEBE" width="0.9" height="0.2"/>
		<rect x="160.3" y="198.6" fill="#BFBEBE" width="0.9" height="0.2"/>
		<rect x="160.3" y="198.9" fill="#BFBEBE" width="0.9" height="0.2"/>
		<rect x="160.3" y="199.2" fill="#BFBEBE" width="0.9" height="0.2"/>
		<rect x="160.3" y="199.6" fill="#BFBEBE" width="0.9" height="0.2"/>
		<rect x="160.3" y="199.9" fill="#BFBEBE" width="0.9" height="0.2"/>
		<polygon fill="#BFBEBE" points="161,200.4 161.2,200.4 161.2,200.2 160.3,200.2 160.3,200.4 		"/>
		<polygon fill="#BFBEBE" points="161.2,200.8 161.2,200.5 161,200.5 160.3,200.5 160.3,200.8 		"/>
		<rect x="160.3" y="200.9" fill="#BFBEBE" width="0.9" height="0.2"/>
		<rect x="160.3" y="201.2" fill="#BFBEBE" width="0.9" height="0.2"/>
		<rect x="160.3" y="201.5" fill="#BFBEBE" width="0.9" height="0.2"/>
		<rect x="160.3" y="201.8" fill="#BFBEBE" width="0.9" height="0.2"/>
		<rect x="160.3" y="202.1" fill="#BFBEBE" width="0.9" height="0.2"/>
		<rect x="160.3" y="202.5" fill="#BFBEBE" width="0.9" height="0.2"/>
		<polygon fill="#BFBEBE" points="161,203 161.2,203 161.2,202.8 160.3,202.8 160.3,203 		"/>
		<polygon fill="#BFBEBE" points="161.2,203.3 161.2,203.1 161,203.1 160.3,203.1 160.3,203.3 		"/>
		<rect x="160.3" y="203.4" fill="#BFBEBE" width="0.9" height="0.2"/>
		<rect x="160.3" y="203.8" fill="#BFBEBE" width="0.9" height="0.2"/>
		<rect x="160.3" y="204.1" fill="#BFBEBE" width="0.9" height="0.2"/>
		<rect x="160.3" y="204.4" fill="#BFBEBE" width="0.9" height="0.2"/>
		<rect x="160.3" y="204.7" fill="#BFBEBE" width="0.9" height="0.2"/>
		<rect x="160.3" y="205.1" fill="#BFBEBE" width="0.9" height="0.2"/>
		<polygon fill="#BFBEBE" points="161,205.6 161.2,205.6 161.2,205.4 160.3,205.4 160.3,205.6 		"/>
		<polygon fill="#BFBEBE" points="161.2,205.9 161.2,205.7 161,205.7 160.3,205.7 160.3,205.9 		"/>
		<polygon fill="#BFBEBE" points="161,206.3 161.2,206.3 161.2,206 160.3,206 160.3,206.3 		"/>
	</g>
	<g>
		<polygon fill="#FFFFFF" points="150.9,210.5 150.9,209.3 149.9,209.3 148.5,209.3 148,209.3 148,209.6 148.5,209.6 148.5,210.1 
			148,210.1 148,227.2 148.5,227.2 148.5,227.6 148,227.6 148,228 148.5,228 149.9,228 150.9,228 150.9,226.6 150.9,226.4 
			150.9,226.3 150.9,226.1 150.9,226 150.9,225.8 150.9,225.7 150.9,225.4 150.9,225.3 150.9,225.1 150.9,225 150.9,224.8 
			150.9,224.7 150.9,224.5 150.9,224.4 150.9,224.1 150.9,224 150.9,223.8 150.9,223.7 150.9,223.5 150.9,223.4 150.9,223.2 
			150.9,223.1 150.9,222.8 150.9,222.8 150.9,222.5 150.9,222.4 150.9,222.2 150.9,222.1 150.9,221.9 150.9,221.8 150.9,221.6 
			150.9,221.5 150.9,221.2 150.9,221.1 150.9,220.9 150.9,220.8 150.9,220.6 150.9,220.5 150.9,220.3 150.9,220.2 150.9,219.9 
			150.9,219.8 150.9,219.6 150.9,219.5 150.9,219.3 150.9,219.2 150.9,219 150.9,218.9 150.9,218.6 150.9,218.5 150.9,218.3 
			150.9,218.2 150.9,218 150.9,217.9 150.9,217.7 150.9,217.6 150.9,217.3 150.9,217.3 150.9,217 150.9,216.9 150.9,216.7 
			150.9,216.6 150.9,216.4 150.9,216.3 150.9,216 150.9,216 150.9,215.7 150.9,215.6 150.9,215.4 150.9,215.3 150.9,215.1 
			150.9,215 150.9,214.8 150.9,214.7 150.9,214.4 150.9,214.3 150.9,214.1 150.9,214 150.9,213.8 150.9,213.7 150.9,213.5 
			150.9,213.4 150.9,213.1 150.9,213 150.9,212.8 150.9,212.7 150.9,212.5 150.9,212.4 150.9,212.2 150.9,212.1 150.9,211.8 
			150.9,211.8 150.9,211.5 150.9,211.4 150.9,211.2 150.9,211.1 150.9,210.9 150.9,210.8 		"/>
		<polygon points="148.5,227.6 148.5,227.2 148,227.2 148,210.1 148.5,210.1 148.5,209.6 148,209.6 148,209.3 147.6,209.3 
			147.6,228 148,228 148,227.6 		"/>
		<rect x="148.5" y="209" fill="#BFBEBE" width="1.4" height="0.3"/>
		<rect x="148.5" y="228" fill="#BFBEBE" width="1.4" height="0.3"/>
		<rect x="150.9" y="210.5" fill="#BFBEBE" width="0.9" height="0.2"/>
		<rect x="150.9" y="210.9" fill="#BFBEBE" width="0.9" height="0.2"/>
		<rect x="150.9" y="211.2" fill="#BFBEBE" width="0.9" height="0.2"/>
		<rect x="150.9" y="211.5" fill="#BFBEBE" width="0.9" height="0.2"/>
		<rect x="150.9" y="211.8" fill="#BFBEBE" width="0.9" height="0.2"/>
		<rect x="150.9" y="212.2" fill="#BFBEBE" width="0.9" height="0.2"/>
		<rect x="150.9" y="212.5" fill="#BFBEBE" width="0.9" height="0.2"/>
		<polygon fill="#BFBEBE" points="151.6,213 151.8,213 151.8,212.8 150.9,212.8 150.9,213 		"/>
		<polygon fill="#BFBEBE" points="151.8,213.4 151.8,213.1 151.6,213.1 150.9,213.1 150.9,213.4 		"/>
		<rect x="150.9" y="213.5" fill="#BFBEBE" width="0.9" height="0.2"/>
		<rect x="150.9" y="213.8" fill="#BFBEBE" width="0.9" height="0.2"/>
		<rect x="150.9" y="214.1" fill="#BFBEBE" width="0.9" height="0.2"/>
		<rect x="150.9" y="214.4" fill="#BFBEBE" width="0.9" height="0.2"/>
		<rect x="150.9" y="214.8" fill="#BFBEBE" width="0.9" height="0.2"/>
		<rect x="150.9" y="215.1" fill="#BFBEBE" width="0.9" height="0.2"/>
		<polygon fill="#BFBEBE" points="151.6,215.6 151.8,215.6 151.8,215.4 150.9,215.4 150.9,215.6 		"/>
		<polygon fill="#BFBEBE" points="151.8,216 151.8,215.7 151.6,215.7 150.9,215.7 150.9,216 		"/>
		<rect x="150.9" y="216" fill="#BFBEBE" width="0.9" height="0.2"/>
		<rect x="150.9" y="216.4" fill="#BFBEBE" width="0.9" height="0.2"/>
		<rect x="150.9" y="216.7" fill="#BFBEBE" width="0.9" height="0.2"/>
		<rect x="150.9" y="217" fill="#BFBEBE" width="0.9" height="0.2"/>
		<rect x="150.9" y="217.3" fill="#BFBEBE" width="0.9" height="0.2"/>
		<rect x="150.9" y="217.7" fill="#BFBEBE" width="0.9" height="0.2"/>
		<polygon fill="#BFBEBE" points="151.6,218.2 151.8,218.2 151.8,218 150.9,218 150.9,218.2 		"/>
		<polygon fill="#BFBEBE" points="151.8,218.5 151.8,218.3 151.6,218.3 150.9,218.3 150.9,218.5 		"/>
		<rect x="150.9" y="218.6" fill="#BFBEBE" width="0.9" height="0.2"/>
		<rect x="150.9" y="219" fill="#BFBEBE" width="0.9" height="0.2"/>
		<rect x="150.9" y="219.3" fill="#BFBEBE" width="0.9" height="0.2"/>
		<rect x="150.9" y="219.6" fill="#BFBEBE" width="0.9" height="0.2"/>
		<rect x="150.9" y="219.9" fill="#BFBEBE" width="0.9" height="0.2"/>
		<rect x="150.9" y="220.3" fill="#BFBEBE" width="0.9" height="0.2"/>
		<polygon fill="#BFBEBE" points="151.6,220.8 151.8,220.8 151.8,220.6 150.9,220.6 150.9,220.8 		"/>
		<polygon fill="#BFBEBE" points="151.8,221.1 151.8,220.9 151.6,220.9 150.9,220.9 150.9,221.1 		"/>
		<rect x="150.9" y="221.2" fill="#BFBEBE" width="0.9" height="0.2"/>
		<rect x="150.9" y="221.6" fill="#BFBEBE" width="0.9" height="0.2"/>
		<rect x="150.9" y="221.9" fill="#BFBEBE" width="0.9" height="0.2"/>
		<rect x="150.9" y="222.2" fill="#BFBEBE" width="0.9" height="0.2"/>
		<rect x="150.9" y="222.5" fill="#BFBEBE" width="0.9" height="0.2"/>
		<rect x="150.9" y="222.8" fill="#BFBEBE" width="0.9" height="0.2"/>
		<polygon fill="#BFBEBE" points="151.6,223.4 151.8,223.4 151.8,223.2 150.9,223.2 150.9,223.4 		"/>
		<polygon fill="#BFBEBE" points="151.8,223.7 151.8,223.5 151.6,223.5 150.9,223.5 150.9,223.7 		"/>
		<rect x="150.9" y="223.8" fill="#BFBEBE" width="0.9" height="0.2"/>
		<rect x="150.9" y="224.1" fill="#BFBEBE" width="0.9" height="0.2"/>
		<rect x="150.9" y="224.5" fill="#BFBEBE" width="0.9" height="0.2"/>
		<rect x="150.9" y="224.8" fill="#BFBEBE" width="0.9" height="0.2"/>
		<rect x="150.9" y="225.1" fill="#BFBEBE" width="0.9" height="0.2"/>
		<rect x="150.9" y="225.4" fill="#BFBEBE" width="0.9" height="0.2"/>
		<polygon fill="#BFBEBE" points="151.6,226 151.8,226 151.8,225.8 150.9,225.8 150.9,226 		"/>
		<polygon fill="#BFBEBE" points="151.8,226.3 151.8,226.1 151.6,226.1 150.9,226.1 150.9,226.3 		"/>
		<polygon fill="#BFBEBE" points="151.6,226.6 151.8,226.6 151.8,226.4 150.9,226.4 150.9,226.6 		"/>
	</g>
	<g>
		<polygon fill="#FFFFFF" points="160.3,210.5 160.3,209.3 159.3,209.3 157.9,209.3 157.4,209.3 157.4,209.6 157.9,209.6 
			157.9,210.1 157.4,210.1 157.4,227.2 157.9,227.2 157.9,227.6 157.4,227.6 157.4,228 157.9,228 159.3,228 160.3,228 160.3,226.6 
			160.3,226.4 160.3,226.3 160.3,226.1 160.3,226 160.3,225.8 160.3,225.7 160.3,225.4 160.3,225.3 160.3,225.1 160.3,225 
			160.3,224.8 160.3,224.7 160.3,224.5 160.3,224.4 160.3,224.1 160.3,224 160.3,223.8 160.3,223.7 160.3,223.5 160.3,223.4 
			160.3,223.2 160.3,223.1 160.3,222.8 160.3,222.8 160.3,222.5 160.3,222.4 160.3,222.2 160.3,222.1 160.3,221.9 160.3,221.8 
			160.3,221.6 160.3,221.5 160.3,221.2 160.3,221.1 160.3,220.9 160.3,220.8 160.3,220.6 160.3,220.5 160.3,220.3 160.3,220.2 
			160.3,219.9 160.3,219.8 160.3,219.6 160.3,219.5 160.3,219.3 160.3,219.2 160.3,219 160.3,218.9 160.3,218.6 160.3,218.5 
			160.3,218.3 160.3,218.2 160.3,218 160.3,217.9 160.3,217.7 160.3,217.6 160.3,217.3 160.3,217.3 160.3,217 160.3,216.9 
			160.3,216.7 160.3,216.6 160.3,216.4 160.3,216.3 160.3,216 160.3,216 160.3,215.7 160.3,215.6 160.3,215.4 160.3,215.3 
			160.3,215.1 160.3,215 160.3,214.8 160.3,214.7 160.3,214.4 160.3,214.3 160.3,214.1 160.3,214 160.3,213.8 160.3,213.7 
			160.3,213.5 160.3,213.4 160.3,213.1 160.3,213 160.3,212.8 160.3,212.7 160.3,212.5 160.3,212.4 160.3,212.2 160.3,212.1 
			160.3,211.8 160.3,211.8 160.3,211.5 160.3,211.4 160.3,211.2 160.3,211.1 160.3,210.9 160.3,210.8 		"/>
		<polygon points="157.9,227.6 157.9,227.2 157.4,227.2 157.4,210.1 157.9,210.1 157.9,209.6 157.4,209.6 157.4,209.3 157,209.3 
			157,228 157.4,228 157.4,227.6 		"/>
		<rect x="157.9" y="209" fill="#BFBEBE" width="1.4" height="0.3"/>
		<rect x="157.9" y="228" fill="#BFBEBE" width="1.4" height="0.3"/>
		<rect x="160.3" y="210.5" fill="#BFBEBE" width="0.9" height="0.2"/>
		<rect x="160.3" y="210.9" fill="#BFBEBE" width="0.9" height="0.2"/>
		<rect x="160.3" y="211.2" fill="#BFBEBE" width="0.9" height="0.2"/>
		<rect x="160.3" y="211.5" fill="#BFBEBE" width="0.9" height="0.2"/>
		<rect x="160.3" y="211.8" fill="#BFBEBE" width="0.9" height="0.2"/>
		<rect x="160.3" y="212.2" fill="#BFBEBE" width="0.9" height="0.2"/>
		<rect x="160.3" y="212.5" fill="#BFBEBE" width="0.9" height="0.2"/>
		<polygon fill="#BFBEBE" points="161,213 161.2,213 161.2,212.8 160.3,212.8 160.3,213 		"/>
		<polygon fill="#BFBEBE" points="161.2,213.4 161.2,213.1 161,213.1 160.3,213.1 160.3,213.4 		"/>
		<rect x="160.3" y="213.5" fill="#BFBEBE" width="0.9" height="0.2"/>
		<rect x="160.3" y="213.8" fill="#BFBEBE" width="0.9" height="0.2"/>
		<rect x="160.3" y="214.1" fill="#BFBEBE" width="0.9" height="0.2"/>
		<rect x="160.3" y="214.4" fill="#BFBEBE" width="0.9" height="0.2"/>
		<rect x="160.3" y="214.8" fill="#BFBEBE" width="0.9" height="0.2"/>
		<rect x="160.3" y="215.1" fill="#BFBEBE" width="0.9" height="0.2"/>
		<polygon fill="#BFBEBE" points="161,215.6 161.2,215.6 161.2,215.4 160.3,215.4 160.3,215.6 		"/>
		<polygon fill="#BFBEBE" points="161.2,216 161.2,215.7 161,215.7 160.3,215.7 160.3,216 		"/>
		<rect x="160.3" y="216" fill="#BFBEBE" width="0.9" height="0.2"/>
		<rect x="160.3" y="216.4" fill="#BFBEBE" width="0.9" height="0.2"/>
		<rect x="160.3" y="216.7" fill="#BFBEBE" width="0.9" height="0.2"/>
		<rect x="160.3" y="217" fill="#BFBEBE" width="0.9" height="0.2"/>
		<rect x="160.3" y="217.3" fill="#BFBEBE" width="0.9" height="0.2"/>
		<rect x="160.3" y="217.7" fill="#BFBEBE" width="0.9" height="0.2"/>
		<polygon fill="#BFBEBE" points="161,218.2 161.2,218.2 161.2,218 160.3,218 160.3,218.2 		"/>
		<polygon fill="#BFBEBE" points="161.2,218.5 161.2,218.3 161,218.3 160.3,218.3 160.3,218.5 		"/>
		<rect x="160.3" y="218.6" fill="#BFBEBE" width="0.9" height="0.2"/>
		<rect x="160.3" y="219" fill="#BFBEBE" width="0.9" height="0.2"/>
		<rect x="160.3" y="219.3" fill="#BFBEBE" width="0.9" height="0.2"/>
		<rect x="160.3" y="219.6" fill="#BFBEBE" width="0.9" height="0.2"/>
		<rect x="160.3" y="219.9" fill="#BFBEBE" width="0.9" height="0.2"/>
		<rect x="160.3" y="220.3" fill="#BFBEBE" width="0.9" height="0.2"/>
		<polygon fill="#BFBEBE" points="161,220.8 161.2,220.8 161.2,220.6 160.3,220.6 160.3,220.8 		"/>
		<polygon fill="#BFBEBE" points="161.2,221.1 161.2,220.9 161,220.9 160.3,220.9 160.3,221.1 		"/>
		<rect x="160.3" y="221.2" fill="#BFBEBE" width="0.9" height="0.2"/>
		<rect x="160.3" y="221.6" fill="#BFBEBE" width="0.9" height="0.2"/>
		<rect x="160.3" y="221.9" fill="#BFBEBE" width="0.9" height="0.2"/>
		<rect x="160.3" y="222.2" fill="#BFBEBE" width="0.9" height="0.2"/>
		<rect x="160.3" y="222.5" fill="#BFBEBE" width="0.9" height="0.2"/>
		<rect x="160.3" y="222.8" fill="#BFBEBE" width="0.9" height="0.2"/>
		<polygon fill="#BFBEBE" points="161,223.4 161.2,223.4 161.2,223.2 160.3,223.2 160.3,223.4 		"/>
		<polygon fill="#BFBEBE" points="161.2,223.7 161.2,223.5 161,223.5 160.3,223.5 160.3,223.7 		"/>
		<rect x="160.3" y="223.8" fill="#BFBEBE" width="0.9" height="0.2"/>
		<rect x="160.3" y="224.1" fill="#BFBEBE" width="0.9" height="0.2"/>
		<rect x="160.3" y="224.5" fill="#BFBEBE" width="0.9" height="0.2"/>
		<rect x="160.3" y="224.8" fill="#BFBEBE" width="0.9" height="0.2"/>
		<rect x="160.3" y="225.1" fill="#BFBEBE" width="0.9" height="0.2"/>
		<rect x="160.3" y="225.4" fill="#BFBEBE" width="0.9" height="0.2"/>
		<polygon fill="#BFBEBE" points="161,226 161.2,226 161.2,225.8 160.3,225.8 160.3,226 		"/>
		<polygon fill="#BFBEBE" points="161.2,226.3 161.2,226.1 161,226.1 160.3,226.1 160.3,226.3 		"/>
		<polygon fill="#BFBEBE" points="161,226.6 161.2,226.6 161.2,226.4 160.3,226.4 160.3,226.6 		"/>
	</g>
</g>
</svg>
