<?xml version="1.0" encoding="utf-8"?>
<!-- Generator: Adobe Illustrator 18.0.0, SVG Export Plug-In . SVG Version: 6.00 Build 0)  -->
<!DOCTYPE svg PUBLIC "-//W3C//DTD SVG 1.1//EN" "http://www.w3.org/Graphics/SVG/1.1/DTD/svg11.dtd">
<svg version="1.1" id="Vrstva_1" xmlns="http://www.w3.org/2000/svg" xmlns:xlink="http://www.w3.org/1999/xlink" x="0px" y="0px"
	 viewBox="0 0 800 400" enable-background="new 0 0 800 400" xml:space="preserve">
<g>
	<g>
		
			<linearGradient id="SVGID_1_" gradientUnits="userSpaceOnUse" x1="95.3" y1="309.4" x2="418.8475" y2="309.4" gradientTransform="matrix(1 0 0 -1 0 400)">
			<stop  offset="0.5" style="stop-color:#4B4B4B"/>
			<stop  offset="0.5" style="stop-color:#525252"/>
		</linearGradient>
		
			<line fill="none" stroke="url(#SVGID_1_)" stroke-width="3" stroke-linecap="round" stroke-miterlimit="10" stroke-dasharray="1.000000e-002,17" x1="96.8" y1="90.6" x2="96.8" y2="90.6"/>
		
			<linearGradient id="SVGID_2_" gradientUnits="userSpaceOnUse" x1="95.3004" y1="182.45" x2="418.8479" y2="182.45" gradientTransform="matrix(1 0 0 -1 0 400)">
			<stop  offset="0.5" style="stop-color:#4B4B4B"/>
			<stop  offset="0.5" style="stop-color:#525252"/>
		</linearGradient>
		
			<line fill="none" stroke="url(#SVGID_2_)" stroke-width="3" stroke-linecap="round" stroke-miterlimit="10" stroke-dasharray="1.000000e-002,17" x1="110.2" y1="101" x2="410.7" y2="334.1"/>
		
			<linearGradient id="SVGID_3_" gradientUnits="userSpaceOnUse" x1="95.3004" y1="60.7" x2="418.8479" y2="60.7" gradientTransform="matrix(1 0 0 -1 0 400)">
			<stop  offset="0.5" style="stop-color:#4B4B4B"/>
			<stop  offset="0.5" style="stop-color:#525252"/>
		</linearGradient>
		
			<line fill="none" stroke="url(#SVGID_3_)" stroke-width="3" stroke-linecap="round" stroke-miterlimit="10" stroke-dasharray="1.000000e-002,17" x1="417.3" y1="339.3" x2="417.3" y2="339.3"/>
	</g>
</g>
<g>
	<g>
		<g>
			<line fill="none" x1="752.8" y1="90.6" x2="752.8" y2="90.6"/>
		</g>
		<g>
			<g>
				<linearGradient id="SVGID_4_" gradientUnits="userSpaceOnUse" x1="427.5" y1="101" x2="740.5" y2="101">
					<stop  offset="0.5" style="stop-color:#4B4B4B"/>
					<stop  offset="0.5" style="stop-color:#525252"/>
				</linearGradient>
				
					<line fill="none" stroke="url(#SVGID_4_)" stroke-width="3" stroke-linecap="round" stroke-miterlimit="10" x1="739" y1="101" x2="739" y2="101"/>
				<linearGradient id="SVGID_5_" gradientUnits="userSpaceOnUse" x1="427.5" y1="220.0792" x2="740.5" y2="220.0792">
					<stop  offset="0.5" style="stop-color:#4B4B4B"/>
					<stop  offset="0.5" style="stop-color:#525252"/>
				</linearGradient>
				
					<line fill="none" stroke="url(#SVGID_5_)" stroke-width="3" stroke-linecap="round" stroke-miterlimit="10" stroke-dasharray="9.913866e-003,16.8536" x1="725.5" y1="111.1" x2="435.7" y2="329"/>
				<linearGradient id="SVGID_6_" gradientUnits="userSpaceOnUse" x1="427.5" y1="334.1" x2="740.5" y2="334.1">
					<stop  offset="0.5" style="stop-color:#4B4B4B"/>
					<stop  offset="0.5" style="stop-color:#525252"/>
				</linearGradient>
				
					<line fill="none" stroke="url(#SVGID_6_)" stroke-width="3" stroke-linecap="round" stroke-miterlimit="10" x1="429" y1="334.1" x2="429" y2="334.1"/>
			</g>
		</g>
		<g>
			<line fill="none" x1="422.1" y1="339.3" x2="422.1" y2="339.3"/>
		</g>
	</g>
</g>
<g>
	<g>
		
			<line fill="none" stroke="#037CBF" stroke-width="3" stroke-linecap="round" stroke-miterlimit="10" stroke-dasharray="1.000000e-002,17" x1="91.4" y1="92.8" x2="91.4" y2="92.8"/>
		
			<line fill="none" stroke="#037CBF" stroke-width="3" stroke-linecap="round" stroke-miterlimit="10" stroke-dasharray="1.000000e-002,17" x1="108.5" y1="92.8" x2="749.4" y2="93.4"/>
		
			<line fill="none" stroke="#037CBF" stroke-width="3" stroke-linecap="round" stroke-miterlimit="10" stroke-dasharray="1.000000e-002,17" x1="757.9" y1="93.4" x2="757.9" y2="93.4"/>
	</g>
</g>
<path fill="#269CD8" d="M790.5,37.3h-70.6c-1.1,0-2-0.9-2-2v-17c0-1.1,0.9-2,2-2h70.6c1.1,0,2,0.9,2,2v17
	C792.5,36.4,791.6,37.3,790.5,37.3z"/>
<rect x="727.9" y="21.8" fill="none" width="70.1" height="12.9"/>
<text transform="matrix(1 0 0 1 727.9287 31.7603)" fill="#FFFFFF" font-family="'HelveticaNeue-Thin'" font-size="13.9793">Hardware</text>
<path fill="#269CD8" d="M122.3,22.5H51.7c-1.1,0-2-0.9-2-2v-17c0-1.1,0.9-2,2-2h70.6c1.1,0,2,0.9,2,2v17
	C124.3,21.6,123.4,22.5,122.3,22.5z"/>
<text transform="matrix(1 0 0 1 58.2248 16.3624)" fill="#FFFFFF" font-family="'HelveticaNeue-Thin'" font-size="13.9793">Computer</text>
<path fill="#269CD8" d="M460,215h-70.6c-1.1,0-2-0.9-2-2v-17c0-1.1,0.9-2,2-2H460c1.1,0,2,0.9,2,2v17C462,214.1,461.1,215,460,215z"
	/>
<text transform="matrix(1 0 0 1 403.7753 208.839)" fill="#FFFFFF" font-family="'HelveticaNeue-Thin'" font-size="13.9793">Virtualis</text>
<polygon fill="#269CD8" points="59.4,22.3 62.9,25.3 66.4,22.3 "/>
<polygon fill="#269CD8" points="394.9,214.7 398.5,217.7 402,214.7 "/>
<rect x="353.7" y="234.2" fill="#0274A5" width="139.2" height="162.3"/>
<path fill="#FFFFFF" d="M370.7,300.8h-0.8c-0.5,0-1-0.4-1-1v-51c0-0.5,0.4-1,1-1h0.8c0.5,0,1,0.4,1,1v51
	C371.7,300.4,371.3,300.8,370.7,300.8z"/>
<path fill="#FFFFFF" d="M379.3,300.8h-0.8c-0.5,0-1-0.4-1-1v-51c0-0.5,0.4-1,1-1h0.8c0.5,0,1,0.4,1,1v51
	C380.3,300.4,379.9,300.8,379.3,300.8z"/>
<path fill="#FFFFFF" d="M370.7,384.7h-0.8c-0.5,0-1-0.4-1-1v-51c0-0.5,0.4-1,1-1h0.8c0.5,0,1,0.4,1,1v51
	C371.7,384.3,371.3,384.7,370.7,384.7z"/>
<path fill="#FFFFFF" d="M379.3,384.7h-0.8c-0.5,0-1-0.4-1-1v-51c0-0.5,0.4-1,1-1h0.8c0.5,0,1,0.4,1,1v51
	C380.3,384.3,379.9,384.7,379.3,384.7z"/>
<path fill="#FFFFFF" d="M472.3,300.8h-0.8c-0.5,0-1-0.4-1-1v-51c0-0.5,0.4-1,1-1h0.8c0.5,0,1,0.4,1,1v51
	C473.3,300.4,472.8,300.8,472.3,300.8z"/>
<path fill="#FFFFFF" d="M480.9,300.8h-0.8c-0.5,0-1-0.4-1-1v-51c0-0.5,0.4-1,1-1h0.8c0.5,0,1,0.4,1,1v51
	C481.9,300.4,481.4,300.8,480.9,300.8z"/>
<path fill="#FFFFFF" d="M472.3,384.7h-0.8c-0.5,0-1-0.4-1-1v-51c0-0.5,0.4-1,1-1h0.8c0.5,0,1,0.4,1,1v51
	C473.3,384.3,472.8,384.7,472.3,384.7z"/>
<path fill="#FFFFFF" d="M480.9,384.7h-0.8c-0.5,0-1-0.4-1-1v-51c0-0.5,0.4-1,1-1h0.8c0.5,0,1,0.4,1,1v51
	C481.9,384.3,481.4,384.7,480.9,384.7z"/>
<path fill="#D3D2D2" d="M427.4,255.4v8.9c0,0.6-0.5,1.1-1.1,1.1h-0.8c-0.6,0-1.1-0.5-1.1-1.1v-8.9c0-0.6,0.5-1.1,1.1-1.1h0.8
	C426.9,254.3,427.4,254.8,427.4,255.4z"/>
<path fill="#D3D2D2" d="M422.1,255.4v8.9c0,0.6-0.5,1.1-1.1,1.1h-0.8c-0.6,0-1.1-0.5-1.1-1.1v-8.9c0-0.6,0.5-1.1,1.1-1.1h0.8
	C421.6,254.3,422.1,254.8,422.1,255.4z"/>
<path fill="#D3D2D2" d="M396,269.2h-8.9c-0.6,0-1.1-0.5-1.1-1.1v-0.8c0-0.6,0.5-1.1,1.1-1.1h8.9c0.6,0,1.1,0.5,1.1,1.1v0.8
	C397.1,268.8,396.6,269.2,396,269.2z"/>
<path fill="#D3D2D2" d="M396,274.5h-8.9c-0.6,0-1.1-0.5-1.1-1.1v-0.8c0-0.6,0.5-1.1,1.1-1.1h8.9c0.6,0,1.1,0.5,1.1,1.1v0.8
	C397.1,274.1,396.6,274.5,396,274.5z"/>
<path fill="#D3D2D2" d="M396,279.4h-8.9c-0.6,0-1.1-0.5-1.1-1.1v-0.8c0-0.6,0.5-1.1,1.1-1.1h8.9c0.6,0,1.1,0.5,1.1,1.1v0.8
	C397.1,279,396.6,279.4,396,279.4z"/>
<path fill="#D3D2D2" d="M396,284.7h-8.9c-0.6,0-1.1-0.5-1.1-1.1v-0.8c0-0.6,0.5-1.1,1.1-1.1h8.9c0.6,0,1.1,0.5,1.1,1.1v0.8
	C397.1,284.3,396.6,284.7,396,284.7z"/>
<path fill="#D3D2D2" d="M396,290.2h-8.9c-0.6,0-1.1-0.5-1.1-1.1v-0.8c0-0.6,0.5-1.1,1.1-1.1h8.9c0.6,0,1.1,0.5,1.1,1.1v0.8
	C397.1,289.8,396.6,290.2,396,290.2z"/>
<path fill="#D3D2D2" d="M396,295.5h-8.9c-0.6,0-1.1-0.5-1.1-1.1v-0.8c0-0.6,0.5-1.1,1.1-1.1h8.9c0.6,0,1.1,0.5,1.1,1.1v0.8
	C397.1,295,396.6,295.5,396,295.5z"/>
<path fill="#D3D2D2" d="M437.6,269h-8.9c-0.6,0-1.1-0.5-1.1-1.1v-0.8c0-0.6,0.5-1.1,1.1-1.1h8.9c0.6,0,1.1,0.5,1.1,1.1v0.8
	C438.6,268.5,438.2,269,437.6,269z"/>
<path fill="#D3D2D2" d="M437.6,274.2h-8.9c-0.6,0-1.1-0.5-1.1-1.1v-0.8c0-0.6,0.5-1.1,1.1-1.1h8.9c0.6,0,1.1,0.5,1.1,1.1v0.8
	C438.6,273.8,438.2,274.2,437.6,274.2z"/>
<path fill="#D3D2D2" d="M437.6,279.1h-8.9c-0.6,0-1.1-0.5-1.1-1.1v-0.8c0-0.6,0.5-1.1,1.1-1.1h8.9c0.6,0,1.1,0.5,1.1,1.1v0.8
	C438.6,278.7,438.2,279.1,437.6,279.1z"/>
<path fill="#D3D2D2" d="M437.6,284.4h-8.9c-0.6,0-1.1-0.5-1.1-1.1v-0.8c0-0.6,0.5-1.1,1.1-1.1h8.9c0.6,0,1.1,0.5,1.1,1.1v0.8
	C438.6,284,438.2,284.4,437.6,284.4z"/>
<path fill="#D3D2D2" d="M437.6,289.9h-8.9c-0.6,0-1.1-0.5-1.1-1.1V288c0-0.6,0.5-1.1,1.1-1.1h8.9c0.6,0,1.1,0.5,1.1,1.1v0.8
	C438.6,289.5,438.2,289.9,437.6,289.9z"/>
<path fill="#D3D2D2" d="M437.6,295.2h-8.9c-0.6,0-1.1-0.5-1.1-1.1v-0.8c0-0.6,0.5-1.1,1.1-1.1h8.9c0.6,0,1.1,0.5,1.1,1.1v0.8
	C438.6,294.8,438.2,295.2,437.6,295.2z"/>
<path fill="#D3D2D2" d="M401.4,297v8.9c0,0.6-0.5,1.1-1.1,1.1h-0.8c-0.6,0-1.1-0.5-1.1-1.1V297c0-0.6,0.5-1.1,1.1-1.1h0.8
	C400.9,295.9,401.4,296.4,401.4,297z"/>
<path fill="#D3D2D2" d="M406.7,297v8.9c0,0.6-0.5,1.1-1.1,1.1h-0.8c-0.6,0-1.1-0.5-1.1-1.1V297c0-0.6,0.5-1.1,1.1-1.1h0.8
	C406.2,295.9,406.7,296.4,406.7,297z"/>
<path fill="#D3D2D2" d="M411.6,297v8.9c0,0.6-0.5,1.1-1.1,1.1h-0.8c-0.6,0-1.1-0.5-1.1-1.1V297c0-0.6,0.5-1.1,1.1-1.1h0.8
	C411.1,295.9,411.6,296.4,411.6,297z"/>
<path fill="#D3D2D2" d="M416.9,297v8.9c0,0.6-0.5,1.1-1.1,1.1H415c-0.6,0-1.1-0.5-1.1-1.1V297c0-0.6,0.5-1.1,1.1-1.1h0.8
	C416.4,295.9,416.9,296.4,416.9,297z"/>
<path fill="#D3D2D2" d="M422.4,297v8.9c0,0.6-0.5,1.1-1.1,1.1h-0.8c-0.6,0-1.1-0.5-1.1-1.1V297c0-0.6,0.5-1.1,1.1-1.1h0.8
	C421.9,295.9,422.4,296.4,422.4,297z"/>
<path fill="#D3D2D2" d="M427.7,297v8.9c0,0.6-0.5,1.1-1.1,1.1h-0.8c-0.6,0-1.1-0.5-1.1-1.1V297c0-0.6,0.5-1.1,1.1-1.1h0.8
	C427.2,295.9,427.7,296.4,427.7,297z"/>
<path fill="#D3D2D2" d="M401.1,255.4v8.9c0,0.6-0.5,1.1-1.1,1.1h-0.8c-0.6,0-1.1-0.5-1.1-1.1v-8.9c0-0.6,0.5-1.1,1.1-1.1h0.8
	C400.6,254.3,401.1,254.8,401.1,255.4z"/>
<path fill="#D3D2D2" d="M406.4,255.4v8.9c0,0.6-0.5,1.1-1.1,1.1h-0.8c-0.6,0-1.1-0.5-1.1-1.1v-8.9c0-0.6,0.5-1.1,1.1-1.1h0.8
	C405.9,254.3,406.4,254.8,406.4,255.4z"/>
<path fill="#D3D2D2" d="M411.3,255.4v8.9c0,0.6-0.5,1.1-1.1,1.1h-0.8c-0.6,0-1.1-0.5-1.1-1.1v-8.9c0-0.6,0.5-1.1,1.1-1.1h0.8
	C410.8,254.3,411.3,254.8,411.3,255.4z"/>
<path fill="#D3D2D2" d="M416.6,255.4v8.9c0,0.6-0.5,1.1-1.1,1.1h-0.8c-0.6,0-1.1-0.5-1.1-1.1v-8.9c0-0.6,0.5-1.1,1.1-1.1h0.8
	C416.1,254.3,416.6,254.8,416.6,255.4z"/>
<path fill="#333333" d="M424.2,297.5h-23.7c-2.8,0-5-2.3-5-5v-23.7c0-2.8,2.3-5,5-5h23.7c2.8,0,5,2.3,5,5v23.7
	C429.2,295.2,427,297.5,424.2,297.5z"/>
<path fill="#D3D2D2" d="M453.9,365.1H447c-0.6,0-1.1-0.5-1.1-1.1v-0.8c0-0.6,0.5-1.1,1.1-1.1h6.9c0.6,0,1.1,0.5,1.1,1.1v0.8
	C455,364.6,454.5,365.1,453.9,365.1z"/>
<path fill="#D3D2D2" d="M453.9,377.1h-6.7c-0.6,0-1.1-0.5-1.1-1.1v-0.8c0-0.6,0.5-1.1,1.1-1.1h6.7c0.6,0,1.1,0.5,1.1,1.1v0.8
	C455,376.6,454.5,377.1,453.9,377.1z"/>
<path fill="#D3D2D2" d="M462.7,365.1H456c-0.6,0-1.1-0.5-1.1-1.1v-0.8c0-0.6,0.5-1.1,1.1-1.1h6.7c0.6,0,1.1,0.5,1.1,1.1v0.8
	C463.7,364.6,463.3,365.1,462.7,365.1z"/>
<path fill="#D3D2D2" d="M462.3,377.1H456c-0.6,0-1.1-0.5-1.1-1.1v-0.8c0-0.6,0.5-1.1,1.1-1.1h6.3c0.6,0,1.1,0.5,1.1,1.1v0.8
	C463.4,376.6,462.9,377.1,462.3,377.1z"/>
<rect x="450" y="360" fill="#333333" width="10" height="20"/>
<circle fill="#333333" cx="451.9" cy="258" r="5.7"/>
<circle fill="#CCCBCB" cx="395.5" cy="337.8" r="7.4"/>
<path fill="#333333" d="M411.7,383.4h-0.8c-0.5,0-1-0.4-1-1v-62.3c0-0.5,0.4-1,1-1h0.8c0.5,0,1,0.4,1,1v62.3
	C412.7,382.9,412.2,383.4,411.7,383.4z"/>
<path fill="#333333" d="M439.8,383.4H439c-0.5,0-1-0.4-1-1v-62.3c0-0.5,0.4-1,1-1h0.8c0.5,0,1,0.4,1,1v62.3
	C440.8,382.9,440.3,383.4,439.8,383.4z"/>
<rect x="412.7" y="321.6" fill="#CCCBCB" width="5.3" height="1.2"/>
<rect x="412.7" y="324" fill="#CCCBCB" width="5.3" height="1.2"/>
<rect x="412.7" y="326.3" fill="#CCCBCB" width="5.3" height="1.2"/>
<rect x="412.7" y="328.7" fill="#CCCBCB" width="5.3" height="1.2"/>
<rect x="412.7" y="331.1" fill="#CCCBCB" width="5.3" height="1.2"/>
<rect x="412.7" y="333.4" fill="#CCCBCB" width="5.3" height="1.2"/>
<rect x="412.7" y="335.8" fill="#CCCBCB" width="5.3" height="1.2"/>
<rect x="412.7" y="338.1" fill="#CCCBCB" width="5.3" height="1.2"/>
<rect x="412.7" y="340.5" fill="#CCCBCB" width="5.3" height="1.2"/>
<rect x="412.7" y="342.8" fill="#CCCBCB" width="5.3" height="1.2"/>
<rect x="412.7" y="345.2" fill="#CCCBCB" width="5.3" height="1.2"/>
<rect x="412.7" y="347.5" fill="#CCCBCB" width="5.3" height="1.2"/>
<rect x="412.7" y="349.9" fill="#CCCBCB" width="5.3" height="1.2"/>
<rect x="412.7" y="352.2" fill="#CCCBCB" width="5.3" height="1.2"/>
<rect x="412.7" y="354.6" fill="#CCCBCB" width="5.3" height="1.2"/>
<rect x="412.7" y="356.9" fill="#CCCBCB" width="5.3" height="1.2"/>
<rect x="412.7" y="359.3" fill="#CCCBCB" width="5.3" height="1.2"/>
<rect x="412.7" y="361.6" fill="#CCCBCB" width="5.3" height="1.2"/>
<rect x="412.7" y="364" fill="#CCCBCB" width="5.3" height="1.2"/>
<rect x="412.7" y="366.3" fill="#CCCBCB" width="5.3" height="1.2"/>
<rect x="412.7" y="368.7" fill="#CCCBCB" width="5.3" height="1.2"/>
<rect x="412.7" y="371.1" fill="#CCCBCB" width="5.3" height="1.2"/>
<rect x="412.7" y="373.4" fill="#CCCBCB" width="5.3" height="1.2"/>
<rect x="412.7" y="375.8" fill="#CCCBCB" width="5.3" height="1.2"/>
<rect x="412.7" y="378.1" fill="#CCCBCB" width="5.3" height="1.2"/>
<rect x="412.7" y="380.5" fill="#CCCBCB" width="5.3" height="1.2"/>
<path fill="#333333" d="M419.7,383.4h-0.8c-0.5,0-1-0.4-1-1v-62.3c0-0.5,0.4-1,1-1h0.8c0.5,0,1,0.4,1,1v62.3
	C420.7,382.9,420.3,383.4,419.7,383.4z"/>
<path fill="#333333" d="M431.7,383.4H431c-0.5,0-1-0.4-1-1v-62.3c0-0.5,0.4-1,1-1h0.8c0.5,0,1,0.4,1,1v62.3
	C432.7,382.9,432.3,383.4,431.7,383.4z"/>
<rect x="432.7" y="321.6" fill="#CCCBCB" width="5.3" height="1.2"/>
<rect x="432.7" y="324" fill="#CCCBCB" width="5.3" height="1.2"/>
<rect x="432.7" y="326.3" fill="#CCCBCB" width="5.3" height="1.2"/>
<rect x="432.7" y="328.7" fill="#CCCBCB" width="5.3" height="1.2"/>
<rect x="432.7" y="331.1" fill="#CCCBCB" width="5.3" height="1.2"/>
<rect x="432.7" y="333.4" fill="#CCCBCB" width="5.3" height="1.2"/>
<rect x="432.7" y="335.8" fill="#CCCBCB" width="5.3" height="1.2"/>
<rect x="432.7" y="338.1" fill="#CCCBCB" width="5.3" height="1.2"/>
<rect x="432.7" y="340.5" fill="#CCCBCB" width="5.3" height="1.2"/>
<rect x="432.7" y="342.8" fill="#CCCBCB" width="5.3" height="1.2"/>
<rect x="432.7" y="345.2" fill="#CCCBCB" width="5.3" height="1.2"/>
<rect x="432.7" y="347.5" fill="#CCCBCB" width="5.3" height="1.2"/>
<rect x="432.7" y="349.9" fill="#CCCBCB" width="5.3" height="1.2"/>
<rect x="432.7" y="352.2" fill="#CCCBCB" width="5.3" height="1.2"/>
<rect x="432.7" y="354.6" fill="#CCCBCB" width="5.3" height="1.2"/>
<rect x="432.7" y="356.9" fill="#CCCBCB" width="5.3" height="1.2"/>
<rect x="432.7" y="359.3" fill="#CCCBCB" width="5.3" height="1.2"/>
<rect x="432.7" y="361.6" fill="#CCCBCB" width="5.3" height="1.2"/>
<rect x="432.7" y="364" fill="#CCCBCB" width="5.3" height="1.2"/>
<rect x="432.7" y="366.3" fill="#CCCBCB" width="5.3" height="1.2"/>
<rect x="432.7" y="368.7" fill="#CCCBCB" width="5.3" height="1.2"/>
<rect x="432.7" y="371.1" fill="#CCCBCB" width="5.3" height="1.2"/>
<rect x="432.7" y="373.4" fill="#CCCBCB" width="5.3" height="1.2"/>
<rect x="432.7" y="375.8" fill="#CCCBCB" width="5.3" height="1.2"/>
<rect x="432.7" y="378.1" fill="#CCCBCB" width="5.3" height="1.2"/>
<rect x="432.7" y="380.5" fill="#CCCBCB" width="5.3" height="1.2"/>
<circle fill="#71B52C" cx="462.5" cy="307.3" r="2.4"/>
<circle fill="#F8E000" cx="462.5" cy="313.8" r="2.4"/>
<rect x="448.4" y="306" fill="#333333" width="9" height="2.5"/>
<rect x="448.4" y="312.6" fill="#333333" width="9" height="2.5"/>
<path d="M151,133.7H23c-2.8,0-5-2.3-5-5V42.1c0-2.8,2.3-5,5-5h128c2.8,0,5,2.3,5,5v86.6C156,131.5,153.7,133.7,151,133.7z"/>
<linearGradient id="SVGID_7_" gradientUnits="userSpaceOnUse" x1="48.8866" y1="258.3644" x2="124.9134" y2="375.4356" gradientTransform="matrix(1 0 0 -1 0 400)">
	<stop  offset="0.5" style="stop-color:#4B4B4B"/>
	<stop  offset="0.5" style="stop-color:#525252"/>
</linearGradient>
<rect x="22.5" y="41.7" fill="url(#SVGID_7_)" width="128.8" height="82.8"/>
<rect x="-2" y="129.8" fill="#CFCECF" width="177.9" height="3.9"/>
<path fill="#333333" d="M-2,133.7c4.5,2.2,6.5,2.3,6.5,2.3h160.6c0,0,6.1,0,10.8-2.3"/>
<path fill="#8C8C8C" d="M68.1,129.8v0.2c0,0.7,0.6,1.4,1.4,1.4h35.1c0.7,0,1.4-0.6,1.4-1.4v-0.2H68.1z"/>
<rect x="782.7" y="53.2" fill="#DDDDDD" width="5.9" height="5.9"/>
<rect x="782.7" y="112.6" fill="#DDDDDD" width="5.9" height="5.9"/>
<rect x="782.7" y="104.1" fill="#DDDDDD" width="5.9" height="5.9"/>
<rect x="782.7" y="95.7" fill="#DDDDDD" width="5.9" height="5.9"/>
<rect x="782.7" y="70.2" fill="#DDDDDD" width="5.9" height="5.9"/>
<rect x="782.7" y="121.1" fill="#DDDDDD" width="5.9" height="5.9"/>
<rect x="782.7" y="61.7" fill="#DDDDDD" width="5.9" height="5.9"/>
<rect x="782.7" y="78.7" fill="#DDDDDD" width="5.9" height="5.9"/>
<rect x="723.3" y="138.1" fill="#DDDDDD" width="5.9" height="5.9"/>
<rect x="723.3" y="129.6" fill="#DDDDDD" width="5.9" height="5.9"/>
<rect x="723.3" y="112.6" fill="#DDDDDD" width="5.9" height="5.9"/>
<rect x="723.3" y="87.2" fill="#DDDDDD" width="5.9" height="5.9"/>
<rect x="723.3" y="104.1" fill="#DDDDDD" width="5.9" height="5.9"/>
<rect x="723.3" y="70.2" fill="#DDDDDD" width="5.9" height="5.9"/>
<rect x="723.3" y="121.1" fill="#DDDDDD" width="5.9" height="5.9"/>
<rect x="723.3" y="53.2" fill="#DDDDDD" width="5.9" height="5.9"/>
<rect x="782.7" y="138.1" fill="#DDDDDD" width="5.9" height="5.9"/>
<rect x="782.7" y="129.6" fill="#DDDDDD" width="5.9" height="5.9"/>
<rect x="723.3" y="61.7" fill="#DDDDDD" width="5.9" height="5.9"/>
<rect x="723.3" y="78.7" fill="#DDDDDD" width="5.9" height="5.9"/>
<rect x="723.3" y="95.7" fill="#DDDDDD" width="5.9" height="5.9"/>
<rect x="782.7" y="87.2" fill="#DDDDDD" width="5.9" height="5.9"/>
<polygon fill="#269CD8" points="751.7,36.9 755.2,39.9 758.7,36.9 "/>
<path fill="#333333" d="M764.6,50.7c0,4.7-3.8,8.5-8.5,8.5s-8.5-3.8-8.5-8.5h-18.4v97.5H783V50.7H764.6z"/>
</svg>
