<?xml version="1.0" encoding="utf-8"?>
<!-- Generator: Adobe Illustrator 18.0.0, SVG Export Plug-In . SVG Version: 6.00 Build 0)  -->
<!DOCTYPE svg PUBLIC "-//W3C//DTD SVG 1.1//EN" "http://www.w3.org/Graphics/SVG/1.1/DTD/svg11.dtd">
<svg version="1.1" id="Vrstva_1" xmlns="http://www.w3.org/2000/svg" xmlns:xlink="http://www.w3.org/1999/xlink" x="0px" y="0px"
	 viewBox="45.5 0.5 275 170" enable-background="new 45.5 0.5 275 170" xml:space="preserve">
<g id="Vrstva_1_1_">
	<g>
		<g>
			<g>
				<g>
					
						<linearGradient id="SVGID_1_" gradientUnits="userSpaceOnUse" x1="255.3092" y1="307.7193" x2="568.3093" y2="307.7193" gradientTransform="matrix(0.4275 0 0 -0.4275 57.75 171)">
						<stop  offset="0.5" style="stop-color:#4B4B4B"/>
						<stop  offset="0.5" style="stop-color:#525252"/>
					</linearGradient>
					
						<line fill="none" stroke="url(#SVGID_1_)" stroke-width="3" stroke-linecap="round" stroke-miterlimit="10" x1="300.1" y1="39.4" x2="300.1" y2="39.4"/>
					
						<linearGradient id="SVGID_2_" gradientUnits="userSpaceOnUse" x1="314.4234" y1="171.6959" x2="568.3355" y2="171.6959" gradientTransform="matrix(0.4275 0 0 -0.4275 57.75 171)">
						<stop  offset="0.5" style="stop-color:#4B4B4B"/>
						<stop  offset="0.5" style="stop-color:#525252"/>
					</linearGradient>
					
						<line fill="none" stroke="url(#SVGID_2_)" stroke-width="3" stroke-linecap="round" stroke-miterlimit="10" stroke-dasharray="9.913866e-003,16.8536" x1="295.4" y1="44.3" x2="195.1" y2="150.8"/>
					
						<linearGradient id="SVGID_3_" gradientUnits="userSpaceOnUse" x1="314.4365" y1="41.5205" x2="627.4365" y2="41.5205" gradientTransform="matrix(0.4275 0 0 -0.4275 57.75 171)">
						<stop  offset="0.5" style="stop-color:#4B4B4B"/>
						<stop  offset="0.5" style="stop-color:#525252"/>
					</linearGradient>
					
						<line fill="none" stroke="url(#SVGID_3_)" stroke-width="3" stroke-linecap="round" stroke-miterlimit="10" x1="192.8" y1="153.2" x2="192.8" y2="153.2"/>
				</g>
			</g>
			<g>
				<line fill="none" x1="190.4" y1="155.8" x2="190.4" y2="155.8"/>
			</g>
		</g>
	</g>
	<g>
		<g>
			
				<line fill="none" stroke="#037CBF" stroke-width="3" stroke-linecap="round" stroke-miterlimit="10" stroke-dasharray="1.000000e-002,17" x1="85" y1="40" x2="85" y2="40"/>
			
				<line fill="none" stroke="#037CBF" stroke-width="3" stroke-linecap="round" stroke-miterlimit="10" stroke-dasharray="1.000000e-002,17" x1="90.5" y1="40" x2="299.5" y2="40.2"/>
			
				<line fill="none" stroke="#037CBF" stroke-width="3" stroke-linecap="round" stroke-miterlimit="10" stroke-dasharray="1.000000e-002,17" x1="302.3" y1="40.2" x2="302.3" y2="40.2"/>
		</g>
	</g>
	<path fill="#269CD8" d="M317.3,13.1h-30.2c-0.5,0-0.9-0.4-0.9-0.9V4.9c0-0.5,0.4-0.9,0.9-0.9h30.2c0.5,0,0.9,0.4,0.9,0.9v7.3
		C318.2,12.7,317.8,13.1,317.3,13.1z"/>
	<rect x="290.5" y="6.4" fill="none" width="30" height="5.5"/>
	<path fill="#269CD8" d="M100.6,12.9H69.4c-0.5,0-0.9-0.4-0.9-0.9V4.8c0-0.5,0.4-0.9,0.9-0.9h31.1c0.5,0,0.9,0.4,0.9,0.9v7.3
		C101.4,12.5,101,12.9,100.6,12.9z"/>
	<path fill="#269CD8" d="M200.3,94.2h-27.7c-0.4,0-0.8-0.4-0.8-0.9V86c0-0.5,0.4-0.9,0.8-0.9h27.7c0.4,0,0.8,0.4,0.8,0.9v7.3
		C201.1,93.8,200.7,94.2,200.3,94.2z"/>
	<polygon fill="#269CD8" points="73.7,12.8 75.2,14.1 76.7,12.8 	"/>
	<polygon fill="#269CD8" points="173.7,94.1 175.2,95.3 176.7,94.1 	"/>
	<polygon fill="#269CD8" points="300.7,12.9 302.2,14.2 303.7,12.9 	"/>
	<g>
		<g>
			<g>
				<g>
					
						<linearGradient id="SVGID_4_" gradientUnits="userSpaceOnUse" x1="413.36" y1="300" x2="726.36" y2="300" gradientTransform="matrix(-0.4275 0 0 -0.4275 397.6367 171)">
						<stop  offset="0.5" style="stop-color:#4B4B4B"/>
						<stop  offset="0.5" style="stop-color:#525252"/>
					</linearGradient>
					
						<line fill="none" stroke="url(#SVGID_4_)" stroke-width="3" stroke-linecap="round" stroke-miterlimit="10" x1="87.8" y1="42.7" x2="87.8" y2="42.7"/>
					
						<linearGradient id="SVGID_5_" gradientUnits="userSpaceOnUse" x1="472.4742" y1="163.8596" x2="726.3863" y2="163.8596" gradientTransform="matrix(-0.4275 0 0 -0.4275 397.6367 171)">
						<stop  offset="0.5" style="stop-color:#4B4B4B"/>
						<stop  offset="0.5" style="stop-color:#525252"/>
					</linearGradient>
					
						<line fill="none" stroke="url(#SVGID_5_)" stroke-width="3" stroke-linecap="round" stroke-miterlimit="10" stroke-dasharray="9.913866e-003,16.8536" x1="192.7" y1="154.1" x2="92.4" y2="47.7"/>
					
						<linearGradient id="SVGID_6_" gradientUnits="userSpaceOnUse" x1="472.4873" y1="33.5673" x2="785.4872" y2="33.5673" gradientTransform="matrix(-0.4275 0 0 -0.4275 397.6367 171)">
						<stop  offset="0.5" style="stop-color:#4B4B4B"/>
						<stop  offset="0.5" style="stop-color:#525252"/>
					</linearGradient>
					
						<line fill="none" stroke="url(#SVGID_6_)" stroke-width="3" stroke-linecap="round" stroke-miterlimit="10" x1="195" y1="156.6" x2="195" y2="156.6"/>
				</g>
			</g>
			<g>
				<line fill="none" x1="197.4" y1="159.1" x2="197.4" y2="159.1"/>
			</g>
		</g>
	</g>
	<g>
		<path fill="#FFFFFF" d="M177.8,87.2h0.3l-2,5.5h-0.2l-2-5.5h0.3l1.8,5L177.8,87.2z"/>
		<path fill="#FFFFFF" d="M179,88.3c0.1,0.1,0.1,0.1,0.1,0.2s0,0.2-0.1,0.2c-0.1,0.1-0.1,0.1-0.2,0.1c-0.1,0-0.2,0-0.2-0.1
			c-0.1-0.1-0.1-0.1-0.1-0.2s0-0.2,0.1-0.2c0.1-0.1,0.1-0.1,0.2-0.1C178.8,88.2,178.9,88.2,179,88.3z M178.9,89.4v3.4h-0.3v-3.4
			H178.9z"/>
		<path fill="#FFFFFF" d="M181,89.6c-0.2,0-0.4,0.2-0.7,0.4c-0.2,0.2-0.3,0.5-0.3,0.8v1.9h-0.3v-3.4h0.3V90c0.1-0.3,0.4-0.6,0.8-0.8
			L181,89.6z"/>
		<path fill="#FFFFFF" d="M181.8,89.4V88h0.3v1.4h0.7v0.3h-0.7v3.1h-0.3v-3.1h-0.7v-0.3H181.8z"/>
		<path fill="#FFFFFF" d="M184.6,92.8c-0.4,0-0.8-0.1-1-0.4s-0.4-0.6-0.4-0.9v-2.1h0.3v2.1c0,0.3,0.1,0.5,0.3,0.7s0.5,0.3,0.8,0.3
			s0.5-0.1,0.7-0.3c0.2-0.2,0.3-0.5,0.3-0.7v-2.1h0.3v2.1c0,0.4-0.1,0.7-0.4,0.9S185,92.8,184.6,92.8z"/>
		<path fill="#FFFFFF" d="M190.4,92.8h-0.3v-0.7c-0.1,0.1-0.1,0.2-0.2,0.2c-0.4,0.4-0.8,0.6-1.3,0.6s-1-0.2-1.3-0.6
			s-0.6-0.8-0.6-1.3s0.2-1,0.6-1.3c0.4-0.4,0.8-0.6,1.3-0.6s1,0.2,1.3,0.6c0.1,0.1,0.1,0.1,0.2,0.2v-0.5h0.3V92.8z M190.1,91.3v-0.6
			c-0.1-0.3-0.2-0.6-0.4-0.8c-0.3-0.3-0.7-0.5-1.1-0.5c-0.4,0-0.8,0.2-1.1,0.5S187,90.6,187,91s0.2,0.8,0.5,1.1
			c0.3,0.3,0.7,0.5,1.1,0.5c0.4,0,0.8-0.2,1.1-0.5C189.9,91.8,190,91.6,190.1,91.3z"/>
		<path fill="#FFFFFF" d="M191.5,87.2v5.5h-0.3v-5.5H191.5z"/>
		<path fill="#FFFFFF" d="M192.7,87.2v5.5h-0.3v-5.5H192.7z"/>
		<path fill="#FFFFFF" d="M198.2,88c0.6,0.6,0.8,1.2,0.8,2s-0.3,1.5-0.8,2c-0.6,0.6-1.2,0.8-2,0.8s-1.4-0.3-2-0.8
			c-0.6-0.6-0.8-1.2-0.8-2s0.3-1.4,0.8-2c0.6-0.6,1.2-0.8,2-0.8C197,87.2,197.7,87.4,198.2,88z M196.2,87.5c-0.7,0-1.3,0.2-1.8,0.7
			s-0.7,1.1-0.7,1.8c0,0.7,0.2,1.3,0.7,1.8s1.1,0.7,1.8,0.7s1.3-0.2,1.8-0.7s0.7-1.1,0.7-1.8c0-0.7-0.2-1.3-0.7-1.8
			S196.9,87.5,196.2,87.5z"/>
	</g>
	<g>
		<path fill="#FFFFFF" d="M74.9,10.3l0.2,0.2c-0.5,0.5-1.2,0.7-1.9,0.7c-0.8,0-1.5-0.3-2-0.8s-0.8-1.2-0.8-2s0.3-1.4,0.8-2
			c0.5-0.6,1.2-0.8,2-0.8c0.7,0,1.4,0.2,1.9,0.7l-0.2,0.2c-0.5-0.4-1-0.6-1.7-0.6s-1.3,0.2-1.8,0.7s-0.7,1.1-0.7,1.8
			s0.2,1.3,0.7,1.8s1.1,0.7,1.8,0.7C73.9,10.9,74.4,10.7,74.9,10.3z"/>
		<path fill="#FFFFFF" d="M77.6,7.4c0.5,0,1,0.2,1.3,0.6c0.3,0.4,0.6,0.8,0.6,1.3s-0.2,1-0.6,1.3s-0.8,0.6-1.3,0.6s-1-0.2-1.3-0.6
			s-0.6-0.7-0.6-1.3c0-0.5,0.2-1,0.6-1.3S77.1,7.4,77.6,7.4z M76.5,8.2C76.2,8.5,76,8.9,76,9.3s0.2,0.8,0.5,1.1s0.7,0.5,1.1,0.5
			s0.8-0.2,1.1-0.5s0.5-0.7,0.5-1.1S79,8.5,78.7,8.2c-0.3-0.3-0.7-0.5-1.1-0.5S76.8,7.9,76.5,8.2z"/>
		<path fill="#FFFFFF" d="M80.1,7.7h0.3v0.1c0.2-0.2,0.4-0.3,0.7-0.3c0.3,0,0.5,0.1,0.7,0.3c0.1,0.1,0.1,0.1,0.1,0.2
			c0-0.1,0.1-0.1,0.1-0.2c0.2-0.2,0.4-0.3,0.7-0.3s0.5,0.1,0.7,0.3s0.3,0.4,0.3,0.7v2.6h-0.3V8.5l0,0c0-0.2-0.1-0.3-0.2-0.5
			c-0.1-0.1-0.3-0.2-0.5-0.2S82.3,7.9,82.2,8C82.1,8.1,82,8.3,82,8.5v2.6h-0.3V8.5l0,0c0-0.2-0.1-0.3-0.2-0.5
			c-0.1-0.1-0.3-0.2-0.5-0.2S80.6,7.9,80.5,8c-0.1,0.1-0.2,0.3-0.2,0.4V11H80V7.7H80.1z"/>
		<path fill="#FFFFFF" d="M84.6,7.7h0.3v0.5C85,8.1,85,8,85.1,8c0.4-0.4,0.8-0.6,1.3-0.6s1,0.2,1.3,0.6c0.3,0.4,0.6,0.8,0.6,1.3
			s-0.2,1-0.6,1.3s-0.8,0.6-1.3,0.6s-1-0.2-1.3-0.6c-0.1-0.1-0.1-0.1-0.2-0.2v2h-0.3C84.6,12.4,84.6,7.7,84.6,7.7z M84.9,9v0.6
			c0.1,0.3,0.2,0.6,0.4,0.8c0.3,0.3,0.7,0.5,1.1,0.5s0.8-0.2,1.1-0.5S88,9.7,88,9.3s-0.2-0.8-0.5-1.1c-0.3-0.3-0.7-0.5-1.1-0.5
			s-0.8,0.2-1.1,0.5C85.1,8.5,85,8.7,84.9,9z"/>
		<path fill="#FFFFFF" d="M90.3,11.2c-0.4,0-0.8-0.1-1-0.4s-0.4-0.6-0.4-0.9V7.7h0.3v2.1c0,0.3,0.1,0.5,0.3,0.7
			c0.2,0.2,0.5,0.3,0.8,0.3s0.5-0.1,0.7-0.3s0.3-0.4,0.3-0.7V7.7h0.3v2.1c0,0.4-0.1,0.7-0.4,0.9S90.7,11.2,90.3,11.2z"/>
		<path fill="#FFFFFF" d="M92.8,7.7V6.3h0.3v1.4h0.7V8h-0.7v3.1h-0.3v-3h-0.7V7.7H92.8z"/>
		<path fill="#FFFFFF" d="M94.5,9.2c0,0.1,0,0.1,0,0.2c0,0.4,0.2,0.8,0.5,1.1s0.7,0.5,1.1,0.5s0.8-0.2,1.1-0.5
			c0.1-0.1,0.1-0.1,0.1-0.2l0.3,0.1c0,0.1-0.1,0.2-0.2,0.3c-0.4,0.4-0.8,0.6-1.3,0.6s-1-0.2-1.3-0.6s-0.6-0.8-0.6-1.3s0.2-1,0.6-1.3
			s0.8-0.6,1.3-0.6s1,0.2,1.3,0.6c0.3,0.3,0.5,0.7,0.5,1.2h-3.4V9.2z M94.5,8.8h3c-0.1-0.2-0.2-0.4-0.4-0.6
			c-0.3-0.3-0.7-0.5-1.1-0.5s-0.8,0.2-1.1,0.5C94.8,8.4,94.6,8.6,94.5,8.8z"/>
		<path fill="#FFFFFF" d="M99.6,8c-0.2,0-0.4,0.2-0.7,0.4s-0.3,0.5-0.3,0.8v1.9h-0.3V7.7h0.3v0.7c0.1-0.3,0.4-0.6,0.8-0.8L99.6,8z"
			/>
	</g>
	<g>
		<path fill="#FFFFFF" d="M288.1,8.4V11h-0.3V5.4h0.3V8h2.8V5.4h0.3v5.5h-0.3V8.4H288.1z"/>
		<path fill="#FFFFFF" d="M295.7,11h-0.3v-0.7c-0.1,0.1-0.1,0.2-0.2,0.2c-0.4,0.4-0.8,0.6-1.3,0.6s-1-0.2-1.3-0.6S292,9.7,292,9.2
			s0.2-1,0.6-1.3s0.7-0.6,1.2-0.6s1,0.2,1.3,0.6c0.1,0.1,0.1,0.1,0.2,0.2V7.6h0.3V11H295.7z M295.4,9.5V8.9
			c-0.1-0.3-0.2-0.6-0.4-0.8c-0.3-0.3-0.7-0.5-1.1-0.5s-0.8,0.2-1.1,0.5s-0.5,0.6-0.5,1.1s0.2,0.8,0.5,1.1s0.7,0.5,1.1,0.5
			s0.8-0.2,1.1-0.5C295.2,10,295.3,9.8,295.4,9.5z"/>
		<path fill="#FFFFFF" d="M297.6,7.8c-0.2,0-0.4,0.2-0.7,0.4c-0.3,0.2-0.3,0.5-0.3,0.8v1.9h-0.3V7.6h0.3v0.7
			c0.1-0.3,0.4-0.6,0.8-0.8L297.6,7.8z"/>
		<path fill="#FFFFFF" d="M301.7,11h-0.4v-0.7c-0.1,0.1-0.1,0.2-0.2,0.2c-0.4,0.4-0.8,0.6-1.3,0.6s-1-0.2-1.3-0.6s-0.6-0.8-0.6-1.3
			s0.2-1,0.6-1.3s0.8-0.6,1.3-0.6s1,0.2,1.3,0.6c0.1,0.1,0.1,0.1,0.2,0.2V5.4h0.3V11H301.7z M301.3,9.5V8.9
			c-0.1-0.3-0.2-0.6-0.4-0.8c-0.3-0.3-0.7-0.5-1.1-0.5s-0.8,0.2-1.1,0.5s-0.5,0.7-0.5,1.1s0.2,0.8,0.5,1.1s0.7,0.5,1.1,0.5
			s0.8-0.2,1.1-0.5C301.1,10,301.3,9.8,301.3,9.5z"/>
		<path fill="#FFFFFF" d="M306.3,7.6l-1.2,3.4h-0.2l-0.8-2.2l-0.8,2.2h-0.2L302,7.6h0.4l0.9,2.8l0.8-2.2h0.2l0.8,2.2l0.9-2.8H306.3z
			"/>
		<path fill="#FFFFFF" d="M310.3,11H310v-0.7c-0.1,0.1-0.1,0.2-0.2,0.2c-0.4,0.4-0.8,0.6-1.3,0.6s-1-0.2-1.3-0.6s-0.6-0.8-0.6-1.3
			s0.2-1,0.6-1.3s0.8-0.6,1.3-0.6s1,0.2,1.3,0.6c0.1,0.1,0.1,0.1,0.2,0.2V7.6h0.3V11z M310,9.5V8.9c-0.1-0.3-0.2-0.6-0.4-0.8
			c-0.3-0.3-0.7-0.5-1.1-0.5s-0.8,0.2-1.1,0.5s-0.5,0.7-0.5,1.1s0.2,0.8,0.5,1.1s0.7,0.5,1.1,0.5s0.8-0.2,1.1-0.5
			C309.8,10,309.9,9.8,310,9.5z"/>
		<path fill="#FFFFFF" d="M312.2,7.8c-0.2,0-0.4,0.2-0.7,0.4c-0.3,0.2-0.2,0.6-0.2,0.8v1.9H311V7.6h0.3v0.7c0.1-0.3,0.4-0.6,0.8-0.8
			L312.2,7.8z"/>
		<path fill="#FFFFFF" d="M312.8,9c0,0.1,0,0.1,0,0.2c0,0.4,0.2,0.8,0.5,1.1s0.7,0.5,1.1,0.5s0.8-0.2,1.1-0.5
			c0.1-0.1,0.1-0.1,0.1-0.2l0.3,0.1c0,0.1-0.1,0.2-0.2,0.3c-0.4,0.4-0.8,0.6-1.3,0.6s-1-0.2-1.3-0.6s-0.6-0.8-0.6-1.3s0.2-1,0.6-1.3
			s0.7-0.6,1.2-0.6s1,0.2,1.3,0.6c0.3,0.3,0.5,0.7,0.5,1.2h-3.3V9z M312.8,8.7h3c-0.1-0.2-0.2-0.4-0.4-0.6c-0.3-0.3-0.7-0.5-1.1-0.5
			s-0.8,0.2-1.1,0.5C313.1,8.2,312.9,8.5,312.8,8.7z"/>
	</g>
</g>
<g id="PC">
	<path d="M112.9,60.5H58.1c-1.2,0-2.1-1-2.1-2.1V21.3c0-1.2,1-2.1,2.1-2.1h54.7c1.2,0,2.1,1,2.1,2.1v37
		C115,59.5,114,60.5,112.9,60.5z"/>
	
		<linearGradient id="SVGID_7_" gradientUnits="userSpaceOnUse" x1="26.7671" y1="149.4356" x2="102.8235" y2="32.3188" gradientTransform="matrix(0.4275 0 0 0.4275 57.75 0)">
		<stop  offset="0.5" style="stop-color:#4B4B4B"/>
		<stop  offset="0.5" style="stop-color:#525252"/>
	</linearGradient>
	<rect x="57.9" y="21.1" fill="url(#SVGID_7_)" width="55.1" height="35.4"/>
	<rect x="47.4" y="58.8" fill="#CFCECF" width="76.1" height="1.7"/>
	<path fill="#333333" d="M47.4,60.5c1.9,0.9,2.8,1,2.8,1h68.7c0,0,2.6,0,4.6-1"/>
	<path fill="#8C8C8C" d="M77.4,58.8L77.4,58.8c0,0.4,0.3,0.7,0.6,0.7h15c0.3,0,0.6-0.3,0.6-0.6v-0.1C93.6,58.8,77.4,58.8,77.4,58.8z
		"/>
</g>
<g id="nove">
	<rect x="162.7" y="100.8" fill="#0474A4" width="59.1" height="69"/>
	<path fill="#FFFFFF" d="M170.6,130.7h-0.3c-0.2,0-0.4-0.2-0.4-0.4v-21.7c0-0.2,0.2-0.4,0.4-0.4h0.3c0.2,0,0.4,0.2,0.4,0.4v21.7
		C171,130.6,170.9,130.7,170.6,130.7z"/>
	<path fill="#FFFFFF" d="M174.3,130.7H174c-0.2,0-0.4-0.2-0.4-0.4v-21.7c0-0.2,0.2-0.4,0.4-0.4h0.3c0.2,0,0.4,0.2,0.4,0.4v21.7
		C174.7,130.6,174.5,130.7,174.3,130.7z"/>
	<path fill="#FFFFFF" d="M170.6,166.4h-0.3c-0.2,0-0.4-0.2-0.4-0.4v-21.7c0-0.2,0.2-0.4,0.4-0.4h0.3c0.2,0,0.4,0.2,0.4,0.4V166
		C171,166.2,170.9,166.4,170.6,166.4z"/>
	<path fill="#FFFFFF" d="M174.3,166.4H174c-0.2,0-0.4-0.2-0.4-0.4v-21.7c0-0.2,0.2-0.4,0.4-0.4h0.3c0.2,0,0.4,0.2,0.4,0.4V166
		C174.7,166.2,174.5,166.4,174.3,166.4z"/>
	<path fill="#FFFFFF" d="M213.8,130.7h-0.3c-0.2,0-0.4-0.2-0.4-0.4v-21.7c0-0.2,0.2-0.4,0.4-0.4h0.3c0.2,0,0.4,0.2,0.4,0.4v21.7
		C214.2,130.6,214,130.7,213.8,130.7z"/>
	<path fill="#FFFFFF" d="M217.4,130.7h-0.3c-0.2,0-0.4-0.2-0.4-0.4v-21.7c0-0.2,0.2-0.4,0.4-0.4h0.3c0.2,0,0.4,0.2,0.4,0.4v21.7
		C217.9,130.6,217.7,130.7,217.4,130.7z"/>
	<path fill="#FFFFFF" d="M213.8,166.4h-0.3c-0.2,0-0.4-0.2-0.4-0.4v-21.7c0-0.2,0.2-0.4,0.4-0.4h0.3c0.2,0,0.4,0.2,0.4,0.4V166
		C214.2,166.2,214,166.4,213.8,166.4z"/>
	<path fill="#FFFFFF" d="M217.4,166.4h-0.3c-0.2,0-0.4-0.2-0.4-0.4v-21.7c0-0.2,0.2-0.4,0.4-0.4h0.3c0.2,0,0.4,0.2,0.4,0.4V166
		C217.9,166.2,217.7,166.4,217.4,166.4z"/>
	<path fill="#333333" d="M193.4,129.4h-9.8c-1.2,0-2.1-0.9-2.1-2.1v-9.8c0-1.2,0.9-2.1,2.1-2.1h9.8c1.2,0,2.1,0.9,2.1,2.1v9.8
		C195.5,128.4,194.6,129.4,193.4,129.4z"/>
	<path fill="#D2D1D1" d="M206.5,158h-2.9c-0.3,0-0.5-0.2-0.5-0.5v-0.3c0-0.3,0.2-0.5,0.5-0.5h2.9c0.3,0,0.5,0.2,0.5,0.5v0.3
		C207,157.8,206.8,158,206.5,158z"/>
	<path fill="#D2D1D1" d="M206.4,163.1h-2.8c-0.3,0-0.5-0.2-0.5-0.5v-0.3c0-0.3,0.2-0.5,0.5-0.5h2.8c0.3,0,0.5,0.2,0.5,0.5v0.3
		C206.9,162.9,206.7,163.1,206.4,163.1z"/>
	<path fill="#D2D1D1" d="M209.3,158h-2.8c-0.3,0-0.5-0.2-0.5-0.5v-0.3c0-0.3,0.2-0.5,0.5-0.5h2.8c0.3,0,0.5,0.2,0.5,0.5v0.3
		C209.7,157.8,209.6,158,209.3,158z"/>
	<path fill="#D2D1D1" d="M209.3,163.1h-2.7c-0.3,0-0.5-0.2-0.5-0.5v-0.3c0-0.3,0.2-0.5,0.5-0.5h2.7c0.3,0,0.5,0.2,0.5,0.5v0.3
		C209.8,162.9,209.6,163.1,209.3,163.1z"/>
	<circle fill="#333333" cx="180.3" cy="155.9" r="3.1"/>
	<path fill="#333333" d="M188,165.8h-0.3c-0.2,0-0.4-0.2-0.4-0.4v-26.5c0-0.2,0.2-0.4,0.4-0.4h0.3c0.2,0,0.4,0.2,0.4,0.4v26.5
		C188.5,165.6,188.3,165.8,188,165.8z"/>
	<path fill="#333333" d="M200,165.8h-0.3c-0.2,0-0.4-0.2-0.4-0.4v-26.5c0-0.2,0.2-0.4,0.4-0.4h0.3c0.2,0,0.4,0.2,0.4,0.4v26.5
		C200.4,165.6,200.2,165.8,200,165.8z"/>
	<rect x="188.5" y="139.6" fill="#CBCACA" width="2.3" height="0.5"/>
	<rect x="188.5" y="140.6" fill="#CBCACA" width="2.3" height="0.5"/>
	<rect x="188.5" y="141.6" fill="#CBCACA" width="2.3" height="0.5"/>
	<rect x="188.5" y="142.6" fill="#CBCACA" width="2.3" height="0.5"/>
	<rect x="188.5" y="143.6" fill="#CBCACA" width="2.3" height="0.5"/>
	<rect x="188.5" y="144.6" fill="#CBCACA" width="2.3" height="0.5"/>
	<rect x="188.5" y="145.6" fill="#CBCACA" width="2.3" height="0.5"/>
	<rect x="188.5" y="146.6" fill="#CBCACA" width="2.3" height="0.5"/>
	<rect x="188.5" y="147.6" fill="#CBCACA" width="2.3" height="0.5"/>
	<rect x="188.5" y="148.6" fill="#CBCACA" width="2.3" height="0.5"/>
	<rect x="188.5" y="149.6" fill="#CBCACA" width="2.3" height="0.5"/>
	<rect x="188.5" y="150.6" fill="#CBCACA" width="2.3" height="0.5"/>
	<rect x="188.5" y="151.6" fill="#CBCACA" width="2.3" height="0.5"/>
	<rect x="188.5" y="152.6" fill="#CBCACA" width="2.3" height="0.5"/>
	<rect x="188.5" y="153.6" fill="#CBCACA" width="2.3" height="0.5"/>
	<rect x="188.5" y="154.6" fill="#CBCACA" width="2.3" height="0.5"/>
	<rect x="188.5" y="155.6" fill="#CBCACA" width="2.3" height="0.5"/>
	<rect x="188.5" y="156.6" fill="#CBCACA" width="2.3" height="0.5"/>
	<rect x="188.5" y="157.6" fill="#CBCACA" width="2.3" height="0.5"/>
	<rect x="188.5" y="158.6" fill="#CBCACA" width="2.3" height="0.5"/>
	<rect x="188.5" y="159.6" fill="#CBCACA" width="2.3" height="0.5"/>
	<rect x="188.5" y="160.6" fill="#CBCACA" width="2.3" height="0.5"/>
	<rect x="188.5" y="161.6" fill="#CBCACA" width="2.3" height="0.5"/>
	<rect x="188.5" y="162.6" fill="#CBCACA" width="2.3" height="0.5"/>
	<rect x="188.5" y="163.6" fill="#CBCACA" width="2.3" height="0.5"/>
	<rect x="188.5" y="164.6" fill="#CBCACA" width="2.3" height="0.5"/>
	<rect x="197" y="139.6" fill="#CBCACA" width="2.3" height="0.5"/>
	<rect x="197" y="140.6" fill="#CBCACA" width="2.3" height="0.5"/>
	<rect x="197" y="141.6" fill="#CBCACA" width="2.3" height="0.5"/>
	<rect x="197" y="142.6" fill="#CBCACA" width="2.3" height="0.5"/>
	<rect x="197" y="143.6" fill="#CBCACA" width="2.3" height="0.5"/>
	<rect x="197" y="144.6" fill="#CBCACA" width="2.3" height="0.5"/>
	<rect x="197" y="145.6" fill="#CBCACA" width="2.3" height="0.5"/>
	<rect x="197" y="146.6" fill="#CBCACA" width="2.3" height="0.5"/>
	<rect x="197" y="147.6" fill="#CBCACA" width="2.3" height="0.5"/>
	<rect x="197" y="148.6" fill="#CBCACA" width="2.3" height="0.5"/>
	<rect x="197" y="149.6" fill="#CBCACA" width="2.3" height="0.5"/>
	<rect x="197" y="150.6" fill="#CBCACA" width="2.3" height="0.5"/>
	<rect x="197" y="151.6" fill="#CBCACA" width="2.3" height="0.5"/>
	<rect x="197" y="152.6" fill="#CBCACA" width="2.3" height="0.5"/>
	<rect x="197" y="153.6" fill="#CBCACA" width="2.3" height="0.5"/>
	<rect x="197" y="154.6" fill="#CBCACA" width="2.3" height="0.5"/>
	<rect x="197" y="155.6" fill="#CBCACA" width="2.3" height="0.5"/>
	<rect x="197" y="156.6" fill="#CBCACA" width="2.3" height="0.5"/>
	<rect x="197" y="157.6" fill="#CBCACA" width="2.3" height="0.5"/>
	<rect x="197" y="158.6" fill="#CBCACA" width="2.3" height="0.5"/>
	<rect x="197" y="159.6" fill="#CBCACA" width="2.3" height="0.5"/>
	<rect x="197" y="160.6" fill="#CBCACA" width="2.3" height="0.5"/>
	<rect x="197" y="161.6" fill="#CBCACA" width="2.3" height="0.5"/>
	<rect x="197" y="162.6" fill="#CBCACA" width="2.3" height="0.5"/>
	<rect x="197" y="163.6" fill="#CBCACA" width="2.3" height="0.5"/>
	<rect x="197" y="164.6" fill="#CBCACA" width="2.3" height="0.5"/>
	<circle fill="#70B444" cx="209.6" cy="133.5" r="1"/>
	<circle fill="#F6DF01" cx="209.6" cy="136.3" r="1"/>
	<rect x="203.6" y="132.9" fill="#333333" width="3.8" height="1.1"/>
	<rect x="203.6" y="135.7" fill="#333333" width="3.8" height="1.1"/>
	<rect x="195.5" y="126.8" fill="#CBCACA" width="1.3" height="0.5"/>
	<rect x="195.5" y="125.8" fill="#CBCACA" width="1.3" height="0.5"/>
	<rect x="195.5" y="124.8" fill="#CBCACA" width="1.3" height="0.5"/>
	<rect x="195.5" y="123.8" fill="#CBCACA" width="1.3" height="0.5"/>
	<rect x="195.5" y="122.8" fill="#CBCACA" width="1.3" height="0.5"/>
	<rect x="195.5" y="121.8" fill="#CBCACA" width="1.3" height="0.5"/>
	<rect x="195.5" y="120.6" fill="#CBCACA" width="1.3" height="0.5"/>
	<rect x="195.5" y="119.6" fill="#CBCACA" width="1.3" height="0.5"/>
	<rect x="195.5" y="118.6" fill="#CBCACA" width="1.3" height="0.5"/>
	<rect x="195.5" y="117.6" fill="#CBCACA" width="1.3" height="0.5"/>
	<rect x="180.3" y="126.8" fill="#CBCACA" width="1.3" height="0.5"/>
	<rect x="180.3" y="125.8" fill="#CBCACA" width="1.3" height="0.5"/>
	<rect x="180.3" y="124.8" fill="#CBCACA" width="1.3" height="0.5"/>
	<rect x="180.3" y="123.8" fill="#CBCACA" width="1.3" height="0.5"/>
	<rect x="180.3" y="122.8" fill="#CBCACA" width="1.3" height="0.5"/>
	<rect x="180.3" y="121.8" fill="#CBCACA" width="1.3" height="0.5"/>
	<rect x="180.3" y="120.6" fill="#CBCACA" width="1.3" height="0.5"/>
	<rect x="180.3" y="119.6" fill="#CBCACA" width="1.3" height="0.5"/>
	<rect x="180.3" y="118.6" fill="#CBCACA" width="1.3" height="0.5"/>
	<rect x="180.3" y="117.6" fill="#CBCACA" width="1.3" height="0.5"/>
	<rect x="192.9" y="114.3" fill="#CBCACA" width="0.5" height="1.3"/>
	<rect x="191.9" y="114.3" fill="#CBCACA" width="0.5" height="1.3"/>
	<rect x="190.8" y="114.3" fill="#CBCACA" width="0.5" height="1.3"/>
	<rect x="189.8" y="114.3" fill="#CBCACA" width="0.5" height="1.3"/>
	<rect x="188.8" y="114.3" fill="#CBCACA" width="0.5" height="1.3"/>
	<rect x="187.8" y="114.3" fill="#CBCACA" width="0.5" height="1.3"/>
	<rect x="186.8" y="114.3" fill="#CBCACA" width="0.5" height="1.3"/>
	<rect x="185.7" y="114.3" fill="#CBCACA" width="0.5" height="1.3"/>
	<rect x="184.7" y="114.3" fill="#CBCACA" width="0.5" height="1.3"/>
	<rect x="183.7" y="114.3" fill="#CBCACA" width="0.5" height="1.3"/>
	<rect x="192.9" y="129.4" fill="#CBCACA" width="0.5" height="1.3"/>
	<rect x="191.9" y="129.4" fill="#CBCACA" width="0.5" height="1.3"/>
	<rect x="190.8" y="129.4" fill="#CBCACA" width="0.5" height="1.3"/>
	<rect x="189.8" y="129.4" fill="#CBCACA" width="0.5" height="1.3"/>
	<rect x="188.8" y="129.4" fill="#CBCACA" width="0.5" height="1.3"/>
	<rect x="187.8" y="129.4" fill="#CBCACA" width="0.5" height="1.3"/>
	<rect x="186.8" y="129.4" fill="#CBCACA" width="0.5" height="1.3"/>
	<rect x="185.7" y="129.4" fill="#CBCACA" width="0.5" height="1.3"/>
	<rect x="184.7" y="129.4" fill="#CBCACA" width="0.5" height="1.3"/>
	<rect x="183.7" y="129.4" fill="#CBCACA" width="0.5" height="1.3"/>
	<rect x="200.3" y="111.9" fill="#CBCACA" width="0.5" height="1.3"/>
	<rect x="201.3" y="111.9" fill="#CBCACA" width="0.5" height="1.3"/>
	<rect x="202.3" y="111.9" fill="#CBCACA" width="0.5" height="1.3"/>
	<rect x="203.3" y="111.9" fill="#CBCACA" width="0.5" height="1.3"/>
	<rect x="204.3" y="111.9" fill="#CBCACA" width="0.5" height="1.3"/>
	<rect x="205.3" y="111.9" fill="#CBCACA" width="0.5" height="1.3"/>
	<rect x="206.3" y="111.9" fill="#CBCACA" width="0.5" height="1.3"/>
	<rect x="207.3" y="111.9" fill="#CBCACA" width="0.5" height="1.3"/>
	<rect x="208.3" y="111.9" fill="#CBCACA" width="0.5" height="1.3"/>
	<rect x="200.3" y="105.6" fill="#CBCACA" width="0.5" height="1.3"/>
	<rect x="201.3" y="105.6" fill="#CBCACA" width="0.5" height="1.3"/>
	<rect x="202.3" y="105.6" fill="#CBCACA" width="0.5" height="1.3"/>
	<rect x="203.3" y="105.6" fill="#CBCACA" width="0.5" height="1.3"/>
	<rect x="204.3" y="105.6" fill="#CBCACA" width="0.5" height="1.3"/>
	<rect x="205.3" y="105.6" fill="#CBCACA" width="0.5" height="1.3"/>
	<rect x="206.3" y="105.6" fill="#CBCACA" width="0.5" height="1.3"/>
	<rect x="207.3" y="105.6" fill="#CBCACA" width="0.5" height="1.3"/>
	<rect x="208.3" y="105.6" fill="#CBCACA" width="0.5" height="1.3"/>
	<path fill="#333333" d="M209.9,108v3c0,0.6-0.4,1-1,1h-8.7c-0.6,0-1-0.4-1-1v-3c0-0.6,0.4-1,1-1h8.7
		C209.4,107,209.9,107.4,209.9,108z"/>
	<path fill="#1B1C1C" d="M199.2,108.7v1.4c0.4,0,0.7-0.3,0.7-0.7S199.6,108.7,199.2,108.7z"/>
	<circle fill="#1B1C1C" cx="183.7" cy="117.8" r="0.7"/>
	<circle fill="#CBCACA" cx="180.3" cy="155.9" r="2.4"/>
	<circle fill="#333333" cx="207.7" cy="120.1" r="2.3"/>
	<circle fill="#CBCACA" cx="207.7" cy="120.1" r="1.8"/>
	<path fill="#CBCACA" d="M179.1,139.3h-0.8c-0.5,0-0.8-0.4-0.8-0.8v-6.4c0-0.5,0.4-0.8,0.8-0.8h0.7c0.5,0,0.8,0.4,0.8,0.8v6.4
		C179.9,138.9,179.5,139.3,179.1,139.3z"/>
	<path fill="#333333" d="M180.4,147.1h-2.9c-0.3,0-0.5-0.2-0.5-0.5V146c0-0.3,0.2-0.5,0.5-0.5h2.9c0.3,0,0.5,0.2,0.5,0.5v0.6
		C180.9,146.9,180.7,147.1,180.4,147.1z"/>
	<circle fill="#CBCACA" cx="178" cy="146.3" r="0.2"/>
	<circle fill="#CBCACA" cx="179.9" cy="146.3" r="0.2"/>
	<path fill="#333333" d="M180.4,148.9h-2.9c-0.3,0-0.5-0.2-0.5-0.5v-0.6c0-0.3,0.2-0.5,0.5-0.5h2.9c0.3,0,0.5,0.2,0.5,0.5v0.6
		C180.9,148.7,180.7,148.9,180.4,148.9z"/>
	<circle fill="#CBCACA" cx="178" cy="148.1" r="0.2"/>
	<circle fill="#CBCACA" cx="179.9" cy="148.1" r="0.2"/>
	<path fill="#333333" d="M180.4,145.2h-2.9c-0.3,0-0.5-0.2-0.5-0.5v-0.6c0-0.3,0.2-0.5,0.5-0.5h2.9c0.3,0,0.5,0.2,0.5,0.5v0.6
		C180.9,145,180.7,145.2,180.4,145.2z"/>
	<circle fill="#CBCACA" cx="178" cy="144.4" r="0.2"/>
	<circle fill="#CBCACA" cx="179.9" cy="144.4" r="0.2"/>
	<path fill="#333333" d="M191.8,107.9v2.9c0,0.3-0.2,0.5-0.5,0.5h-0.6c-0.3,0-0.5-0.2-0.5-0.5v-2.9c0-0.3,0.2-0.5,0.5-0.5h0.6
		C191.6,107.4,191.8,107.7,191.8,107.9z"/>
	<circle fill="#CBCACA" cx="191" cy="110.4" r="0.2"/>
	<circle fill="#CBCACA" cx="191" cy="108.4" r="0.2"/>
	<path fill="#333333" d="M190,107.9v2.9c0,0.3-0.2,0.5-0.5,0.5h-0.6c-0.3,0-0.5-0.2-0.5-0.5v-2.9c0-0.3,0.2-0.5,0.5-0.5h0.6
		C189.7,107.4,190,107.7,190,107.9z"/>
	<circle fill="#CBCACA" cx="189.1" cy="110.4" r="0.2"/>
	<circle fill="#CBCACA" cx="189.1" cy="108.4" r="0.2"/>
	<rect x="207.7" y="146.3" fill="#CBCACA" width="0.5" height="0.4"/>
	<rect x="206.6" y="146.3" fill="#CBCACA" width="0.5" height="0.4"/>
	<rect x="205.7" y="146.3" fill="#CBCACA" width="0.5" height="0.4"/>
	<rect x="204.6" y="146.3" fill="#CBCACA" width="0.5" height="0.4"/>
	<rect x="207.7" y="141.7" fill="#CBCACA" width="0.5" height="0.4"/>
	<rect x="206.6" y="141.7" fill="#CBCACA" width="0.5" height="0.4"/>
	<rect x="205.7" y="141.7" fill="#CBCACA" width="0.5" height="0.4"/>
	<rect x="204.6" y="141.7" fill="#CBCACA" width="0.5" height="0.4"/>
	<path fill="#333333" d="M203.6,143.1v2.1c0,0.6,0.4,1,1,1h3.6c0.6,0,1-0.4,1-1v-2.1c0-0.6-0.4-1-1-1h-3.6
		C204.1,142.1,203.6,142.6,203.6,143.1z"/>
	<path fill="#1B1C1C" d="M209.2,143.5v1.4c-0.4,0-0.7-0.3-0.7-0.7S208.8,143.5,209.2,143.5z"/>
	<path fill="#333333" d="M205.4,164.4h2.1c0.6,0,1-0.4,1-1v-6.5c0-0.6-0.4-1-1-1h-2.1c-0.6,0-1,0.4-1,1v6.5
		C204.4,163.9,204.8,164.4,205.4,164.4z"/>
	<path fill="#1B1C1C" d="M205.7,155.9h1.4c0,0.4-0.3,0.7-0.7,0.7C206.1,156.6,205.7,156.3,205.7,155.9z"/>
	<circle fill="#333333" cx="191.9" cy="134.5" r="2.3"/>
	<circle fill="#CBCACA" cx="191.9" cy="134.5" r="1.8"/>
	<path fill="#333333" d="M180.4,108v2.9c0,0.3-0.2,0.5-0.5,0.5h-0.6c-0.3,0-0.5-0.2-0.5-0.5V108c0-0.3,0.2-0.5,0.5-0.5h0.6
		C180.2,107.5,180.4,107.7,180.4,108z"/>
	<circle fill="#CBCACA" cx="179.6" cy="110.4" r="0.2"/>
	<circle fill="#CBCACA" cx="179.6" cy="108.5" r="0.2"/>
	<path fill="#333333" d="M178.6,108v2.9c0,0.3-0.2,0.5-0.5,0.5h-0.6c-0.3,0-0.5-0.2-0.5-0.5V108c0-0.3,0.2-0.5,0.5-0.5h0.6
		C178.4,107.5,178.6,107.7,178.6,108z"/>
	<circle fill="#CBCACA" cx="177.8" cy="110.4" r="0.2"/>
	<circle fill="#CBCACA" cx="177.8" cy="108.5" r="0.2"/>
	<path fill="#333333" d="M196,165.8h-4.2c-0.6,0-1-0.4-1-1v-25.3c0-0.6,0.4-1,1-1h4.2c0.5,0,1,0.4,1,1v25.3
		C197,165.4,196.5,165.8,196,165.8z"/>
	<path fill="#1B1C1C" d="M193.1,138.5h1.4c0,0.4-0.3,0.7-0.7,0.7C193.5,139.2,193.1,138.9,193.1,138.5z"/>
	<circle fill="#1B1C1C" cx="193.8" cy="142.1" r="0.7"/>
	<circle fill="#1B1C1C" cx="193.8" cy="162.6" r="0.7"/>
</g>
<rect x="311.2" y="19.8" fill="#CBCACA" width="1.5" height="3"/>
<rect x="311.2" y="23.5" fill="#CBCACA" width="1.5" height="3"/>
<rect x="311.2" y="27.1" fill="#CBCACA" width="1.5" height="3"/>
<rect x="311.2" y="30.9" fill="#CBCACA" width="1.5" height="3"/>
<rect x="311.2" y="38.4" fill="#CBCACA" width="1.5" height="3"/>
<rect x="311.2" y="34.8" fill="#CBCACA" width="1.5" height="3"/>
<rect x="311.2" y="56.7" fill="#CBCACA" width="1.5" height="3"/>
<rect x="311.2" y="60.4" fill="#CBCACA" width="1.5" height="3"/>
<rect x="291.3" y="19.8" fill="#CBCACA" width="1.5" height="3"/>
<rect x="291.3" y="23.6" fill="#CBCACA" width="1.5" height="3"/>
<rect x="291.3" y="31" fill="#CBCACA" width="1.5" height="3"/>
<rect x="291.3" y="27.2" fill="#CBCACA" width="1.5" height="3"/>
<rect x="291.3" y="38.3" fill="#CBCACA" width="1.5" height="3"/>
<rect x="291.3" y="34.7" fill="#CBCACA" width="1.5" height="3"/>
<rect x="291.3" y="56.7" fill="#CBCACA" width="1.5" height="3"/>
<rect x="291.3" y="60.5" fill="#CBCACA" width="1.5" height="3"/>
<path fill="#333333" d="M310.2,16.4h-16.4c-0.5,0-1,0.5-1,1v16.1l0,0v7.4v7.3v0.1v7.2v0.1v10.2c0,0.5,0.5,1,1,1h16.4
	c0.5,0,1-0.5,1-1V55.6v-0.1v-7.2v-0.1v-7.3v-7.4l0,0V17.4C311.2,16.9,310.7,16.4,310.2,16.4z"/>
<path fill="#1B1C1C" d="M299.4,16.4h5.2c0,1.4-1.2,2.6-2.6,2.6C300.5,19,299.4,17.9,299.4,16.4z"/>
<circle fill="#1B1C1C" cx="302" cy="58.2" r="2.6"/>
<circle fill="#1B1C1C" cx="302" cy="25.1" r="2.6"/>
<rect x="311.2" y="45.8" fill="#CBCACA" width="1.5" height="3"/>
<rect x="311.2" y="42.2" fill="#CBCACA" width="1.5" height="3"/>
<rect x="291.3" y="45.7" fill="#CBCACA" width="1.5" height="3"/>
<rect x="291.3" y="42.1" fill="#CBCACA" width="1.5" height="3"/>
<rect x="311.2" y="53.1" fill="#CBCACA" width="1.5" height="3"/>
<rect x="311.2" y="49.5" fill="#CBCACA" width="1.5" height="3"/>
<rect x="291.3" y="53" fill="#CBCACA" width="1.5" height="3"/>
<rect x="291.3" y="49.4" fill="#CBCACA" width="1.5" height="3"/>
</svg>
