<?xml version="1.0" encoding="utf-8"?>
<!-- Generator: Adobe Illustrator 18.0.0, SVG Export Plug-In . SVG Version: 6.00 Build 0)  -->
<!DOCTYPE svg PUBLIC "-//W3C//DTD SVG 1.1//EN" "http://www.w3.org/Graphics/SVG/1.1/DTD/svg11.dtd">
<svg version="1.1" xmlns="http://www.w3.org/2000/svg" xmlns:xlink="http://www.w3.org/1999/xlink" x="0px" y="0px"
	 viewBox="52.5 0 274.5 171" enable-background="new 52.5 0 274.5 171" xml:space="preserve">
<g id="Vrstva_1">
	<g>
		<g>
			<g>
				<g>
					
						<linearGradient id="SVGID_1_" gradientUnits="userSpaceOnUse" x1="377.9993" y1="-137.5084" x2="690.9993" y2="-137.5084" gradientTransform="matrix(0.4275 0 0 0.4275 12 97.8975)">
						<stop  offset="0.5" style="stop-color:#4B4B4B"/>
						<stop  offset="0.5" style="stop-color:#525252"/>
					</linearGradient>
					
						<line fill="none" stroke="url(#SVGID_1_)" stroke-width="3" stroke-linecap="round" stroke-miterlimit="10" x1="306.8" y1="39.1" x2="306.8" y2="39.1"/>
					
						<linearGradient id="SVGID_2_" gradientUnits="userSpaceOnUse" x1="437.1135" y1="-1.5135" x2="691.0256" y2="-1.5135" gradientTransform="matrix(0.4275 0 0 0.4275 12 97.8975)">
						<stop  offset="0.5" style="stop-color:#4B4B4B"/>
						<stop  offset="0.5" style="stop-color:#525252"/>
					</linearGradient>
					
						<line fill="none" stroke="url(#SVGID_2_)" stroke-width="3" stroke-linecap="round" stroke-miterlimit="10" stroke-dasharray="9.913866e-003,16.8536" x1="302.1" y1="44" x2="201.8" y2="150.5"/>
					
						<linearGradient id="SVGID_3_" gradientUnits="userSpaceOnUse" x1="437.1266" y1="128.7696" x2="750.1266" y2="128.7696" gradientTransform="matrix(0.4275 0 0 0.4275 12 97.8975)">
						<stop  offset="0.5" style="stop-color:#4B4B4B"/>
						<stop  offset="0.5" style="stop-color:#525252"/>
					</linearGradient>
					
						<line fill="none" stroke="url(#SVGID_3_)" stroke-width="3" stroke-linecap="round" stroke-miterlimit="10" x1="199.5" y1="152.9" x2="199.5" y2="152.9"/>
				</g>
			</g>
			<g>
				<line fill="none" x1="197.1" y1="155.5" x2="197.1" y2="155.5"/>
			</g>
		</g>
	</g>
	<g>
		<g>
			
				<line fill="none" stroke="#037CBF" stroke-width="3" stroke-linecap="round" stroke-miterlimit="10" stroke-dasharray="1.000000e-002,17" x1="91.7" y1="39.7" x2="91.7" y2="39.7"/>
			
				<line fill="none" stroke="#037CBF" stroke-width="3" stroke-linecap="round" stroke-miterlimit="10" stroke-dasharray="1.000000e-002,17" x1="97.2" y1="39.7" x2="306.2" y2="39.9"/>
			
				<line fill="none" stroke="#037CBF" stroke-width="3" stroke-linecap="round" stroke-miterlimit="10" stroke-dasharray="1.000000e-002,17" x1="309" y1="39.9" x2="309" y2="39.9"/>
		</g>
	</g>
	<path fill="#269CD8" d="M324,12.8h-30.2c-0.5,0-0.9-0.4-0.9-0.9V4.6c0-0.5,0.4-0.9,0.9-0.9H324c0.5,0,0.9,0.4,0.9,0.9v7.3
		C324.9,12.4,324.5,12.8,324,12.8z"/>
	<rect x="297.2" y="6.1" fill="none" width="30" height="5.5"/>
	<path fill="#269CD8" d="M107.3,12.6H76.1c-0.5,0-0.9-0.4-0.9-0.9V4.5c0-0.5,0.4-0.9,0.9-0.9h31.1c0.5,0,0.9,0.4,0.9,0.9v7.3
		C108.1,12.2,107.7,12.6,107.3,12.6z"/>
	<path fill="#269CD8" d="M207,93.9h-27.7c-0.4,0-0.8-0.4-0.8-0.9v-7.3c0-0.5,0.4-0.9,0.8-0.9H207c0.4,0,0.8,0.4,0.8,0.9V93
		C207.8,93.5,207.4,93.9,207,93.9z"/>
	<polygon fill="#269CD8" points="80.4,12.5 81.9,13.8 83.4,12.5 	"/>
	<polygon fill="#269CD8" points="180.4,93.8 181.9,95 183.4,93.8 	"/>
	<polygon fill="#269CD8" points="307.4,12.6 308.9,13.9 310.4,12.6 	"/>
	<g>
		<g>
			<g>
				<g>
					
						<linearGradient id="SVGID_4_" gradientUnits="userSpaceOnUse" x1="290.6699" y1="-129.7111" x2="603.6699" y2="-129.7111" gradientTransform="matrix(-0.4275 0 0 0.4275 351.8867 97.8975)">
						<stop  offset="0.5" style="stop-color:#4B4B4B"/>
						<stop  offset="0.5" style="stop-color:#525252"/>
					</linearGradient>
					
						<line fill="none" stroke="url(#SVGID_4_)" stroke-width="3" stroke-linecap="round" stroke-miterlimit="10" x1="94.5" y1="42.4" x2="94.5" y2="42.4"/>
					
						<linearGradient id="SVGID_5_" gradientUnits="userSpaceOnUse" x1="349.7841" y1="6.2837" x2="603.6962" y2="6.2837" gradientTransform="matrix(-0.4275 0 0 0.4275 351.8867 97.8975)">
						<stop  offset="0.5" style="stop-color:#4B4B4B"/>
						<stop  offset="0.5" style="stop-color:#525252"/>
					</linearGradient>
					
						<line fill="none" stroke="url(#SVGID_5_)" stroke-width="3" stroke-linecap="round" stroke-miterlimit="10" stroke-dasharray="9.913866e-003,16.8536" x1="199.4" y1="153.8" x2="99.1" y2="47.4"/>
					
						<linearGradient id="SVGID_6_" gradientUnits="userSpaceOnUse" x1="349.7972" y1="136.5669" x2="662.7972" y2="136.5669" gradientTransform="matrix(-0.4275 0 0 0.4275 351.8867 97.8975)">
						<stop  offset="0.5" style="stop-color:#4B4B4B"/>
						<stop  offset="0.5" style="stop-color:#525252"/>
					</linearGradient>
					
						<line fill="none" stroke="url(#SVGID_6_)" stroke-width="3" stroke-linecap="round" stroke-miterlimit="10" x1="201.7" y1="156.3" x2="201.7" y2="156.3"/>
				</g>
			</g>
			<g>
				<line fill="none" x1="204.1" y1="158.8" x2="204.1" y2="158.8"/>
			</g>
		</g>
	</g>
	<g>
		<path fill="#FFFFFF" d="M184.5,86.9h0.3l-2,5.5h-0.2l-2-5.5h0.3l1.8,5L184.5,86.9z"/>
		<path fill="#FFFFFF" d="M185.7,88c0.1,0.1,0.1,0.1,0.1,0.2c0,0.1,0,0.2-0.1,0.2c-0.1,0.1-0.1,0.1-0.2,0.1c-0.1,0-0.2,0-0.2-0.1
			c-0.1-0.1-0.1-0.1-0.1-0.2c0-0.1,0-0.2,0.1-0.2c0.1-0.1,0.1-0.1,0.2-0.1C185.5,87.9,185.6,87.9,185.7,88z M185.6,89.1v3.4h-0.3
			v-3.4H185.6z"/>
		<path fill="#FFFFFF" d="M187.7,89.3c-0.2,0-0.4,0.2-0.7,0.4c-0.2,0.2-0.3,0.5-0.3,0.8v1.9h-0.3v-3.4h0.3v0.7
			c0.1-0.3,0.4-0.6,0.8-0.8L187.7,89.3z"/>
		<path fill="#FFFFFF" d="M188.5,89.1v-1.4h0.3v1.4h0.7v0.3h-0.7v3.1h-0.3v-3.1h-0.7v-0.3H188.5z"/>
		<path fill="#FFFFFF" d="M191.3,92.5c-0.4,0-0.8-0.1-1-0.4s-0.4-0.6-0.4-0.9v-2.1h0.3v2.1c0,0.3,0.1,0.5,0.3,0.7
			c0.2,0.2,0.5,0.3,0.8,0.3c0.3,0,0.5-0.1,0.7-0.3c0.2-0.2,0.3-0.5,0.3-0.7v-2.1h0.3v2.1c0,0.4-0.1,0.7-0.4,0.9
			S191.7,92.5,191.3,92.5z"/>
		<path fill="#FFFFFF" d="M197.1,92.5h-0.3v-0.7c-0.1,0.1-0.1,0.2-0.2,0.2c-0.4,0.4-0.8,0.6-1.3,0.6c-0.5,0-1-0.2-1.3-0.6
			s-0.6-0.8-0.6-1.3c0-0.5,0.2-1,0.6-1.3c0.4-0.4,0.8-0.6,1.3-0.6c0.5,0,1,0.2,1.3,0.6c0.1,0.1,0.1,0.1,0.2,0.2v-0.5h0.3V92.5z
			 M196.8,91v-0.6c-0.1-0.3-0.2-0.6-0.4-0.8c-0.3-0.3-0.7-0.5-1.1-0.5c-0.4,0-0.8,0.2-1.1,0.5c-0.3,0.3-0.5,0.7-0.5,1.1
			c0,0.4,0.2,0.8,0.5,1.1c0.3,0.3,0.7,0.5,1.1,0.5c0.4,0,0.8-0.2,1.1-0.5C196.6,91.5,196.7,91.3,196.8,91z"/>
		<path fill="#FFFFFF" d="M198.2,86.9v5.5h-0.3v-5.5H198.2z"/>
		<path fill="#FFFFFF" d="M199.4,86.9v5.5h-0.3v-5.5H199.4z"/>
		<path fill="#FFFFFF" d="M204.9,87.7c0.6,0.6,0.8,1.2,0.8,2c0,0.8-0.3,1.5-0.8,2c-0.6,0.6-1.2,0.8-2,0.8c-0.8,0-1.4-0.3-2-0.8
			c-0.6-0.6-0.8-1.2-0.8-2c0-0.8,0.3-1.4,0.8-2c0.6-0.6,1.2-0.8,2-0.8C203.7,86.9,204.4,87.1,204.9,87.7z M202.9,87.2
			c-0.7,0-1.3,0.2-1.8,0.7s-0.7,1.1-0.7,1.8c0,0.7,0.2,1.3,0.7,1.8s1.1,0.7,1.8,0.7c0.7,0,1.3-0.2,1.8-0.7s0.7-1.1,0.7-1.8
			c0-0.7-0.2-1.3-0.7-1.8S203.6,87.2,202.9,87.2z"/>
	</g>
	<g>
		<path fill="#FFFFFF" d="M81.6,10l0.2,0.2c-0.5,0.5-1.2,0.7-1.9,0.7c-0.8,0-1.5-0.3-2-0.8s-0.8-1.2-0.8-2c0-0.8,0.3-1.4,0.8-2
			s1.2-0.8,2-0.8c0.7,0,1.4,0.2,1.9,0.7l-0.2,0.2c-0.5-0.4-1-0.6-1.7-0.6c-0.7,0-1.3,0.2-1.8,0.7s-0.7,1.1-0.7,1.8
			c0,0.7,0.2,1.3,0.7,1.8s1.1,0.7,1.8,0.7C80.6,10.6,81.1,10.4,81.6,10z"/>
		<path fill="#FFFFFF" d="M84.3,7.1c0.5,0,1,0.2,1.3,0.6s0.6,0.8,0.6,1.3c0,0.5-0.2,1-0.6,1.3s-0.8,0.6-1.3,0.6
			c-0.5,0-1-0.2-1.3-0.6S82.4,9.6,82.4,9c0-0.5,0.2-1,0.6-1.3S83.8,7.1,84.3,7.1z M83.2,7.9c-0.3,0.3-0.5,0.7-0.5,1.1
			s0.2,0.8,0.5,1.1s0.7,0.5,1.1,0.5s0.8-0.2,1.1-0.5s0.5-0.7,0.5-1.1s-0.2-0.8-0.5-1.1s-0.7-0.5-1.1-0.5S83.5,7.6,83.2,7.9z"/>
		<path fill="#FFFFFF" d="M86.8,7.4h0.3v0.1c0.2-0.2,0.4-0.3,0.7-0.3c0.3,0,0.5,0.1,0.7,0.3c0.1,0.1,0.1,0.1,0.1,0.2
			c0-0.1,0.1-0.1,0.1-0.2c0.2-0.2,0.4-0.3,0.7-0.3s0.5,0.1,0.7,0.3c0.2,0.2,0.3,0.4,0.3,0.7v2.6h-0.3V8.2h0c0-0.2-0.1-0.3-0.2-0.5
			c-0.1-0.1-0.3-0.2-0.5-0.2c-0.2,0-0.4,0.1-0.5,0.2s-0.2,0.3-0.2,0.5v2.6h-0.3V8.2h0c0-0.2-0.1-0.3-0.2-0.5
			c-0.1-0.1-0.3-0.2-0.5-0.2s-0.4,0.1-0.5,0.2c-0.1,0.1-0.2,0.3-0.2,0.4v2.6h-0.3V7.4z"/>
		<path fill="#FFFFFF" d="M91.3,7.4h0.3v0.5c0.1-0.1,0.1-0.2,0.2-0.2c0.4-0.4,0.8-0.6,1.3-0.6s1,0.2,1.3,0.6S95,8.5,95,9
			c0,0.5-0.2,1-0.6,1.3s-0.8,0.6-1.3,0.6s-1-0.2-1.3-0.6c-0.1-0.1-0.1-0.1-0.2-0.2v2h-0.3V7.4z M91.6,8.7v0.6
			c0.1,0.3,0.2,0.6,0.4,0.8c0.3,0.3,0.7,0.5,1.1,0.5s0.8-0.2,1.1-0.5s0.5-0.7,0.5-1.1s-0.2-0.8-0.5-1.1s-0.7-0.5-1.1-0.5
			S92.3,7.6,92,7.9C91.8,8.2,91.7,8.4,91.6,8.7z"/>
		<path fill="#FFFFFF" d="M97,10.9c-0.4,0-0.8-0.1-1-0.4s-0.4-0.6-0.4-0.9V7.4h0.3v2.1c0,0.3,0.1,0.5,0.3,0.7
			c0.2,0.2,0.5,0.3,0.8,0.3c0.3,0,0.5-0.1,0.7-0.3s0.3-0.4,0.3-0.7V7.4h0.3v2.1c0,0.4-0.1,0.7-0.4,0.9S97.4,10.9,97,10.9z"/>
		<path fill="#FFFFFF" d="M99.5,7.4V6h0.3v1.4h0.7v0.3h-0.7v3.1h-0.3V7.8h-0.7V7.4H99.5z"/>
		<path fill="#FFFFFF" d="M101.2,8.9c0,0.1,0,0.1,0,0.2c0,0.4,0.2,0.8,0.5,1.1s0.7,0.5,1.1,0.5s0.8-0.2,1.1-0.5
			c0.1-0.1,0.1-0.1,0.1-0.2l0.3,0.1c0,0.1-0.1,0.2-0.2,0.3c-0.4,0.4-0.8,0.6-1.3,0.6c-0.5,0-1-0.2-1.3-0.6s-0.6-0.8-0.6-1.3
			c0-0.5,0.2-1,0.6-1.3s0.8-0.6,1.3-0.6c0.5,0,1,0.2,1.3,0.6c0.3,0.3,0.5,0.7,0.5,1.2H101.2z M101.2,8.5h3c-0.1-0.2-0.2-0.4-0.4-0.6
			c-0.3-0.3-0.7-0.5-1.1-0.5s-0.8,0.2-1.1,0.5C101.5,8.1,101.3,8.3,101.2,8.5z"/>
		<path fill="#FFFFFF" d="M106.3,7.7c-0.2,0-0.4,0.2-0.7,0.4s-0.3,0.5-0.3,0.8v1.9H105V7.4h0.3v0.7c0.1-0.3,0.4-0.6,0.8-0.8
			L106.3,7.7z"/>
	</g>
	<g>
		<path fill="#FFFFFF" d="M294.8,8.1v2.6h-0.3V5.1h0.3v2.6h2.8V5.1h0.3v5.5h-0.3V8.1H294.8z"/>
		<path fill="#FFFFFF" d="M302.4,10.7h-0.3V10c-0.1,0.1-0.1,0.2-0.2,0.2c-0.4,0.4-0.8,0.6-1.3,0.6c-0.5,0-1-0.2-1.3-0.6
			s-0.6-0.8-0.6-1.3c0-0.5,0.2-1,0.6-1.3S300,7,300.5,7c0.5,0,1,0.2,1.3,0.6c0.1,0.1,0.1,0.1,0.2,0.2V7.3h0.3V10.7z M302.1,9.2V8.6
			c-0.1-0.3-0.2-0.6-0.4-0.8c-0.3-0.3-0.7-0.5-1.1-0.5s-0.8,0.2-1.1,0.5S299,8.4,299,8.9s0.2,0.8,0.5,1.1s0.7,0.5,1.1,0.5
			s0.8-0.2,1.1-0.5C301.9,9.7,302,9.5,302.1,9.2z"/>
		<path fill="#FFFFFF" d="M304.3,7.5c-0.2,0-0.4,0.2-0.7,0.4s-0.3,0.5-0.3,0.8v1.9H303V7.3h0.3V8c0.1-0.3,0.4-0.6,0.8-0.8L304.3,7.5
			z"/>
		<path fill="#FFFFFF" d="M308.4,10.7H308V10c-0.1,0.1-0.1,0.2-0.2,0.2c-0.4,0.4-0.8,0.6-1.3,0.6c-0.5,0-1-0.2-1.3-0.6
			s-0.6-0.8-0.6-1.3c0-0.5,0.2-1,0.6-1.3S306,7,306.5,7c0.5,0,1,0.2,1.3,0.6c0.1,0.1,0.1,0.1,0.2,0.2V5.1h0.3V10.7z M308,9.2V8.6
			c-0.1-0.3-0.2-0.6-0.4-0.8c-0.3-0.3-0.7-0.5-1.1-0.5s-0.8,0.2-1.1,0.5s-0.5,0.7-0.5,1.1s0.2,0.8,0.5,1.1s0.7,0.5,1.1,0.5
			s0.8-0.2,1.1-0.5C307.8,9.7,308,9.5,308,9.2z"/>
		<path fill="#FFFFFF" d="M313,7.3l-1.2,3.4h-0.2l-0.8-2.2l-0.8,2.2h-0.2l-1.1-3.4h0.4l0.9,2.8l0.8-2.2h0.2l0.8,2.2l0.9-2.8H313z"/>
		<path fill="#FFFFFF" d="M317,10.7h-0.3V10c-0.1,0.1-0.1,0.2-0.2,0.2c-0.4,0.4-0.8,0.6-1.3,0.6c-0.5,0-1-0.2-1.3-0.6
			s-0.6-0.8-0.6-1.3c0-0.5,0.2-1,0.6-1.3s0.8-0.6,1.3-0.6c0.5,0,1,0.2,1.3,0.6c0.1,0.1,0.1,0.1,0.2,0.2V7.3h0.3V10.7z M316.7,9.2
			V8.6c-0.1-0.3-0.2-0.6-0.4-0.8c-0.3-0.3-0.7-0.5-1.1-0.5s-0.8,0.2-1.1,0.5s-0.5,0.7-0.5,1.1s0.2,0.8,0.5,1.1s0.7,0.5,1.1,0.5
			s0.8-0.2,1.1-0.5C316.5,9.7,316.6,9.5,316.7,9.2z"/>
		<path fill="#FFFFFF" d="M318.9,7.5c-0.2,0-0.4,0.2-0.7,0.4S318,8.5,318,8.7v1.9h-0.3V7.3h0.3V8c0.1-0.3,0.4-0.6,0.8-0.8L318.9,7.5
			z"/>
		<path fill="#FFFFFF" d="M319.5,8.7c0,0.1,0,0.1,0,0.2c0,0.4,0.2,0.8,0.5,1.1s0.7,0.5,1.1,0.5s0.8-0.2,1.1-0.5
			c0.1-0.1,0.1-0.1,0.1-0.2l0.3,0.1c0,0.1-0.1,0.2-0.2,0.3c-0.4,0.4-0.8,0.6-1.3,0.6c-0.5,0-1-0.2-1.3-0.6s-0.6-0.8-0.6-1.3
			c0-0.5,0.2-1,0.6-1.3S320.5,7,321,7c0.5,0,1,0.2,1.3,0.6c0.3,0.3,0.5,0.7,0.5,1.2H319.5z M319.5,8.4h3c-0.1-0.2-0.2-0.4-0.4-0.6
			c-0.3-0.3-0.7-0.5-1.1-0.5s-0.8,0.2-1.1,0.5C319.8,7.9,319.6,8.2,319.5,8.4z"/>
	</g>
</g>
<g id="PC">
	<path d="M119.6,60.2H64.8c-1.2,0-2.1-1-2.1-2.1V21c0-1.2,1-2.1,2.1-2.1h54.7c1.2,0,2.1,1,2.1,2.1v37
		C121.7,59.2,120.7,60.2,119.6,60.2z"/>
	
		<linearGradient id="SVGID_7_" gradientUnits="userSpaceOnUse" x1="149.4714" y1="22.3468" x2="225.4982" y2="139.4181" gradientTransform="matrix(0.4275 0 0 -0.4275 12 73.1025)">
		<stop  offset="0.5" style="stop-color:#4B4B4B"/>
		<stop  offset="0.5" style="stop-color:#525252"/>
	</linearGradient>
	<rect x="64.6" y="20.8" fill="url(#SVGID_7_)" width="55.1" height="35.4"/>
	<rect x="54.1" y="58.5" fill="#CFCECF" width="76.1" height="1.7"/>
	<path fill="#333333" d="M54.1,60.2c1.9,0.9,2.8,1,2.8,1h68.7c0,0,2.6,0,4.6-1"/>
	<path fill="#8C8C8C" d="M84.1,58.5L84.1,58.5c0,0.4,0.3,0.7,0.6,0.7h15c0.3,0,0.6-0.3,0.6-0.6v-0.1H84.1z"/>
</g>
<g id="nove">
	<rect x="169.4" y="100.5" fill="#0474A4" width="59.1" height="69"/>
	<path fill="#FFFFFF" d="M177.3,130.4H177c-0.2,0-0.4-0.2-0.4-0.4v-21.7c0-0.2,0.2-0.4,0.4-0.4h0.3c0.2,0,0.4,0.2,0.4,0.4V130
		C177.7,130.3,177.6,130.4,177.3,130.4z"/>
	<path fill="#FFFFFF" d="M181,130.4h-0.3c-0.2,0-0.4-0.2-0.4-0.4v-21.7c0-0.2,0.2-0.4,0.4-0.4h0.3c0.2,0,0.4,0.2,0.4,0.4V130
		C181.4,130.3,181.2,130.4,181,130.4z"/>
	<path fill="#FFFFFF" d="M177.3,166.1H177c-0.2,0-0.4-0.2-0.4-0.4V144c0-0.2,0.2-0.4,0.4-0.4h0.3c0.2,0,0.4,0.2,0.4,0.4v21.7
		C177.7,165.9,177.6,166.1,177.3,166.1z"/>
	<path fill="#FFFFFF" d="M181,166.1h-0.3c-0.2,0-0.4-0.2-0.4-0.4V144c0-0.2,0.2-0.4,0.4-0.4h0.3c0.2,0,0.4,0.2,0.4,0.4v21.7
		C181.4,165.9,181.2,166.1,181,166.1z"/>
	<path fill="#FFFFFF" d="M220.5,130.4h-0.3c-0.2,0-0.4-0.2-0.4-0.4v-21.7c0-0.2,0.2-0.4,0.4-0.4h0.3c0.2,0,0.4,0.2,0.4,0.4V130
		C220.9,130.3,220.7,130.4,220.5,130.4z"/>
	<path fill="#FFFFFF" d="M224.1,130.4h-0.3c-0.2,0-0.4-0.2-0.4-0.4v-21.7c0-0.2,0.2-0.4,0.4-0.4h0.3c0.2,0,0.4,0.2,0.4,0.4V130
		C224.6,130.3,224.4,130.4,224.1,130.4z"/>
	<path fill="#FFFFFF" d="M220.5,166.1h-0.3c-0.2,0-0.4-0.2-0.4-0.4V144c0-0.2,0.2-0.4,0.4-0.4h0.3c0.2,0,0.4,0.2,0.4,0.4v21.7
		C220.9,165.9,220.7,166.1,220.5,166.1z"/>
	<path fill="#FFFFFF" d="M224.1,166.1h-0.3c-0.2,0-0.4-0.2-0.4-0.4V144c0-0.2,0.2-0.4,0.4-0.4h0.3c0.2,0,0.4,0.2,0.4,0.4v21.7
		C224.6,165.9,224.4,166.1,224.1,166.1z"/>
	<path fill="#333333" d="M200.1,129.1h-9.8c-1.2,0-2.1-0.9-2.1-2.1v-9.8c0-1.2,0.9-2.1,2.1-2.1h9.8c1.2,0,2.1,0.9,2.1,2.1v9.8
		C202.2,128.1,201.3,129.1,200.1,129.1z"/>
	<path fill="#D2D1D1" d="M213.2,157.7h-2.9c-0.3,0-0.5-0.2-0.5-0.5v-0.3c0-0.3,0.2-0.5,0.5-0.5h2.9c0.3,0,0.5,0.2,0.5,0.5v0.3
		C213.7,157.5,213.5,157.7,213.2,157.7z"/>
	<path fill="#D2D1D1" d="M213.1,162.8h-2.8c-0.3,0-0.5-0.2-0.5-0.5V162c0-0.3,0.2-0.5,0.5-0.5h2.8c0.3,0,0.5,0.2,0.5,0.5v0.3
		C213.6,162.6,213.4,162.8,213.1,162.8z"/>
	<path fill="#D2D1D1" d="M216,157.7h-2.8c-0.3,0-0.5-0.2-0.5-0.5v-0.3c0-0.3,0.2-0.5,0.5-0.5h2.8c0.3,0,0.5,0.2,0.5,0.5v0.3
		C216.4,157.5,216.3,157.7,216,157.7z"/>
	<path fill="#D2D1D1" d="M216,162.8h-2.7c-0.3,0-0.5-0.2-0.5-0.5V162c0-0.3,0.2-0.5,0.5-0.5h2.7c0.3,0,0.5,0.2,0.5,0.5v0.3
		C216.5,162.6,216.3,162.8,216,162.8z"/>
	<circle fill="#333333" cx="187" cy="155.6" r="3.1"/>
	<path fill="#333333" d="M194.7,165.5h-0.3c-0.2,0-0.4-0.2-0.4-0.4v-26.5c0-0.2,0.2-0.4,0.4-0.4h0.3c0.2,0,0.4,0.2,0.4,0.4v26.5
		C195.2,165.3,195,165.5,194.7,165.5z"/>
	<path fill="#333333" d="M206.7,165.5h-0.3c-0.2,0-0.4-0.2-0.4-0.4v-26.5c0-0.2,0.2-0.4,0.4-0.4h0.3c0.2,0,0.4,0.2,0.4,0.4v26.5
		C207.1,165.3,206.9,165.5,206.7,165.5z"/>
	<rect x="195.2" y="139.3" fill="#CBCACA" width="2.3" height="0.5"/>
	<rect x="195.2" y="140.3" fill="#CBCACA" width="2.3" height="0.5"/>
	<rect x="195.2" y="141.3" fill="#CBCACA" width="2.3" height="0.5"/>
	<rect x="195.2" y="142.3" fill="#CBCACA" width="2.3" height="0.5"/>
	<rect x="195.2" y="143.3" fill="#CBCACA" width="2.3" height="0.5"/>
	<rect x="195.2" y="144.3" fill="#CBCACA" width="2.3" height="0.5"/>
	<rect x="195.2" y="145.3" fill="#CBCACA" width="2.3" height="0.5"/>
	<rect x="195.2" y="146.3" fill="#CBCACA" width="2.3" height="0.5"/>
	<rect x="195.2" y="147.3" fill="#CBCACA" width="2.3" height="0.5"/>
	<rect x="195.2" y="148.3" fill="#CBCACA" width="2.3" height="0.5"/>
	<rect x="195.2" y="149.3" fill="#CBCACA" width="2.3" height="0.5"/>
	<rect x="195.2" y="150.3" fill="#CBCACA" width="2.3" height="0.5"/>
	<rect x="195.2" y="151.3" fill="#CBCACA" width="2.3" height="0.5"/>
	<rect x="195.2" y="152.3" fill="#CBCACA" width="2.3" height="0.5"/>
	<rect x="195.2" y="153.3" fill="#CBCACA" width="2.3" height="0.5"/>
	<rect x="195.2" y="154.3" fill="#CBCACA" width="2.3" height="0.5"/>
	<rect x="195.2" y="155.3" fill="#CBCACA" width="2.3" height="0.5"/>
	<rect x="195.2" y="156.3" fill="#CBCACA" width="2.3" height="0.5"/>
	<rect x="195.2" y="157.3" fill="#CBCACA" width="2.3" height="0.5"/>
	<rect x="195.2" y="158.3" fill="#CBCACA" width="2.3" height="0.5"/>
	<rect x="195.2" y="159.3" fill="#CBCACA" width="2.3" height="0.5"/>
	<rect x="195.2" y="160.3" fill="#CBCACA" width="2.3" height="0.5"/>
	<rect x="195.2" y="161.3" fill="#CBCACA" width="2.3" height="0.5"/>
	<rect x="195.2" y="162.3" fill="#CBCACA" width="2.3" height="0.5"/>
	<rect x="195.2" y="163.3" fill="#CBCACA" width="2.3" height="0.5"/>
	<rect x="195.2" y="164.3" fill="#CBCACA" width="2.3" height="0.5"/>
	<rect x="203.7" y="139.3" fill="#CBCACA" width="2.3" height="0.5"/>
	<rect x="203.7" y="140.3" fill="#CBCACA" width="2.3" height="0.5"/>
	<rect x="203.7" y="141.3" fill="#CBCACA" width="2.3" height="0.5"/>
	<rect x="203.7" y="142.3" fill="#CBCACA" width="2.3" height="0.5"/>
	<rect x="203.7" y="143.3" fill="#CBCACA" width="2.3" height="0.5"/>
	<rect x="203.7" y="144.3" fill="#CBCACA" width="2.3" height="0.5"/>
	<rect x="203.7" y="145.3" fill="#CBCACA" width="2.3" height="0.5"/>
	<rect x="203.7" y="146.3" fill="#CBCACA" width="2.3" height="0.5"/>
	<rect x="203.7" y="147.3" fill="#CBCACA" width="2.3" height="0.5"/>
	<rect x="203.7" y="148.3" fill="#CBCACA" width="2.3" height="0.5"/>
	<rect x="203.7" y="149.3" fill="#CBCACA" width="2.3" height="0.5"/>
	<rect x="203.7" y="150.3" fill="#CBCACA" width="2.3" height="0.5"/>
	<rect x="203.7" y="151.3" fill="#CBCACA" width="2.3" height="0.5"/>
	<rect x="203.7" y="152.3" fill="#CBCACA" width="2.3" height="0.5"/>
	<rect x="203.7" y="153.3" fill="#CBCACA" width="2.3" height="0.5"/>
	<rect x="203.7" y="154.3" fill="#CBCACA" width="2.3" height="0.5"/>
	<rect x="203.7" y="155.3" fill="#CBCACA" width="2.3" height="0.5"/>
	<rect x="203.7" y="156.3" fill="#CBCACA" width="2.3" height="0.5"/>
	<rect x="203.7" y="157.3" fill="#CBCACA" width="2.3" height="0.5"/>
	<rect x="203.7" y="158.3" fill="#CBCACA" width="2.3" height="0.5"/>
	<rect x="203.7" y="159.3" fill="#CBCACA" width="2.3" height="0.5"/>
	<rect x="203.7" y="160.3" fill="#CBCACA" width="2.3" height="0.5"/>
	<rect x="203.7" y="161.3" fill="#CBCACA" width="2.3" height="0.5"/>
	<rect x="203.7" y="162.3" fill="#CBCACA" width="2.3" height="0.5"/>
	<rect x="203.7" y="163.3" fill="#CBCACA" width="2.3" height="0.5"/>
	<rect x="203.7" y="164.3" fill="#CBCACA" width="2.3" height="0.5"/>
	<circle fill="#70B444" cx="216.3" cy="133.2" r="1"/>
	<circle fill="#F6DF01" cx="216.3" cy="136" r="1"/>
	<rect x="210.3" y="132.6" fill="#333333" width="3.8" height="1.1"/>
	<rect x="210.3" y="135.4" fill="#333333" width="3.8" height="1.1"/>
	<rect x="202.2" y="126.5" fill="#CBCACA" width="1.3" height="0.5"/>
	<rect x="202.2" y="125.4" fill="#CBCACA" width="1.3" height="0.5"/>
	<rect x="202.2" y="124.4" fill="#CBCACA" width="1.3" height="0.5"/>
	<rect x="202.2" y="123.4" fill="#CBCACA" width="1.3" height="0.5"/>
	<rect x="202.2" y="122.4" fill="#CBCACA" width="1.3" height="0.5"/>
	<rect x="202.2" y="121.4" fill="#CBCACA" width="1.3" height="0.5"/>
	<rect x="202.2" y="120.3" fill="#CBCACA" width="1.3" height="0.5"/>
	<rect x="202.2" y="119.3" fill="#CBCACA" width="1.3" height="0.5"/>
	<rect x="202.2" y="118.3" fill="#CBCACA" width="1.3" height="0.5"/>
	<rect x="202.2" y="117.3" fill="#CBCACA" width="1.3" height="0.5"/>
	<rect x="187" y="126.5" fill="#CBCACA" width="1.3" height="0.5"/>
	<rect x="187" y="125.4" fill="#CBCACA" width="1.3" height="0.5"/>
	<rect x="187" y="124.4" fill="#CBCACA" width="1.3" height="0.5"/>
	<rect x="187" y="123.4" fill="#CBCACA" width="1.3" height="0.5"/>
	<rect x="187" y="122.4" fill="#CBCACA" width="1.3" height="0.5"/>
	<rect x="187" y="121.4" fill="#CBCACA" width="1.3" height="0.5"/>
	<rect x="187" y="120.3" fill="#CBCACA" width="1.3" height="0.5"/>
	<rect x="187" y="119.3" fill="#CBCACA" width="1.3" height="0.5"/>
	<rect x="187" y="118.3" fill="#CBCACA" width="1.3" height="0.5"/>
	<rect x="187" y="117.3" fill="#CBCACA" width="1.3" height="0.5"/>
	<rect x="199.6" y="113.9" fill="#CBCACA" width="0.5" height="1.3"/>
	<rect x="198.6" y="113.9" fill="#CBCACA" width="0.5" height="1.3"/>
	<rect x="197.5" y="113.9" fill="#CBCACA" width="0.5" height="1.3"/>
	<rect x="196.5" y="113.9" fill="#CBCACA" width="0.5" height="1.3"/>
	<rect x="195.5" y="113.9" fill="#CBCACA" width="0.5" height="1.3"/>
	<rect x="194.5" y="113.9" fill="#CBCACA" width="0.5" height="1.3"/>
	<rect x="193.5" y="113.9" fill="#CBCACA" width="0.5" height="1.3"/>
	<rect x="192.4" y="113.9" fill="#CBCACA" width="0.5" height="1.3"/>
	<rect x="191.4" y="113.9" fill="#CBCACA" width="0.5" height="1.3"/>
	<rect x="190.4" y="113.9" fill="#CBCACA" width="0.5" height="1.3"/>
	<rect x="199.6" y="129.1" fill="#CBCACA" width="0.5" height="1.3"/>
	<rect x="198.6" y="129.1" fill="#CBCACA" width="0.5" height="1.3"/>
	<rect x="197.5" y="129.1" fill="#CBCACA" width="0.5" height="1.3"/>
	<rect x="196.5" y="129.1" fill="#CBCACA" width="0.5" height="1.3"/>
	<rect x="195.5" y="129.1" fill="#CBCACA" width="0.5" height="1.3"/>
	<rect x="194.5" y="129.1" fill="#CBCACA" width="0.5" height="1.3"/>
	<rect x="193.5" y="129.1" fill="#CBCACA" width="0.5" height="1.3"/>
	<rect x="192.4" y="129.1" fill="#CBCACA" width="0.5" height="1.3"/>
	<rect x="191.4" y="129.1" fill="#CBCACA" width="0.5" height="1.3"/>
	<rect x="190.4" y="129.1" fill="#CBCACA" width="0.5" height="1.3"/>
	<rect x="207" y="111.6" fill="#CBCACA" width="0.5" height="1.3"/>
	<rect x="208" y="111.6" fill="#CBCACA" width="0.5" height="1.3"/>
	<rect x="209" y="111.6" fill="#CBCACA" width="0.5" height="1.3"/>
	<rect x="210" y="111.6" fill="#CBCACA" width="0.5" height="1.3"/>
	<rect x="211" y="111.6" fill="#CBCACA" width="0.5" height="1.3"/>
	<rect x="212" y="111.6" fill="#CBCACA" width="0.5" height="1.3"/>
	<rect x="213" y="111.6" fill="#CBCACA" width="0.5" height="1.3"/>
	<rect x="214" y="111.6" fill="#CBCACA" width="0.5" height="1.3"/>
	<rect x="215" y="111.6" fill="#CBCACA" width="0.5" height="1.3"/>
	<rect x="207" y="105.3" fill="#CBCACA" width="0.5" height="1.3"/>
	<rect x="208" y="105.3" fill="#CBCACA" width="0.5" height="1.3"/>
	<rect x="209" y="105.3" fill="#CBCACA" width="0.5" height="1.3"/>
	<rect x="210" y="105.3" fill="#CBCACA" width="0.5" height="1.3"/>
	<rect x="211" y="105.3" fill="#CBCACA" width="0.5" height="1.3"/>
	<rect x="212" y="105.3" fill="#CBCACA" width="0.5" height="1.3"/>
	<rect x="213" y="105.3" fill="#CBCACA" width="0.5" height="1.3"/>
	<rect x="214" y="105.3" fill="#CBCACA" width="0.5" height="1.3"/>
	<rect x="215" y="105.3" fill="#CBCACA" width="0.5" height="1.3"/>
	<path fill="#333333" d="M216.6,107.7v3c0,0.6-0.4,1-1,1h-8.7c-0.6,0-1-0.4-1-1v-3c0-0.6,0.4-1,1-1h8.7
		C216.1,106.7,216.6,107.1,216.6,107.7z"/>
	<path fill="#1B1C1C" d="M205.9,108.4v1.4c0.4,0,0.7-0.3,0.7-0.7S206.3,108.4,205.9,108.4z"/>
	<circle fill="#1B1C1C" cx="190.4" cy="117.5" r="0.7"/>
	<circle fill="#CBCACA" cx="187" cy="155.6" r="2.4"/>
	<circle fill="#333333" cx="214.4" cy="119.8" r="2.3"/>
	<circle fill="#CBCACA" cx="214.4" cy="119.8" r="1.8"/>
	<path fill="#CBCACA" d="M185.8,139H185c-0.5,0-0.8-0.4-0.8-0.8v-6.4c0-0.5,0.4-0.8,0.8-0.8h0.7c0.5,0,0.8,0.4,0.8,0.8v6.4
		C186.6,138.6,186.2,139,185.8,139z"/>
	<path fill="#333333" d="M187.1,146.8h-2.9c-0.3,0-0.5-0.2-0.5-0.5v-0.6c0-0.3,0.2-0.5,0.5-0.5h2.9c0.3,0,0.5,0.2,0.5,0.5v0.6
		C187.6,146.6,187.4,146.8,187.1,146.8z"/>
	<circle fill="#CBCACA" cx="184.7" cy="146" r="0.2"/>
	<circle fill="#CBCACA" cx="186.6" cy="146" r="0.2"/>
	<path fill="#333333" d="M187.1,148.6h-2.9c-0.3,0-0.5-0.2-0.5-0.5v-0.6c0-0.3,0.2-0.5,0.5-0.5h2.9c0.3,0,0.5,0.2,0.5,0.5v0.6
		C187.6,148.4,187.4,148.6,187.1,148.6z"/>
	<circle fill="#CBCACA" cx="184.7" cy="147.8" r="0.2"/>
	<circle fill="#CBCACA" cx="186.6" cy="147.8" r="0.2"/>
	<path fill="#333333" d="M187.1,144.9h-2.9c-0.3,0-0.5-0.2-0.5-0.5v-0.6c0-0.3,0.2-0.5,0.5-0.5h2.9c0.3,0,0.5,0.2,0.5,0.5v0.6
		C187.6,144.7,187.4,144.9,187.1,144.9z"/>
	<circle fill="#CBCACA" cx="184.7" cy="144.1" r="0.2"/>
	<circle fill="#CBCACA" cx="186.6" cy="144.1" r="0.2"/>
	<path fill="#333333" d="M198.5,107.6v2.9c0,0.3-0.2,0.5-0.5,0.5h-0.6c-0.3,0-0.5-0.2-0.5-0.5v-2.9c0-0.3,0.2-0.5,0.5-0.5h0.6
		C198.3,107.1,198.5,107.4,198.5,107.6z"/>
	<circle fill="#CBCACA" cx="197.7" cy="110.1" r="0.2"/>
	<circle fill="#CBCACA" cx="197.7" cy="108.1" r="0.2"/>
	<path fill="#333333" d="M196.7,107.6v2.9c0,0.3-0.2,0.5-0.5,0.5h-0.6c-0.3,0-0.5-0.2-0.5-0.5v-2.9c0-0.3,0.2-0.5,0.5-0.5h0.6
		C196.4,107.1,196.7,107.4,196.7,107.6z"/>
	<circle fill="#CBCACA" cx="195.8" cy="110.1" r="0.2"/>
	<circle fill="#CBCACA" cx="195.8" cy="108.1" r="0.2"/>
	<rect x="214.4" y="146" fill="#CBCACA" width="0.5" height="0.4"/>
	<rect x="213.3" y="146" fill="#CBCACA" width="0.5" height="0.4"/>
	<rect x="212.4" y="146" fill="#CBCACA" width="0.5" height="0.4"/>
	<rect x="211.3" y="146" fill="#CBCACA" width="0.5" height="0.4"/>
	<rect x="214.4" y="141.4" fill="#CBCACA" width="0.5" height="0.4"/>
	<rect x="213.3" y="141.4" fill="#CBCACA" width="0.5" height="0.4"/>
	<rect x="212.4" y="141.4" fill="#CBCACA" width="0.5" height="0.4"/>
	<rect x="211.3" y="141.4" fill="#CBCACA" width="0.5" height="0.4"/>
	<path fill="#333333" d="M210.3,142.8v2.1c0,0.6,0.4,1,1,1h3.6c0.6,0,1-0.4,1-1v-2.1c0-0.6-0.4-1-1-1h-3.6
		C210.8,141.8,210.3,142.3,210.3,142.8z"/>
	<path fill="#1B1C1C" d="M215.9,143.2v1.4c-0.4,0-0.7-0.3-0.7-0.7C215.2,143.5,215.5,143.2,215.9,143.2z"/>
	<path fill="#333333" d="M212.1,164.1h2.1c0.6,0,1-0.4,1-1v-6.5c0-0.6-0.4-1-1-1h-2.1c-0.6,0-1,0.4-1,1v6.5
		C211.1,163.6,211.5,164.1,212.1,164.1z"/>
	<path fill="#1B1C1C" d="M212.4,155.6h1.4c0,0.4-0.3,0.7-0.7,0.7C212.8,156.3,212.4,156,212.4,155.6z"/>
	<circle fill="#333333" cx="198.6" cy="134.2" r="2.3"/>
	<circle fill="#CBCACA" cx="198.6" cy="134.2" r="1.8"/>
	<path fill="#333333" d="M187.1,107.7v2.9c0,0.3-0.2,0.5-0.5,0.5H186c-0.3,0-0.5-0.2-0.5-0.5v-2.9c0-0.3,0.2-0.5,0.5-0.5h0.6
		C186.9,107.2,187.1,107.4,187.1,107.7z"/>
	<circle fill="#CBCACA" cx="186.3" cy="110.1" r="0.2"/>
	<circle fill="#CBCACA" cx="186.3" cy="108.2" r="0.2"/>
	<path fill="#333333" d="M185.3,107.7v2.9c0,0.3-0.2,0.5-0.5,0.5h-0.6c-0.3,0-0.5-0.2-0.5-0.5v-2.9c0-0.3,0.2-0.5,0.5-0.5h0.6
		C185.1,107.2,185.3,107.4,185.3,107.7z"/>
	<circle fill="#CBCACA" cx="184.5" cy="110.1" r="0.2"/>
	<circle fill="#CBCACA" cx="184.5" cy="108.2" r="0.2"/>
	<path fill="#333333" d="M202.7,165.5h-4.2c-0.6,0-1-0.4-1-1v-25.3c0-0.6,0.4-1,1-1h4.2c0.5,0,1,0.4,1,1v25.3
		C203.7,165.1,203.2,165.5,202.7,165.5z"/>
	<path fill="#1B1C1C" d="M199.8,138.2h1.4c0,0.4-0.3,0.7-0.7,0.7C200.2,138.9,199.8,138.6,199.8,138.2z"/>
	<circle fill="#1B1C1C" cx="200.5" cy="141.8" r="0.7"/>
	<circle fill="#1B1C1C" cx="200.5" cy="162.3" r="0.7"/>
</g>
<g id="bew_dil">
	<rect x="317.9" y="20.1" fill="#CBCACA" width="3" height="1.9"/>
	<rect x="317.9" y="23.8" fill="#CBCACA" width="3" height="1.9"/>
	<rect x="317.9" y="27.4" fill="#CBCACA" width="3" height="1.9"/>
	<rect x="317.9" y="31.2" fill="#CBCACA" width="3" height="1.9"/>
	<rect x="317.9" y="38.7" fill="#CBCACA" width="3" height="1.9"/>
	<rect x="317.9" y="35.1" fill="#CBCACA" width="3" height="1.9"/>
	<rect x="317.9" y="57" fill="#CBCACA" width="3" height="1.9"/>
	<rect x="317.9" y="60.7" fill="#CBCACA" width="3" height="1.9"/>
	<rect x="296.5" y="20.1" fill="#CBCACA" width="3" height="1.9"/>
	<rect x="296.5" y="23.9" fill="#CBCACA" width="3" height="1.9"/>
	<rect x="296.5" y="27.5" fill="#CBCACA" width="3" height="1.9"/>
	<rect x="296.5" y="31.3" fill="#CBCACA" width="3" height="1.9"/>
	<rect x="296.5" y="38.6" fill="#CBCACA" width="3" height="1.9"/>
	<rect x="296.5" y="35" fill="#CBCACA" width="3" height="1.9"/>
	<rect x="296.5" y="57" fill="#CBCACA" width="3" height="1.9"/>
	<rect x="296.5" y="60.8" fill="#CBCACA" width="3" height="1.9"/>
	<path fill="#333333" d="M316.9,16.1h-16.4c-0.5,0-1,0.5-1,1v16.1v0v7.4v7.3V48v7.2v0.1v10.2c0,0.5,0.5,1,1,1h16.4c0.5,0,1-0.5,1-1
		V55.3v-0.1V48v-0.1v-7.3v-7.4v0V17.1C317.9,16.6,317.4,16.1,316.9,16.1z"/>
	<path fill="#1B1C1C" d="M306.1,16.1h5.2c0,1.4-1.2,2.6-2.6,2.6C307.2,18.7,306.1,17.6,306.1,16.1z"/>
	<circle fill="#1B1C1C" cx="308.7" cy="57.9" r="2.6"/>
	<circle fill="#1B1C1C" cx="308.7" cy="24.8" r="2.6"/>
	<rect x="317.9" y="46.1" fill="#CBCACA" width="3" height="1.9"/>
	<rect x="317.9" y="42.5" fill="#CBCACA" width="3" height="1.9"/>
	<rect x="296.5" y="46" fill="#CBCACA" width="3" height="1.9"/>
	<rect x="296.5" y="42.4" fill="#CBCACA" width="3" height="1.9"/>
	<rect x="317.9" y="53.4" fill="#CBCACA" width="3" height="1.9"/>
	<rect x="317.9" y="49.8" fill="#CBCACA" width="3" height="1.9"/>
	<rect x="296.5" y="53.3" fill="#CBCACA" width="3" height="1.9"/>
	<rect x="296.5" y="49.7" fill="#CBCACA" width="3" height="1.9"/>
</g>
</svg>
