<?xml version="1.0" encoding="utf-8"?>
<!-- Generator: Adobe Illustrator 18.0.0, SVG Export Plug-In . SVG Version: 6.00 Build 0)  -->
<!DOCTYPE svg PUBLIC "-//W3C//DTD SVG 1.1//EN" "http://www.w3.org/Graphics/SVG/1.1/DTD/svg11.dtd">
<svg version="1.1" id="Vrstva_1" xmlns="http://www.w3.org/2000/svg" xmlns:xlink="http://www.w3.org/1999/xlink" x="0px" y="0px"
	 viewBox="0 0 1920 1080" enable-background="new 0 0 1920 1080" xml:space="preserve">
<g>
	<g>
		<g>
			<g>
				
					<linearGradient id="SVGID_1_" gradientUnits="userSpaceOnUse" x1="263.1247" y1="771.8843" x2="576.1248" y2="771.8843" gradientTransform="matrix(2.7159 0 0 2.7159 209.7941 -1849.4764)">
					<stop  offset="0.5" style="stop-color:#4B4B4B"/>
					<stop  offset="0.5" style="stop-color:#525252"/>
				</linearGradient>
				
					<line fill="none" stroke="url(#SVGID_1_)" stroke-width="3" stroke-linecap="round" stroke-miterlimit="10" x1="1770.7" y1="246.9" x2="1770.7" y2="246.9"/>
				
					<linearGradient id="SVGID_2_" gradientUnits="userSpaceOnUse" x1="322.2389" y1="907.9077" x2="576.151" y2="907.9077" gradientTransform="matrix(2.7159 0 0 2.7159 209.7941 -1849.4764)">
					<stop  offset="0.5" style="stop-color:#4B4B4B"/>
					<stop  offset="0.5" style="stop-color:#525252"/>
				</linearGradient>
				
					<line fill="none" stroke="url(#SVGID_2_)" stroke-width="3" stroke-linecap="round" stroke-miterlimit="10" stroke-dasharray="9.913866e-003,16.8536" x1="1740.8" y1="278" x2="1103.6" y2="954.6"/>
				
					<linearGradient id="SVGID_3_" gradientUnits="userSpaceOnUse" x1="322.252" y1="1038.0831" x2="635.252" y2="1038.0831" gradientTransform="matrix(2.7159 0 0 2.7159 209.7941 -1849.4764)">
					<stop  offset="0.5" style="stop-color:#4B4B4B"/>
					<stop  offset="0.5" style="stop-color:#525252"/>
				</linearGradient>
				
					<line fill="none" stroke="url(#SVGID_3_)" stroke-width="3" stroke-linecap="round" stroke-miterlimit="10" x1="1089" y1="969.8" x2="1089" y2="969.8"/>
			</g>
		</g>
		<g>
			<line fill="none" x1="1073.7" y1="986.4" x2="1073.7" y2="986.4"/>
		</g>
	</g>
</g>
<g>
	<g>
		
			<line fill="none" stroke="#037CBF" stroke-width="3" stroke-linecap="round" stroke-miterlimit="10" stroke-dasharray="1.000000e-002,17" x1="404.1" y1="250.7" x2="404.1" y2="250.7"/>
		
			<line fill="none" stroke="#037CBF" stroke-width="3" stroke-linecap="round" stroke-miterlimit="10" stroke-dasharray="1.000000e-002,17" x1="439.1" y1="250.7" x2="1766.8" y2="252"/>
		
			<line fill="none" stroke="#037CBF" stroke-width="3" stroke-linecap="round" stroke-miterlimit="10" stroke-dasharray="1.000000e-002,17" x1="1784.6" y1="252" x2="1784.6" y2="252"/>
	</g>
</g>
<path fill="#007ACC" d="M1879.9,79.8h-191.9c-3.2,0-5.7-2.5-5.7-5.7V27.7c0-3.2,2.5-5.7,5.7-5.7h191.9c3.2,0,5.7,2.5,5.7,5.7v46.4
	C1885.6,77.2,1883.1,79.8,1879.9,79.8z"/>
<rect x="1709.7" y="37.2" fill="none" width="190.6" height="34.9"/>
<path fill="#007ACC" d="M503.2,78.5H305c-3.2,0-5.7-2.5-5.7-5.7V27.1c0-3.2,2.5-5.7,5.7-5.7h197.6c3.2,0,5.7,2.5,5.7,5.7v46.4
	C508.3,76,505.8,78.5,503.2,78.5z"/>
<path fill="#007ACC" d="M1136.6,595h-176c-2.5,0-5.1-2.5-5.1-5.7v-46.4c0-3.2,2.5-5.7,5.1-5.7h176c2.5,0,5.1,2.5,5.1,5.7v46.4
	C1141.7,592.5,1139.2,595,1136.6,595z"/>
<polygon fill="#007ACC" points="332.3,77.9 341.9,86.1 351.4,77.9 "/>
<polygon fill="#007ACC" points="967.6,594.4 977.2,602 986.7,594.4 "/>
<polygon fill="#007ACC" points="1774.5,78.5 1784,86.8 1793.5,78.5 "/>
<g>
	<g>
		<g>
			<g>
				
					<linearGradient id="SVGID_4_" gradientUnits="userSpaceOnUse" x1="405.5445" y1="779.6036" x2="718.5445" y2="779.6036" gradientTransform="matrix(-2.7159 0 0 2.7159 2369.0742 -1849.4764)">
					<stop  offset="0.5" style="stop-color:#4B4B4B"/>
					<stop  offset="0.5" style="stop-color:#525252"/>
				</linearGradient>
				
					<line fill="none" stroke="url(#SVGID_4_)" stroke-width="3" stroke-linecap="round" stroke-miterlimit="10" x1="421.9" y1="267.8" x2="421.9" y2="267.8"/>
				
					<linearGradient id="SVGID_5_" gradientUnits="userSpaceOnUse" x1="464.6588" y1="915.744" x2="718.5708" y2="915.744" gradientTransform="matrix(-2.7159 0 0 2.7159 2369.0742 -1849.4764)">
					<stop  offset="0.5" style="stop-color:#4B4B4B"/>
					<stop  offset="0.5" style="stop-color:#525252"/>
				</linearGradient>
				
					<line fill="none" stroke="url(#SVGID_5_)" stroke-width="3" stroke-linecap="round" stroke-miterlimit="10" stroke-dasharray="9.913866e-003,16.8536" x1="1088.3" y1="975.6" x2="451.1" y2="299.6"/>
				
					<linearGradient id="SVGID_6_" gradientUnits="userSpaceOnUse" x1="464.6718" y1="1046.0364" x2="777.6717" y2="1046.0364" gradientTransform="matrix(-2.7159 0 0 2.7159 2369.0742 -1849.4764)">
					<stop  offset="0.5" style="stop-color:#4B4B4B"/>
					<stop  offset="0.5" style="stop-color:#525252"/>
				</linearGradient>
				
					<line fill="none" stroke="url(#SVGID_6_)" stroke-width="3" stroke-linecap="round" stroke-miterlimit="10" x1="1103" y1="991.4" x2="1103" y2="991.4"/>
			</g>
		</g>
		<g>
			<line fill="none" x1="1118.2" y1="1007.3" x2="1118.2" y2="1007.3"/>
		</g>
	</g>
</g>
<g>
	<path fill="#FFFFFF" d="M993.7,550.5h1.9l-12.7,34.9h-1.3l-12.7-34.9h1.9l11.4,31.8L993.7,550.5z"/>
	<path fill="#FFFFFF" d="M1001.3,557.5c0.6,0.6,0.6,0.6,0.6,1.3c0,0.6,0,1.3-0.6,1.3c-0.6,0.6-0.6,0.6-1.3,0.6c-0.6,0-1.3,0-1.3-0.6
		c-0.6-0.6-0.6-0.6-0.6-1.3c0-0.6,0-1.3,0.6-1.3c0.6-0.6,0.6-0.6,1.3-0.6C1000,556.9,1000.7,556.9,1001.3,557.5z M1000.7,564.5v21.6
		h-1.9v-21.6H1000.7z"/>
	<path fill="#FFFFFF" d="M1014,565.8c-1.3,0-2.5,1.3-4.4,2.5c-1.3,1.3-1.9,3.2-1.9,5.1v12.1h-1.9v-21.6h1.9v4.4
		c0.6-1.9,2.5-3.8,5.1-5.1L1014,565.8z"/>
	<path fill="#FFFFFF" d="M1019.1,564.5v-8.9h1.9v8.9h4.4v1.9h-4.4v19.7h-1.9v-19.7h-4.4v-1.9H1019.1z"/>
	<path fill="#FFFFFF" d="M1036.9,586.1c-2.5,0-5.1-0.6-6.4-2.5c-1.3-1.9-2.5-3.8-2.5-5.7v-13.3h1.9v13.3c0,1.9,0.6,3.2,1.9,4.4
		c1.3,1.3,3.2,1.9,5.1,1.9c1.9,0,3.2-0.6,4.4-1.9c1.3-1.3,1.9-3.2,1.9-4.4v-13.3h1.9v13.3c0,2.5-0.6,4.4-2.5,5.7
		S1039.4,586.1,1036.9,586.1z"/>
	<path fill="#FFFFFF" d="M1073.7,586.1h-1.9v-4.4c-0.6,0.6-0.6,1.3-1.3,1.3c-2.5,2.5-5.1,3.8-8.3,3.8c-3.2,0-6.4-1.3-8.3-3.8
		s-3.8-5.1-3.8-8.3c0-3.2,1.3-6.4,3.8-8.3c2.5-2.5,5.1-3.8,8.3-3.8c3.2,0,6.4,1.3,8.3,3.8c0.6,0.6,0.6,0.6,1.3,1.3v-3.2h1.9V586.1z
		 M1071.8,576.6v-3.8c-0.6-1.9-1.3-3.8-2.5-5.1c-1.9-1.9-4.4-3.2-7-3.2c-2.5,0-5.1,1.3-7,3.2c-1.9,1.9-3.2,4.4-3.2,7
		c0,2.5,1.3,5.1,3.2,7c1.9,1.9,4.4,3.2,7,3.2c2.5,0,5.1-1.3,7-3.2C1070.6,579.8,1071.2,578.5,1071.8,576.6z"/>
	<path fill="#FFFFFF" d="M1080.7,550.5v34.9h-1.9v-34.9H1080.7z"/>
	<path fill="#FFFFFF" d="M1088.3,550.5v34.9h-1.9v-34.9H1088.3z"/>
	<path fill="#FFFFFF" d="M1123.3,555.6c3.8,3.8,5.1,7.6,5.1,12.7c0,5.1-1.9,9.5-5.1,12.7c-3.8,3.8-7.6,5.1-12.7,5.1
		c-5.1,0-8.9-1.9-12.7-5.1c-3.8-3.8-5.1-7.6-5.1-12.7c0-5.1,1.9-8.9,5.1-12.7c3.8-3.8,7.6-5.1,12.7-5.1
		C1115.7,550.5,1120.1,551.8,1123.3,555.6z M1110.6,552.4c-4.4,0-8.3,1.3-11.4,4.4c-3.2,3.2-4.4,7-4.4,11.4c0,4.4,1.3,8.3,4.4,11.4
		c3.2,3.2,7,4.4,11.4,4.4c4.4,0,8.3-1.3,11.4-4.4c3.2-3.2,4.4-7,4.4-11.4s-1.3-8.3-4.4-11.4C1118.8,553.7,1115,552.4,1110.6,552.4z"
		/>
</g>
<g>
	<path fill="#FFFFFF" d="M340,62l1.3,1.3c-3.2,3.2-7.6,4.4-12.1,4.4c-5.1,0-9.5-1.9-12.7-5.1c-3.2-3.2-5.1-7.6-5.1-12.7
		s1.9-8.9,5.1-12.7c3.2-3.8,7.6-5.1,12.7-5.1c4.4,0,8.9,1.3,12.1,4.4l-1.3,1.3c-3.2-2.5-6.4-3.8-10.8-3.8c-4.4,0-8.3,1.3-11.4,4.4
		c-3.2,3.2-4.4,7-4.4,11.4s1.3,8.3,4.4,11.4c3.2,3.2,7,4.4,11.4,4.4C333.6,65.8,336.8,64.5,340,62z"/>
	<path fill="#FFFFFF" d="M357.1,43.6c3.2,0,6.4,1.3,8.3,3.8c1.9,2.5,3.8,5.1,3.8,8.3s-1.3,6.4-3.8,8.3c-2.5,1.9-5.1,3.8-8.3,3.8
		c-3.2,0-6.4-1.3-8.3-3.8c-1.9-2.5-3.8-4.4-3.8-8.3c0-3.2,1.3-6.4,3.8-8.3C351.4,45.5,353.9,43.6,357.1,43.6z M350.1,48.7
		c-1.9,1.9-3.2,4.4-3.2,7s1.3,5.1,3.2,7c1.9,1.9,4.4,3.2,7,3.2c2.5,0,5.1-1.3,7-3.2s3.2-4.4,3.2-7s-1.3-5.1-3.2-7
		c-1.9-1.9-4.4-3.2-7-3.2C354.6,45.5,352,46.8,350.1,48.7z"/>
	<path fill="#FFFFFF" d="M373,45.5h1.9v0.6c1.3-1.3,2.5-1.9,4.4-1.9c1.9,0,3.2,0.6,4.4,1.9c0.6,0.6,0.6,0.6,0.6,1.3
		c0-0.6,0.6-0.6,0.6-1.3c1.3-1.3,2.5-1.9,4.4-1.9s3.2,0.6,4.4,1.9c1.3,1.3,1.9,2.5,1.9,4.4v16.5H394V50.6l0,0c0-1.3-0.6-1.9-1.3-3.2
		c-0.6-0.6-1.9-1.3-3.2-1.3s-2.5,0.6-3.2,1.3c-0.6,0.6-1.3,1.9-1.3,3.2v16.5h-1.9V50.6l0,0c0-1.3-0.6-1.9-1.3-3.2
		c-0.6-0.6-1.9-1.3-3.2-1.3s-2.5,0.6-3.2,1.3s-1.3,1.9-1.3,2.5v16.5h-1.9v-21H373z"/>
	<path fill="#FFFFFF" d="M401.6,45.5h1.9v3.2c0.6-0.6,0.6-1.3,1.3-1.3c2.5-2.5,5.1-3.8,8.3-3.8s6.4,1.3,8.3,3.8
		c1.9,2.5,3.8,5.1,3.8,8.3s-1.3,6.4-3.8,8.3c-2.5,1.9-5.1,3.8-8.3,3.8s-6.4-1.3-8.3-3.8c-0.6-0.6-0.6-0.6-1.3-1.3v12.7h-1.9
		C401.6,75.3,401.6,45.5,401.6,45.5z M403.5,53.7v3.8c0.6,1.9,1.3,3.8,2.5,5.1c1.9,1.9,4.4,3.2,7,3.2s5.1-1.3,7-3.2s3.2-4.4,3.2-7
		s-1.3-5.1-3.2-7c-1.9-1.9-4.4-3.2-7-3.2s-5.1,1.3-7,3.2C404.8,50.6,404.1,51.8,403.5,53.7z"/>
	<path fill="#FFFFFF" d="M437.8,67.7c-2.5,0-5.1-0.6-6.4-2.5c-1.3-1.9-2.5-3.8-2.5-5.7v-14h1.9v13.3c0,1.9,0.6,3.2,1.9,4.4
		c1.3,1.3,3.2,1.9,5.1,1.9c1.9,0,3.2-0.6,4.4-1.9c1.3-1.3,1.9-2.5,1.9-4.4V45.5h1.9v13.3c0,2.5-0.6,4.4-2.5,5.7
		C441.6,65.8,440.3,67.7,437.8,67.7z"/>
	<path fill="#FFFFFF" d="M453.7,45.5v-8.9h1.9v8.9h4.4v1.9h-4.4v19.7h-1.9V48h-4.4v-2.5H453.7z"/>
	<path fill="#FFFFFF" d="M464.5,55c0,0.6,0,0.6,0,1.3c0,2.5,1.3,5.1,3.2,7c1.9,1.9,4.4,3.2,7,3.2s5.1-1.3,7-3.2
		c0.6-0.6,0.6-0.6,0.6-1.3l1.9,0.6c0,0.6-0.6,1.3-1.3,1.9c-2.5,2.5-5.1,3.8-8.3,3.8s-6.4-1.3-8.3-3.8c-1.9-2.5-3.8-5.1-3.8-8.3
		s1.3-6.4,3.8-8.3c2.5-1.9,5.1-3.8,8.3-3.8s6.4,1.3,8.3,3.8c1.9,1.9,3.2,4.4,3.2,7.6h-21.6V55z M464.5,52.5h19.1
		c-0.6-1.3-1.3-2.5-2.5-3.8c-1.9-1.9-4.4-3.2-7-3.2s-5.1,1.3-7,3.2C466.4,49.9,465.1,51.2,464.5,52.5z"/>
	<path fill="#FFFFFF" d="M496.9,47.4c-1.3,0-2.5,1.3-4.4,2.5s-1.9,3.2-1.9,5.1v12.1h-1.9V45.5h1.9v4.4c0.6-1.9,2.5-3.8,5.1-5.1
		L496.9,47.4z"/>
</g>
<g>
	<path fill="#FFFFFF" d="M1694.4,49.9v16.5h-1.9V30.9h1.9v16.5h17.8V30.9h1.9v34.9h-1.9V49.9H1694.4z"/>
	<path fill="#FFFFFF" d="M1742.7,66.4h-1.9V62c-0.6,0.6-0.6,1.3-1.3,1.3c-2.5,2.5-5.1,3.8-8.3,3.8c-3.2,0-6.4-1.3-8.3-3.8
		s-3.8-5.1-3.8-8.3s1.3-6.4,3.8-8.3c2.5-1.9,4.4-3.8,7.6-3.8s6.4,1.3,8.3,3.8c0.6,0.6,0.6,0.6,1.3,1.3v-3.2h1.9v21.6H1742.7z
		 M1740.8,56.9v-3.8c-0.6-1.9-1.3-3.8-2.5-5.1c-1.9-1.9-4.4-3.2-7-3.2s-5.1,1.3-7,3.2s-3.2,3.8-3.2,7s1.3,5.1,3.2,7
		c1.9,1.9,4.4,3.2,7,3.2s5.1-1.3,7-3.2C1739.5,60.1,1740.2,58.8,1740.8,56.9z"/>
	<path fill="#FFFFFF" d="M1754.8,46.1c-1.3,0-2.5,1.3-4.4,2.5c-1.9,1.3-1.9,3.2-1.9,5.1v12.1h-1.9v-21h1.9v4.4
		c0.6-1.9,2.5-3.8,5.1-5.1L1754.8,46.1z"/>
	<path fill="#FFFFFF" d="M1780.8,66.4h-2.5V62c-0.6,0.6-0.6,1.3-1.3,1.3c-2.5,2.5-5.1,3.8-8.3,3.8c-3.2,0-6.4-1.3-8.3-3.8
		c-1.9-2.5-3.8-5.1-3.8-8.3s1.3-6.4,3.8-8.3c2.5-1.9,5.1-3.8,8.3-3.8c3.2,0,6.4,1.3,8.3,3.8c0.6,0.6,0.6,0.6,1.3,1.3V30.9h1.9v35.6
		H1780.8z M1778.3,56.9v-3.8c-0.6-1.9-1.3-3.8-2.5-5.1c-1.9-1.9-4.4-3.2-7-3.2s-5.1,1.3-7,3.2s-3.2,4.4-3.2,7s1.3,5.1,3.2,7
		c1.9,1.9,4.4,3.2,7,3.2s5.1-1.3,7-3.2C1777,60.1,1778.3,58.8,1778.3,56.9z"/>
	<path fill="#FFFFFF" d="M1810,44.8l-7.6,21.6h-1.3l-5.1-14l-5.1,14h-1.3l-7-21.6h2.5l5.7,17.8l5.1-14h1.3l5.1,14l5.7-17.8
		C1808.1,44.8,1810,44.8,1810,44.8z"/>
	<path fill="#FFFFFF" d="M1835.5,66.4h-1.9V62c-0.6,0.6-0.6,1.3-1.3,1.3c-2.5,2.5-5.1,3.8-8.3,3.8c-3.2,0-6.4-1.3-8.3-3.8
		s-3.8-5.1-3.8-8.3s1.3-6.4,3.8-8.3c2.5-1.9,5.1-3.8,8.3-3.8c3.2,0,6.4,1.3,8.3,3.8c0.6,0.6,0.6,0.6,1.3,1.3v-3.2h1.9V66.4z
		 M1833.5,56.9v-3.8c-0.6-1.9-1.3-3.8-2.5-5.1c-1.9-1.9-4.4-3.2-7-3.2s-5.1,1.3-7,3.2s-3.2,4.4-3.2,7s1.3,5.1,3.2,7
		c1.9,1.9,4.4,3.2,7,3.2s5.1-1.3,7-3.2C1832.3,60.1,1832.9,58.8,1833.5,56.9z"/>
	<path fill="#FFFFFF" d="M1847.5,46.1c-1.3,0-2.5,1.3-4.4,2.5c-1.9,1.3-1.3,3.8-1.3,5.1v12.1h-1.9v-21h1.9v4.4
		c0.6-1.9,2.5-3.8,5.1-5.1L1847.5,46.1z"/>
	<path fill="#FFFFFF" d="M1851.3,53.7c0,0.6,0,0.6,0,1.3c0,2.5,1.3,5.1,3.2,7c1.9,1.9,4.4,3.2,7,3.2s5.1-1.3,7-3.2
		c0.6-0.6,0.6-0.6,0.6-1.3l1.9,0.6c0,0.6-0.6,1.3-1.3,1.9c-2.5,2.5-5.1,3.8-8.3,3.8c-3.2,0-6.4-1.3-8.3-3.8s-3.8-5.1-3.8-8.3
		c0-3.2,1.3-6.4,3.8-8.3s4.4-3.8,7.6-3.8c3.2,0,6.4,1.3,8.3,3.8c1.9,1.9,3.2,4.4,3.2,7.6h-21L1851.3,53.7L1851.3,53.7z M1851.3,51.8
		h19.1c-0.6-1.3-1.3-2.5-2.5-3.8c-1.9-1.9-4.4-3.2-7-3.2s-5.1,1.3-7,3.2C1853.2,48.7,1852,50.6,1851.3,51.8z"/>
</g>
<g id="PC">
	<path d="M560.2,381.7H212c-7.6,0-13.3-6.4-13.3-13.3V132.6c0-7.6,6.4-13.3,13.3-13.3h347.5c7.6,0,13.3,6.4,13.3,13.3v235.1
		C573.5,375.3,567.1,381.7,560.2,381.7z"/>
	
		<linearGradient id="SVGID_7_" gradientUnits="userSpaceOnUse" x1="26.7671" y1="930.6814" x2="102.8235" y2="1047.7981" gradientTransform="matrix(2.7159 0 0 -2.7159 209.7941 2930.4766)">
		<stop  offset="0.5" style="stop-color:#4B4B4B"/>
		<stop  offset="0.5" style="stop-color:#525252"/>
	</linearGradient>
	<rect x="210.7" y="131.4" fill="url(#SVGID_7_)" width="350" height="224.9"/>
	<rect x="144" y="370.9" fill="#CFCECF" width="483.5" height="10.8"/>
	<path fill="#333333" d="M144,381.7c12.1,5.7,17.8,6.4,17.8,6.4h436.4c0,0,16.5,0,29.2-6.4"/>
	<path fill="#8C8C8C" d="M334.6,370.9L334.6,370.9c0,2.5,1.9,4.4,3.8,4.4h95.3c1.9,0,3.8-1.9,3.8-3.8v-0.6
		C437.5,370.9,334.6,370.9,334.6,370.9z"/>
</g>
<g id="pcb">
	<rect x="923.5" y="624.5" fill="#2D5EAB" width="290.7" height="396.1"/>
	<polygon opacity="0.6" fill="#2B378B" points="1005.1,659.4 1019.9,659.4 1035.4,674.9 1035.4,687.2 1017.5,706.6 1015.9,706.6 
		1016.5,705 1021.9,698.9 1022.4,679.3 1003.7,660.6 998,660.6 998,659.4 	"/>
	<polygon opacity="0.6" fill="#2B378B" points="1019.1,984.4 1023.6,984.3 1041.2,1001.4 1031.4,1001.4 1024.1,1009 1022.7,1009 
		1022.6,991.3 1019.1,988.9 1019.1,988.4 1023.9,988.4 1023.9,986.6 1019.1,986.6 	"/>
	<polygon opacity="0.6" fill="#2B378B" points="1032.9,950 1053.9,970.2 1059.5,970.2 1035.6,947.1 1032.9,947.3 1032.9,948.2 
		1035.2,948.2 1053,965.5 1052.3,966.4 1034.9,949.1 1032.9,949.1 	"/>
	<polyline opacity="0.6" fill="#2B378B" points="1068,968.2 1059.5,968.2 1036.6,946.5 1033.6,946.5 1033.6,944.6 1038.4,944.6 
		1054.5,959.8 1068,960 1068,968.2 1068,968.2 	"/>
	<polyline opacity="0.6" fill="#2B378B" points="1068,958.9 1054.6,958.9 1039.6,943.5 1034,943.5 1034,942.2 1041.5,942.2 
		1050.2,950.4 1068,950.1 1068,958.9 	"/>
	<polyline opacity="0.6" fill="#2B378B" points="1068,949.1 1049.8,949.1 1041.7,940.9 1041.7,939.8 1045.3,941.2 1068,941.2 
		1068,949.1 	"/>
	<polyline opacity="0.6" fill="#2B378B" points="1068,940.3 1045.8,940.3 1044.8,938.5 1041.9,938.5 1041.9,937 1045.4,937 
		1068,937 1068,940.3 	"/>
	<polyline opacity="0.6" fill="#2B378B" points="1068,936 1034.3,936 1034.3,934.7 1062,934.7 1068,929.1 1068,936 	"/>
	<polygon opacity="0.6" fill="#2B378B" points="1034.2,924 1059,923.8 1061.9,920.9 1061.9,888.9 1068,882.8 1068,780.9 
		1053.2,795.9 1053.4,812.5 1038.9,827.4 1017.3,828.1 1017.3,870.2 1019.9,870.2 1057.7,832.5 1057.4,794.9 1059.7,794.9 
		1060.1,832.7 1023.4,869.7 1052.1,869.7 1054.7,872.1 1055.1,884.2 1048.4,891 1027.4,891.5 1023,893.3 1020.4,893.2 1020.5,897 
		1013.9,896.9 1013.8,888.5 1011.7,888.6 1011.7,900.9 1020.6,900.9 1027.2,893.7 1047.9,893.6 1056.3,885.4 1056.3,872.1 
		1057,872.1 1057.4,885.7 1049.1,893.9 1049.1,895.1 1058.4,885.8 1058.2,837 1061.3,833.7 1061,790.9 1062.8,790.9 1063.1,834.4 
		1060.2,837.5 1060.7,887 1050.8,896.7 1050.9,898 1052.5,897.9 1056.6,893.8 1057.7,893.8 1057.7,895.8 1053.3,900 1053.1,900.6 
		1060.1,900.7 	"/>
	<polygon opacity="0.6" fill="#2B378B" points="964.1,985 968.4,985 978.2,994.6 990.2,994.6 990.2,1003.1 985.3,998.1 972.6,998.2 
		965.9,991.3 964.1,991.3 	"/>
	<path opacity="0.6" fill="#2B378B" d="M961.8,994.6"/>
	<polygon opacity="0.6" fill="#2B378B" points="961.7,992.1 961.7,995.7 965.8,995.7 971.4,1001 984,1001 990.2,1006.9 
		1009.8,1006.9 1011,1005.7 1015.4,1006.1 1017.1,1004.5 1017.1,1000.3 1014.1,1000.3 1014.1,1003.5 1010.5,1003.5 1008.3,1005.9 
		992.2,1005.9 984.8,999.1 972.7,999.1 965.3,992.1 	"/>
	<polyline opacity="0.6" fill="#2B378B" points="957.3,996.5 972.6,1011.5 1019.1,1011.5 1020.8,1009.9 1020.8,1000.9 
		1021.2,1000.9 1021.2,991.7 1019.3,990.1 1017.1,990.1 1017.1,995.9 1019.4,995.9 1019.4,1008.7 1018.6,1009.6 974.1,1009.6 
		959.3,996.1 957.3,996.5 	"/>
	<path opacity="0.6" fill="#2B378B" d="M1009.9,1040"/>
	<polyline opacity="0.6" fill="#2B378B" points="954.1,999.5 970.1,1014.4 1024.9,1014.4 1033.2,1005.5 1038.6,1005.7 1041.6,1009 
		1140.2,1009 1152.7,996.4 1149.8,996.4 1139.8,1006.4 1042.2,1006.4 1042.2,1004.7 1139,1004.7 1147.3,996.4 1145.8,996.4 
		1139,1003.1 1033.6,1003.1 1024.8,1011.5 1023.6,1012.7 971.5,1012.7 954.1,996.5 954.1,999.5 	"/>
	<polyline opacity="0.6" fill="#2B378B" points="1131,996.4 1126,1001.3 1138.4,1001.3 1143.5,996.4 1131,996.4 	"/>
	<polygon opacity="0.6" fill="#2B378B" points="1018.2,906.3 1027.3,906.3 1023.2,910.9 1018.2,910.9 	"/>
	<polygon opacity="0.6" fill="#2B378B" points="1018.2,905.2 1026.5,905.2 1033.3,898.2 1052.5,898.2 1052.5,896.8 1029.3,896.8 
		1021.9,904.1 1018.2,904.1 	"/>
	<polygon opacity="0.6" fill="#2B378B" points="1018.2,903.5 1021.3,903.5 1029.4,895.1 1029.4,894.6 1027.9,894.6 1020.4,902.5 
		1018.2,902.6 	"/>
	<polyline opacity="0.6" fill="#2B378B" points="1041.7,939.8 1034,940.1 1034,941.3 1042.1,941.3 	"/>
	<polyline opacity="0.6" fill="#2B378B" points="1041.9,938.5 1034.3,938.5 1034.3,937 1041.9,937 	"/>
	<polygon opacity="0.6" fill="#2B378B" points="1014.5,878.8 1050.4,878.8 1050.4,872.1 1053,874.8 1053,884 1048.2,888.8 
		1021.3,889.8 1021.3,888.2 1036.3,888.2 1038.2,886.6 1038.2,885.3 1036,885.3 1033,887.1 1012.5,887.1 1017,883.4 1029,883.4 
		1028.6,882 1014.5,882 	"/>
	<polygon opacity="0.6" fill="#2B378B" points="962.6,906.7 962.6,911.3 990.2,911.3 990.2,909 988.8,906.7 	"/>
	<polygon opacity="0.6" fill="#2B378B" points="962.6,903.6 986.1,903.6 990.2,902.3 972.7,902.3 963.5,893 958.5,890.6 
		954.1,894.1 954.1,900.9 959.3,900.9 961.8,900.9 962.6,900.9 	"/>
	<polyline opacity="0.6" fill="#2B378B" points="952.6,893.6 960.6,885.4 973.7,897.3 973.8,898.7 963.5,889.8 963.5,891.6 
		972.8,901 990.2,900.9 990.2,898.6 977.9,886 973.1,886 964.4,877.5 954.1,877.5 954.1,883.4 940.2,883.4 940.2,893.6 952.6,893.6 
			"/>
	<polygon opacity="0.6" fill="#2B378B" points="962.2,876.3 964.7,876.3 972.2,884.6 977.9,884.7 980.1,887.5 981.5,887.5 
		969.1,875.5 962.2,875.5 	"/>
	<polygon opacity="0.6" fill="#2B378B" points="961.5,870.9 970.9,870.9 966.2,865.8 961.5,865.8 	"/>
	<polyline opacity="0.6" fill="#2B378B" points="990.2,879.3 977.9,879.3 987.6,889.2 992.8,889.2 994,888.2 1008.2,888.2 
		1011.7,884 1011.7,879 1013.3,877.5 1013.3,875.5 990.2,879.3 	"/>
	<polygon opacity="0.6" fill="#2B378B" points="986.8,891 994.9,891 994.9,890 1010.6,889.8 1010.6,896 1009.9,896 992.6,896 	"/>
	<polygon opacity="0.6" fill="#2B378B" points="1016.9,787.5 1048,756.2 1067.5,756.2 1047,777.3 1047,779.1 1048.9,778.9 
		1068.1,758.5 1072.8,758.5 1079.9,751.8 1095.3,752.1 1095.3,760.8 1068.9,760.8 1039.9,790.5 1039.9,806.2 1037.1,808.9 
		1032.9,808.9 1032.9,779.9 1021.4,790.9 1016.9,790.9 	"/>
	<polyline opacity="0.6" fill="#2B378B" points="959.3,786 962,786 964.5,788.2 990.2,788.2 990.2,790.2 959.3,790.2 959.3,786 	"/>
	<polyline opacity="0.6" fill="#2B378B" points="959.4,785.1 962.6,785.1 964.5,787 990.2,787 990.2,772.5 1005.1,772.5 
		1005.1,763.5 1009.4,759.5 1018.1,759.5 1022.1,762.4 1022.1,763.5 1018.1,760.4 1009.9,760.6 1006,764.2 1006.2,772.5 1011,772.5 
		1014.8,768.7 1014.8,766.1 1007.4,766.1 1007.4,763.8 1016.7,763.8 1016.2,768.8 1010.7,774.1 1010.7,776.3 1019.9,768.5 
		1019.9,766.3 1028.7,766.3 1028.7,768.6 1025.3,772.7 1025.3,774.7 1031.1,769 1031.1,752.4 1028.8,749.8 1009.9,749.8 
		976.7,783.7 959.3,783.7 959.3,784.7 	"/>
	<polygon opacity="0.6" fill="#2B378B" points="1032.6,770.3 1047.4,755.3 1070.3,755.3 1095.7,729.2 1107.8,729.3 1107.8,711.6 
		1087.9,711.6 1087.9,730.9 1085.4,730.9 1070.3,746.1 1028.5,746.1 1032.6,750.3 1069.3,750.3 1069.3,752.2 1032.1,752.2 	"/>
	<polyline opacity="0.6" fill="#2B378B" points="938.5,772.5 938.5,765.8 954.1,750.3 969.6,750.3 970.9,751.3 970.9,759.5 
		974.8,760.1 974.8,762.4 968.7,768.3 964,768.3 961.6,764.2 957.9,764.2 958.2,770.9 954.3,774.5 954.1,772.5 950.7,772.5 
		950.7,765.1 955.9,760 955.9,758.2 949.2,764.9 949.5,772.5 938.5,772.5 	"/>
	<polyline opacity="0.6" fill="#2B378B" points="959.3,782.5 959.7,782.5 976.5,782.5 1009.1,748.8 1009.9,747.9 953.1,747.9 
		953.1,749.2 1005.7,749.2 1006.5,749.2 975,780.8 959.3,780.8 959.3,782.5 	"/>
	<polyline opacity="0.6" fill="#2B378B" points="934.4,787.9 932.4,786 932.4,762.8 950.2,744.1 1067.5,744.1 1082.8,729.9 
		1081.8,727.6 1067,742.1 948.2,742.1 929.7,762.8 929.7,786.5 934.4,790.7 934.4,787.9 	"/>
	<polyline opacity="0.6" fill="#2B378B" points="932.9,697.1 932.9,720.4 941.4,727.6 947,728.1 953.1,734.1 1020,734.1 
		1023.3,730.7 1023.7,729.3 1025.3,729.3 1022.8,733.7 1046.8,733.7 1046.8,739.1 1046.8,740 944.4,740 927.6,724.2 926.6,684 
		932.9,678 932.9,680.7 928.7,684.7 929.7,723.2 944.5,737.7 1042.9,737.7 1042.9,735.4 945,736 931.6,722.7 930.5,686 932.9,684.3 
		932.9,697.1 	"/>
	<polyline opacity="0.6" fill="#2B378B" points="935,697.7 935,719.3 954.3,732.4 1019,731.7 1023,727.6 1023,714.2 1018.5,711 
		1012.1,711.2 1009,715.8 1008.6,713.3 1011.6,710.1 1011.6,709 949.5,709.2 948,710.8 947.9,714.5 946,714.6 945.7,710 
		948.2,707.5 958.8,707.6 958.9,706.6 951,706.6 944.9,700.5 944.9,685.1 941.8,683.4 932.9,684.3 	"/>
	<polygon opacity="0.6" fill="#2B378B" points="947.9,633.5 949.1,699.3 985.9,698.9 985.2,650.7 989,650.9 999.6,639.8 
		1059.5,639.4 1059.5,640.9 1037.1,641.1 1037.4,647 1035.4,649.3 1004.4,648.6 1004.4,643.4 1001.7,643.4 1001.7,650.7 
		1004.1,653.9 1021.6,653.9 1038.1,670.9 1073.5,670.9 1107.8,704.9 1141.1,704.9 1141.1,692.6 1142.7,692.6 1142.7,706.7 
		1107.3,706.7 1072.9,672.9 1037.7,672.9 1020.9,656 997.1,656 998,679.2 987.8,679.6 988,700.6 952.1,700.9 952.1,702.6 
		1012.4,702.2 1016.7,698 1016.5,679.1 1002.1,665.6 1002.1,661.3 1019.7,679.6 1019.8,697.7 1013,704.6 952.6,704.8 947,699.6 
		947,684 941.8,680.7 941.8,678.6 946.3,680.7 945.8,632 986.7,631.1 987.1,646.5 998.4,635.3 1059.5,635.1 1059.5,636.4 
		999.2,637.4 989,648.1 985.2,648.1 984.8,632.8 	"/>
	<polygon opacity="0.6" fill="#2B378B" points="1011.6,710.1 1020.1,710.1 1040.8,688.1 1049.2,688.1 1049.2,676.6 1071.8,676.6 
		1105.7,710.7 1105.7,719.1 1138.5,719.1 1138.5,710.9 1167.6,710.9 1167.6,722 1179.3,735.2 1179.2,747.8 1180,754.8 1181.9,748.8 
		1181.9,734.9 1169.2,721.6 1169.3,708.5 1107,708.5 1072.6,674.9 1038.4,675.2 1038.7,688.1 1018.6,709.1 1011.6,709 	"/>
	<polyline opacity="0.6" fill="#2B378B" points="1183.5,772.9 1185.5,772.9 1185.5,732.6 1173.5,720.5 1173.5,710.5 1181.9,710.5 
		1181.9,708.3 1171.7,708.5 1171.7,721.5 1183.6,733.5 1183.5,772.9 	"/>
	<polyline opacity="0.6" fill="#2B378B" points="1145,692.6 1145,706.5 1181.9,706.2 1181.9,696 1175.7,696.1 1175.6,704.4 
		1147.4,704.4 1147.3,699.8 1147.1,692.6 1145,692.6 	"/>
	<g>
		<path fill="#3A3A3A" d="M1187.8,776.8v207.6h23V776.8H1187.8z M1190.1,779.1h7.9v7.9h-7.9V779.1z M1190.2,789.3h7.9v7.9h-7.9
			V789.3z M1190.2,799.6h7.9v7.9h-7.9V799.6z M1190.3,809.9h7.9v7.9h-7.9V809.9z M1190.3,820.2h7.9v7.9h-7.9V820.2z M1190.3,830.5
			h7.9v7.9h-7.9V830.5z M1190.4,840.7h7.9v7.9h-7.9V840.7z M1190.4,851h7.9v7.9h-7.9V851z M1190.4,861.3h7.9v7.9h-7.9V861.3z
			 M1190.5,871.6h7.9v7.9h-7.9V871.6z M1190.5,881.9h7.9v7.9h-7.9V881.9z M1190.6,892.1h7.9v7.9h-7.9V892.1z M1190.6,902.4h7.9v7.9
			h-7.9V902.4z M1190.6,912.7h7.9v7.9h-7.9V912.7z M1190.7,923h7.9v7.9h-7.9V923z M1190.7,933.3h7.9v7.9h-7.9V933.3z M1190.8,943.5
			h7.9v7.9h-7.9V943.5z M1190.8,953.8h7.9v7.9h-7.9V953.8z M1190.8,964.1h7.9v7.9h-7.9V964.1z M1198.8,982.3h-7.9v-7.9h7.9V982.3z
			 M1200.4,779.1h7.9v7.9h-7.9V779.1z M1200.5,789.3h7.9v7.9h-7.9V789.3z M1200.5,799.6h7.9v7.9h-7.9V799.6z M1200.5,809.9h7.9v7.9
			h-7.9V809.9z M1200.6,820.2h7.9v7.9h-7.9V820.2z M1200.6,830.5h7.9v7.9h-7.9V830.5z M1200.7,840.7h7.9v7.9h-7.9V840.7z
			 M1200.7,851h7.9v7.9h-7.9V851z M1200.7,861.3h7.9v7.9h-7.9V861.3z M1200.8,871.6h7.9v7.9h-7.9V871.6z M1200.8,881.9h7.9v7.9h-7.9
			V881.9z M1200.8,892.1h7.9v7.9h-7.9V892.1z M1200.9,902.4h7.9v7.9h-7.9V902.4z M1200.9,912.7h7.9v7.9h-7.9V912.7z M1201,923h7.9
			v7.9h-7.9V923z M1201,933.3h7.9v7.9h-7.9V933.3z M1201,943.5h7.9v7.9h-7.9V943.5z M1201.1,953.8h7.9v7.9h-7.9V953.8z
			 M1201.1,964.1h7.9v7.9h-7.9V964.1z M1209.1,982.3h-7.9v-7.9h7.9V982.3z"/>
		<path fill="#2D2D2D" d="M1198.1,779.1h-7.9v7.9h7.9V779.1z M1195.8,784.6h-3.3v-3.3h3.3V784.6z"/>
		<rect x="1192.5" y="781.3" width="3.3" height="3.3"/>
		<path fill="#2D2D2D" d="M1208.3,779.1h-7.9v7.9h7.9V779.1z M1206.1,784.6h-3.3v-3.3h3.3V784.6z"/>
		<rect x="1202.8" y="781.3" width="3.3" height="3.3"/>
		<path fill="#2D2D2D" d="M1198.1,789.3h-7.9v7.9h7.9V789.3z M1195.8,794.9h-3.3v-3.3h3.3V794.9z"/>
		<rect x="1192.5" y="791.6" width="3.3" height="3.3"/>
		<path fill="#2D2D2D" d="M1208.4,789.3h-7.9v7.9h7.9V789.3z M1206.1,794.9h-3.3v-3.3h3.3V794.9z"/>
		<rect x="1202.8" y="791.6" width="3.3" height="3.3"/>
		<path fill="#2D2D2D" d="M1198.1,799.6h-7.9v7.9h7.9V799.6z M1195.9,805.2h-3.3v-3.3h3.3V805.2z"/>
		<rect x="1192.6" y="801.9" width="3.3" height="3.3"/>
		<path fill="#2D2D2D" d="M1208.4,799.6h-7.9v7.9h7.9V799.6z M1206.2,805.2h-3.3v-3.3h3.3V805.2z"/>
		<rect x="1202.8" y="801.9" width="3.3" height="3.3"/>
		<path fill="#2D2D2D" d="M1198.2,809.9h-7.9v7.9h7.9V809.9z M1195.9,815.5h-3.3v-3.3h3.3V815.5z"/>
		<rect x="1192.6" y="812.2" width="3.3" height="3.3"/>
		<path fill="#2D2D2D" d="M1208.5,809.9h-7.9v7.9h7.9V809.9z M1206.2,815.5h-3.3v-3.3h3.3V815.5z"/>
		<rect x="1202.9" y="812.2" width="3.3" height="3.3"/>
		<path fill="#2D2D2D" d="M1198.2,820.2h-7.9v7.9h7.9V820.2z M1196,825.8h-3.3v-3.3h3.3V825.8z"/>
		<rect x="1192.6" y="822.4" width="3.3" height="3.3"/>
		<path fill="#2D2D2D" d="M1208.5,820.2h-7.9v7.9h7.9V820.2z M1206.2,825.8h-3.3v-3.3h3.3V825.8z"/>
		<rect x="1202.9" y="822.4" width="3.3" height="3.3"/>
		<path fill="#2D2D2D" d="M1198.3,830.5h-7.9v7.9h7.9V830.5z M1196,836.1h-3.3v-3.3h3.3V836.1z"/>
		<rect x="1192.7" y="832.7" width="3.3" height="3.3"/>
		<path fill="#2D2D2D" d="M1208.5,830.5h-7.9v7.9h7.9V830.5z M1206.3,836.1h-3.3v-3.3h3.3V836.1z"/>
		<rect x="1202.9" y="832.7" width="3.3" height="3.3"/>
		<path fill="#2D2D2D" d="M1198.3,840.7h-7.9v7.9h7.9V840.7z M1196,846.3h-3.3V843h3.3V846.3z"/>
		<rect x="1192.7" y="843" width="3.3" height="3.3"/>
		<path fill="#2D2D2D" d="M1208.6,840.7h-7.9v7.9h7.9V840.7z M1206.3,846.3h-3.3V843h3.3V846.3z"/>
		<rect x="1203" y="843" width="3.3" height="3.3"/>
		<path fill="#2D2D2D" d="M1198.3,851h-7.9v7.9h7.9V851z M1196.1,856.6h-3.3v-3.3h3.3V856.6z"/>
		<rect x="1192.7" y="853.3" width="3.3" height="3.3"/>
		<path fill="#2D2D2D" d="M1208.6,851h-7.9v7.9h7.9V851z M1206.4,856.6h-3.3v-3.3h3.3V856.6z"/>
		<rect x="1203" y="853.3" width="3.3" height="3.3"/>
		<path fill="#2D2D2D" d="M1198.4,861.3h-7.9v7.9h7.9V861.3z M1196.1,866.9h-3.3v-3.3h3.3V866.9z"/>
		<rect x="1192.8" y="863.6" width="3.3" height="3.3"/>
		<path fill="#2D2D2D" d="M1208.7,861.3h-7.9v7.9h7.9V861.3z M1206.4,866.9h-3.3v-3.3h3.3V866.9z"/>
		<rect x="1203.1" y="863.6" width="3.3" height="3.3"/>
		<path fill="#2D2D2D" d="M1198.4,871.6h-7.9v7.9h7.9V871.6z M1196.2,877.2h-3.3v-3.3h3.3V877.2z"/>
		<rect x="1192.8" y="873.8" width="3.3" height="3.3"/>
		<path fill="#2D2D2D" d="M1208.7,871.6h-7.9v7.9h7.9V871.6z M1206.4,877.2h-3.3v-3.3h3.3V877.2z"/>
		<rect x="1203.1" y="873.8" width="3.3" height="3.3"/>
		<path fill="#2D2D2D" d="M1198.4,881.9h-7.9v7.9h7.9V881.9z M1196.2,887.5h-3.3v-3.3h3.3V887.5z"/>
		<rect x="1192.9" y="884.1" width="3.3" height="3.3"/>
		<path fill="#2D2D2D" d="M1208.7,881.9h-7.9v7.9h7.9V881.9z M1206.5,887.5h-3.3v-3.3h3.3V887.5z"/>
		<rect x="1203.1" y="884.1" width="3.3" height="3.3"/>
		<path fill="#2D2D2D" d="M1198.5,892.1h-7.9v7.9h7.9V892.1z M1196.2,897.7h-3.3v-3.3h3.3V897.7z"/>
		<rect x="1192.9" y="894.4" width="3.3" height="3.3"/>
		<path fill="#2D2D2D" d="M1208.8,892.1h-7.9v7.9h7.9V892.1z M1206.5,897.7h-3.3v-3.3h3.3V897.7z"/>
		<rect x="1203.2" y="894.4" width="3.3" height="3.3"/>
		<path fill="#2D2D2D" d="M1198.5,902.4h-7.9v7.9h7.9V902.4z M1196.3,908h-3.3v-3.3h3.3V908z"/>
		<rect x="1192.9" y="904.7" width="3.3" height="3.3"/>
		<path fill="#2D2D2D" d="M1208.8,902.4h-7.9v7.9h7.9V902.4z M1206.5,908h-3.3v-3.3h3.3V908z"/>
		<rect x="1203.2" y="904.7" width="3.3" height="3.3"/>
		<path fill="#2D2D2D" d="M1198.6,912.7h-7.9v7.9h7.9V912.7z M1196.3,918.3h-3.3V915h3.3V918.3z"/>
		<rect x="1193" y="915" width="3.3" height="3.3"/>
		<path fill="#2D2D2D" d="M1208.8,912.7h-7.9v7.9h7.9V912.7z M1206.6,918.3h-3.3V915h3.3V918.3z"/>
		<rect x="1203.3" y="915" width="3.3" height="3.3"/>
		<path fill="#2D2D2D" d="M1198.6,923h-7.9v7.9h7.9V923z M1196.3,928.6h-3.3v-3.3h3.3V928.6z"/>
		<rect x="1193" y="925.2" width="3.3" height="3.3"/>
		<path fill="#2D2D2D" d="M1208.9,923h-7.9v7.9h7.9V923z M1206.6,928.6h-3.3v-3.3h3.3V928.6z"/>
		<rect x="1203.3" y="925.2" width="3.3" height="3.3"/>
		<path fill="#2D2D2D" d="M1198.6,933.3h-7.9v7.9h7.9V933.3z M1196.4,938.9h-3.3v-3.3h3.3V938.9z"/>
		<rect x="1193.1" y="935.5" width="3.3" height="3.3"/>
		<path fill="#2D2D2D" d="M1208.9,933.3h-7.9v7.9h7.9V933.3z M1206.7,938.9h-3.3v-3.3h3.3V938.9z"/>
		<rect x="1203.3" y="935.5" width="3.3" height="3.3"/>
		<path fill="#2D2D2D" d="M1198.7,943.5h-7.9v7.9h7.9V943.5z M1196.4,949.1h-3.3v-3.3h3.3V949.1z"/>
		<rect x="1193.1" y="945.8" width="3.3" height="3.3"/>
		<path fill="#2D2D2D" d="M1209,943.5h-7.9v7.9h7.9V943.5z M1206.7,949.1h-3.3v-3.3h3.3V949.1z"/>
		<rect x="1203.4" y="945.8" width="3.3" height="3.3"/>
		<path fill="#2D2D2D" d="M1198.7,953.8h-7.9v7.9h7.9V953.8z M1196.5,959.4h-3.3v-3.3h3.3V959.4z"/>
		<rect x="1193.1" y="956.1" width="3.3" height="3.3"/>
		<path fill="#2D2D2D" d="M1209,953.8h-7.9v7.9h7.9V953.8z M1206.7,959.4h-3.3v-3.3h3.3V959.4z"/>
		<rect x="1203.4" y="956.1" width="3.3" height="3.3"/>
		<path fill="#2D2D2D" d="M1198.8,964.1h-7.9v7.9h7.9V964.1z M1196.5,969.7h-3.3v-3.3h3.3V969.7z"/>
		<rect x="1193.2" y="966.4" width="3.3" height="3.3"/>
		<path fill="#2D2D2D" d="M1209,964.1h-7.9v7.9h7.9V964.1z M1206.8,969.7h-3.3v-3.3h3.3V969.7z"/>
		<rect x="1203.4" y="966.4" width="3.3" height="3.3"/>
		<path fill="#2D2D2D" d="M1190.9,982.3h7.9v-7.9h-7.9V982.3z M1193.2,976.6h3.3v3.3h-3.3V976.6z"/>
		<rect x="1193.2" y="976.6" width="3.3" height="3.3"/>
		<path fill="#2D2D2D" d="M1201.2,982.3h7.9v-7.9h-7.9V982.3z M1203.5,976.6h3.3v3.3h-3.3V976.6z"/>
		<rect x="1203.5" y="976.6" width="3.3" height="3.3"/>
	</g>
	<g>
		<path fill="#3A3A3A" d="M1068,776.8v207.6h23V776.8H1068z M1070.3,779.1h7.9v7.9h-7.9V779.1z M1070.4,789.3h7.9v7.9h-7.9V789.3z
			 M1070.4,799.6h7.9v7.9h-7.9V799.6z M1070.5,809.9h7.9v7.9h-7.9V809.9z M1070.5,820.2h7.9v7.9h-7.9V820.2z M1070.5,830.5h7.9v7.9
			h-7.9V830.5z M1070.6,840.7h7.9v7.9h-7.9V840.7z M1070.6,851h7.9v7.9h-7.9V851z M1070.7,861.3h7.9v7.9h-7.9V861.3z M1070.7,871.6
			h7.9v7.9h-7.9V871.6z M1070.7,881.9h7.9v7.9h-7.9V881.9z M1070.8,892.1h7.9v7.9h-7.9V892.1z M1070.8,902.4h7.9v7.9h-7.9V902.4z
			 M1070.8,912.7h7.9v7.9h-7.9V912.7z M1070.9,923h7.9v7.9h-7.9V923z M1070.9,933.3h7.9v7.9h-7.9V933.3z M1071,943.5h7.9v7.9h-7.9
			V943.5z M1071,953.8h7.9v7.9h-7.9V953.8z M1071,964.1h7.9v7.9h-7.9V964.1z M1079,982.3h-7.9v-7.9h7.9V982.3z M1080.6,779.1h7.9
			v7.9h-7.9V779.1z M1080.7,789.3h7.9v7.9h-7.9V789.3z M1080.7,799.6h7.9v7.9h-7.9V799.6z M1080.7,809.9h7.9v7.9h-7.9V809.9z
			 M1080.8,820.2h7.9v7.9h-7.9V820.2z M1080.8,830.5h7.9v7.9h-7.9V830.5z M1080.9,840.7h7.9v7.9h-7.9V840.7z M1080.9,851h7.9v7.9
			h-7.9V851z M1080.9,861.3h7.9v7.9h-7.9V861.3z M1081,871.6h7.9v7.9h-7.9V871.6z M1081,881.9h7.9v7.9h-7.9V881.9z M1081,892.1h7.9
			v7.9h-7.9V892.1z M1081.1,902.4h7.9v7.9h-7.9V902.4z M1081.1,912.7h7.9v7.9h-7.9V912.7z M1081.2,923h7.9v7.9h-7.9V923z
			 M1081.2,933.3h7.9v7.9h-7.9V933.3z M1081.2,943.5h7.9v7.9h-7.9V943.5z M1081.3,953.8h7.9v7.9h-7.9V953.8z M1081.3,964.1h7.9v7.9
			h-7.9V964.1z M1089.3,982.3h-7.9v-7.9h7.9V982.3z"/>
		<path fill="#2D2D2D" d="M1078.3,779.1h-7.9v7.9h7.9V779.1z M1076,784.6h-3.3v-3.3h3.3V784.6z"/>
		<rect x="1072.7" y="781.3" width="3.3" height="3.3"/>
		<path fill="#2D2D2D" d="M1088.5,779.1h-7.9v7.9h7.9V779.1z M1086.3,784.6h-3.3v-3.3h3.3V784.6z"/>
		<rect x="1083" y="781.3" width="3.3" height="3.3"/>
		<path fill="#2D2D2D" d="M1078.3,789.3h-7.9v7.9h7.9V789.3z M1076,794.9h-3.3v-3.3h3.3V794.9z"/>
		<rect x="1072.7" y="791.6" width="3.3" height="3.3"/>
		<path fill="#2D2D2D" d="M1088.6,789.3h-7.9v7.9h7.9V789.3z M1086.3,794.9h-3.3v-3.3h3.3V794.9z"/>
		<rect x="1083" y="791.6" width="3.3" height="3.3"/>
		<path fill="#2D2D2D" d="M1078.3,799.6h-7.9v7.9h7.9V799.6z M1076.1,805.2h-3.3v-3.3h3.3V805.2z"/>
		<rect x="1072.8" y="801.9" width="3.3" height="3.3"/>
		<path fill="#2D2D2D" d="M1088.6,799.6h-7.9v7.9h7.9V799.6z M1086.4,805.2h-3.3v-3.3h3.3V805.2z"/>
		<rect x="1083" y="801.9" width="3.3" height="3.3"/>
		<path fill="#2D2D2D" d="M1078.4,809.9h-7.9v7.9h7.9V809.9z M1076.1,815.5h-3.3v-3.3h3.3V815.5z"/>
		<rect x="1072.8" y="812.2" width="3.3" height="3.3"/>
		<path fill="#2D2D2D" d="M1088.7,809.9h-7.9v7.9h7.9V809.9z M1086.4,815.5h-3.3v-3.3h3.3V815.5z"/>
		<rect x="1083.1" y="812.2" width="3.3" height="3.3"/>
		<path fill="#2D2D2D" d="M1078.4,820.2h-7.9v7.9h7.9V820.2z M1076.2,825.8h-3.3v-3.3h3.3V825.8z"/>
		<rect x="1072.8" y="822.4" width="3.3" height="3.3"/>
		<path fill="#2D2D2D" d="M1088.7,820.2h-7.9v7.9h7.9V820.2z M1086.4,825.8h-3.3v-3.3h3.3V825.8z"/>
		<rect x="1083.1" y="822.4" width="3.3" height="3.3"/>
		<path fill="#2D2D2D" d="M1078.5,830.5h-7.9v7.9h7.9V830.5z M1076.2,836.1h-3.3v-3.3h3.3V836.1z"/>
		<rect x="1072.9" y="832.7" width="3.3" height="3.3"/>
		<path fill="#2D2D2D" d="M1088.7,830.5h-7.9v7.9h7.9V830.5z M1086.5,836.1h-3.3v-3.3h3.3V836.1z"/>
		<rect x="1083.1" y="832.7" width="3.3" height="3.3"/>
		<path fill="#2D2D2D" d="M1078.5,840.7h-7.9v7.9h7.9V840.7z M1076.2,846.3h-3.3V843h3.3V846.3z"/>
		<rect x="1072.9" y="843" width="3.3" height="3.3"/>
		<path fill="#2D2D2D" d="M1088.8,840.7h-7.9v7.9h7.9V840.7z M1086.5,846.3h-3.3V843h3.3V846.3z"/>
		<rect x="1083.2" y="843" width="3.3" height="3.3"/>
		<path fill="#2D2D2D" d="M1078.5,851h-7.9v7.9h7.9V851z M1076.3,856.6h-3.3v-3.3h3.3V856.6z"/>
		<rect x="1072.9" y="853.3" width="3.3" height="3.3"/>
		<path fill="#2D2D2D" d="M1088.8,851h-7.9v7.9h7.9V851z M1086.6,856.6h-3.3v-3.3h3.3V856.6z"/>
		<rect x="1083.2" y="853.3" width="3.3" height="3.3"/>
		<path fill="#2D2D2D" d="M1078.6,861.3h-7.9v7.9h7.9V861.3z M1076.3,866.9h-3.3v-3.3h3.3V866.9z"/>
		<rect x="1073" y="863.6" width="3.3" height="3.3"/>
		<path fill="#2D2D2D" d="M1088.9,861.3h-7.9v7.9h7.9V861.3z M1086.6,866.9h-3.3v-3.3h3.3V866.9z"/>
		<rect x="1083.3" y="863.6" width="3.3" height="3.3"/>
		<path fill="#2D2D2D" d="M1078.6,871.6h-7.9v7.9h7.9V871.6z M1076.4,877.2h-3.3v-3.3h3.3V877.2z"/>
		<rect x="1073" y="873.8" width="3.3" height="3.3"/>
		<path fill="#2D2D2D" d="M1088.9,871.6h-7.9v7.9h7.9V871.6z M1086.6,877.2h-3.3v-3.3h3.3V877.2z"/>
		<rect x="1083.3" y="873.8" width="3.3" height="3.3"/>
		<path fill="#2D2D2D" d="M1078.6,881.9h-7.9v7.9h7.9V881.9z M1076.4,887.5h-3.3v-3.3h3.3V887.5z"/>
		<rect x="1073.1" y="884.1" width="3.3" height="3.3"/>
		<path fill="#2D2D2D" d="M1088.9,881.9h-7.9v7.9h7.9V881.9z M1086.7,887.5h-3.3v-3.3h3.3V887.5z"/>
		<rect x="1083.3" y="884.1" width="3.3" height="3.3"/>
		<path fill="#2D2D2D" d="M1078.7,892.1h-7.9v7.9h7.9V892.1z M1076.4,897.7h-3.3v-3.3h3.3V897.7z"/>
		<rect x="1073.1" y="894.4" width="3.3" height="3.3"/>
		<path fill="#2D2D2D" d="M1089,892.1h-7.9v7.9h7.9V892.1z M1086.7,897.7h-3.3v-3.3h3.3V897.7z"/>
		<rect x="1083.4" y="894.4" width="3.3" height="3.3"/>
		<path fill="#2D2D2D" d="M1078.7,902.4h-7.9v7.9h7.9V902.4z M1076.5,908h-3.3v-3.3h3.3V908z"/>
		<rect x="1073.1" y="904.7" width="3.3" height="3.3"/>
		<path fill="#2D2D2D" d="M1089,902.4h-7.9v7.9h7.9V902.4z M1086.8,908h-3.3v-3.3h3.3V908z"/>
		<rect x="1083.4" y="904.7" width="3.3" height="3.3"/>
		<path fill="#2D2D2D" d="M1078.8,912.7h-7.9v7.9h7.9V912.7z M1076.5,918.3h-3.3V915h3.3V918.3z"/>
		<rect x="1073.2" y="915" width="3.3" height="3.3"/>
		<path fill="#2D2D2D" d="M1089,912.7h-7.9v7.9h7.9V912.7z M1086.8,918.3h-3.3V915h3.3V918.3z"/>
		<rect x="1083.5" y="915" width="3.3" height="3.3"/>
		<path fill="#2D2D2D" d="M1078.8,923h-7.9v7.9h7.9V923z M1076.5,928.6h-3.3v-3.3h3.3V928.6z"/>
		<rect x="1073.2" y="925.2" width="3.3" height="3.3"/>
		<path fill="#2D2D2D" d="M1089.1,923h-7.9v7.9h7.9V923z M1086.8,928.6h-3.3v-3.3h3.3V928.6z"/>
		<rect x="1083.5" y="925.2" width="3.3" height="3.3"/>
		<path fill="#2D2D2D" d="M1078.8,933.3h-7.9v7.9h7.9V933.3z M1076.6,938.9h-3.3v-3.3h3.3V938.9z"/>
		<rect x="1073.3" y="935.5" width="3.3" height="3.3"/>
		<path fill="#2D2D2D" d="M1089.1,933.3h-7.9v7.9h7.9V933.3z M1086.9,938.9h-3.3v-3.3h3.3V938.9z"/>
		<rect x="1083.5" y="935.5" width="3.3" height="3.3"/>
		<path fill="#2D2D2D" d="M1078.9,943.5h-7.9v7.9h7.9V943.5z M1076.6,949.1h-3.3v-3.3h3.3V949.1z"/>
		<rect x="1073.3" y="945.8" width="3.3" height="3.3"/>
		<path fill="#2D2D2D" d="M1089.2,943.5h-7.9v7.9h7.9V943.5z M1086.9,949.1h-3.3v-3.3h3.3V949.1z"/>
		<rect x="1083.6" y="945.8" width="3.3" height="3.3"/>
		<path fill="#2D2D2D" d="M1078.9,953.8h-7.9v7.9h7.9V953.8z M1076.7,959.4h-3.3v-3.3h3.3V959.4z"/>
		<rect x="1073.3" y="956.1" width="3.3" height="3.3"/>
		<path fill="#2D2D2D" d="M1089.2,953.8h-7.9v7.9h7.9V953.8z M1086.9,959.4h-3.3v-3.3h3.3V959.4z"/>
		<rect x="1083.6" y="956.1" width="3.3" height="3.3"/>
		<path fill="#2D2D2D" d="M1079,964.1h-7.9v7.9h7.9V964.1z M1076.7,969.7h-3.3v-3.3h3.3V969.7z"/>
		<rect x="1073.4" y="966.4" width="3.3" height="3.3"/>
		<path fill="#2D2D2D" d="M1089.2,964.1h-7.9v7.9h7.9V964.1z M1087,969.7h-3.3v-3.3h3.3V969.7z"/>
		<rect x="1083.6" y="966.4" width="3.3" height="3.3"/>
		<path fill="#2D2D2D" d="M1071.1,982.3h7.9v-7.9h-7.9V982.3z M1073.4,976.6h3.3v3.3h-3.3V976.6z"/>
		<rect x="1073.4" y="976.6" width="3.3" height="3.3"/>
		<path fill="#2D2D2D" d="M1081.4,982.3h7.9v-7.9h-7.9V982.3z M1083.7,976.6h3.3v3.3h-3.3V976.6z"/>
		<rect x="1083.7" y="976.6" width="3.3" height="3.3"/>
	</g>
	<g>
		<circle fill="none" stroke="#EDD016" stroke-width="3" stroke-miterlimit="10" cx="947" cy="716.9" r="2.5"/>
		<circle fill="none" stroke="#EDD016" stroke-width="3" stroke-miterlimit="10" cx="956.8" cy="716.9" r="2.5"/>
		<circle fill="none" stroke="#EDD016" stroke-width="3" stroke-miterlimit="10" cx="956.8" cy="726.9" r="2.5"/>
		<circle fill="none" stroke="#EDD016" stroke-width="3" stroke-miterlimit="10" cx="966.6" cy="716.8" r="2.5"/>
		<circle fill="none" stroke="#EDD016" stroke-width="3" stroke-miterlimit="10" cx="966.6" cy="726.8" r="2.5"/>
		<circle fill="none" stroke="#EDD016" stroke-width="3" stroke-miterlimit="10" cx="976.4" cy="716.8" r="2.5"/>
		<circle fill="none" stroke="#EDD016" stroke-width="3" stroke-miterlimit="10" cx="976.4" cy="726.8" r="2.5"/>
		<circle fill="none" stroke="#EDD016" stroke-width="3" stroke-miterlimit="10" cx="986.2" cy="716.8" r="2.5"/>
		<circle fill="none" stroke="#EDD016" stroke-width="3" stroke-miterlimit="10" cx="986.2" cy="726.8" r="2.5"/>
		<circle fill="none" stroke="#EDD016" stroke-width="3" stroke-miterlimit="10" cx="996" cy="716.8" r="2.5"/>
		<circle fill="none" stroke="#EDD016" stroke-width="3" stroke-miterlimit="10" cx="996" cy="726.8" r="2.5"/>
		<circle fill="none" stroke="#EDD016" stroke-width="3" stroke-miterlimit="10" cx="1005.7" cy="716.8" r="2.5"/>
		<circle fill="none" stroke="#EDD016" stroke-width="3" stroke-miterlimit="10" cx="1005.7" cy="726.7" r="2.5"/>
		<circle fill="none" stroke="#EDD016" stroke-width="3" stroke-miterlimit="10" cx="1015.5" cy="716.8" r="2.5"/>
		<circle fill="none" stroke="#EDD016" stroke-width="3" stroke-miterlimit="10" cx="1015.5" cy="726.7" r="2.5"/>
		<circle fill="none" stroke="#EDD016" stroke-width="3" stroke-miterlimit="10" cx="1025.3" cy="716.8" r="2.5"/>
		<circle fill="none" stroke="#EDD016" stroke-width="3" stroke-miterlimit="10" cx="1025.3" cy="726.7" r="2.5"/>
		<circle fill="none" stroke="#EDD016" stroke-width="3" stroke-miterlimit="10" cx="1035.1" cy="716.8" r="2.5"/>
		<circle fill="none" stroke="#EDD016" stroke-width="3" stroke-miterlimit="10" cx="1035.1" cy="726.7" r="2.5"/>
		<circle fill="none" stroke="#EDD016" stroke-width="3" stroke-miterlimit="10" cx="1044.9" cy="716.7" r="2.5"/>
		<circle fill="none" stroke="#EDD016" stroke-width="3" stroke-miterlimit="10" cx="1044.9" cy="726.7" r="2.5"/>
		<circle fill="none" stroke="#EDD016" stroke-width="3" stroke-miterlimit="10" cx="1054.7" cy="716.7" r="2.5"/>
		<circle fill="none" stroke="#EDD016" stroke-width="3" stroke-miterlimit="10" cx="1054.7" cy="726.7" r="2.5"/>
		<circle fill="none" stroke="#EDD016" stroke-width="3" stroke-miterlimit="10" cx="1064.5" cy="716.7" r="2.5"/>
		<circle fill="none" stroke="#EDD016" stroke-width="3" stroke-miterlimit="10" cx="1064.5" cy="726.7" r="2.5"/>
		<circle fill="none" stroke="#EDD016" stroke-width="3" stroke-miterlimit="10" cx="1074.3" cy="716.7" r="2.5"/>
		<circle fill="none" stroke="#EDD016" stroke-width="3" stroke-miterlimit="10" cx="1074.3" cy="726.7" r="2.5"/>
		<circle fill="none" stroke="#EDD016" stroke-width="3" stroke-miterlimit="10" cx="1084.1" cy="716.7" r="2.5"/>
		<circle fill="none" stroke="#EDD016" stroke-width="3" stroke-miterlimit="10" cx="1084.1" cy="726.6" r="2.5"/>
		<circle fill="none" stroke="#EDD016" stroke-width="3" stroke-miterlimit="10" cx="1093.9" cy="716.7" r="2.5"/>
		<circle fill="none" stroke="#EDD016" stroke-width="3" stroke-miterlimit="10" cx="1093.9" cy="726.6" r="2.5"/>
		<circle fill="none" stroke="#EDD016" stroke-width="3" stroke-miterlimit="10" cx="1103.7" cy="716.6" r="2.5"/>
		<circle fill="none" stroke="#EDD016" stroke-width="3" stroke-miterlimit="10" cx="1103.7" cy="726.6" r="2.5"/>
		<circle fill="none" stroke="#EDD016" stroke-width="3" stroke-miterlimit="10" cx="1113.5" cy="716.6" r="2.5"/>
		<circle fill="none" stroke="#EDD016" stroke-width="3" stroke-miterlimit="10" cx="1113.5" cy="726.6" r="2.5"/>
		<circle fill="none" stroke="#EDD016" stroke-width="3" stroke-miterlimit="10" cx="1123.3" cy="716.6" r="2.5"/>
		<circle fill="none" stroke="#EDD016" stroke-width="3" stroke-miterlimit="10" cx="1123.3" cy="726.6" r="2.5"/>
		<circle fill="none" stroke="#EDD016" stroke-width="3" stroke-miterlimit="10" cx="1133.1" cy="716.6" r="2.5"/>
		<circle fill="none" stroke="#EDD016" stroke-width="3" stroke-miterlimit="10" cx="1133.1" cy="726.6" r="2.5"/>
		<path fill="none" stroke="#EDD016" stroke-width="3" stroke-miterlimit="10" d="M947,724.3c-1.4,0-2.5,1.1-2.5,2.5
			c0,1.4,1.1,2.5,2.5,2.5c1.2,0,2.2-0.9,2.5-2v-1C949.2,725.2,948.2,724.3,947,724.3z"/>
		<rect x="944.4" y="724.2" fill="none" stroke="#EDD016" stroke-width="3" stroke-miterlimit="10" width="5.1" height="5.2"/>
	</g>
	<g>
		<path fill="#333333" d="M941.2,676.5h-7.7c-0.3,0-0.6,0.3-0.6,0.6v20c0,0.3,0.3,0.6,0.6,0.6h7.7c0.3,0,0.6-0.3,0.6-0.6v-20
			C941.8,676.8,941.5,676.5,941.2,676.5z M937.3,693.6c-0.6,0-1.2-0.5-1.2-1.2c0-0.6,0.5-1.2,1.2-1.2c0.6,0,1.2,0.5,1.2,1.2
			C938.5,693.1,938,693.6,937.3,693.6z M937.3,683c-0.6,0-1.2-0.5-1.2-1.2c0-0.6,0.5-1.2,1.2-1.2c0.6,0,1.2,0.5,1.2,1.2
			C938.5,682.5,938,683,937.3,683z"/>
		<circle fill="#EDD016" cx="937.3" cy="692.4" r="1.2"/>
		<circle fill="#EDD016" cx="937.3" cy="681.8" r="1.2"/>
	</g>
	<g>
		<path fill="#333333" d="M1080.1,634.2h-20c-0.3,0-0.6,0.3-0.6,0.6v7.7c0,0.3,0.3,0.6,0.6,0.6h20c0.3,0,0.6-0.3,0.6-0.6v-7.7
			C1080.7,634.4,1080.4,634.2,1080.1,634.2z M1064.8,639.8c-0.6,0-1.2-0.5-1.2-1.2c0-0.6,0.5-1.2,1.2-1.2c0.6,0,1.2,0.5,1.2,1.2
			C1066,639.2,1065.4,639.8,1064.8,639.8z M1075.4,639.8c-0.6,0-1.2-0.5-1.2-1.2s0.5-1.2,1.2-1.2c0.6,0,1.2,0.5,1.2,1.2
			S1076,639.8,1075.4,639.8z"/>
		<circle fill="#EDD016" cx="1075.4" cy="638.6" r="1.2"/>
		<circle fill="#EDD016" cx="1064.8" cy="638.6" r="1.2"/>
	</g>
	<g>
		<path fill="#333333" d="M1126.2,662h-30.6c-0.3,0-0.6,0.3-0.6,0.6v7.7c0,0.3,0.3,0.6,0.6,0.6h30.6c0.3,0,0.6-0.3,0.6-0.6v-7.7
			C1126.8,662.3,1126.6,662,1126.2,662z M1100.3,667.6c-0.6,0-1.2-0.5-1.2-1.2c0-0.6,0.5-1.2,1.2-1.2c0.6,0,1.2,0.5,1.2,1.2
			C1101.5,667.1,1101,667.6,1100.3,667.6z M1110.9,667.6c-0.6,0-1.2-0.5-1.2-1.2c0-0.6,0.5-1.2,1.2-1.2c0.6,0,1.2,0.5,1.2,1.2
			C1112.1,667.1,1111.6,667.6,1110.9,667.6z M1121.5,667.9c-0.6,0-1.2-0.5-1.2-1.2c0-0.6,0.5-1.2,1.2-1.2s1.2,0.5,1.2,1.2
			C1122.7,667.4,1122.2,667.9,1121.5,667.9z"/>
		<circle fill="#EDD016" cx="1110.9" cy="666.4" r="1.2"/>
		<circle fill="#EDD016" cx="1100.3" cy="666.4" r="1.2"/>
		<circle fill="#EDD016" cx="1121.5" cy="666.8" r="1.2"/>
	</g>
	<g>
		<path fill="#333333" d="M1126.2,649.7h-30.6c-0.3,0-0.6,0.3-0.6,0.6v7.7c0,0.3,0.3,0.6,0.6,0.6h30.6c0.3,0,0.6-0.3,0.6-0.6v-7.7
			C1126.8,650,1126.6,649.7,1126.2,649.7z M1100.3,655.3c-0.6,0-1.2-0.5-1.2-1.2c0-0.6,0.5-1.2,1.2-1.2c0.6,0,1.2,0.5,1.2,1.2
			C1101.5,654.8,1101,655.3,1100.3,655.3z M1110.9,655.3c-0.6,0-1.2-0.5-1.2-1.2c0-0.6,0.5-1.2,1.2-1.2s1.2,0.5,1.2,1.2
			C1112.1,654.8,1111.6,655.3,1110.9,655.3z M1121.5,655.6c-0.6,0-1.2-0.5-1.2-1.2c0-0.6,0.5-1.2,1.2-1.2s1.2,0.5,1.2,1.2
			C1122.7,655.1,1122.2,655.6,1121.5,655.6z"/>
		<circle fill="#EDD016" cx="1110.9" cy="654.1" r="1.2"/>
		<circle fill="#EDD016" cx="1100.3" cy="654.1" r="1.2"/>
		<circle fill="#EDD016" cx="1121.5" cy="654.5" r="1.2"/>
	</g>
	<g>
		<path fill="#333333" d="M1126.2,637.4h-30.6c-0.3,0-0.6,0.3-0.6,0.6v7.7c0,0.3,0.3,0.6,0.6,0.6h30.6c0.3,0,0.6-0.3,0.6-0.6v-7.7
			C1126.8,637.7,1126.6,637.4,1126.2,637.4z M1100.3,643c-0.6,0-1.2-0.5-1.2-1.2c0-0.6,0.5-1.2,1.2-1.2c0.6,0,1.2,0.5,1.2,1.2
			C1101.5,642.5,1101,643,1100.3,643z M1110.9,643c-0.6,0-1.2-0.5-1.2-1.2c0-0.6,0.5-1.2,1.2-1.2s1.2,0.5,1.2,1.2
			C1112.1,642.5,1111.6,643,1110.9,643z M1121.5,643.4c-0.6,0-1.2-0.5-1.2-1.2c0-0.6,0.5-1.2,1.2-1.2c0.6,0,1.2,0.5,1.2,1.2
			C1122.7,642.9,1122.2,643.4,1121.5,643.4z"/>
		<circle fill="#EDD016" cx="1110.9" cy="641.9" r="1.2"/>
		<circle fill="#EDD016" cx="1100.3" cy="641.9" r="1.2"/>
		<circle fill="#EDD016" cx="1121.5" cy="642.2" r="1.2"/>
	</g>
	<g>
		<rect x="1042.9" y="670.9" fill="#BFBEBE" width="4.5" height="4.1"/>
		<rect x="1042.9" y="674.9" fill="#E6E6E5" width="4.5" height="1.7"/>
		<rect x="1042.9" y="676.6" fill="#C87929" width="4.5" height="3.9"/>
		<rect x="1042.9" y="682.3" fill="#BFBEBE" width="4.5" height="4.1"/>
		<rect x="1042.9" y="680.6" fill="#E6E6E5" width="4.5" height="1.7"/>
	</g>
	<g>
		<polygon fill="#282827" points="1005.1,642 1005.1,647.1 1005.1,647.1 1010.6,647.1 1010.6,642 1005.1,642 		"/>
		<rect x="1012" y="642" fill="#BFBEBE" width="4.1" height="5"/>
		<polygon fill="#E6E6E5" points="1012,642 1010.6,642 1010.6,647 1012,647 1012,642 		"/>
		<rect x="999.6" y="642" fill="#BFBEBE" width="4.1" height="5"/>
		<polygon fill="#E6E6E5" points="1003.7,642 1003.7,642 1003.7,647.1 1005.1,647.1 1005.1,642 		"/>
	</g>
	<g>
		<polygon fill="#282827" points="956.1,762.8 961.2,762.8 961.2,762.8 961.2,757.3 956.1,757.3 956.1,762.8 		"/>
		<rect x="956.1" y="751.8" fill="#BFBEBE" width="5" height="4.1"/>
		<polygon fill="#E6E6E5" points="956.1,755.9 956.1,757.3 961.2,757.3 961.2,755.9 956.1,755.9 		"/>
		<rect x="956.1" y="764.2" fill="#BFBEBE" width="5" height="4.1"/>
		<polygon fill="#E6E6E5" points="956.1,764.2 956.1,764.2 961.2,764.2 961.2,762.8 956.1,762.8 		"/>
	</g>
	<g>
		<polygon fill="#282827" points="1013,762.8 1018.1,762.8 1018.1,762.8 1018.1,757.3 1013,757.3 1013,762.8 		"/>
		<rect x="1013" y="751.8" fill="#BFBEBE" width="5" height="4.1"/>
		<polygon fill="#E6E6E5" points="1013,755.9 1013,757.3 1018.1,757.3 1018.1,755.9 1013,755.9 		"/>
		<rect x="1013" y="764.2" fill="#BFBEBE" width="5" height="4.1"/>
		<polygon fill="#E6E6E5" points="1013,764.2 1013,764.2 1018.1,764.2 1018.1,762.8 1013,762.8 		"/>
	</g>
	<g>
		<polygon fill="#282827" points="958.5,891.6 963.5,891.6 963.6,891.6 963.6,886 958.5,886 958.5,891.6 		"/>
		<rect x="958.5" y="880.6" fill="#BFBEBE" width="5" height="4.1"/>
		<polygon fill="#E6E6E5" points="958.5,884.6 958.5,886 963.5,886 963.5,884.6 958.5,884.6 		"/>
		<rect x="958.5" y="893" fill="#BFBEBE" width="5" height="4.1"/>
		<polygon fill="#E6E6E5" points="958.5,893 958.5,893 963.5,893 963.5,891.6 958.5,891.6 		"/>
	</g>
	<g>
		<polygon fill="#282827" points="1014.5,891 1019.5,891 1019.6,891 1019.6,885.4 1014.5,885.4 1014.5,891 		"/>
		<rect x="1014.5" y="880" fill="#BFBEBE" width="5" height="4.1"/>
		<polygon fill="#E6E6E5" points="1014.5,884 1014.5,885.4 1019.5,885.4 1019.5,884 1014.5,884 		"/>
		<rect x="1014.5" y="892.4" fill="#BFBEBE" width="5" height="4.1"/>
		<polygon fill="#E6E6E5" points="1014.5,892.4 1014.5,892.4 1019.5,892.4 1019.5,891 1014.5,891 		"/>
	</g>
	<g>
		<path opacity="0.8" fill="#FFFFFF" d="M1030.2,642h-4v0v5.1v0h4V642L1030.2,642z M1029.5,646.2h-2.6v-3.3h2.6V646.2z"/>
		<polygon fill="#BFBEBE" points="1030.2,642 1030.2,647.1 1030.2,647.1 1032,647.1 1032,642 		"/>
		<rect x="1026.9" y="642.9" fill="#E7D421" width="2.6" height="3.3"/>
		<rect x="1024.4" y="642" fill="#BFBEBE" width="1.8" height="5.1"/>
	</g>
	<g>
		<path opacity="0.8" fill="#FFFFFF" d="M964.5,756.2v4h0h5.1h0v-4H964.5L964.5,756.2z M968.7,756.9v2.6h-3.3v-2.6H968.7z"/>
		<polygon fill="#BFBEBE" points="964.5,756.2 969.6,756.2 969.6,756.2 969.6,754.4 964.5,754.4 		"/>
		<rect x="965.4" y="756.9" fill="#E7D421" width="3.3" height="2.6"/>
		<rect x="964.5" y="760.2" fill="#BFBEBE" width="5.1" height="1.8"/>
	</g>
	<g>
		<path opacity="0.8" fill="#FFFFFF" d="M1022.8,757.5v4h0h5.1h0v-4H1022.8L1022.8,757.5z M1026.9,758.2v2.6h-3.3v-2.6H1026.9z"/>
		<polygon fill="#BFBEBE" points="1022.8,757.5 1027.9,757.5 1027.9,757.5 1027.9,755.7 1022.8,755.7 		"/>
		<rect x="1023.7" y="758.2" fill="#E7D421" width="3.3" height="2.6"/>
		<rect x="1022.8" y="761.5" fill="#BFBEBE" width="5.1" height="1.8"/>
	</g>
	<g>
		<path opacity="0.8" fill="#FFFFFF" d="M973.7,892.4v4h0h5.1h0v-4H973.7L973.7,892.4z M977.9,893.1v2.6h-3.3v-2.6H977.9z"/>
		<polygon fill="#BFBEBE" points="973.7,892.4 978.8,892.4 978.9,892.4 978.9,890.6 973.7,890.6 		"/>
		<rect x="974.6" y="893.1" fill="#E7D421" width="3.3" height="2.6"/>
		<rect x="973.8" y="896.4" fill="#BFBEBE" width="5.1" height="1.8"/>
	</g>
	<g>
		<path opacity="0.8" fill="#FFFFFF" d="M1036.3,885.7v-5.1h-4v0v5.1v0L1036.3,885.7L1036.3,885.7z M1035.6,884.8h-2.6v-3.3h2.6
			V884.8z"/>
		<polygon fill="#BFBEBE" points="1036.3,885.7 1036.3,880.6 1036.3,880.6 1038.2,880.6 1038.2,885.7 		"/>
		<rect x="1033" y="881.5" fill="#E7D421" width="2.6" height="3.3"/>
		<rect x="1030.5" y="880.6" fill="#BFBEBE" width="1.8" height="5.1"/>
	</g>
	<g>
		<polygon fill="#F5EA14" points="1006.7,687.2 1006.7,688.1 1006.7,695.7 1006.7,696.6 1016.5,696.6 1016.5,687.2 		"/>
		<rect x="1018.5" y="688.1" fill="#BFBEBE" width="3.9" height="7.5"/>
		<polygon fill="#E4B322" points="1018.5,687.2 1016.5,687.2 1016.5,696.6 1018.5,696.6 1018.5,695.7 1018.5,688.1 		"/>
		<rect x="1002.8" y="688.1" fill="#BFBEBE" width="3.9" height="7.5"/>
	</g>
	<g>
		<polygon fill="#F5EA14" points="1139.4,676.8 1140.4,676.8 1147.9,676.8 1148.8,676.8 1148.8,686.6 1139.4,686.6 		"/>
		<rect x="1140.4" y="688.7" fill="#BFBEBE" width="7.5" height="3.9"/>
		<polygon fill="#E4B322" points="1139.4,688.7 1139.4,686.6 1148.8,686.6 1148.8,688.7 1147.9,688.7 1140.4,688.7 		"/>
		<rect x="1140.4" y="672.9" fill="#BFBEBE" width="7.5" height="3.9"/>
	</g>
	<g>
		<rect x="1054.4" y="678.3" fill="#233F93" width="5.6" height="12.6"/>
		<polygon fill="#80BEBD" points="1060.6,678.3 1060.6,677 1060.1,677 1054.4,677 1053.9,677 1053.9,678.3 1054.4,678.3 
			1060.1,678.3 		"/>
		<polygon fill="#80BEBD" points="1053.9,690.9 1053.9,692.1 1054.4,692.1 1060.1,692.1 1060.6,692.1 1060.6,690.9 1060.1,690.9 
			1054.4,690.9 		"/>
		<rect x="1054.4" y="673.3" fill="#BFBEBE" width="5.6" height="3.7"/>
		<rect x="1054.4" y="692.1" fill="#BFBEBE" width="5.6" height="3.7"/>
	</g>
	<g>
		<rect x="1181.9" y="685.7" fill="#BFBEBE" width="31.6" height="30.3"/>
		<line fill="none" stroke="#333333" stroke-width="2" stroke-miterlimit="10" x1="1209.8" y1="696.6" x2="1194.3" y2="696.6"/>
		<line fill="none" stroke="#333333" stroke-width="2" stroke-miterlimit="10" x1="1194.3" y1="696.6" x2="1194.3" y2="705"/>
		<line fill="none" stroke="#333333" stroke-width="2" stroke-miterlimit="10" x1="1200.7" y1="696.6" x2="1200.7" y2="705"/>
		<line fill="none" stroke="#333333" stroke-width="2" stroke-miterlimit="10" x1="1194.3" y1="705" x2="1209.8" y2="705"/>
		<line fill="none" stroke="#333333" stroke-width="2" stroke-miterlimit="10" x1="1198.5" y1="707.6" x2="1209.8" y2="707.6"/>
		<line fill="none" stroke="#333333" stroke-width="2" stroke-miterlimit="10" x1="1209.8" y1="707.6" x2="1209.8" y2="713.4"/>
		<line fill="none" stroke="#333333" stroke-width="2" stroke-miterlimit="10" x1="1198.5" y1="713.4" x2="1209.8" y2="713.4"/>
		<line fill="none" stroke="#333333" stroke-width="2" stroke-miterlimit="10" x1="1198.5" y1="687.8" x2="1209.8" y2="687.8"/>
		<line fill="none" stroke="#333333" stroke-width="2" stroke-miterlimit="10" x1="1209.8" y1="687.8" x2="1209.8" y2="693.7"/>
		<line fill="none" stroke="#333333" stroke-width="2" stroke-miterlimit="10" x1="1198.5" y1="693.7" x2="1209.8" y2="693.7"/>
		<rect x="1199" y="715.9" fill="#969494" width="9.8" height="6.1"/>
		<rect x="1177.6" y="715.9" fill="#969494" width="9.8" height="6.1"/>
		<rect x="1199" y="679.6" fill="#969494" width="9.8" height="6.1"/>
		<rect x="1177.6" y="679.6" fill="#969494" width="9.8" height="6.1"/>
		<rect x="1178" y="700.2" fill="#969494" width="3.9" height="1.9"/>
		<rect x="1178" y="697" fill="#969494" width="3.9" height="1.8"/>
		<rect x="1178" y="693.8" fill="#969494" width="3.9" height="1.8"/>
		<rect x="1178" y="703.5" fill="#969494" width="3.9" height="1.8"/>
		<rect x="1178" y="706.7" fill="#969494" width="3.9" height="1.8"/>
	</g>
	<g>
		<polygon fill="#333333" points="987.1,653.9 972.6,653.9 972.6,660.6 972.6,672.8 972.6,679.6 987.1,679.6 987.1,677 987.1,673.9 
			987.1,668.3 987.1,665.3 987.1,658.9 987.1,656 		"/>
		<polygon fill="#BFBEBE" points="997.1,659.4 997.1,655.6 989,655.6 989,656 994,656 994,658.9 989,658.9 989,659.4 		"/>
		<polygon fill="#BFBEBE" points="994,668.3 989,668.3 989,668.7 997.1,668.7 997.1,664.9 989,664.9 989,665.3 994,665.3 		"/>
		<polygon fill="#BFBEBE" points="994.4,677 989,677 989,677.4 997.1,677.4 997.1,673.6 989,673.6 989,673.9 994.4,673.9 		"/>
		<polygon fill="#BFBEBE" points="966.2,660.6 971.3,660.6 971.3,659.4 963.1,659.4 963.1,674.5 971.3,674.5 971.3,672.8 
			966.2,672.8 		"/>
		<polygon fill="#E6F4F7" points="971.3,660.6 966.2,660.6 966.2,672.8 971.3,672.8 972.6,672.8 972.6,660.6 		"/>
		<polygon fill="#E6F4F7" points="994,656 989,656 987.1,656 987.1,658.9 989,658.9 994,658.9 		"/>
		<polygon fill="#E6F4F7" points="989,668.3 994,668.3 994,665.3 989,665.3 987.1,665.3 987.1,668.3 		"/>
		<polygon fill="#E6F4F7" points="989,677 994.4,677 994.4,673.9 989,673.9 987.1,673.9 987.1,677 		"/>
	</g>
	<rect x="1100" y="780.8" fill="#282827" width="78" height="200.3"/>
	<rect x="1105.6" y="780.2" fill="#ADADAD" width="4" height="200.9"/>
	<rect x="1120.4" y="779.9" fill="#086666" width="3.9" height="201.4"/>
	<rect x="1153.8" y="780.6" fill="#086666" width="3.9" height="201.4"/>
	<rect x="1168.6" y="781.1" fill="#ADADAD" width="4" height="200.9"/>
	<path fill="#059EA5" d="M1179.2,747.8h-79.6c-2.4,0-4.3,1.9-4.3,4.3v239.9c0,2.4,1.9,4.3,4.3,4.3h79.6c2.4,0,4.3-1.9,4.3-4.3V752.1
		C1183.5,749.8,1181.6,747.8,1179.2,747.8z M1131.4,981.1H1100v-5.5h31.4V981.1z M1131.4,970.8H1100v-5.5h31.4V970.8z M1131.4,960.6
		H1100V955h31.4V960.6z M1131.4,950.2H1100v-5.5h31.4V950.2z M1131.5,940h-31.4v-5.5h31.4V940z M1131.5,929.6h-31.4v-5.5h31.4V929.6
		z M1131.5,919.4h-31.4v-5.5h31.4V919.4z M1131.5,909.1h-31.4v-5.5h31.4V909.1z M1131.5,898.9h-31.4v-5.5h31.4V898.9z M1131.5,888.5
		h-31.4V883h31.4V888.5z M1131.5,878.3h-31.4v-5.5h31.4V878.3z M1131.5,868h-31.4v-5.5h31.4V868z M1131.5,857.8h-31.4v-5.5h31.4
		V857.8z M1131.5,847.4h-31.4v-5.5h31.4V847.4z M1131.5,837.2h-31.4v-5.5h31.4V837.2z M1131.5,826.8h-31.4v-5.5h31.4V826.8z
		 M1131.5,816.6h-31.4v-5.5h31.4V816.6z M1131.5,806.3h-31.4v-5.5h31.4V806.3z M1131.5,796.1h-31.4v-5.5h31.4V796.1z M1131.5,785.7
		h-31.4v-5.5h31.4V785.7z M1178,981.7h-31.4v-5.5h31.4V981.7z M1178,971.4h-31.4v-5.5h31.4V971.4z M1178,961.2h-31.4v-5.5h31.4
		V961.2z M1178,950.8h-31.4v-5.5h31.4V950.8z M1178,940.6h-31.4v-5.5h31.4V940.6z M1178,930.3h-31.4v-5.5h31.4V930.3z M1178,920.1
		h-31.4v-5.5h31.4V920.1z M1178,909.7h-31.4v-5.5h31.4V909.7z M1178,899.5h-31.4V894h31.4V899.5z M1178,889.1h-31.4v-5.5h31.4V889.1
		z M1178,878.9h-31.4v-5.5h31.4V878.9z M1178,868.6h-31.4V863h31.4V868.6z M1178,858.4h-31.4v-5.5h31.4V858.4z M1178,848h-31.4v-5.5
		h31.4V848z M1178,837.8h-31.4v-5.5h31.4V837.8z M1178,827.4h-31.4v-5.5h31.4V827.4z M1178,817.2h-31.4v-5.5h31.4V817.2z
		 M1178,806.9h-31.4v-5.5h31.4V806.9z M1178,796.7h-31.4v-5.5h31.4V796.7z M1178,786.3h-31.4v-5.5h31.4V786.3z"/>
	<path fill="#077170" d="M1107.6,747.8h-8.5c-1.8,0-3.8,2.1-3.8,4.3v22.5h8.3c2.2,0,3.9-2.5,3.9-4.1L1107.6,747.8z"/>
	<rect x="1099.6" y="732.1" fill="#ADADAD" width="3.8" height="39.6"/>
	<path fill="#059EA5" d="M1101.5,733.2L1101.5,733.2c-3.1,0-5.6-2.5-5.6-5.6v-7.7c0-3.1,2.5-5.6,5.6-5.6l0,0c3.1,0,5.6,2.5,5.6,5.6
		v7.7C1107,730.7,1104.5,733.2,1101.5,733.2z"/>
	<circle fill="#ADADAD" cx="1139" cy="759.3" r="4.9"/>
	<circle fill="#ADADAD" cx="1139" cy="988.8" r="4.9"/>
	<rect x="1135.6" y="841.5" fill="#098380" width="6.8" height="88.7"/>
	<g>
		<polygon fill="#FFFFFF" points="954.1,779.9 954.1,772.5 948.2,772.5 939.8,772.5 936.7,772.5 936.7,774.5 939.5,774.5 939.5,777 
			936.7,777 936.7,878.8 939.5,878.8 939.5,881.3 936.7,881.3 936.7,883.4 939.8,883.4 948.2,883.4 954.1,883.4 954.1,875.5 
			954.1,874.1 954.1,873.5 954.1,872.1 954.1,871.6 954.1,870.2 954.1,869.7 954.1,868.3 954.1,867.8 954.1,866.4 954.1,865.8 
			954.1,864.5 954.1,863.9 954.1,862.5 954.1,862 954.1,860.6 954.1,860.1 954.1,858.7 954.1,858.2 954.1,856.8 954.1,856.2 
			954.1,854.8 954.1,854.3 954.1,852.9 954.1,852.4 954.1,851 954.1,850.5 954.1,849.1 954.1,848.5 954.1,847.2 954.1,846.6 
			954.1,845.2 954.1,844.7 954.1,843.3 954.1,842.8 954.1,841.4 954.1,840.8 954.1,839.5 954.1,838.9 954.1,837.5 954.1,837 
			954.1,835.6 954.1,835.1 954.1,833.7 954.1,833.2 954.1,831.8 954.1,831.2 954.1,829.8 954.1,829.3 954.1,827.9 954.1,827.4 
			954.1,826 954.1,825.5 954.1,824.1 954.1,823.5 954.1,822.2 954.1,821.6 954.1,820.2 954.1,819.7 954.1,818.3 954.1,817.8 
			954.1,816.4 954.1,815.8 954.1,814.5 954.1,813.9 954.1,812.5 954.1,812 954.1,810.6 954.1,810.1 954.1,808.7 954.1,808.2 
			954.1,806.8 954.1,806.2 954.1,804.8 954.1,804.3 954.1,802.9 954.1,802.4 954.1,801 954.1,800.5 954.1,799.1 954.1,798.5 
			954.1,797.2 954.1,796.6 954.1,795.2 954.1,794.7 954.1,793.3 954.1,792.8 954.1,791.4 954.1,790.9 954.1,789.5 954.1,788.9 
			954.1,787.5 954.1,787 954.1,785.6 954.1,785.1 954.1,783.7 954.1,783.2 954.1,781.8 954.1,781.2 		"/>
		<polygon points="939.5,881.3 939.5,878.8 936.7,878.8 936.7,777 939.5,777 939.5,774.5 936.7,774.5 936.7,772.5 934.4,772.5 
			934.4,883.4 936.7,883.4 936.7,881.3 		"/>
		<rect x="939.8" y="770.9" fill="#BFBEBE" width="8.4" height="1.6"/>
		<rect x="939.8" y="883.4" fill="#BFBEBE" width="8.4" height="1.6"/>
		<rect x="954.1" y="779.9" fill="#BFBEBE" width="5.2" height="1.4"/>
		<rect x="954.1" y="781.8" fill="#BFBEBE" width="5.2" height="1.4"/>
		<rect x="954.1" y="783.7" fill="#BFBEBE" width="5.2" height="1.4"/>
		<rect x="954.1" y="785.6" fill="#BFBEBE" width="5.2" height="1.4"/>
		<rect x="954.1" y="787.5" fill="#BFBEBE" width="5.2" height="1.4"/>
		<rect x="954.1" y="789.5" fill="#BFBEBE" width="5.2" height="1.4"/>
		<rect x="954.1" y="791.4" fill="#BFBEBE" width="5.2" height="1.4"/>
		<polygon fill="#BFBEBE" points="958.4,794.7 959.3,794.7 959.3,793.3 954.1,793.3 954.1,794.7 		"/>
		<polygon fill="#BFBEBE" points="959.3,796.6 959.3,795.2 958.4,795.2 954.1,795.2 954.1,796.6 		"/>
		<rect x="954.1" y="797.2" fill="#BFBEBE" width="5.2" height="1.4"/>
		<rect x="954.1" y="799.1" fill="#BFBEBE" width="5.2" height="1.4"/>
		<rect x="954.1" y="801" fill="#BFBEBE" width="5.2" height="1.4"/>
		<rect x="954.1" y="802.9" fill="#BFBEBE" width="5.2" height="1.4"/>
		<rect x="954.1" y="804.8" fill="#BFBEBE" width="5.2" height="1.4"/>
		<rect x="954.1" y="806.8" fill="#BFBEBE" width="5.2" height="1.4"/>
		<polygon fill="#BFBEBE" points="958.4,810.1 959.3,810.1 959.3,808.7 954.1,808.7 954.1,810.1 		"/>
		<polygon fill="#BFBEBE" points="959.3,812 959.3,810.6 958.4,810.6 954.1,810.6 954.1,812 		"/>
		<rect x="954.1" y="812.5" fill="#BFBEBE" width="5.2" height="1.4"/>
		<rect x="954.1" y="814.5" fill="#BFBEBE" width="5.2" height="1.4"/>
		<rect x="954.1" y="816.4" fill="#BFBEBE" width="5.2" height="1.4"/>
		<rect x="954.1" y="818.3" fill="#BFBEBE" width="5.2" height="1.4"/>
		<rect x="954.1" y="820.2" fill="#BFBEBE" width="5.2" height="1.4"/>
		<rect x="954.1" y="822.2" fill="#BFBEBE" width="5.2" height="1.4"/>
		<polygon fill="#BFBEBE" points="958.4,825.5 959.3,825.5 959.3,824.1 954.1,824.1 954.1,825.5 		"/>
		<polygon fill="#BFBEBE" points="959.3,827.4 959.3,826 958.4,826 954.1,826 954.1,827.4 		"/>
		<rect x="954.1" y="827.9" fill="#BFBEBE" width="5.2" height="1.4"/>
		<rect x="954.1" y="829.8" fill="#BFBEBE" width="5.2" height="1.4"/>
		<rect x="954.1" y="831.8" fill="#BFBEBE" width="5.2" height="1.4"/>
		<rect x="954.1" y="833.7" fill="#BFBEBE" width="5.2" height="1.4"/>
		<rect x="954.1" y="835.6" fill="#BFBEBE" width="5.2" height="1.4"/>
		<rect x="954.1" y="837.5" fill="#BFBEBE" width="5.2" height="1.4"/>
		<polygon fill="#BFBEBE" points="958.4,840.8 959.3,840.8 959.3,839.5 954.1,839.5 954.1,840.8 		"/>
		<polygon fill="#BFBEBE" points="959.3,842.8 959.3,841.4 958.4,841.4 954.1,841.4 954.1,842.8 		"/>
		<rect x="954.1" y="843.3" fill="#BFBEBE" width="5.2" height="1.4"/>
		<rect x="954.1" y="845.2" fill="#BFBEBE" width="5.2" height="1.4"/>
		<rect x="954.1" y="847.2" fill="#BFBEBE" width="5.2" height="1.4"/>
		<rect x="954.1" y="849.1" fill="#BFBEBE" width="5.2" height="1.4"/>
		<rect x="954.1" y="851" fill="#BFBEBE" width="5.2" height="1.4"/>
		<rect x="954.1" y="852.9" fill="#BFBEBE" width="5.2" height="1.4"/>
		<polygon fill="#BFBEBE" points="958.4,856.2 959.3,856.2 959.3,854.8 954.1,854.8 954.1,856.2 		"/>
		<polygon fill="#BFBEBE" points="959.3,858.2 959.3,856.8 958.4,856.8 954.1,856.8 954.1,858.2 		"/>
		<rect x="954.1" y="858.7" fill="#BFBEBE" width="5.2" height="1.4"/>
		<rect x="954.1" y="860.6" fill="#BFBEBE" width="5.2" height="1.4"/>
		<rect x="954.1" y="862.5" fill="#BFBEBE" width="5.2" height="1.4"/>
		<rect x="954.1" y="864.5" fill="#BFBEBE" width="5.2" height="1.4"/>
		<rect x="954.1" y="866.4" fill="#BFBEBE" width="5.2" height="1.4"/>
		<rect x="954.1" y="868.3" fill="#BFBEBE" width="5.2" height="1.4"/>
		<polygon fill="#BFBEBE" points="958.4,871.6 959.3,871.6 959.3,870.2 954.1,870.2 954.1,871.6 		"/>
		<polygon fill="#BFBEBE" points="959.3,873.5 959.3,872.1 958.4,872.1 954.1,872.1 954.1,873.5 		"/>
		<polygon fill="#BFBEBE" points="958.4,875.5 959.3,875.5 959.3,874.1 954.1,874.1 954.1,875.5 		"/>
	</g>
	<g>
		<polygon fill="#FFFFFF" points="1009.9,779.9 1009.9,772.5 1004,772.5 995.7,772.5 992.6,772.5 992.6,774.5 995.3,774.5 
			995.3,777 992.6,777 992.6,878.8 995.3,878.8 995.3,881.3 992.6,881.3 992.6,883.4 995.7,883.4 1004,883.4 1009.9,883.4 
			1009.9,875.5 1009.9,874.1 1009.9,873.5 1009.9,872.1 1009.9,871.6 1009.9,870.2 1009.9,869.7 1009.9,868.3 1009.9,867.8 
			1009.9,866.4 1009.9,865.8 1009.9,864.5 1009.9,863.9 1009.9,862.5 1009.9,862 1009.9,860.6 1009.9,860.1 1009.9,858.7 
			1009.9,858.2 1009.9,856.8 1009.9,856.2 1009.9,854.8 1009.9,854.3 1009.9,852.9 1009.9,852.4 1009.9,851 1009.9,850.5 
			1009.9,849.1 1009.9,848.5 1009.9,847.2 1009.9,846.6 1009.9,845.2 1009.9,844.7 1009.9,843.3 1009.9,842.8 1009.9,841.4 
			1009.9,840.8 1009.9,839.5 1009.9,838.9 1009.9,837.5 1009.9,837 1009.9,835.6 1009.9,835.1 1009.9,833.7 1009.9,833.2 
			1009.9,831.8 1009.9,831.2 1009.9,829.8 1009.9,829.3 1009.9,827.9 1009.9,827.4 1009.9,826 1009.9,825.5 1009.9,824.1 
			1009.9,823.5 1009.9,822.2 1009.9,821.6 1009.9,820.2 1009.9,819.7 1009.9,818.3 1009.9,817.8 1009.9,816.4 1009.9,815.8 
			1009.9,814.5 1009.9,813.9 1009.9,812.5 1009.9,812 1009.9,810.6 1009.9,810.1 1009.9,808.7 1009.9,808.2 1009.9,806.8 
			1009.9,806.2 1009.9,804.8 1009.9,804.3 1009.9,802.9 1009.9,802.4 1009.9,801 1009.9,800.5 1009.9,799.1 1009.9,798.5 
			1009.9,797.2 1009.9,796.6 1009.9,795.2 1009.9,794.7 1009.9,793.3 1009.9,792.8 1009.9,791.4 1009.9,790.9 1009.9,789.5 
			1009.9,788.9 1009.9,787.5 1009.9,787 1009.9,785.6 1009.9,785.1 1009.9,783.7 1009.9,783.2 1009.9,781.8 1009.9,781.2 		"/>
		<polygon points="995.3,881.3 995.3,878.8 992.6,878.8 992.6,777 995.3,777 995.3,774.5 992.6,774.5 992.6,772.5 990.2,772.5 
			990.2,883.4 992.6,883.4 992.6,881.3 		"/>
		<rect x="995.7" y="770.9" fill="#BFBEBE" width="8.4" height="1.6"/>
		<rect x="995.7" y="883.4" fill="#BFBEBE" width="8.4" height="1.6"/>
		<rect x="1009.9" y="779.9" fill="#BFBEBE" width="5.2" height="1.4"/>
		<rect x="1009.9" y="781.8" fill="#BFBEBE" width="5.2" height="1.4"/>
		<rect x="1009.9" y="783.7" fill="#BFBEBE" width="5.2" height="1.4"/>
		<rect x="1009.9" y="785.6" fill="#BFBEBE" width="5.2" height="1.4"/>
		<rect x="1009.9" y="787.5" fill="#BFBEBE" width="5.2" height="1.4"/>
		<rect x="1009.9" y="789.5" fill="#BFBEBE" width="5.2" height="1.4"/>
		<rect x="1009.9" y="791.4" fill="#BFBEBE" width="5.2" height="1.4"/>
		<polygon fill="#BFBEBE" points="1014.2,794.7 1015.2,794.7 1015.2,793.3 1009.9,793.3 1009.9,794.7 		"/>
		<polygon fill="#BFBEBE" points="1015.2,796.6 1015.2,795.2 1014.2,795.2 1009.9,795.2 1009.9,796.6 		"/>
		<rect x="1009.9" y="797.2" fill="#BFBEBE" width="5.2" height="1.4"/>
		<rect x="1009.9" y="799.1" fill="#BFBEBE" width="5.2" height="1.4"/>
		<rect x="1009.9" y="801" fill="#BFBEBE" width="5.2" height="1.4"/>
		<rect x="1009.9" y="802.9" fill="#BFBEBE" width="5.2" height="1.4"/>
		<rect x="1009.9" y="804.8" fill="#BFBEBE" width="5.2" height="1.4"/>
		<rect x="1009.9" y="806.8" fill="#BFBEBE" width="5.2" height="1.4"/>
		<polygon fill="#BFBEBE" points="1014.2,810.1 1015.2,810.1 1015.2,808.7 1009.9,808.7 1009.9,810.1 		"/>
		<polygon fill="#BFBEBE" points="1015.2,812 1015.2,810.6 1014.2,810.6 1009.9,810.6 1009.9,812 		"/>
		<rect x="1009.9" y="812.5" fill="#BFBEBE" width="5.2" height="1.4"/>
		<rect x="1009.9" y="814.5" fill="#BFBEBE" width="5.2" height="1.4"/>
		<rect x="1009.9" y="816.4" fill="#BFBEBE" width="5.2" height="1.4"/>
		<rect x="1009.9" y="818.3" fill="#BFBEBE" width="5.2" height="1.4"/>
		<rect x="1009.9" y="820.2" fill="#BFBEBE" width="5.2" height="1.4"/>
		<rect x="1009.9" y="822.2" fill="#BFBEBE" width="5.2" height="1.4"/>
		<polygon fill="#BFBEBE" points="1014.2,825.5 1015.2,825.5 1015.2,824.1 1009.9,824.1 1009.9,825.5 		"/>
		<polygon fill="#BFBEBE" points="1015.2,827.4 1015.2,826 1014.2,826 1009.9,826 1009.9,827.4 		"/>
		<rect x="1009.9" y="827.9" fill="#BFBEBE" width="5.2" height="1.4"/>
		<rect x="1009.9" y="829.8" fill="#BFBEBE" width="5.2" height="1.4"/>
		<rect x="1009.9" y="831.8" fill="#BFBEBE" width="5.2" height="1.4"/>
		<rect x="1009.9" y="833.7" fill="#BFBEBE" width="5.2" height="1.4"/>
		<rect x="1009.9" y="835.6" fill="#BFBEBE" width="5.2" height="1.4"/>
		<rect x="1009.9" y="837.5" fill="#BFBEBE" width="5.2" height="1.4"/>
		<polygon fill="#BFBEBE" points="1014.2,840.8 1015.2,840.8 1015.2,839.5 1009.9,839.5 1009.9,840.8 		"/>
		<polygon fill="#BFBEBE" points="1015.2,842.8 1015.2,841.4 1014.2,841.4 1009.9,841.4 1009.9,842.8 		"/>
		<rect x="1009.9" y="843.3" fill="#BFBEBE" width="5.2" height="1.4"/>
		<rect x="1009.9" y="845.2" fill="#BFBEBE" width="5.2" height="1.4"/>
		<rect x="1009.9" y="847.2" fill="#BFBEBE" width="5.2" height="1.4"/>
		<rect x="1009.9" y="849.1" fill="#BFBEBE" width="5.2" height="1.4"/>
		<rect x="1009.9" y="851" fill="#BFBEBE" width="5.2" height="1.4"/>
		<rect x="1009.9" y="852.9" fill="#BFBEBE" width="5.2" height="1.4"/>
		<polygon fill="#BFBEBE" points="1014.2,856.2 1015.2,856.2 1015.2,854.8 1009.9,854.8 1009.9,856.2 		"/>
		<polygon fill="#BFBEBE" points="1015.2,858.2 1015.2,856.8 1014.2,856.8 1009.9,856.8 1009.9,858.2 		"/>
		<rect x="1009.9" y="858.7" fill="#BFBEBE" width="5.2" height="1.4"/>
		<rect x="1009.9" y="860.6" fill="#BFBEBE" width="5.2" height="1.4"/>
		<rect x="1009.9" y="862.5" fill="#BFBEBE" width="5.2" height="1.4"/>
		<rect x="1009.9" y="864.5" fill="#BFBEBE" width="5.2" height="1.4"/>
		<rect x="1009.9" y="866.4" fill="#BFBEBE" width="5.2" height="1.4"/>
		<rect x="1009.9" y="868.3" fill="#BFBEBE" width="5.2" height="1.4"/>
		<polygon fill="#BFBEBE" points="1014.2,871.6 1015.2,871.6 1015.2,870.2 1009.9,870.2 1009.9,871.6 		"/>
		<polygon fill="#BFBEBE" points="1015.2,873.5 1015.2,872.1 1014.2,872.1 1009.9,872.1 1009.9,873.5 		"/>
		<polygon fill="#BFBEBE" points="1014.2,875.5 1015.2,875.5 1015.2,874.1 1009.9,874.1 1009.9,875.5 		"/>
	</g>
	<g>
		<polygon fill="#FFFFFF" points="954.1,900.9 954.1,893.6 948.2,893.6 939.8,893.6 936.7,893.6 936.7,895.6 939.5,895.6 
			939.5,898.1 936.7,898.1 936.7,999.9 939.5,999.9 939.5,1002.4 936.7,1002.4 936.7,1004.5 939.8,1004.5 948.2,1004.5 
			954.1,1004.5 954.1,996.5 954.1,995.2 954.1,994.6 954.1,993.2 954.1,992.7 954.1,991.3 954.1,990.8 954.1,989.4 954.1,988.9 
			954.1,987.5 954.1,986.9 954.1,985.5 954.1,985 954.1,983.6 954.1,983.1 954.1,981.7 954.1,981.2 954.1,979.8 954.1,979.2 
			954.1,977.9 954.1,977.3 954.1,975.9 954.1,975.4 954.1,974 954.1,973.5 954.1,972.1 954.1,971.5 954.1,970.2 954.1,969.6 
			954.1,968.2 954.1,967.7 954.1,966.3 954.1,965.8 954.1,964.4 954.1,963.9 954.1,962.5 954.1,961.9 954.1,960.5 954.1,960 
			954.1,958.6 954.1,958.1 954.1,956.7 954.1,956.2 954.1,954.8 954.1,954.2 954.1,952.9 954.1,952.3 954.1,950.9 954.1,950.4 
			954.1,949 954.1,948.5 954.1,947.1 954.1,946.5 954.1,945.2 954.1,944.6 954.1,943.2 954.1,942.7 954.1,941.3 954.1,940.8 
			954.1,939.4 954.1,938.9 954.1,937.5 954.1,936.9 954.1,935.6 954.1,935 954.1,933.6 954.1,933.1 954.1,931.7 954.1,931.2 
			954.1,929.8 954.1,929.2 954.1,927.9 954.1,927.3 954.1,925.9 954.1,925.4 954.1,924 954.1,923.5 954.1,922.1 954.1,921.6 
			954.1,920.2 954.1,919.6 954.1,918.2 954.1,917.7 954.1,916.3 954.1,915.8 954.1,914.4 954.1,913.9 954.1,912.5 954.1,911.9 
			954.1,910.6 954.1,910 954.1,908.6 954.1,908.1 954.1,906.7 954.1,906.2 954.1,904.8 954.1,904.2 954.1,902.9 954.1,902.3 		"/>
		<polygon points="939.5,1002.4 939.5,999.9 936.7,999.9 936.7,898.1 939.5,898.1 939.5,895.6 936.7,895.6 936.7,893.6 934.4,893.6 
			934.4,1004.5 936.7,1004.5 936.7,1002.4 		"/>
		<rect x="939.8" y="891.9" fill="#BFBEBE" width="8.4" height="1.6"/>
		<rect x="939.8" y="1004.5" fill="#BFBEBE" width="8.4" height="1.6"/>
		<rect x="954.1" y="900.9" fill="#BFBEBE" width="5.2" height="1.4"/>
		<rect x="954.1" y="902.9" fill="#BFBEBE" width="5.2" height="1.4"/>
		<rect x="954.1" y="904.8" fill="#BFBEBE" width="5.2" height="1.4"/>
		<rect x="954.1" y="906.7" fill="#BFBEBE" width="5.2" height="1.4"/>
		<rect x="954.1" y="908.6" fill="#BFBEBE" width="5.2" height="1.4"/>
		<rect x="954.1" y="910.6" fill="#BFBEBE" width="5.2" height="1.4"/>
		<rect x="954.1" y="912.5" fill="#BFBEBE" width="5.2" height="1.4"/>
		<polygon fill="#BFBEBE" points="958.4,915.8 959.3,915.8 959.3,914.4 954.1,914.4 954.1,915.8 		"/>
		<polygon fill="#BFBEBE" points="959.3,917.7 959.3,916.3 958.4,916.3 954.1,916.3 954.1,917.7 		"/>
		<rect x="954.1" y="918.2" fill="#BFBEBE" width="5.2" height="1.4"/>
		<rect x="954.1" y="920.2" fill="#BFBEBE" width="5.2" height="1.4"/>
		<rect x="954.1" y="922.1" fill="#BFBEBE" width="5.2" height="1.4"/>
		<rect x="954.1" y="924" fill="#BFBEBE" width="5.2" height="1.4"/>
		<rect x="954.1" y="925.9" fill="#BFBEBE" width="5.2" height="1.4"/>
		<rect x="954.1" y="927.9" fill="#BFBEBE" width="5.2" height="1.4"/>
		<polygon fill="#BFBEBE" points="958.4,931.2 959.3,931.2 959.3,929.8 954.1,929.8 954.1,931.2 		"/>
		<polygon fill="#BFBEBE" points="959.3,933.1 959.3,931.7 958.4,931.7 954.1,931.7 954.1,933.1 		"/>
		<rect x="954.1" y="933.6" fill="#BFBEBE" width="5.2" height="1.4"/>
		<rect x="954.1" y="935.6" fill="#BFBEBE" width="5.2" height="1.4"/>
		<rect x="954.1" y="937.5" fill="#BFBEBE" width="5.2" height="1.4"/>
		<rect x="954.1" y="939.4" fill="#BFBEBE" width="5.2" height="1.4"/>
		<rect x="954.1" y="941.3" fill="#BFBEBE" width="5.2" height="1.4"/>
		<rect x="954.1" y="943.2" fill="#BFBEBE" width="5.2" height="1.4"/>
		<polygon fill="#BFBEBE" points="958.4,946.5 959.3,946.5 959.3,945.2 954.1,945.2 954.1,946.5 		"/>
		<polygon fill="#BFBEBE" points="959.3,948.5 959.3,947.1 958.4,947.1 954.1,947.1 954.1,948.5 		"/>
		<rect x="954.1" y="949" fill="#BFBEBE" width="5.2" height="1.4"/>
		<rect x="954.1" y="950.9" fill="#BFBEBE" width="5.2" height="1.4"/>
		<rect x="954.1" y="952.9" fill="#BFBEBE" width="5.2" height="1.4"/>
		<rect x="954.1" y="954.8" fill="#BFBEBE" width="5.2" height="1.4"/>
		<rect x="954.1" y="956.7" fill="#BFBEBE" width="5.2" height="1.4"/>
		<rect x="954.1" y="958.6" fill="#BFBEBE" width="5.2" height="1.4"/>
		<polygon fill="#BFBEBE" points="958.4,961.9 959.3,961.9 959.3,960.5 954.1,960.5 954.1,961.9 		"/>
		<polygon fill="#BFBEBE" points="959.3,963.9 959.3,962.5 958.4,962.5 954.1,962.5 954.1,963.9 		"/>
		<rect x="954.1" y="964.4" fill="#BFBEBE" width="5.2" height="1.4"/>
		<rect x="954.1" y="966.3" fill="#BFBEBE" width="5.2" height="1.4"/>
		<rect x="954.1" y="968.2" fill="#BFBEBE" width="5.2" height="1.4"/>
		<rect x="954.1" y="970.2" fill="#BFBEBE" width="5.2" height="1.4"/>
		<rect x="954.1" y="972.1" fill="#BFBEBE" width="5.2" height="1.4"/>
		<rect x="954.1" y="974" fill="#BFBEBE" width="5.2" height="1.4"/>
		<polygon fill="#BFBEBE" points="958.4,977.3 959.3,977.3 959.3,975.9 954.1,975.9 954.1,977.3 		"/>
		<polygon fill="#BFBEBE" points="959.3,979.2 959.3,977.9 958.4,977.9 954.1,977.9 954.1,979.2 		"/>
		<rect x="954.1" y="979.8" fill="#BFBEBE" width="5.2" height="1.4"/>
		<rect x="954.1" y="981.7" fill="#BFBEBE" width="5.2" height="1.4"/>
		<rect x="954.1" y="983.6" fill="#BFBEBE" width="5.2" height="1.4"/>
		<rect x="954.1" y="985.5" fill="#BFBEBE" width="5.2" height="1.4"/>
		<rect x="954.1" y="987.5" fill="#BFBEBE" width="5.2" height="1.4"/>
		<rect x="954.1" y="989.4" fill="#BFBEBE" width="5.2" height="1.4"/>
		<polygon fill="#BFBEBE" points="958.4,992.7 959.3,992.7 959.3,991.3 954.1,991.3 954.1,992.7 		"/>
		<polygon fill="#BFBEBE" points="959.3,994.6 959.3,993.2 958.4,993.2 954.1,993.2 954.1,994.6 		"/>
		<polygon fill="#BFBEBE" points="958.4,996.5 959.3,996.5 959.3,995.2 954.1,995.2 954.1,996.5 		"/>
	</g>
	<g>
		<polygon fill="#FFFFFF" points="1009.9,900.9 1009.9,893.6 1004,893.6 995.7,893.6 992.6,893.6 992.6,895.6 995.3,895.6 
			995.3,898.1 992.6,898.1 992.6,999.9 995.3,999.9 995.3,1002.4 992.6,1002.4 992.6,1004.5 995.7,1004.5 1004,1004.5 
			1009.9,1004.5 1009.9,996.5 1009.9,995.2 1009.9,994.6 1009.9,993.2 1009.9,992.7 1009.9,991.3 1009.9,990.8 1009.9,989.4 
			1009.9,988.9 1009.9,987.5 1009.9,986.9 1009.9,985.5 1009.9,985 1009.9,983.6 1009.9,983.1 1009.9,981.7 1009.9,981.2 
			1009.9,979.8 1009.9,979.2 1009.9,977.9 1009.9,977.3 1009.9,975.9 1009.9,975.4 1009.9,974 1009.9,973.5 1009.9,972.1 
			1009.9,971.5 1009.9,970.2 1009.9,969.6 1009.9,968.2 1009.9,967.7 1009.9,966.3 1009.9,965.8 1009.9,964.4 1009.9,963.9 
			1009.9,962.5 1009.9,961.9 1009.9,960.5 1009.9,960 1009.9,958.6 1009.9,958.1 1009.9,956.7 1009.9,956.2 1009.9,954.8 
			1009.9,954.2 1009.9,952.9 1009.9,952.3 1009.9,950.9 1009.9,950.4 1009.9,949 1009.9,948.5 1009.9,947.1 1009.9,946.5 
			1009.9,945.2 1009.9,944.6 1009.9,943.2 1009.9,942.7 1009.9,941.3 1009.9,940.8 1009.9,939.4 1009.9,938.9 1009.9,937.5 
			1009.9,936.9 1009.9,935.6 1009.9,935 1009.9,933.6 1009.9,933.1 1009.9,931.7 1009.9,931.2 1009.9,929.8 1009.9,929.2 
			1009.9,927.9 1009.9,927.3 1009.9,925.9 1009.9,925.4 1009.9,924 1009.9,923.5 1009.9,922.1 1009.9,921.6 1009.9,920.2 
			1009.9,919.6 1009.9,918.2 1009.9,917.7 1009.9,916.3 1009.9,915.8 1009.9,914.4 1009.9,913.9 1009.9,912.5 1009.9,911.9 
			1009.9,910.6 1009.9,910 1009.9,908.6 1009.9,908.1 1009.9,906.7 1009.9,906.2 1009.9,904.8 1009.9,904.2 1009.9,902.9 
			1009.9,902.3 		"/>
		<polygon points="995.3,1002.4 995.3,999.9 992.6,999.9 992.6,898.1 995.3,898.1 995.3,895.6 992.6,895.6 992.6,893.6 990.2,893.6 
			990.2,1004.5 992.6,1004.5 992.6,1002.4 		"/>
		<rect x="995.7" y="891.9" fill="#BFBEBE" width="8.4" height="1.6"/>
		<rect x="995.7" y="1004.5" fill="#BFBEBE" width="8.4" height="1.6"/>
		<rect x="1009.9" y="900.9" fill="#BFBEBE" width="5.2" height="1.4"/>
		<rect x="1009.9" y="902.9" fill="#BFBEBE" width="5.2" height="1.4"/>
		<rect x="1009.9" y="904.8" fill="#BFBEBE" width="5.2" height="1.4"/>
		<rect x="1009.9" y="906.7" fill="#BFBEBE" width="5.2" height="1.4"/>
		<rect x="1009.9" y="908.6" fill="#BFBEBE" width="5.2" height="1.4"/>
		<rect x="1009.9" y="910.6" fill="#BFBEBE" width="5.2" height="1.4"/>
		<rect x="1009.9" y="912.5" fill="#BFBEBE" width="5.2" height="1.4"/>
		<polygon fill="#BFBEBE" points="1014.2,915.8 1015.2,915.8 1015.2,914.4 1009.9,914.4 1009.9,915.8 		"/>
		<polygon fill="#BFBEBE" points="1015.2,917.7 1015.2,916.3 1014.2,916.3 1009.9,916.3 1009.9,917.7 		"/>
		<rect x="1009.9" y="918.2" fill="#BFBEBE" width="5.2" height="1.4"/>
		<rect x="1009.9" y="920.2" fill="#BFBEBE" width="5.2" height="1.4"/>
		<rect x="1009.9" y="922.1" fill="#BFBEBE" width="5.2" height="1.4"/>
		<rect x="1009.9" y="924" fill="#BFBEBE" width="5.2" height="1.4"/>
		<rect x="1009.9" y="925.9" fill="#BFBEBE" width="5.2" height="1.4"/>
		<rect x="1009.9" y="927.9" fill="#BFBEBE" width="5.2" height="1.4"/>
		<polygon fill="#BFBEBE" points="1014.2,931.2 1015.2,931.2 1015.2,929.8 1009.9,929.8 1009.9,931.2 		"/>
		<polygon fill="#BFBEBE" points="1015.2,933.1 1015.2,931.7 1014.2,931.7 1009.9,931.7 1009.9,933.1 		"/>
		<rect x="1009.9" y="933.6" fill="#BFBEBE" width="5.2" height="1.4"/>
		<rect x="1009.9" y="935.6" fill="#BFBEBE" width="5.2" height="1.4"/>
		<rect x="1009.9" y="937.5" fill="#BFBEBE" width="5.2" height="1.4"/>
		<rect x="1009.9" y="939.4" fill="#BFBEBE" width="5.2" height="1.4"/>
		<rect x="1009.9" y="941.3" fill="#BFBEBE" width="5.2" height="1.4"/>
		<rect x="1009.9" y="943.2" fill="#BFBEBE" width="5.2" height="1.4"/>
		<polygon fill="#BFBEBE" points="1014.2,946.5 1015.2,946.5 1015.2,945.2 1009.9,945.2 1009.9,946.5 		"/>
		<polygon fill="#BFBEBE" points="1015.2,948.5 1015.2,947.1 1014.2,947.1 1009.9,947.1 1009.9,948.5 		"/>
		<rect x="1009.9" y="949" fill="#BFBEBE" width="5.2" height="1.4"/>
		<rect x="1009.9" y="950.9" fill="#BFBEBE" width="5.2" height="1.4"/>
		<rect x="1009.9" y="952.9" fill="#BFBEBE" width="5.2" height="1.4"/>
		<rect x="1009.9" y="954.8" fill="#BFBEBE" width="5.2" height="1.4"/>
		<rect x="1009.9" y="956.7" fill="#BFBEBE" width="5.2" height="1.4"/>
		<rect x="1009.9" y="958.6" fill="#BFBEBE" width="5.2" height="1.4"/>
		<polygon fill="#BFBEBE" points="1014.2,961.9 1015.2,961.9 1015.2,960.5 1009.9,960.5 1009.9,961.9 		"/>
		<polygon fill="#BFBEBE" points="1015.2,963.9 1015.2,962.5 1014.2,962.5 1009.9,962.5 1009.9,963.9 		"/>
		<rect x="1009.9" y="964.4" fill="#BFBEBE" width="5.2" height="1.4"/>
		<rect x="1009.9" y="966.3" fill="#BFBEBE" width="5.2" height="1.4"/>
		<rect x="1009.9" y="968.2" fill="#BFBEBE" width="5.2" height="1.4"/>
		<rect x="1009.9" y="970.2" fill="#BFBEBE" width="5.2" height="1.4"/>
		<rect x="1009.9" y="972.1" fill="#BFBEBE" width="5.2" height="1.4"/>
		<rect x="1009.9" y="974" fill="#BFBEBE" width="5.2" height="1.4"/>
		<polygon fill="#BFBEBE" points="1014.2,977.3 1015.2,977.3 1015.2,975.9 1009.9,975.9 1009.9,977.3 		"/>
		<polygon fill="#BFBEBE" points="1015.2,979.2 1015.2,977.9 1014.2,977.9 1009.9,977.9 1009.9,979.2 		"/>
		<rect x="1009.9" y="979.8" fill="#BFBEBE" width="5.2" height="1.4"/>
		<rect x="1009.9" y="981.7" fill="#BFBEBE" width="5.2" height="1.4"/>
		<rect x="1009.9" y="983.6" fill="#BFBEBE" width="5.2" height="1.4"/>
		<rect x="1009.9" y="985.5" fill="#BFBEBE" width="5.2" height="1.4"/>
		<rect x="1009.9" y="987.5" fill="#BFBEBE" width="5.2" height="1.4"/>
		<rect x="1009.9" y="989.4" fill="#BFBEBE" width="5.2" height="1.4"/>
		<polygon fill="#BFBEBE" points="1014.2,992.7 1015.2,992.7 1015.2,991.3 1009.9,991.3 1009.9,992.7 		"/>
		<polygon fill="#BFBEBE" points="1015.2,994.6 1015.2,993.2 1014.2,993.2 1009.9,993.2 1009.9,994.6 		"/>
		<polygon fill="#BFBEBE" points="1014.2,996.5 1015.2,996.5 1015.2,995.2 1009.9,995.2 1009.9,996.5 		"/>
	</g>
</g>
<rect x="1819.9" y="123.1" fill="#CBCACA" width="9.5" height="19.1"/>
<rect x="1819.9" y="146.6" fill="#CBCACA" width="9.5" height="19.1"/>
<rect x="1819.9" y="169.5" fill="#CBCACA" width="9.5" height="19.1"/>
<rect x="1819.9" y="193.6" fill="#CBCACA" width="9.5" height="19.1"/>
<rect x="1819.9" y="241.3" fill="#CBCACA" width="9.5" height="19.1"/>
<rect x="1819.9" y="218.4" fill="#CBCACA" width="9.5" height="19.1"/>
<rect x="1819.9" y="357.5" fill="#CBCACA" width="9.5" height="19.1"/>
<rect x="1819.9" y="381" fill="#CBCACA" width="9.5" height="19.1"/>
<rect x="1693.5" y="123.1" fill="#CBCACA" width="9.5" height="19.1"/>
<rect x="1693.5" y="147.3" fill="#CBCACA" width="9.5" height="19.1"/>
<rect x="1693.5" y="194.3" fill="#CBCACA" width="9.5" height="19.1"/>
<rect x="1693.5" y="170.1" fill="#CBCACA" width="9.5" height="19.1"/>
<rect x="1693.5" y="240.6" fill="#CBCACA" width="9.5" height="19.1"/>
<rect x="1693.5" y="217.8" fill="#CBCACA" width="9.5" height="19.1"/>
<rect x="1693.5" y="357.5" fill="#CBCACA" width="9.5" height="19.1"/>
<rect x="1693.5" y="381.7" fill="#CBCACA" width="9.5" height="19.1"/>
<path fill="#333333" d="M1813.6,101.5h-104.2c-3.2,0-6.4,3.2-6.4,6.4v102.3l0,0v47v46.4v0.6v45.7v0.6v64.8c0,3.2,3.2,6.4,6.4,6.4
	h104.2c3.2,0,6.4-3.2,6.4-6.4v-64.8v-0.6v-45.7v-0.6v-46.4v-47l0,0V107.9C1819.9,104.7,1816.8,101.5,1813.6,101.5z"/>
<path fill="#1B1C1C" d="M1745,101.5h33c0,8.9-7.6,16.5-16.5,16.5C1752,118,1745,111,1745,101.5z"/>
<circle fill="#1B1C1C" cx="1761.5" cy="367.1" r="16.5"/>
<circle fill="#1B1C1C" cx="1761.5" cy="156.8" r="16.5"/>
<rect x="1819.9" y="288.3" fill="#CBCACA" width="9.5" height="19.1"/>
<rect x="1819.9" y="265.4" fill="#CBCACA" width="9.5" height="19.1"/>
<rect x="1693.5" y="287.7" fill="#CBCACA" width="9.5" height="19.1"/>
<rect x="1693.5" y="264.8" fill="#CBCACA" width="9.5" height="19.1"/>
<rect x="1819.9" y="334.7" fill="#CBCACA" width="9.5" height="19.1"/>
<rect x="1819.9" y="311.8" fill="#CBCACA" width="9.5" height="19.1"/>
<rect x="1693.5" y="334" fill="#CBCACA" width="9.5" height="19.1"/>
<rect x="1693.5" y="311.2" fill="#CBCACA" width="9.5" height="19.1"/>
</svg>
