<?xml version="1.0" encoding="utf-8"?>
<!-- Generator: Adobe Illustrator 18.0.0, SVG Export Plug-In . SVG Version: 6.00 Build 0)  -->
<!DOCTYPE svg PUBLIC "-//W3C//DTD SVG 1.1//EN" "http://www.w3.org/Graphics/SVG/1.1/DTD/svg11.dtd">
<svg version="1.1" id="Vrstva_1" xmlns="http://www.w3.org/2000/svg" xmlns:xlink="http://www.w3.org/1999/xlink" x="0px" y="0px"
	 viewBox="0 0 45 38" enable-background="new 0 0 45 38" xml:space="preserve">
<polygon fill="none" stroke="#FFFFFF" stroke-miterlimit="10" points="23.7,36.3 23.7,23.2 2.7,1.7 "/>
<g>
	<polygon fill="#20BBEE" points="40.4,6.7 40.4,7.8 41.5,7.8 42.1,7 42.1,6.2 40.9,6.2 	"/>
	<rect x="34.4" y="14.2" fill="#20BBEE" width="1.7" height="1.7"/>
	<polygon fill="#20BBEE" points="34.4,17.9 35.5,17.9 36,17 36,16.2 34.4,16.2 	"/>
	<polygon fill="#20BBEE" points="42.8,4.2 42.4,4.6 42.4,5.8 42.8,5.8 43.8,4.2 	"/>
	<polygon fill="#20BBEE" points="32.3,14.9 32.3,15.9 34,15.9 34,14.2 33.1,14.2 	"/>
	<rect x="32.3" y="16.2" fill="#20BBEE" width="1.7" height="1.7"/>
	<rect x="32.3" y="18.2" fill="#20BBEE" width="1.7" height="1.7"/>
	<polygon fill="#20BBEE" points="32.3,21.9 33,21.9 34,20.3 34,20.2 32.3,20.2 	"/>
	<polygon fill="#20BBEE" points="36.4,10.8 36.4,11.9 38,11.9 38,10.2 37,10.2 	"/>
	<polygon fill="#20BBEE" points="34.4,12.9 34.4,13.9 36,13.9 36,12.2 35,12.2 	"/>
	<rect x="28.3" y="22.2" fill="#20BBEE" width="1.7" height="1.7"/>
	<polygon fill="#20BBEE" points="38.4,11.9 39.1,11.9 40,10.3 40,10.2 38.4,10.2 	"/>
	<rect x="28.3" y="20.2" fill="#20BBEE" width="1.7" height="1.7"/>
	<polygon fill="#20BBEE" points="38.4,8.7 38.4,9.9 40,9.9 40,8.2 38.9,8.2 	"/>
	<polygon fill="#20BBEE" points="36.4,13.9 37.9,13.9 38,13.6 38,12.2 36.4,12.2 	"/>
	<polygon fill="#20BBEE" points="26.3,31.9 26.9,31.9 28,30.3 26.3,30.3 	"/>
	<polygon fill="#20BBEE" points="24.3,23.2 24.3,23.9 26,23.9 26,22.2 25.2,22.2 	"/>
	<rect x="26.3" y="24.2" fill="#20BBEE" width="1.7" height="1.7"/>
	<rect x="26.3" y="26.3" fill="#20BBEE" width="1.7" height="1.7"/>
	<rect x="26.3" y="28.3" fill="#20BBEE" width="1.7" height="1.7"/>
	<rect x="24.3" y="30.3" fill="#20BBEE" width="1.7" height="1.7"/>
	<rect x="24.3" y="24.2" fill="#20BBEE" width="1.7" height="1.7"/>
	<rect x="26.3" y="22.2" fill="#20BBEE" width="1.7" height="1.7"/>
	<polygon fill="#20BBEE" points="24.3,34 25.7,34 26,33.5 26,32.3 24.3,32.3 	"/>
	<rect x="24.3" y="26.3" fill="#20BBEE" width="1.7" height="1.7"/>
	<rect x="24.3" y="28.3" fill="#20BBEE" width="1.7" height="1.7"/>
	<polygon fill="#20BBEE" points="30.3,26.3 30.4,26.3 30.3,26.3 	"/>
	<polygon fill="#20BBEE" points="30.3,23.9 31.8,23.9 32,23.6 32,22.2 30.3,22.2 	"/>
	<polygon fill="#20BBEE" points="30.3,17 30.3,17.9 32,17.9 32,16.2 31.1,16.2 	"/>
	<rect x="30.3" y="18.2" fill="#20BBEE" width="1.7" height="1.7"/>
	<rect x="30.3" y="20.2" fill="#20BBEE" width="1.7" height="1.7"/>
	<polygon fill="#20BBEE" points="26.3,21.1 26.3,21.9 28,21.9 28,20.2 27.2,20.2 	"/>
	<polygon fill="#20BBEE" points="28.3,27.9 29.4,27.9 30,26.9 30,26.3 28.3,26.3 	"/>
	<polygon fill="#20BBEE" points="28.3,19.1 28.3,19.9 30,19.9 30,18.2 29.1,18.2 	"/>
	<rect x="28.3" y="24.2" fill="#20BBEE" width="1.7" height="1.7"/>
</g>
</svg>
